<svg width="200" height="200" viewBox="0 0 200 200" fill="none" xmlns="http://www.w3.org/2000/svg">
<g clip-path="url(#clip0_4953_6523)">
<path d="M28.8765 22.6709H4.5835L16.73 2.11035L28.8765 22.6709Z" stroke="#29BDFC" stroke-opacity="0.2" stroke-width="0.668253"/>
<path d="M17.9116 4.11035L18.1987 3.94043L27.9927 20.5186H27.9937L27.7056 20.6885L28.8765 22.6709H26.5239V23.0049H6.93701V22.6709H4.5835L5.75537 20.6885L5.46729 20.5186L15.2603 3.93945L15.2612 3.94043L15.5493 4.11035L16.73 2.11035L17.9116 4.11035Z" stroke="#29BDFC" stroke-width="0.668253" stroke-dasharray="4.01 13.37"/>
<path d="M12.1689 1.62109H-12.124L0.0224609 22.1816L12.1689 1.62109Z" stroke="#29BDFC" stroke-opacity="0.2" stroke-width="0.668253"/>
<path d="M1.2041 20.1816L1.49121 20.3516L11.2852 3.77344H11.2861L10.998 3.60352L12.1689 1.62109H9.81641V1.28711H-9.77051V1.62109H-12.124L-10.9521 3.60352L-11.2402 3.77344L-1.44727 20.3525L-1.44629 20.3516L-1.1582 20.1816L0.0224609 22.1816L1.2041 20.1816Z" stroke="#29BDFC" stroke-width="0.668253" stroke-dasharray="4.01 13.37"/>
<path d="M62.1885 22.6709H37.8955L50.042 2.11035L62.1885 22.6709Z" stroke="#29BDFC" stroke-opacity="0.2" stroke-width="0.668253"/>
<path d="M51.2236 4.11035L51.5107 3.94043L61.3047 20.5186H61.3057L61.0176 20.6885L62.1885 22.6709H59.8359V23.0049H40.249V22.6709H37.8955L39.0674 20.6885L38.7793 20.5186L48.5723 3.93945L48.5732 3.94043L48.8613 4.11035L50.042 2.11035L51.2236 4.11035Z" stroke="#29BDFC" stroke-width="0.668253" stroke-dasharray="4.01 13.37"/>
<path d="M45.48 1.62109H21.187L33.3335 22.1816L45.48 1.62109Z" stroke="#29BDFC" stroke-opacity="0.2" stroke-width="0.668253"/>
<path d="M34.5151 20.1816L34.8022 20.3516L44.5962 3.77344H44.5972L44.3091 3.60352L45.48 1.62109H43.1274V1.28711H23.5405V1.62109H21.187L22.3589 3.60352L22.0708 3.77344L31.8638 20.3525L31.8647 20.3516L32.1528 20.1816L33.3335 22.1816L34.5151 20.1816Z" stroke="#29BDFC" stroke-width="0.668253" stroke-dasharray="4.01 13.37"/>
<path d="M95.5005 22.6709H71.2075L83.354 2.11035L95.5005 22.6709Z" stroke="#29BDFC" stroke-opacity="0.2" stroke-width="0.668253"/>
<path d="M84.5356 4.11035L84.8228 3.94043L94.6167 20.5186H94.6177L94.3296 20.6885L95.5005 22.6709H93.1479V23.0049H73.561V22.6709H71.2075L72.3794 20.6885L72.0913 20.5186L81.8843 3.93945L81.8853 3.94043L82.1733 4.11035L83.354 2.11035L84.5356 4.11035Z" stroke="#29BDFC" stroke-width="0.668253" stroke-dasharray="4.01 13.37"/>
<path d="M78.7915 1.62109H54.4985L66.645 22.1816L78.7915 1.62109Z" stroke="#29BDFC" stroke-opacity="0.2" stroke-width="0.668253"/>
<path d="M67.8267 20.1816L68.1138 20.3516L77.9077 3.77344H77.9087L77.6206 3.60352L78.7915 1.62109H76.439V1.28711H56.8521V1.62109H54.4985L55.6704 3.60352L55.3823 3.77344L65.1753 20.3525L65.1763 20.3516L65.4644 20.1816L66.645 22.1816L67.8267 20.1816Z" stroke="#29BDFC" stroke-width="0.668253" stroke-dasharray="4.01 13.37"/>
<path d="M128.813 22.6709H104.52L116.667 2.11035L128.813 22.6709Z" stroke="#29BDFC" stroke-opacity="0.2" stroke-width="0.668253"/>
<path d="M117.848 4.11035L118.135 3.94043L127.929 20.5186H127.93L127.642 20.6885L128.813 22.6709H126.46V23.0049H106.874V22.6709H104.52L105.692 20.6885L105.404 20.5186L115.197 3.93945L115.198 3.94043L115.486 4.11035L116.667 2.11035L117.848 4.11035Z" stroke="#29BDFC" stroke-width="0.668253" stroke-dasharray="4.01 13.37"/>
<path d="M112.104 1.62109H87.811L99.9575 22.1816L112.104 1.62109Z" stroke="#29BDFC" stroke-opacity="0.2" stroke-width="0.668253"/>
<path d="M101.139 20.1816L101.426 20.3516L111.22 3.77344H111.221L110.933 3.60352L112.104 1.62109H109.751V1.28711H90.1646V1.62109H87.811L88.9829 3.60352L88.6948 3.77344L98.4878 20.3525L98.4888 20.3516L98.7769 20.1816L99.9575 22.1816L101.139 20.1816Z" stroke="#29BDFC" stroke-width="0.668253" stroke-dasharray="4.01 13.37"/>
<path d="M162.125 22.6709H137.833L149.979 2.11035L162.125 22.6709Z" stroke="#29BDFC" stroke-opacity="0.2" stroke-width="0.668253"/>
<path d="M151.161 4.11035L151.448 3.94043L161.242 20.5186H161.243L160.955 20.6885L162.125 22.6709H159.773V23.0049H140.186V22.6709H137.833L139.004 20.6885L138.716 20.5186L148.509 3.93945L148.51 3.94043L148.798 4.11035L149.979 2.11035L151.161 4.11035Z" stroke="#29BDFC" stroke-width="0.668253" stroke-dasharray="4.01 13.37"/>
<path d="M145.416 1.62109H121.123L133.27 22.1816L145.416 1.62109Z" stroke="#29BDFC" stroke-opacity="0.2" stroke-width="0.668253"/>
<path d="M134.451 20.1816L134.738 20.3516L144.532 3.77344H144.533L144.245 3.60352L145.416 1.62109H143.063V1.28711H123.477V1.62109H121.123L122.295 3.60352L122.007 3.77344L131.8 20.3525L131.801 20.3516L132.089 20.1816L133.27 22.1816L134.451 20.1816Z" stroke="#29BDFC" stroke-width="0.668253" stroke-dasharray="4.01 13.37"/>
<path d="M195.437 22.6709H171.144L183.29 2.11035L195.437 22.6709Z" stroke="#29BDFC" stroke-opacity="0.2" stroke-width="0.668253"/>
<path d="M184.472 4.11035L184.759 3.94043L194.553 20.5186H194.554L194.266 20.6885L195.437 22.6709H193.084V23.0049H173.497V22.6709H171.144L172.315 20.6885L172.027 20.5186L181.82 3.93945L181.821 3.94043L182.109 4.11035L183.29 2.11035L184.472 4.11035Z" stroke="#29BDFC" stroke-width="0.668253" stroke-dasharray="4.01 13.37"/>
<path d="M178.729 1.62109H154.436L166.582 22.1816L178.729 1.62109Z" stroke="#29BDFC" stroke-opacity="0.2" stroke-width="0.668253"/>
<path d="M167.764 20.1816L168.051 20.3516L177.845 3.77344H177.846L177.558 3.60352L178.729 1.62109H176.376V1.28711H156.789V1.62109H154.436L155.607 3.60352L155.319 3.77344L165.112 20.3525L165.113 20.3516L165.401 20.1816L166.582 22.1816L167.764 20.1816Z" stroke="#29BDFC" stroke-width="0.668253" stroke-dasharray="4.01 13.37"/>
<path d="M212.04 1.62109H187.747L199.893 22.1816L212.04 1.62109Z" stroke="#29BDFC" stroke-opacity="0.2" stroke-width="0.668253"/>
<path d="M201.075 20.1816L201.362 20.3516L211.156 3.77344H211.157L210.869 3.60352L212.04 1.62109H209.687V1.28711H190.1V1.62109H187.747L188.918 3.60352L188.63 3.77344L198.423 20.3525L198.424 20.3516L198.712 20.1816L199.893 22.1816L201.075 20.1816Z" stroke="#29BDFC" stroke-width="0.668253" stroke-dasharray="4.01 13.37"/>
<path d="M28.8765 26.7168H4.5835L16.73 47.2773L28.8765 26.7168Z" stroke="#29BDFC" stroke-opacity="0.2" stroke-width="0.668253"/>
<path d="M17.9116 45.2773L18.1987 45.4473L27.9927 28.8691H27.9937L27.7056 28.6992L28.8765 26.7168H26.5239V26.3828H6.93701V26.7168H4.5835L5.75537 28.6992L5.46729 28.8691L15.2603 45.4482L15.2612 45.4473L15.5493 45.2773L16.73 47.2773L17.9116 45.2773Z" stroke="#29BDFC" stroke-width="0.668253" stroke-dasharray="4.01 13.37"/>
<path d="M12.1689 47.7666H-12.124L0.0224609 27.2061L12.1689 47.7666Z" stroke="#29BDFC" stroke-opacity="0.2" stroke-width="0.668253"/>
<path d="M1.2041 29.2061L1.49121 29.0361L11.2852 45.6143H11.2861L10.998 45.7842L12.1689 47.7666H9.81641V48.1006H-9.77051V47.7666H-12.124L-10.9521 45.7842L-11.2402 45.6143L-1.44727 29.0352L-1.44629 29.0361L-1.1582 29.2061L0.0224609 27.2061L1.2041 29.2061Z" stroke="#29BDFC" stroke-width="0.668253" stroke-dasharray="4.01 13.37"/>
<path d="M62.1885 26.7168H37.8955L50.042 47.2773L62.1885 26.7168Z" stroke="#29BDFC" stroke-opacity="0.2" stroke-width="0.668253"/>
<path d="M51.2236 45.2773L51.5107 45.4473L61.3047 28.8691H61.3057L61.0176 28.6992L62.1885 26.7168H59.8359V26.3828H40.249V26.7168H37.8955L39.0674 28.6992L38.7793 28.8691L48.5723 45.4482L48.5732 45.4473L48.8613 45.2773L50.042 47.2773L51.2236 45.2773Z" stroke="#29BDFC" stroke-width="0.668253" stroke-dasharray="4.01 13.37"/>
<path d="M45.48 47.7666H21.187L33.3335 27.2061L45.48 47.7666Z" stroke="#29BDFC" stroke-opacity="0.2" stroke-width="0.668253"/>
<path d="M34.5151 29.2061L34.8022 29.0361L44.5962 45.6143H44.5972L44.3091 45.7842L45.48 47.7666H43.1274V48.1006H23.5405V47.7666H21.187L22.3589 45.7842L22.0708 45.6143L31.8638 29.0352L31.8647 29.0361L32.1528 29.2061L33.3335 27.2061L34.5151 29.2061Z" stroke="#29BDFC" stroke-width="0.668253" stroke-dasharray="4.01 13.37"/>
<path d="M95.5005 26.7168H71.2075L83.354 47.2773L95.5005 26.7168Z" stroke="#29BDFC" stroke-opacity="0.2" stroke-width="0.668253"/>
<path d="M84.5356 45.2773L84.8228 45.4473L94.6167 28.8691H94.6177L94.3296 28.6992L95.5005 26.7168H93.1479V26.3828H73.561V26.7168H71.2075L72.3794 28.6992L72.0913 28.8691L81.8843 45.4482L81.8853 45.4473L82.1733 45.2773L83.354 47.2773L84.5356 45.2773Z" stroke="#29BDFC" stroke-width="0.668253" stroke-dasharray="4.01 13.37"/>
<path d="M78.7915 47.7666H54.4985L66.645 27.2061L78.7915 47.7666Z" stroke="#29BDFC" stroke-opacity="0.2" stroke-width="0.668253"/>
<path d="M67.8267 29.2061L68.1138 29.0361L77.9077 45.6143H77.9087L77.6206 45.7842L78.7915 47.7666H76.439V48.1006H56.8521V47.7666H54.4985L55.6704 45.7842L55.3823 45.6143L65.1753 29.0352L65.1763 29.0361L65.4644 29.2061L66.645 27.2061L67.8267 29.2061Z" stroke="#29BDFC" stroke-width="0.668253" stroke-dasharray="4.01 13.37"/>
<path d="M128.813 26.7168H104.52L116.667 47.2773L128.813 26.7168Z" stroke="#29BDFC" stroke-opacity="0.2" stroke-width="0.668253"/>
<path d="M117.848 45.2773L118.135 45.4473L127.929 28.8691H127.93L127.642 28.6992L128.813 26.7168H126.46V26.3828H106.874V26.7168H104.52L105.692 28.6992L105.404 28.8691L115.197 45.4482L115.198 45.4473L115.486 45.2773L116.667 47.2773L117.848 45.2773Z" stroke="#29BDFC" stroke-width="0.668253" stroke-dasharray="4.01 13.37"/>
<path d="M112.104 47.7666H87.811L99.9575 27.2061L112.104 47.7666Z" stroke="#29BDFC" stroke-opacity="0.2" stroke-width="0.668253"/>
<path d="M101.139 29.2061L101.426 29.0361L111.22 45.6143H111.221L110.933 45.7842L112.104 47.7666H109.751V48.1006H90.1646V47.7666H87.811L88.9829 45.7842L88.6948 45.6143L98.4878 29.0352L98.4888 29.0361L98.7769 29.2061L99.9575 27.2061L101.139 29.2061Z" stroke="#29BDFC" stroke-width="0.668253" stroke-dasharray="4.01 13.37"/>
<path d="M162.125 26.7168H137.833L149.979 47.2773L162.125 26.7168Z" stroke="#29BDFC" stroke-opacity="0.2" stroke-width="0.668253"/>
<path d="M151.161 45.2773L151.448 45.4473L161.242 28.8691H161.243L160.955 28.6992L162.125 26.7168H159.773V26.3828H140.186V26.7168H137.833L139.004 28.6992L138.716 28.8691L148.509 45.4482L148.51 45.4473L148.798 45.2773L149.979 47.2773L151.161 45.2773Z" stroke="#29BDFC" stroke-width="0.668253" stroke-dasharray="4.01 13.37"/>
<path d="M145.416 47.7666H121.123L133.27 27.2061L145.416 47.7666Z" stroke="#29BDFC" stroke-opacity="0.2" stroke-width="0.668253"/>
<path d="M134.451 29.2061L134.738 29.0361L144.532 45.6143H144.533L144.245 45.7842L145.416 47.7666H143.063V48.1006H123.477V47.7666H121.123L122.295 45.7842L122.007 45.6143L131.8 29.0352L131.801 29.0361L132.089 29.2061L133.27 27.2061L134.451 29.2061Z" stroke="#29BDFC" stroke-width="0.668253" stroke-dasharray="4.01 13.37"/>
<path d="M195.437 26.7168H171.144L183.29 47.2773L195.437 26.7168Z" stroke="#29BDFC" stroke-opacity="0.2" stroke-width="0.668253"/>
<path d="M184.472 45.2773L184.759 45.4473L194.553 28.8691H194.554L194.266 28.6992L195.437 26.7168H193.084V26.3828H173.497V26.7168H171.144L172.315 28.6992L172.027 28.8691L181.82 45.4482L181.821 45.4473L182.109 45.2773L183.29 47.2773L184.472 45.2773Z" stroke="#29BDFC" stroke-width="0.668253" stroke-dasharray="4.01 13.37"/>
<path d="M178.729 47.7666H154.436L166.582 27.2061L178.729 47.7666Z" stroke="#29BDFC" stroke-opacity="0.2" stroke-width="0.668253"/>
<path d="M167.764 29.2061L168.051 29.0361L177.845 45.6143H177.846L177.558 45.7842L178.729 47.7666H176.376V48.1006H156.789V47.7666H154.436L155.607 45.7842L155.319 45.6143L165.112 29.0352L165.113 29.0361L165.401 29.2061L166.582 27.2061L167.764 29.2061Z" stroke="#29BDFC" stroke-width="0.668253" stroke-dasharray="4.01 13.37"/>
<path d="M212.04 47.7666H187.747L199.893 27.2061L212.04 47.7666Z" stroke="#29BDFC" stroke-opacity="0.2" stroke-width="0.668253"/>
<path d="M201.075 29.2061L201.362 29.0361L211.156 45.6143H211.157L210.869 45.7842L212.04 47.7666H209.687V48.1006H190.1V47.7666H187.747L188.918 45.7842L188.63 45.6143L198.423 29.0352L198.424 29.0361L198.712 29.2061L199.893 27.2061L201.075 29.2061Z" stroke="#29BDFC" stroke-width="0.668253" stroke-dasharray="4.01 13.37"/>
<path d="M28.8765 72.8623H4.5835L16.73 52.3018L28.8765 72.8623Z" stroke="#29BDFC" stroke-opacity="0.2" stroke-width="0.668253"/>
<path d="M17.9116 54.3018L18.1987 54.1318L27.9927 70.71H27.9937L27.7056 70.8799L28.8765 72.8623H26.5239V73.1963H6.93701V72.8623H4.5835L5.75537 70.8799L5.46729 70.71L15.2603 54.1309L15.2612 54.1318L15.5493 54.3018L16.73 52.3018L17.9116 54.3018Z" stroke="#29BDFC" stroke-width="0.668253" stroke-dasharray="4.01 13.37"/>
<path d="M12.1689 51.8125H-12.124L0.0224609 72.373L12.1689 51.8125Z" stroke="#29BDFC" stroke-opacity="0.2" stroke-width="0.668253"/>
<path d="M1.2041 70.373L1.49121 70.543L11.2852 53.9648H11.2861L10.998 53.7949L12.1689 51.8125H9.81641V51.4785H-9.77051V51.8125H-12.124L-10.9521 53.7949L-11.2402 53.9648L-1.44727 70.5439L-1.44629 70.543L-1.1582 70.373L0.0224609 72.373L1.2041 70.373Z" stroke="#29BDFC" stroke-width="0.668253" stroke-dasharray="4.01 13.37"/>
<path d="M62.1885 72.8623H37.8955L50.042 52.3018L62.1885 72.8623Z" stroke="#29BDFC" stroke-opacity="0.2" stroke-width="0.668253"/>
<path d="M51.2236 54.3018L51.5107 54.1318L61.3047 70.71H61.3057L61.0176 70.8799L62.1885 72.8623H59.8359V73.1963H40.249V72.8623H37.8955L39.0674 70.8799L38.7793 70.71L48.5723 54.1309L48.5732 54.1318L48.8613 54.3018L50.042 52.3018L51.2236 54.3018Z" stroke="#29BDFC" stroke-width="0.668253" stroke-dasharray="4.01 13.37"/>
<path d="M45.48 51.8125H21.187L33.3335 72.373L45.48 51.8125Z" stroke="#29BDFC" stroke-opacity="0.2" stroke-width="0.668253"/>
<path d="M34.5151 70.373L34.8022 70.543L44.5962 53.9648H44.5972L44.3091 53.7949L45.48 51.8125H43.1274V51.4785H23.5405V51.8125H21.187L22.3589 53.7949L22.0708 53.9648L31.8638 70.5439L31.8647 70.543L32.1528 70.373L33.3335 72.373L34.5151 70.373Z" stroke="#29BDFC" stroke-width="0.668253" stroke-dasharray="4.01 13.37"/>
<path d="M95.5005 72.8623H71.2075L83.354 52.3018L95.5005 72.8623Z" stroke="#29BDFC" stroke-opacity="0.2" stroke-width="0.668253"/>
<path d="M84.5356 54.3018L84.8228 54.1318L94.6167 70.71H94.6177L94.3296 70.8799L95.5005 72.8623H93.1479V73.1963H73.561V72.8623H71.2075L72.3794 70.8799L72.0913 70.71L81.8843 54.1309L81.8853 54.1318L82.1733 54.3018L83.354 52.3018L84.5356 54.3018Z" stroke="#29BDFC" stroke-width="0.668253" stroke-dasharray="4.01 13.37"/>
<path d="M78.7915 51.8125H54.4985L66.645 72.373L78.7915 51.8125Z" stroke="#29BDFC" stroke-opacity="0.2" stroke-width="0.668253"/>
<path d="M67.8267 70.373L68.1138 70.543L77.9077 53.9648H77.9087L77.6206 53.7949L78.7915 51.8125H76.439V51.4785H56.8521V51.8125H54.4985L55.6704 53.7949L55.3823 53.9648L65.1753 70.5439L65.1763 70.543L65.4644 70.373L66.645 72.373L67.8267 70.373Z" stroke="#29BDFC" stroke-width="0.668253" stroke-dasharray="4.01 13.37"/>
<path d="M128.813 72.8623H104.52L116.667 52.3018L128.813 72.8623Z" stroke="#29BDFC" stroke-opacity="0.2" stroke-width="0.668253"/>
<path d="M117.848 54.3018L118.135 54.1318L127.929 70.71H127.93L127.642 70.8799L128.813 72.8623H126.46V73.1963H106.874V72.8623H104.52L105.692 70.8799L105.404 70.71L115.197 54.1309L115.198 54.1318L115.486 54.3018L116.667 52.3018L117.848 54.3018Z" stroke="#29BDFC" stroke-width="0.668253" stroke-dasharray="4.01 13.37"/>
<path d="M112.104 51.8125H87.811L99.9575 72.373L112.104 51.8125Z" stroke="#29BDFC" stroke-opacity="0.2" stroke-width="0.668253"/>
<path d="M101.139 70.373L101.426 70.543L111.22 53.9648H111.221L110.933 53.7949L112.104 51.8125H109.751V51.4785H90.1646V51.8125H87.811L88.9829 53.7949L88.6948 53.9648L98.4878 70.5439L98.4888 70.543L98.7769 70.373L99.9575 72.373L101.139 70.373Z" stroke="#29BDFC" stroke-width="0.668253" stroke-dasharray="4.01 13.37"/>
<path d="M162.125 72.8623H137.833L149.979 52.3018L162.125 72.8623Z" stroke="#29BDFC" stroke-opacity="0.2" stroke-width="0.668253"/>
<path d="M151.161 54.3018L151.448 54.1318L161.242 70.71H161.243L160.955 70.8799L162.125 72.8623H159.773V73.1963H140.186V72.8623H137.833L139.004 70.8799L138.716 70.71L148.509 54.1309L148.51 54.1318L148.798 54.3018L149.979 52.3018L151.161 54.3018Z" stroke="#29BDFC" stroke-width="0.668253" stroke-dasharray="4.01 13.37"/>
<path d="M145.416 51.8125H121.123L133.27 72.373L145.416 51.8125Z" stroke="#29BDFC" stroke-opacity="0.2" stroke-width="0.668253"/>
<path d="M134.451 70.373L134.738 70.543L144.532 53.9648H144.533L144.245 53.7949L145.416 51.8125H143.063V51.4785H123.477V51.8125H121.123L122.295 53.7949L122.007 53.9648L131.8 70.5439L131.801 70.543L132.089 70.373L133.27 72.373L134.451 70.373Z" stroke="#29BDFC" stroke-width="0.668253" stroke-dasharray="4.01 13.37"/>
<path d="M195.437 72.8623H171.144L183.29 52.3018L195.437 72.8623Z" stroke="#29BDFC" stroke-opacity="0.2" stroke-width="0.668253"/>
<path d="M184.472 54.3018L184.759 54.1318L194.553 70.71H194.554L194.266 70.8799L195.437 72.8623H193.084V73.1963H173.497V72.8623H171.144L172.315 70.8799L172.027 70.71L181.82 54.1309L181.821 54.1318L182.109 54.3018L183.29 52.3018L184.472 54.3018Z" stroke="#29BDFC" stroke-width="0.668253" stroke-dasharray="4.01 13.37"/>
<path d="M178.729 51.8125H154.436L166.582 72.373L178.729 51.8125Z" stroke="#29BDFC" stroke-opacity="0.2" stroke-width="0.668253"/>
<path d="M167.764 70.373L168.051 70.543L177.845 53.9648H177.846L177.558 53.7949L178.729 51.8125H176.376V51.4785H156.789V51.8125H154.436L155.607 53.7949L155.319 53.9648L165.112 70.5439L165.113 70.543L165.401 70.373L166.582 72.373L167.764 70.373Z" stroke="#29BDFC" stroke-width="0.668253" stroke-dasharray="4.01 13.37"/>
<path d="M212.04 51.8125H187.747L199.893 72.373L212.04 51.8125Z" stroke="#29BDFC" stroke-opacity="0.2" stroke-width="0.668253"/>
<path d="M201.075 70.373L201.362 70.543L211.156 53.9648H211.157L210.869 53.7949L212.04 51.8125H209.687V51.4785H190.1V51.8125H187.747L188.918 53.7949L188.63 53.9648L198.423 70.5439L198.424 70.543L198.712 70.373L199.893 72.373L201.075 70.373Z" stroke="#29BDFC" stroke-width="0.668253" stroke-dasharray="4.01 13.37"/>
<path d="M28.8765 76.9082H4.5835L16.73 97.4688L28.8765 76.9082Z" stroke="#29BDFC" stroke-opacity="0.2" stroke-width="0.668253"/>
<path d="M17.9116 95.4688L18.1987 95.6387L27.9927 79.0605H27.9937L27.7056 78.8906L28.8765 76.9082H26.5239V76.5742H6.93701V76.9082H4.5835L5.75537 78.8906L5.46729 79.0605L15.2603 95.6396L15.2612 95.6387L15.5493 95.4688L16.73 97.4688L17.9116 95.4688Z" stroke="#29BDFC" stroke-width="0.668253" stroke-dasharray="4.01 13.37"/>
<path d="M12.1689 97.958H-12.124L0.0224609 77.3975L12.1689 97.958Z" stroke="#29BDFC" stroke-opacity="0.2" stroke-width="0.668253"/>
<path d="M1.2041 79.3975L1.49121 79.2275L11.2852 95.8057H11.2861L10.998 95.9756L12.1689 97.958H9.81641V98.292H-9.77051V97.958H-12.124L-10.9521 95.9756L-11.2402 95.8057L-1.44727 79.2266L-1.44629 79.2275L-1.1582 79.3975L0.0224609 77.3975L1.2041 79.3975Z" stroke="#29BDFC" stroke-width="0.668253" stroke-dasharray="4.01 13.37"/>
<path d="M62.1885 76.9082H37.8955L50.042 97.4688L62.1885 76.9082Z" stroke="#29BDFC" stroke-opacity="0.2" stroke-width="0.668253"/>
<path d="M51.2236 95.4688L51.5107 95.6387L61.3047 79.0605H61.3057L61.0176 78.8906L62.1885 76.9082H59.8359V76.5742H40.249V76.9082H37.8955L39.0674 78.8906L38.7793 79.0605L48.5723 95.6396L48.5732 95.6387L48.8613 95.4688L50.042 97.4688L51.2236 95.4688Z" stroke="#29BDFC" stroke-width="0.668253" stroke-dasharray="4.01 13.37"/>
<path d="M45.48 97.958H21.187L33.3335 77.3975L45.48 97.958Z" stroke="#29BDFC" stroke-opacity="0.2" stroke-width="0.668253"/>
<path d="M34.5151 79.3975L34.8022 79.2275L44.5962 95.8057H44.5972L44.3091 95.9756L45.48 97.958H43.1274V98.292H23.5405V97.958H21.187L22.3589 95.9756L22.0708 95.8057L31.8638 79.2266L31.8647 79.2275L32.1528 79.3975L33.3335 77.3975L34.5151 79.3975Z" stroke="#29BDFC" stroke-width="0.668253" stroke-dasharray="4.01 13.37"/>
<path d="M95.5005 76.9082H71.2075L83.354 97.4688L95.5005 76.9082Z" stroke="#29BDFC" stroke-opacity="0.2" stroke-width="0.668253"/>
<path d="M84.5356 95.4688L84.8228 95.6387L94.6167 79.0605H94.6177L94.3296 78.8906L95.5005 76.9082H93.1479V76.5742H73.561V76.9082H71.2075L72.3794 78.8906L72.0913 79.0605L81.8843 95.6396L81.8853 95.6387L82.1733 95.4688L83.354 97.4688L84.5356 95.4688Z" stroke="#29BDFC" stroke-width="0.668253" stroke-dasharray="4.01 13.37"/>
<path d="M78.7915 97.958H54.4985L66.645 77.3975L78.7915 97.958Z" stroke="#29BDFC" stroke-opacity="0.2" stroke-width="0.668253"/>
<path d="M67.8267 79.3975L68.1138 79.2275L77.9077 95.8057H77.9087L77.6206 95.9756L78.7915 97.958H76.439V98.292H56.8521V97.958H54.4985L55.6704 95.9756L55.3823 95.8057L65.1753 79.2266L65.1763 79.2275L65.4644 79.3975L66.645 77.3975L67.8267 79.3975Z" stroke="#29BDFC" stroke-width="0.668253" stroke-dasharray="4.01 13.37"/>
<path d="M128.813 76.9082H104.52L116.667 97.4688L128.813 76.9082Z" stroke="#29BDFC" stroke-opacity="0.2" stroke-width="0.668253"/>
<path d="M117.848 95.4688L118.135 95.6387L127.929 79.0605H127.93L127.642 78.8906L128.813 76.9082H126.46V76.5742H106.874V76.9082H104.52L105.692 78.8906L105.404 79.0605L115.197 95.6396L115.198 95.6387L115.486 95.4688L116.667 97.4688L117.848 95.4688Z" stroke="#29BDFC" stroke-width="0.668253" stroke-dasharray="4.01 13.37"/>
<path d="M112.104 97.958H87.811L99.9575 77.3975L112.104 97.958Z" stroke="#29BDFC" stroke-opacity="0.2" stroke-width="0.668253"/>
<path d="M101.139 79.3975L101.426 79.2275L111.22 95.8057H111.221L110.933 95.9756L112.104 97.958H109.751V98.292H90.1646V97.958H87.811L88.9829 95.9756L88.6948 95.8057L98.4878 79.2266L98.4888 79.2275L98.7769 79.3975L99.9575 77.3975L101.139 79.3975Z" stroke="#29BDFC" stroke-width="0.668253" stroke-dasharray="4.01 13.37"/>
<path d="M162.125 76.9082H137.833L149.979 97.4688L162.125 76.9082Z" stroke="#29BDFC" stroke-opacity="0.2" stroke-width="0.668253"/>
<path d="M151.161 95.4688L151.448 95.6387L161.242 79.0605H161.243L160.955 78.8906L162.125 76.9082H159.773V76.5742H140.186V76.9082H137.833L139.004 78.8906L138.716 79.0605L148.509 95.6396L148.51 95.6387L148.798 95.4688L149.979 97.4688L151.161 95.4688Z" stroke="#29BDFC" stroke-width="0.668253" stroke-dasharray="4.01 13.37"/>
<path d="M145.416 97.958H121.123L133.27 77.3975L145.416 97.958Z" stroke="#29BDFC" stroke-opacity="0.2" stroke-width="0.668253"/>
<path d="M134.451 79.3975L134.738 79.2275L144.532 95.8057H144.533L144.245 95.9756L145.416 97.958H143.063V98.292H123.477V97.958H121.123L122.295 95.9756L122.007 95.8057L131.8 79.2266L131.801 79.2275L132.089 79.3975L133.27 77.3975L134.451 79.3975Z" stroke="#29BDFC" stroke-width="0.668253" stroke-dasharray="4.01 13.37"/>
<path d="M195.437 76.9082H171.144L183.29 97.4688L195.437 76.9082Z" stroke="#29BDFC" stroke-opacity="0.2" stroke-width="0.668253"/>
<path d="M184.472 95.4688L184.759 95.6387L194.553 79.0605H194.554L194.266 78.8906L195.437 76.9082H193.084V76.5742H173.497V76.9082H171.144L172.315 78.8906L172.027 79.0605L181.82 95.6396L181.821 95.6387L182.109 95.4688L183.29 97.4688L184.472 95.4688Z" stroke="#29BDFC" stroke-width="0.668253" stroke-dasharray="4.01 13.37"/>
<path d="M178.729 97.958H154.436L166.582 77.3975L178.729 97.958Z" stroke="#29BDFC" stroke-opacity="0.2" stroke-width="0.668253"/>
<path d="M167.764 79.3975L168.051 79.2275L177.845 95.8057H177.846L177.558 95.9756L178.729 97.958H176.376V98.292H156.789V97.958H154.436L155.607 95.9756L155.319 95.8057L165.112 79.2266L165.113 79.2275L165.401 79.3975L166.582 77.3975L167.764 79.3975Z" stroke="#29BDFC" stroke-width="0.668253" stroke-dasharray="4.01 13.37"/>
<path d="M212.04 97.958H187.747L199.893 77.3975L212.04 97.958Z" stroke="#29BDFC" stroke-opacity="0.2" stroke-width="0.668253"/>
<path d="M201.075 79.3975L201.362 79.2275L211.156 95.8057H211.157L210.869 95.9756L212.04 97.958H209.687V98.292H190.1V97.958H187.747L188.918 95.9756L188.63 95.8057L198.423 79.2266L198.424 79.2275L198.712 79.3975L199.893 77.3975L201.075 79.3975Z" stroke="#29BDFC" stroke-width="0.668253" stroke-dasharray="4.01 13.37"/>
<path d="M28.8765 123.054H4.5835L16.73 102.494L28.8765 123.054Z" stroke="#29BDFC" stroke-opacity="0.2" stroke-width="0.668253"/>
<path d="M17.9116 104.494L18.1987 104.324L27.9927 120.902H27.9937L27.7056 121.072L28.8765 123.054H26.5239V123.388H6.93701V123.054H4.5835L5.75537 121.072L5.46729 120.902L15.2603 104.323L15.2612 104.324L15.5493 104.494L16.73 102.494L17.9116 104.494Z" stroke="#29BDFC" stroke-width="0.668253" stroke-dasharray="4.01 13.37"/>
<path d="M12.1689 102.004H-12.124L0.0224609 122.565L12.1689 102.004Z" stroke="#29BDFC" stroke-opacity="0.2" stroke-width="0.668253"/>
<path d="M1.2041 120.565L1.49121 120.735L11.2852 104.157H11.2861L10.998 103.987L12.1689 102.004H9.81641V101.67H-9.77051V102.004H-12.124L-10.9521 103.987L-11.2402 104.157L-1.44727 120.736L-1.44629 120.735L-1.1582 120.565L0.0224609 122.565L1.2041 120.565Z" stroke="#29BDFC" stroke-width="0.668253" stroke-dasharray="4.01 13.37"/>
<path d="M62.1885 123.054H37.8955L50.042 102.494L62.1885 123.054Z" stroke="#29BDFC" stroke-opacity="0.2" stroke-width="0.668253"/>
<path d="M51.2236 104.494L51.5107 104.324L61.3047 120.902H61.3057L61.0176 121.072L62.1885 123.054H59.8359V123.388H40.249V123.054H37.8955L39.0674 121.072L38.7793 120.902L48.5723 104.323L48.5732 104.324L48.8613 104.494L50.042 102.494L51.2236 104.494Z" stroke="#29BDFC" stroke-width="0.668253" stroke-dasharray="4.01 13.37"/>
<path d="M45.48 102.004H21.187L33.3335 122.565L45.48 102.004Z" stroke="#29BDFC" stroke-opacity="0.2" stroke-width="0.668253"/>
<path d="M34.5151 120.565L34.8022 120.735L44.5962 104.157H44.5972L44.3091 103.987L45.48 102.004H43.1274V101.67H23.5405V102.004H21.187L22.3589 103.987L22.0708 104.157L31.8638 120.736L31.8647 120.735L32.1528 120.565L33.3335 122.565L34.5151 120.565Z" stroke="#29BDFC" stroke-width="0.668253" stroke-dasharray="4.01 13.37"/>
<path d="M95.5005 123.054H71.2075L83.354 102.494L95.5005 123.054Z" stroke="#29BDFC" stroke-opacity="0.2" stroke-width="0.668253"/>
<path d="M84.5356 104.494L84.8228 104.324L94.6167 120.902H94.6177L94.3296 121.072L95.5005 123.054H93.1479V123.388H73.561V123.054H71.2075L72.3794 121.072L72.0913 120.902L81.8843 104.323L81.8853 104.324L82.1733 104.494L83.354 102.494L84.5356 104.494Z" stroke="#29BDFC" stroke-width="0.668253" stroke-dasharray="4.01 13.37"/>
<path d="M78.7915 102.004H54.4985L66.645 122.565L78.7915 102.004Z" stroke="#29BDFC" stroke-opacity="0.2" stroke-width="0.668253"/>
<path d="M67.8267 120.565L68.1138 120.735L77.9077 104.157H77.9087L77.6206 103.987L78.7915 102.004H76.439V101.67H56.8521V102.004H54.4985L55.6704 103.987L55.3823 104.157L65.1753 120.736L65.1763 120.735L65.4644 120.565L66.645 122.565L67.8267 120.565Z" stroke="#29BDFC" stroke-width="0.668253" stroke-dasharray="4.01 13.37"/>
<path d="M128.813 123.054H104.52L116.667 102.494L128.813 123.054Z" stroke="#29BDFC" stroke-opacity="0.2" stroke-width="0.668253"/>
<path d="M117.848 104.494L118.135 104.324L127.929 120.902H127.93L127.642 121.072L128.813 123.054H126.46V123.388H106.874V123.054H104.52L105.692 121.072L105.404 120.902L115.197 104.323L115.198 104.324L115.486 104.494L116.667 102.494L117.848 104.494Z" stroke="#29BDFC" stroke-width="0.668253" stroke-dasharray="4.01 13.37"/>
<path d="M112.104 102.004H87.811L99.9575 122.565L112.104 102.004Z" stroke="#29BDFC" stroke-opacity="0.2" stroke-width="0.668253"/>
<path d="M101.139 120.565L101.426 120.735L111.22 104.157H111.221L110.933 103.987L112.104 102.004H109.751V101.67H90.1646V102.004H87.811L88.9829 103.987L88.6948 104.157L98.4878 120.736L98.4888 120.735L98.7769 120.565L99.9575 122.565L101.139 120.565Z" stroke="#29BDFC" stroke-width="0.668253" stroke-dasharray="4.01 13.37"/>
<path d="M162.125 123.054H137.833L149.979 102.494L162.125 123.054Z" stroke="#29BDFC" stroke-opacity="0.2" stroke-width="0.668253"/>
<path d="M151.161 104.494L151.448 104.324L161.242 120.902H161.243L160.955 121.072L162.125 123.054H159.773V123.388H140.186V123.054H137.833L139.004 121.072L138.716 120.902L148.509 104.323L148.51 104.324L148.798 104.494L149.979 102.494L151.161 104.494Z" stroke="#29BDFC" stroke-width="0.668253" stroke-dasharray="4.01 13.37"/>
<path d="M145.416 102.004H121.123L133.27 122.565L145.416 102.004Z" stroke="#29BDFC" stroke-opacity="0.2" stroke-width="0.668253"/>
<path d="M134.451 120.565L134.738 120.735L144.532 104.157H144.533L144.245 103.987L145.416 102.004H143.063V101.67H123.477V102.004H121.123L122.295 103.987L122.007 104.157L131.8 120.736L131.801 120.735L132.089 120.565L133.27 122.565L134.451 120.565Z" stroke="#29BDFC" stroke-width="0.668253" stroke-dasharray="4.01 13.37"/>
<path d="M195.437 123.054H171.144L183.29 102.494L195.437 123.054Z" stroke="#29BDFC" stroke-opacity="0.2" stroke-width="0.668253"/>
<path d="M184.472 104.494L184.759 104.324L194.553 120.902H194.554L194.266 121.072L195.437 123.054H193.084V123.388H173.497V123.054H171.144L172.315 121.072L172.027 120.902L181.82 104.323L181.821 104.324L182.109 104.494L183.29 102.494L184.472 104.494Z" stroke="#29BDFC" stroke-width="0.668253" stroke-dasharray="4.01 13.37"/>
<path d="M178.729 102.004H154.436L166.582 122.565L178.729 102.004Z" stroke="#29BDFC" stroke-opacity="0.2" stroke-width="0.668253"/>
<path d="M167.764 120.565L168.051 120.735L177.845 104.157H177.846L177.558 103.987L178.729 102.004H176.376V101.67H156.789V102.004H154.436L155.607 103.987L155.319 104.157L165.112 120.736L165.113 120.735L165.401 120.565L166.582 122.565L167.764 120.565Z" stroke="#29BDFC" stroke-width="0.668253" stroke-dasharray="4.01 13.37"/>
<path d="M212.04 102.004H187.747L199.893 122.565L212.04 102.004Z" stroke="#29BDFC" stroke-opacity="0.2" stroke-width="0.668253"/>
<path d="M201.075 120.565L201.362 120.735L211.156 104.157H211.157L210.869 103.987L212.04 102.004H209.687V101.67H190.1V102.004H187.747L188.918 103.987L188.63 104.157L198.423 120.736L198.424 120.735L198.712 120.565L199.893 122.565L201.075 120.565Z" stroke="#29BDFC" stroke-width="0.668253" stroke-dasharray="4.01 13.37"/>
<path d="M28.8765 127.1H4.5835L16.73 147.661L28.8765 127.1Z" stroke="#29BDFC" stroke-opacity="0.2" stroke-width="0.668253"/>
<path d="M17.9116 145.661L18.1987 145.831L27.9927 129.252H27.9937L27.7056 129.083L28.8765 127.1H26.5239V126.766H6.93701V127.1H4.5835L5.75537 129.083L5.46729 129.252L15.2603 145.832L15.2612 145.831L15.5493 145.661L16.73 147.661L17.9116 145.661Z" stroke="#29BDFC" stroke-width="0.668253" stroke-dasharray="4.01 13.37"/>
<path d="M12.1689 148.15H-12.124L0.0224609 127.589L12.1689 148.15Z" stroke="#29BDFC" stroke-opacity="0.2" stroke-width="0.668253"/>
<path d="M1.2041 129.589L1.49121 129.419L11.2852 145.998H11.2861L10.998 146.167L12.1689 148.15H9.81641V148.484H-9.77051V148.15H-12.124L-10.9521 146.167L-11.2402 145.998L-1.44727 129.418L-1.44629 129.419L-1.1582 129.589L0.0224609 127.589L1.2041 129.589Z" stroke="#29BDFC" stroke-width="0.668253" stroke-dasharray="4.01 13.37"/>
<path d="M62.1885 127.1H37.8955L50.042 147.661L62.1885 127.1Z" stroke="#29BDFC" stroke-opacity="0.2" stroke-width="0.668253"/>
<path d="M51.2236 145.661L51.5107 145.831L61.3047 129.252H61.3057L61.0176 129.083L62.1885 127.1H59.8359V126.766H40.249V127.1H37.8955L39.0674 129.083L38.7793 129.252L48.5723 145.832L48.5732 145.831L48.8613 145.661L50.042 147.661L51.2236 145.661Z" stroke="#29BDFC" stroke-width="0.668253" stroke-dasharray="4.01 13.37"/>
<path d="M45.48 148.15H21.187L33.3335 127.589L45.48 148.15Z" stroke="#29BDFC" stroke-opacity="0.2" stroke-width="0.668253"/>
<path d="M34.5151 129.589L34.8022 129.419L44.5962 145.998H44.5972L44.3091 146.167L45.48 148.15H43.1274V148.484H23.5405V148.15H21.187L22.3589 146.167L22.0708 145.998L31.8638 129.418L31.8647 129.419L32.1528 129.589L33.3335 127.589L34.5151 129.589Z" stroke="#29BDFC" stroke-width="0.668253" stroke-dasharray="4.01 13.37"/>
<path d="M95.5005 127.1H71.2075L83.354 147.661L95.5005 127.1Z" stroke="#29BDFC" stroke-opacity="0.2" stroke-width="0.668253"/>
<path d="M84.5356 145.661L84.8228 145.831L94.6167 129.252H94.6177L94.3296 129.083L95.5005 127.1H93.1479V126.766H73.561V127.1H71.2075L72.3794 129.083L72.0913 129.252L81.8843 145.832L81.8853 145.831L82.1733 145.661L83.354 147.661L84.5356 145.661Z" stroke="#29BDFC" stroke-width="0.668253" stroke-dasharray="4.01 13.37"/>
<path d="M78.7915 148.15H54.4985L66.645 127.589L78.7915 148.15Z" stroke="#29BDFC" stroke-opacity="0.2" stroke-width="0.668253"/>
<path d="M67.8267 129.589L68.1138 129.419L77.9077 145.998H77.9087L77.6206 146.167L78.7915 148.15H76.439V148.484H56.8521V148.15H54.4985L55.6704 146.167L55.3823 145.998L65.1753 129.418L65.1763 129.419L65.4644 129.589L66.645 127.589L67.8267 129.589Z" stroke="#29BDFC" stroke-width="0.668253" stroke-dasharray="4.01 13.37"/>
<path d="M128.813 127.1H104.52L116.667 147.661L128.813 127.1Z" stroke="#29BDFC" stroke-opacity="0.2" stroke-width="0.668253"/>
<path d="M117.848 145.661L118.135 145.831L127.929 129.252H127.93L127.642 129.083L128.813 127.1H126.46V126.766H106.874V127.1H104.52L105.692 129.083L105.404 129.252L115.197 145.832L115.198 145.831L115.486 145.661L116.667 147.661L117.848 145.661Z" stroke="#29BDFC" stroke-width="0.668253" stroke-dasharray="4.01 13.37"/>
<path d="M112.104 148.15H87.811L99.9575 127.589L112.104 148.15Z" stroke="#29BDFC" stroke-opacity="0.2" stroke-width="0.668253"/>
<path d="M101.139 129.589L101.426 129.419L111.22 145.998H111.221L110.933 146.167L112.104 148.15H109.751V148.484H90.1646V148.15H87.811L88.9829 146.167L88.6948 145.998L98.4878 129.418L98.4888 129.419L98.7769 129.589L99.9575 127.589L101.139 129.589Z" stroke="#29BDFC" stroke-width="0.668253" stroke-dasharray="4.01 13.37"/>
<path d="M162.125 127.1H137.833L149.979 147.661L162.125 127.1Z" stroke="#29BDFC" stroke-opacity="0.2" stroke-width="0.668253"/>
<path d="M151.161 145.661L151.448 145.831L161.242 129.252H161.243L160.955 129.083L162.125 127.1H159.773V126.766H140.186V127.1H137.833L139.004 129.083L138.716 129.252L148.509 145.832L148.51 145.831L148.798 145.661L149.979 147.661L151.161 145.661Z" stroke="#29BDFC" stroke-width="0.668253" stroke-dasharray="4.01 13.37"/>
<path d="M145.416 148.15H121.123L133.27 127.589L145.416 148.15Z" stroke="#29BDFC" stroke-opacity="0.2" stroke-width="0.668253"/>
<path d="M134.451 129.589L134.738 129.419L144.532 145.998H144.533L144.245 146.167L145.416 148.15H143.063V148.484H123.477V148.15H121.123L122.295 146.167L122.007 145.998L131.8 129.418L131.801 129.419L132.089 129.589L133.27 127.589L134.451 129.589Z" stroke="#29BDFC" stroke-width="0.668253" stroke-dasharray="4.01 13.37"/>
<path d="M195.437 127.1H171.144L183.29 147.661L195.437 127.1Z" stroke="#29BDFC" stroke-opacity="0.2" stroke-width="0.668253"/>
<path d="M184.472 145.661L184.759 145.831L194.553 129.252H194.554L194.266 129.083L195.437 127.1H193.084V126.766H173.497V127.1H171.144L172.315 129.083L172.027 129.252L181.82 145.832L181.821 145.831L182.109 145.661L183.29 147.661L184.472 145.661Z" stroke="#29BDFC" stroke-width="0.668253" stroke-dasharray="4.01 13.37"/>
<path d="M178.729 148.15H154.436L166.582 127.589L178.729 148.15Z" stroke="#29BDFC" stroke-opacity="0.2" stroke-width="0.668253"/>
<path d="M167.764 129.589L168.051 129.419L177.845 145.998H177.846L177.558 146.167L178.729 148.15H176.376V148.484H156.789V148.15H154.436L155.607 146.167L155.319 145.998L165.112 129.418L165.113 129.419L165.401 129.589L166.582 127.589L167.764 129.589Z" stroke="#29BDFC" stroke-width="0.668253" stroke-dasharray="4.01 13.37"/>
<path d="M212.04 148.15H187.747L199.893 127.589L212.04 148.15Z" stroke="#29BDFC" stroke-opacity="0.2" stroke-width="0.668253"/>
<path d="M201.075 129.589L201.362 129.419L211.156 145.998H211.157L210.869 146.167L212.04 148.15H209.687V148.484H190.1V148.15H187.747L188.918 146.167L188.63 145.998L198.423 129.418L198.424 129.419L198.712 129.589L199.893 127.589L201.075 129.589Z" stroke="#29BDFC" stroke-width="0.668253" stroke-dasharray="4.01 13.37"/>
<path d="M28.8765 173.246H4.5835L16.73 152.685L28.8765 173.246Z" stroke="#29BDFC" stroke-opacity="0.2" stroke-width="0.668253"/>
<path d="M17.9116 154.685L18.1987 154.515L27.9927 171.093H27.9937L27.7056 171.263L28.8765 173.246H26.5239V173.58H6.93701V173.246H4.5835L5.75537 171.263L5.46729 171.093L15.2603 154.514L15.2612 154.515L15.5493 154.685L16.73 152.685L17.9116 154.685Z" stroke="#29BDFC" stroke-width="0.668253" stroke-dasharray="4.01 13.37"/>
<path d="M12.1689 152.196H-12.124L0.0224609 172.756L12.1689 152.196Z" stroke="#29BDFC" stroke-opacity="0.2" stroke-width="0.668253"/>
<path d="M1.2041 170.756L1.49121 170.926L11.2852 154.348H11.2861L10.998 154.178L12.1689 152.196H9.81641V151.862H-9.77051V152.196H-12.124L-10.9521 154.178L-11.2402 154.348L-1.44727 170.927L-1.44629 170.926L-1.1582 170.756L0.0224609 172.756L1.2041 170.756Z" stroke="#29BDFC" stroke-width="0.668253" stroke-dasharray="4.01 13.37"/>
<path d="M62.1885 173.246H37.8955L50.042 152.685L62.1885 173.246Z" stroke="#29BDFC" stroke-opacity="0.2" stroke-width="0.668253"/>
<path d="M51.2236 154.685L51.5107 154.515L61.3047 171.093H61.3057L61.0176 171.263L62.1885 173.246H59.8359V173.58H40.249V173.246H37.8955L39.0674 171.263L38.7793 171.093L48.5723 154.514L48.5732 154.515L48.8613 154.685L50.042 152.685L51.2236 154.685Z" stroke="#29BDFC" stroke-width="0.668253" stroke-dasharray="4.01 13.37"/>
<path d="M45.48 152.196H21.187L33.3335 172.756L45.48 152.196Z" stroke="#29BDFC" stroke-opacity="0.2" stroke-width="0.668253"/>
<path d="M34.5151 170.756L34.8022 170.926L44.5962 154.348H44.5972L44.3091 154.178L45.48 152.196H43.1274V151.862H23.5405V152.196H21.187L22.3589 154.178L22.0708 154.348L31.8638 170.927L31.8647 170.926L32.1528 170.756L33.3335 172.756L34.5151 170.756Z" stroke="#29BDFC" stroke-width="0.668253" stroke-dasharray="4.01 13.37"/>
<path d="M95.5005 173.246H71.2075L83.354 152.685L95.5005 173.246Z" stroke="#29BDFC" stroke-opacity="0.2" stroke-width="0.668253"/>
<path d="M84.5356 154.685L84.8228 154.515L94.6167 171.093H94.6177L94.3296 171.263L95.5005 173.246H93.1479V173.58H73.561V173.246H71.2075L72.3794 171.263L72.0913 171.093L81.8843 154.514L81.8853 154.515L82.1733 154.685L83.354 152.685L84.5356 154.685Z" stroke="#29BDFC" stroke-width="0.668253" stroke-dasharray="4.01 13.37"/>
<path d="M78.7915 152.196H54.4985L66.645 172.756L78.7915 152.196Z" stroke="#29BDFC" stroke-opacity="0.2" stroke-width="0.668253"/>
<path d="M67.8267 170.756L68.1138 170.926L77.9077 154.348H77.9087L77.6206 154.178L78.7915 152.196H76.439V151.862H56.8521V152.196H54.4985L55.6704 154.178L55.3823 154.348L65.1753 170.927L65.1763 170.926L65.4644 170.756L66.645 172.756L67.8267 170.756Z" stroke="#29BDFC" stroke-width="0.668253" stroke-dasharray="4.01 13.37"/>
<path d="M128.813 173.246H104.52L116.667 152.685L128.813 173.246Z" stroke="#29BDFC" stroke-opacity="0.2" stroke-width="0.668253"/>
<path d="M117.848 154.685L118.135 154.515L127.929 171.093H127.93L127.642 171.263L128.813 173.246H126.46V173.58H106.874V173.246H104.52L105.692 171.263L105.404 171.093L115.197 154.514L115.198 154.515L115.486 154.685L116.667 152.685L117.848 154.685Z" stroke="#29BDFC" stroke-width="0.668253" stroke-dasharray="4.01 13.37"/>
<path d="M112.104 152.196H87.811L99.9575 172.756L112.104 152.196Z" stroke="#29BDFC" stroke-opacity="0.2" stroke-width="0.668253"/>
<path d="M101.139 170.756L101.426 170.926L111.22 154.348H111.221L110.933 154.178L112.104 152.196H109.751V151.862H90.1646V152.196H87.811L88.9829 154.178L88.6948 154.348L98.4878 170.927L98.4888 170.926L98.7769 170.756L99.9575 172.756L101.139 170.756Z" stroke="#29BDFC" stroke-width="0.668253" stroke-dasharray="4.01 13.37"/>
<path d="M162.125 173.246H137.833L149.979 152.685L162.125 173.246Z" stroke="#29BDFC" stroke-opacity="0.2" stroke-width="0.668253"/>
<path d="M151.161 154.685L151.448 154.515L161.242 171.093H161.243L160.955 171.263L162.125 173.246H159.773V173.58H140.186V173.246H137.833L139.004 171.263L138.716 171.093L148.509 154.514L148.51 154.515L148.798 154.685L149.979 152.685L151.161 154.685Z" stroke="#29BDFC" stroke-width="0.668253" stroke-dasharray="4.01 13.37"/>
<path d="M145.416 152.196H121.123L133.27 172.756L145.416 152.196Z" stroke="#29BDFC" stroke-opacity="0.2" stroke-width="0.668253"/>
<path d="M134.451 170.756L134.738 170.926L144.532 154.348H144.533L144.245 154.178L145.416 152.196H143.063V151.862H123.477V152.196H121.123L122.295 154.178L122.007 154.348L131.8 170.927L131.801 170.926L132.089 170.756L133.27 172.756L134.451 170.756Z" stroke="#29BDFC" stroke-width="0.668253" stroke-dasharray="4.01 13.37"/>
<path d="M195.437 173.246H171.144L183.29 152.685L195.437 173.246Z" stroke="#29BDFC" stroke-opacity="0.2" stroke-width="0.668253"/>
<path d="M184.472 154.685L184.759 154.515L194.553 171.093H194.554L194.266 171.263L195.437 173.246H193.084V173.58H173.497V173.246H171.144L172.315 171.263L172.027 171.093L181.82 154.514L181.821 154.515L182.109 154.685L183.29 152.685L184.472 154.685Z" stroke="#29BDFC" stroke-width="0.668253" stroke-dasharray="4.01 13.37"/>
<path d="M178.729 152.196H154.436L166.582 172.756L178.729 152.196Z" stroke="#29BDFC" stroke-opacity="0.2" stroke-width="0.668253"/>
<path d="M167.764 170.756L168.051 170.926L177.845 154.348H177.846L177.558 154.178L178.729 152.196H176.376V151.862H156.789V152.196H154.436L155.607 154.178L155.319 154.348L165.112 170.927L165.113 170.926L165.401 170.756L166.582 172.756L167.764 170.756Z" stroke="#29BDFC" stroke-width="0.668253" stroke-dasharray="4.01 13.37"/>
<path d="M212.04 152.196H187.747L199.893 172.756L212.04 152.196Z" stroke="#29BDFC" stroke-opacity="0.2" stroke-width="0.668253"/>
<path d="M201.075 170.756L201.362 170.926L211.156 154.348H211.157L210.869 154.178L212.04 152.196H209.687V151.862H190.1V152.196H187.747L188.918 154.178L188.63 154.348L198.423 170.927L198.424 170.926L198.712 170.756L199.893 172.756L201.075 170.756Z" stroke="#29BDFC" stroke-width="0.668253" stroke-dasharray="4.01 13.37"/>
<path d="M28.8765 177.292H4.5835L16.73 197.852L28.8765 177.292Z" stroke="#29BDFC" stroke-opacity="0.2" stroke-width="0.668253"/>
<path d="M17.9116 195.852L18.1987 196.022L27.9927 179.444H27.9937L27.7056 179.274L28.8765 177.292H26.5239V176.958H6.93701V177.292H4.5835L5.75537 179.274L5.46729 179.444L15.2603 196.023L15.2612 196.022L15.5493 195.852L16.73 197.852L17.9116 195.852Z" stroke="#29BDFC" stroke-width="0.668253" stroke-dasharray="4.01 13.37"/>
<path d="M12.1689 198.341H-12.124L0.0224609 177.781L12.1689 198.341Z" stroke="#29BDFC" stroke-opacity="0.2" stroke-width="0.668253"/>
<path d="M1.2041 179.781L1.49121 179.611L11.2852 196.189H11.2861L10.998 196.359L12.1689 198.341H9.81641V198.675H-9.77051V198.341H-12.124L-10.9521 196.359L-11.2402 196.189L-1.44727 179.61L-1.44629 179.611L-1.1582 179.781L0.0224609 177.781L1.2041 179.781Z" stroke="#29BDFC" stroke-width="0.668253" stroke-dasharray="4.01 13.37"/>
<path d="M62.1885 177.292H37.8955L50.042 197.852L62.1885 177.292Z" stroke="#29BDFC" stroke-opacity="0.2" stroke-width="0.668253"/>
<path d="M51.2236 195.852L51.5107 196.022L61.3047 179.444H61.3057L61.0176 179.274L62.1885 177.292H59.8359V176.958H40.249V177.292H37.8955L39.0674 179.274L38.7793 179.444L48.5723 196.023L48.5732 196.022L48.8613 195.852L50.042 197.852L51.2236 195.852Z" stroke="#29BDFC" stroke-width="0.668253" stroke-dasharray="4.01 13.37"/>
<path d="M45.48 198.341H21.187L33.3335 177.781L45.48 198.341Z" stroke="#29BDFC" stroke-opacity="0.2" stroke-width="0.668253"/>
<path d="M34.5151 179.781L34.8022 179.611L44.5962 196.189H44.5972L44.3091 196.359L45.48 198.341H43.1274V198.675H23.5405V198.341H21.187L22.3589 196.359L22.0708 196.189L31.8638 179.61L31.8647 179.611L32.1528 179.781L33.3335 177.781L34.5151 179.781Z" stroke="#29BDFC" stroke-width="0.668253" stroke-dasharray="4.01 13.37"/>
<path d="M95.5005 177.292H71.2075L83.354 197.852L95.5005 177.292Z" stroke="#29BDFC" stroke-opacity="0.2" stroke-width="0.668253"/>
<path d="M84.5356 195.852L84.8228 196.022L94.6167 179.444H94.6177L94.3296 179.274L95.5005 177.292H93.1479V176.958H73.561V177.292H71.2075L72.3794 179.274L72.0913 179.444L81.8843 196.023L81.8853 196.022L82.1733 195.852L83.354 197.852L84.5356 195.852Z" stroke="#29BDFC" stroke-width="0.668253" stroke-dasharray="4.01 13.37"/>
<path d="M78.7915 198.341H54.4985L66.645 177.781L78.7915 198.341Z" stroke="#29BDFC" stroke-opacity="0.2" stroke-width="0.668253"/>
<path d="M67.8267 179.781L68.1138 179.611L77.9077 196.189H77.9087L77.6206 196.359L78.7915 198.341H76.439V198.675H56.8521V198.341H54.4985L55.6704 196.359L55.3823 196.189L65.1753 179.61L65.1763 179.611L65.4644 179.781L66.645 177.781L67.8267 179.781Z" stroke="#29BDFC" stroke-width="0.668253" stroke-dasharray="4.01 13.37"/>
<path d="M128.813 177.292H104.52L116.667 197.852L128.813 177.292Z" stroke="#29BDFC" stroke-opacity="0.2" stroke-width="0.668253"/>
<path d="M117.848 195.852L118.135 196.022L127.929 179.444H127.93L127.642 179.274L128.813 177.292H126.46V176.958H106.874V177.292H104.52L105.692 179.274L105.404 179.444L115.197 196.023L115.198 196.022L115.486 195.852L116.667 197.852L117.848 195.852Z" stroke="#29BDFC" stroke-width="0.668253" stroke-dasharray="4.01 13.37"/>
<path d="M112.104 198.341H87.811L99.9575 177.781L112.104 198.341Z" stroke="#29BDFC" stroke-opacity="0.2" stroke-width="0.668253"/>
<path d="M101.139 179.781L101.426 179.611L111.22 196.189H111.221L110.933 196.359L112.104 198.341H109.751V198.675H90.1646V198.341H87.811L88.9829 196.359L88.6948 196.189L98.4878 179.61L98.4888 179.611L98.7769 179.781L99.9575 177.781L101.139 179.781Z" stroke="#29BDFC" stroke-width="0.668253" stroke-dasharray="4.01 13.37"/>
<path d="M162.125 177.292H137.833L149.979 197.852L162.125 177.292Z" stroke="#29BDFC" stroke-opacity="0.2" stroke-width="0.668253"/>
<path d="M151.161 195.852L151.448 196.022L161.242 179.444H161.243L160.955 179.274L162.125 177.292H159.773V176.958H140.186V177.292H137.833L139.004 179.274L138.716 179.444L148.509 196.023L148.51 196.022L148.798 195.852L149.979 197.852L151.161 195.852Z" stroke="#29BDFC" stroke-width="0.668253" stroke-dasharray="4.01 13.37"/>
<path d="M145.416 198.341H121.123L133.27 177.781L145.416 198.341Z" stroke="#29BDFC" stroke-opacity="0.2" stroke-width="0.668253"/>
<path d="M134.451 179.781L134.738 179.611L144.532 196.189H144.533L144.245 196.359L145.416 198.341H143.063V198.675H123.477V198.341H121.123L122.295 196.359L122.007 196.189L131.8 179.61L131.801 179.611L132.089 179.781L133.27 177.781L134.451 179.781Z" stroke="#29BDFC" stroke-width="0.668253" stroke-dasharray="4.01 13.37"/>
<path d="M195.437 177.292H171.144L183.29 197.852L195.437 177.292Z" stroke="#29BDFC" stroke-opacity="0.2" stroke-width="0.668253"/>
<path d="M184.472 195.852L184.759 196.022L194.553 179.444H194.554L194.266 179.274L195.437 177.292H193.084V176.958H173.497V177.292H171.144L172.315 179.274L172.027 179.444L181.82 196.023L181.821 196.022L182.109 195.852L183.29 197.852L184.472 195.852Z" stroke="#29BDFC" stroke-width="0.668253" stroke-dasharray="4.01 13.37"/>
<path d="M178.729 198.341H154.436L166.582 177.781L178.729 198.341Z" stroke="#29BDFC" stroke-opacity="0.2" stroke-width="0.668253"/>
<path d="M167.764 179.781L168.051 179.611L177.845 196.189H177.846L177.558 196.359L178.729 198.341H176.376V198.675H156.789V198.341H154.436L155.607 196.359L155.319 196.189L165.112 179.61L165.113 179.611L165.401 179.781L166.582 177.781L167.764 179.781Z" stroke="#29BDFC" stroke-width="0.668253" stroke-dasharray="4.01 13.37"/>
<path d="M212.04 198.341H187.747L199.893 177.781L212.04 198.341Z" stroke="#29BDFC" stroke-opacity="0.2" stroke-width="0.668253"/>
<path d="M201.075 179.781L201.362 179.611L211.156 196.189H211.157L210.869 196.359L212.04 198.341H209.687V198.675H190.1V198.341H187.747L188.918 196.359L188.63 196.189L198.423 179.61L198.424 179.611L198.712 179.781L199.893 177.781L201.075 179.781Z" stroke="#29BDFC" stroke-width="0.668253" stroke-dasharray="4.01 13.37"/>
</g>
<defs>
<clipPath id="clip0_4953_6523">
<rect width="200" height="200" fill="white"/>
</clipPath>
</defs>
</svg>
