<svg width="201" height="201" viewBox="0 0 201 201" fill="none" xmlns="http://www.w3.org/2000/svg">
<g clip-path="url(#clip0_4953_8879)">
<rect x="50.5" y="30.7921" width="27.8701" height="27.8701" transform="rotate(45 50.5 30.7921)" stroke="#29BDFC" stroke-width="2"/>
<rect x="50.5" y="18.1476" width="45.7523" height="45.7523" transform="rotate(45 50.5 18.1476)" stroke="#29BDFC" stroke-width="2"/>
<rect x="50.5" y="3.86246" width="65.9553" height="65.9553" transform="rotate(45 50.5 3.86246)" stroke="#29BDFC" stroke-width="2"/>
<rect x="50.5" y="-10.4237" width="86.1584" height="86.1584" transform="rotate(45 50.5 -10.4237)" stroke="#29BDFC" stroke-width="2"/>
<rect x="50.5" y="-23.41" width="104.525" height="104.525" transform="rotate(45 50.5 -23.41)" stroke="#29BDFC" stroke-width="2"/>
<rect x="50.5" y="-36.3973" width="122.891" height="122.891" transform="rotate(45 50.5 -36.3973)" stroke="#29BDFC" stroke-width="2"/>
</g>
<g clip-path="url(#clip1_4953_8879)">
<rect x="50.5" y="130.792" width="27.8701" height="27.8701" transform="rotate(45 50.5 130.792)" stroke="#29BDFC" stroke-width="2"/>
<rect x="50.5" y="118.148" width="45.7523" height="45.7523" transform="rotate(45 50.5 118.148)" stroke="#29BDFC" stroke-width="2"/>
<rect x="50.5" y="103.862" width="65.9553" height="65.9553" transform="rotate(45 50.5 103.862)" stroke="#29BDFC" stroke-width="2"/>
<rect x="50.5" y="89.5763" width="86.1584" height="86.1584" transform="rotate(45 50.5 89.5763)" stroke="#29BDFC" stroke-width="2"/>
<rect x="50.5" y="76.59" width="104.525" height="104.525" transform="rotate(45 50.5 76.59)" stroke="#29BDFC" stroke-width="2"/>
<rect x="50.5" y="63.6027" width="122.891" height="122.891" transform="rotate(45 50.5 63.6027)" stroke="#29BDFC" stroke-width="2"/>
</g>
<g clip-path="url(#clip2_4953_8879)">
<rect x="150.5" y="30.7921" width="27.8701" height="27.8701" transform="rotate(45 150.5 30.7921)" stroke="#29BDFC" stroke-width="2"/>
<rect x="150.5" y="18.1476" width="45.7523" height="45.7523" transform="rotate(45 150.5 18.1476)" stroke="#29BDFC" stroke-width="2"/>
<rect x="150.5" y="3.86246" width="65.9553" height="65.9553" transform="rotate(45 150.5 3.86246)" stroke="#29BDFC" stroke-width="2"/>
<rect x="150.5" y="-10.4237" width="86.1584" height="86.1584" transform="rotate(45 150.5 -10.4237)" stroke="#29BDFC" stroke-width="2"/>
<rect x="150.5" y="-23.41" width="104.525" height="104.525" transform="rotate(45 150.5 -23.41)" stroke="#29BDFC" stroke-width="2"/>
<rect x="150.5" y="-36.3973" width="122.891" height="122.891" transform="rotate(45 150.5 -36.3973)" stroke="#29BDFC" stroke-width="2"/>
</g>
<g clip-path="url(#clip3_4953_8879)">
<rect x="150.5" y="130.792" width="27.8701" height="27.8701" transform="rotate(45 150.5 130.792)" stroke="#29BDFC" stroke-width="2"/>
<rect x="150.5" y="118.148" width="45.7523" height="45.7523" transform="rotate(45 150.5 118.148)" stroke="#29BDFC" stroke-width="2"/>
<rect x="150.5" y="103.862" width="65.9553" height="65.9553" transform="rotate(45 150.5 103.862)" stroke="#29BDFC" stroke-width="2"/>
<rect x="150.5" y="89.5763" width="86.1584" height="86.1584" transform="rotate(45 150.5 89.5763)" stroke="#29BDFC" stroke-width="2"/>
<rect x="150.5" y="76.59" width="104.525" height="104.525" transform="rotate(45 150.5 76.59)" stroke="#29BDFC" stroke-width="2"/>
<rect x="150.5" y="63.6027" width="122.891" height="122.891" transform="rotate(45 150.5 63.6027)" stroke="#29BDFC" stroke-width="2"/>
</g>
<defs>
<clipPath id="clip0_4953_8879">
<rect width="100" height="100" fill="white" transform="translate(0.5 0.5)"/>
</clipPath>
<clipPath id="clip1_4953_8879">
<rect width="100" height="100" fill="white" transform="translate(0.5 100.5)"/>
</clipPath>
<clipPath id="clip2_4953_8879">
<rect width="100" height="100" fill="white" transform="translate(100.5 0.5)"/>
</clipPath>
<clipPath id="clip3_4953_8879">
<rect width="100" height="100" fill="white" transform="translate(100.5 100.5)"/>
</clipPath>
</defs>
</svg>
