<svg width="201" height="200" viewBox="0 0 201 200" fill="none" xmlns="http://www.w3.org/2000/svg">
<path fill-rule="evenodd" clip-rule="evenodd" d="M0 0H50V1H1V50H0V0Z" fill="#3D708C" fill-opacity="0.3"/>
<path fill-rule="evenodd" clip-rule="evenodd" d="M0 0H6.25V1H1V6H0V0Z" fill="#29BDFC"/>
<path fill-rule="evenodd" clip-rule="evenodd" d="M1 45V50H0V45H1Z" fill="#29BDFC"/>
<path fill-rule="evenodd" clip-rule="evenodd" d="M50 1H45V0H50V1Z" fill="#29BDFC"/>
<path fill-rule="evenodd" clip-rule="evenodd" d="M50 0H100V1H51V50H50V0Z" fill="#3D708C" fill-opacity="0.3"/>
<path fill-rule="evenodd" clip-rule="evenodd" d="M50 0H56.25V1H51V6H50V0Z" fill="#29BDFC"/>
<path fill-rule="evenodd" clip-rule="evenodd" d="M51 45V50H50V45H51Z" fill="#29BDFC"/>
<path fill-rule="evenodd" clip-rule="evenodd" d="M100 1H95V0H100V1Z" fill="#29BDFC"/>
<path fill-rule="evenodd" clip-rule="evenodd" d="M100 0H150V1H101V50H100V0Z" fill="#3D708C" fill-opacity="0.3"/>
<path fill-rule="evenodd" clip-rule="evenodd" d="M100 0H106.25V1H101V6H100V0Z" fill="#29BDFC"/>
<path fill-rule="evenodd" clip-rule="evenodd" d="M101 45V50H100V45H101Z" fill="#29BDFC"/>
<path fill-rule="evenodd" clip-rule="evenodd" d="M150 1H145V0H150V1Z" fill="#29BDFC"/>
<path fill-rule="evenodd" clip-rule="evenodd" d="M150 0H200V1H151V50H150V0Z" fill="#3D708C" fill-opacity="0.3"/>
<path fill-rule="evenodd" clip-rule="evenodd" d="M150 0H156.25V1H151V6H150V0Z" fill="#29BDFC"/>
<path fill-rule="evenodd" clip-rule="evenodd" d="M151 45V50H150V45H151Z" fill="#29BDFC"/>
<path fill-rule="evenodd" clip-rule="evenodd" d="M200 1H195V0H200V1Z" fill="#29BDFC"/>
<path fill-rule="evenodd" clip-rule="evenodd" d="M0 50H50V51H1V100H0V50Z" fill="#3D708C" fill-opacity="0.3"/>
<path fill-rule="evenodd" clip-rule="evenodd" d="M0 50H6.25V51H1V56H0V50Z" fill="#29BDFC"/>
<path fill-rule="evenodd" clip-rule="evenodd" d="M1 95V100H0V95H1Z" fill="#29BDFC"/>
<path fill-rule="evenodd" clip-rule="evenodd" d="M50 51H45V50H50V51Z" fill="#29BDFC"/>
<path fill-rule="evenodd" clip-rule="evenodd" d="M50 50H100V51H51V100H50V50Z" fill="#3D708C" fill-opacity="0.3"/>
<path fill-rule="evenodd" clip-rule="evenodd" d="M50 50H56.25V51H51V56H50V50Z" fill="#29BDFC"/>
<path fill-rule="evenodd" clip-rule="evenodd" d="M51 95V100H50V95H51Z" fill="#29BDFC"/>
<path fill-rule="evenodd" clip-rule="evenodd" d="M100 51H95V50H100V51Z" fill="#29BDFC"/>
<path fill-rule="evenodd" clip-rule="evenodd" d="M100 50H150V51H101V100H100V50Z" fill="#3D708C" fill-opacity="0.3"/>
<path fill-rule="evenodd" clip-rule="evenodd" d="M100 50H106.25V51H101V56H100V50Z" fill="#29BDFC"/>
<path fill-rule="evenodd" clip-rule="evenodd" d="M101 95V100H100V95H101Z" fill="#29BDFC"/>
<path fill-rule="evenodd" clip-rule="evenodd" d="M150 51H145V50H150V51Z" fill="#29BDFC"/>
<path fill-rule="evenodd" clip-rule="evenodd" d="M150 50H200V51H151V100H150V50Z" fill="#3D708C" fill-opacity="0.3"/>
<path fill-rule="evenodd" clip-rule="evenodd" d="M150 50H156.25V51H151V56H150V50Z" fill="#29BDFC"/>
<path fill-rule="evenodd" clip-rule="evenodd" d="M151 95V100H150V95H151Z" fill="#29BDFC"/>
<path fill-rule="evenodd" clip-rule="evenodd" d="M200 51H195V50H200V51Z" fill="#29BDFC"/>
<path fill-rule="evenodd" clip-rule="evenodd" d="M0 100H50V101H1V150H0V100Z" fill="#3D708C" fill-opacity="0.3"/>
<path fill-rule="evenodd" clip-rule="evenodd" d="M0 100H6.25V101H1V106H0V100Z" fill="#29BDFC"/>
<path fill-rule="evenodd" clip-rule="evenodd" d="M1 145V150H0V145H1Z" fill="#29BDFC"/>
<path fill-rule="evenodd" clip-rule="evenodd" d="M50 101H45V100H50V101Z" fill="#29BDFC"/>
<path fill-rule="evenodd" clip-rule="evenodd" d="M50 100H100V101H51V150H50V100Z" fill="#3D708C" fill-opacity="0.3"/>
<path fill-rule="evenodd" clip-rule="evenodd" d="M50 100H56.25V101H51V106H50V100Z" fill="#29BDFC"/>
<path fill-rule="evenodd" clip-rule="evenodd" d="M51 145V150H50V145H51Z" fill="#29BDFC"/>
<path fill-rule="evenodd" clip-rule="evenodd" d="M100 101H95V100H100V101Z" fill="#29BDFC"/>
<path fill-rule="evenodd" clip-rule="evenodd" d="M100 100H150V101H101V150H100V100Z" fill="#3D708C" fill-opacity="0.3"/>
<path fill-rule="evenodd" clip-rule="evenodd" d="M100 100H106.25V101H101V106H100V100Z" fill="#29BDFC"/>
<path fill-rule="evenodd" clip-rule="evenodd" d="M101 145V150H100V145H101Z" fill="#29BDFC"/>
<path fill-rule="evenodd" clip-rule="evenodd" d="M150 101H145V100H150V101Z" fill="#29BDFC"/>
<path fill-rule="evenodd" clip-rule="evenodd" d="M150 100H200V101H151V150H150V100Z" fill="#3D708C" fill-opacity="0.3"/>
<path fill-rule="evenodd" clip-rule="evenodd" d="M150 100H156.25V101H151V106H150V100Z" fill="#29BDFC"/>
<path fill-rule="evenodd" clip-rule="evenodd" d="M151 145V150H150V145H151Z" fill="#29BDFC"/>
<path fill-rule="evenodd" clip-rule="evenodd" d="M200 101H195V100H200V101Z" fill="#29BDFC"/>
<path fill-rule="evenodd" clip-rule="evenodd" d="M0 150H50V151H1V200H0V150Z" fill="#3D708C" fill-opacity="0.3"/>
<path fill-rule="evenodd" clip-rule="evenodd" d="M0 150H6.25V151H1V156H0V150Z" fill="#29BDFC"/>
<path fill-rule="evenodd" clip-rule="evenodd" d="M1 195V200H0V195H1Z" fill="#29BDFC"/>
<path fill-rule="evenodd" clip-rule="evenodd" d="M50 151H45V150H50V151Z" fill="#29BDFC"/>
<path fill-rule="evenodd" clip-rule="evenodd" d="M50 150H100V151H51V200H50V150Z" fill="#3D708C" fill-opacity="0.3"/>
<path fill-rule="evenodd" clip-rule="evenodd" d="M50 150H56.25V151H51V156H50V150Z" fill="#29BDFC"/>
<path fill-rule="evenodd" clip-rule="evenodd" d="M51 195V200H50V195H51Z" fill="#29BDFC"/>
<path fill-rule="evenodd" clip-rule="evenodd" d="M100 151H95V150H100V151Z" fill="#29BDFC"/>
<path fill-rule="evenodd" clip-rule="evenodd" d="M100 150H150V151H101V200H100V150Z" fill="#3D708C" fill-opacity="0.3"/>
<path fill-rule="evenodd" clip-rule="evenodd" d="M100 150H106.25V151H101V156H100V150Z" fill="#29BDFC"/>
<path fill-rule="evenodd" clip-rule="evenodd" d="M101 195V200H100V195H101Z" fill="#29BDFC"/>
<path fill-rule="evenodd" clip-rule="evenodd" d="M150 151H145V150H150V151Z" fill="#29BDFC"/>
<path fill-rule="evenodd" clip-rule="evenodd" d="M150 150H200V151H151V200H150V150Z" fill="#3D708C" fill-opacity="0.3"/>
<path fill-rule="evenodd" clip-rule="evenodd" d="M150 150H156.25V151H151V156H150V150Z" fill="#29BDFC"/>
<path fill-rule="evenodd" clip-rule="evenodd" d="M151 195V200H150V195H151Z" fill="#29BDFC"/>
<path fill-rule="evenodd" clip-rule="evenodd" d="M200 151H195V150H200V151Z" fill="#29BDFC"/>
</svg>
