<svg width="200" height="200" viewBox="0 0 200 200" fill="none" xmlns="http://www.w3.org/2000/svg">
<g clip-path="url(#clip0_4952_272)">
<path d="M-20 20.1L-9.95 2.69284L10.15 2.69284L20.2 20.0999L10.15 37.5071L-9.95 37.5071L-20 20.1Z" fill="#29BDFC"/>
<path d="M-20 60.1L-9.95 42.6928L10.15 42.6928L20.2 60.0999L10.15 77.5071L-9.95 77.5071L-20 60.1Z" fill="#29BDFC"/>
<path d="M-20 100.1L-9.95 82.6928L10.15 82.6928L20.2 100.1L10.15 117.507L-9.95 117.507L-20 100.1Z" fill="#29BDFC"/>
<path d="M-20 140.1L-9.95 122.693L10.15 122.693L20.2 140.1L10.15 157.507L-9.95 157.507L-20 140.1Z" fill="#29BDFC"/>
<path d="M-20 180.1L-9.95 162.693L10.15 162.693L20.2 180.1L10.15 197.507L-9.95 197.507L-20 180.1Z" fill="#29BDFC"/>
<path d="M13.5 0.0999508L23.55 -17.3072L43.65 -17.3072L53.7 0.099949L43.65 17.5071L23.55 17.5071L13.5 0.0999508Z" fill="#29BDFC"/>
<path d="M13.5 40.1L23.55 22.6928L43.65 22.6928L53.7 40.0999L43.65 57.5071L23.55 57.5071L13.5 40.1Z" fill="#29BDFC"/>
<path d="M13.5 80.1L23.55 62.6928L43.65 62.6928L53.7 80.0999L43.65 97.5071L23.55 97.5071L13.5 80.1Z" fill="#29BDFC"/>
<path d="M13.5 120.1L23.55 102.693L43.65 102.693L53.7 120.1L43.65 137.507L23.55 137.507L13.5 120.1Z" fill="#29BDFC"/>
<path d="M13.5 160.1L23.55 142.693L43.65 142.693L53.7 160.1L43.65 177.507L23.55 177.507L13.5 160.1Z" fill="#29BDFC"/>
<path d="M13.5 200.1L23.55 182.693L43.65 182.693L53.7 200.1L43.65 217.507L23.55 217.507L13.5 200.1Z" fill="#29BDFC"/>
<path d="M47 20.1L57.05 2.69284L77.15 2.69284L87.2 20.0999L77.15 37.5071L57.05 37.5071L47 20.1Z" fill="#29BDFC"/>
<path d="M47 60.1L57.05 42.6928L77.15 42.6928L87.2 60.0999L77.15 77.5071L57.05 77.5071L47 60.1Z" fill="#29BDFC"/>
<path d="M47 100.1L57.05 82.6928L77.15 82.6928L87.2 100.1L77.15 117.507L57.05 117.507L47 100.1Z" fill="#29BDFC"/>
<path d="M47 140.1L57.05 122.693L77.15 122.693L87.2 140.1L77.15 157.507L57.05 157.507L47 140.1Z" fill="#29BDFC"/>
<path d="M47 180.1L57.05 162.693L77.15 162.693L87.2 180.1L77.15 197.507L57.05 197.507L47 180.1Z" fill="#29BDFC"/>
<path d="M80.5 0.0999508L90.55 -17.3072L110.65 -17.3072L120.7 0.099949L110.65 17.5071L90.55 17.5071L80.5 0.0999508Z" fill="#29BDFC"/>
<path d="M80.5 40.1L90.55 22.6928L110.65 22.6928L120.7 40.0999L110.65 57.5071L90.55 57.5071L80.5 40.1Z" fill="#29BDFC"/>
<path d="M80.5 80.1L90.55 62.6928L110.65 62.6928L120.7 80.0999L110.65 97.5071L90.55 97.5071L80.5 80.1Z" fill="#29BDFC"/>
<path d="M80.5 120.1L90.55 102.693L110.65 102.693L120.7 120.1L110.65 137.507L90.55 137.507L80.5 120.1Z" fill="#29BDFC"/>
<path d="M80.5 160.1L90.55 142.693L110.65 142.693L120.7 160.1L110.65 177.507L90.55 177.507L80.5 160.1Z" fill="#29BDFC"/>
<path d="M80.5 200.1L90.55 182.693L110.65 182.693L120.7 200.1L110.65 217.507L90.55 217.507L80.5 200.1Z" fill="#29BDFC"/>
<path d="M114 20.1L124.05 2.69284L144.15 2.69284L154.2 20.0999L144.15 37.5071L124.05 37.5071L114 20.1Z" fill="#29BDFC"/>
<path d="M114 60.1L124.05 42.6928L144.15 42.6928L154.2 60.0999L144.15 77.5071L124.05 77.5071L114 60.1Z" fill="#29BDFC"/>
<path d="M114 100.1L124.05 82.6928L144.15 82.6928L154.2 100.1L144.15 117.507L124.05 117.507L114 100.1Z" fill="#29BDFC"/>
<path d="M114 140.1L124.05 122.693L144.15 122.693L154.2 140.1L144.15 157.507L124.05 157.507L114 140.1Z" fill="#29BDFC"/>
<path d="M114 180.1L124.05 162.693L144.15 162.693L154.2 180.1L144.15 197.507L124.05 197.507L114 180.1Z" fill="#29BDFC"/>
<path d="M147.5 0.0999508L157.55 -17.3072L177.65 -17.3072L187.7 0.099949L177.65 17.5071L157.55 17.5071L147.5 0.0999508Z" fill="#29BDFC"/>
<path d="M147.5 40.1L157.55 22.6928L177.65 22.6928L187.7 40.0999L177.65 57.5071L157.55 57.5071L147.5 40.1Z" fill="#29BDFC"/>
<path d="M147.5 80.1L157.55 62.6928L177.65 62.6928L187.7 80.0999L177.65 97.5071L157.55 97.5071L147.5 80.1Z" fill="#29BDFC"/>
<path d="M147.5 120.1L157.55 102.693L177.65 102.693L187.7 120.1L177.65 137.507L157.55 137.507L147.5 120.1Z" fill="#29BDFC"/>
<path d="M147.5 160.1L157.55 142.693L177.65 142.693L187.7 160.1L177.65 177.507L157.55 177.507L147.5 160.1Z" fill="#29BDFC"/>
<path d="M147.5 200.1L157.55 182.693L177.65 182.693L187.7 200.1L177.65 217.507L157.55 217.507L147.5 200.1Z" fill="#29BDFC"/>
<path d="M181 20.1L191.05 2.69284L211.15 2.69284L221.2 20.0999L211.15 37.5071L191.05 37.5071L181 20.1Z" fill="#29BDFC"/>
<path d="M181 60.1L191.05 42.6928L211.15 42.6928L221.2 60.0999L211.15 77.5071L191.05 77.5071L181 60.1Z" fill="#29BDFC"/>
<path d="M181 100.1L191.05 82.6928L211.15 82.6928L221.2 100.1L211.15 117.507L191.05 117.507L181 100.1Z" fill="#29BDFC"/>
<path d="M181 140.1L191.05 122.693L211.15 122.693L221.2 140.1L211.15 157.507L191.05 157.507L181 140.1Z" fill="#29BDFC"/>
<path d="M181 180.1L191.05 162.693L211.15 162.693L221.2 180.1L211.15 197.507L191.05 197.507L181 180.1Z" fill="#29BDFC"/>
</g>
<defs>
<clipPath id="clip0_4952_272">
<rect width="200" height="200" fill="white"/>
</clipPath>
</defs>
</svg>
