<svg width="200" height="200" viewBox="0 0 200 200" fill="none" xmlns="http://www.w3.org/2000/svg">
<mask id="path-1-inside-1_4953_5263" fill="white">
<path d="M38.6357 35.2271C38.6357 37.1099 37.1094 38.6362 35.2267 38.6362H14.7724C12.8896 38.6362 11.3633 37.1099 11.3633 35.2271V14.7729C11.3633 12.8901 12.8896 11.3638 14.7724 11.3638H35.2267C37.1094 11.3638 38.6357 12.8901 38.6357 14.7729V35.2271Z"/>
</mask>
<path d="M35.2267 38.6362V37.4999H14.7724V38.6362V39.7726H35.2267V38.6362ZM11.3633 35.2271H12.4996V14.7729H11.3633H10.2269V35.2271H11.3633ZM14.7724 11.3638V12.5001H35.2267V11.3638V10.2274H14.7724V11.3638ZM38.6357 14.7729H37.4994V35.2271H38.6357H39.7721V14.7729H38.6357ZM35.2267 11.3638V12.5001C36.4818 12.5001 37.4994 13.5177 37.4994 14.7729H38.6357H39.7721C39.7721 12.2625 37.737 10.2274 35.2267 10.2274V11.3638ZM11.3633 14.7729H12.4996C12.4996 13.5177 13.5172 12.5001 14.7724 12.5001V11.3638V10.2274C12.262 10.2274 10.2269 12.2625 10.2269 14.7729H11.3633ZM14.7724 38.6362V37.4999C13.5172 37.4999 12.4996 36.4823 12.4996 35.2271H11.3633H10.2269C10.2269 37.7375 12.262 39.7726 14.7724 39.7726V38.6362ZM35.2267 38.6362V39.7726C37.737 39.7726 39.7721 37.7375 39.7721 35.2271H38.6357H37.4994C37.4994 36.4823 36.4818 37.4999 35.2267 37.4999V38.6362Z" fill="#29BDFC" mask="url(#path-1-inside-1_4953_5263)"/>
<path d="M11.5215 39.5728L5.0918 46.0024L3.99902 44.9097L10.4287 38.48L11.5215 39.5728ZM45.999 44.9146L44.9141 45.9995L38.4814 39.5669L39.5654 38.4819L45.999 44.9146ZM11.5156 10.436L10.4336 11.5181L4.00195 5.08643L5.08398 4.00537L11.5156 10.436ZM45.9131 5.00635L39.4854 11.4351L38.4785 10.4272L44.9062 3.99951L45.9131 5.00635Z" fill="#29BDFC" fill-opacity="0.5"/>
<path d="M9.09473 44.3193L5.68359 47.7305L2.27246 44.3193L5.68359 40.9082L9.09473 44.3193ZM47.7314 44.3193L44.3203 47.7305L40.9082 44.3193L44.3203 40.9082L47.7314 44.3193ZM9.09277 5.68262L5.68164 9.09375L2.27051 5.68262L5.68164 2.27246L9.09277 5.68262ZM47.7275 5.68164L44.3174 9.0918L40.9072 5.68164L44.3174 2.27148L47.7275 5.68164Z" fill="#29BDFC"/>
<mask id="path-5-inside-2_4953_5263" fill="white">
<path d="M88.6362 35.2271C88.6362 37.1099 87.1099 38.6362 85.2271 38.6362H64.7729C62.8901 38.6362 61.3638 37.1099 61.3638 35.2271V14.7729C61.3638 12.8901 62.8901 11.3638 64.7729 11.3638H85.2271C87.1099 11.3638 88.6362 12.8901 88.6362 14.7729V35.2271Z"/>
</mask>
<path d="M85.2271 38.6362V37.4999H64.7729V38.6362V39.7726H85.2271V38.6362ZM61.3638 35.2271H62.5001V14.7729H61.3638H60.2274V35.2271H61.3638ZM64.7729 11.3638V12.5001H85.2271V11.3638V10.2274H64.7729V11.3638ZM88.6362 14.7729H87.4999V35.2271H88.6362H89.7726V14.7729H88.6362ZM85.2271 11.3638V12.5001C86.4823 12.5001 87.4999 13.5177 87.4999 14.7729H88.6362H89.7726C89.7726 12.2625 87.7375 10.2274 85.2271 10.2274V11.3638ZM61.3638 14.7729H62.5001C62.5001 13.5177 63.5177 12.5001 64.7729 12.5001V11.3638V10.2274C62.2625 10.2274 60.2274 12.2625 60.2274 14.7729H61.3638ZM64.7729 38.6362V37.4999C63.5177 37.4999 62.5001 36.4823 62.5001 35.2271H61.3638H60.2274C60.2274 37.7375 62.2625 39.7726 64.7729 39.7726V38.6362ZM85.2271 38.6362V39.7726C87.7375 39.7726 89.7726 37.7375 89.7726 35.2271H88.6362H87.4999C87.4999 36.4823 86.4823 37.4999 85.2271 37.4999V38.6362Z" fill="#29BDFC" mask="url(#path-5-inside-2_4953_5263)"/>
<path d="M61.522 39.5728L55.0923 46.0024L53.9995 44.9097L60.4292 38.48L61.522 39.5728ZM95.9995 44.9146L94.9146 45.9995L88.4819 39.5669L89.5659 38.4819L95.9995 44.9146ZM61.5161 10.436L60.4341 11.5181L54.0034 5.08643L55.0845 4.00537L61.5161 10.436ZM95.9136 5.00635L89.4858 11.4351L88.479 10.4272L94.9067 3.99951L95.9136 5.00635Z" fill="#29BDFC" fill-opacity="0.5"/>
<path d="M59.0947 44.3193L55.6836 47.7305L52.2725 44.3193L55.6836 40.9082L59.0947 44.3193ZM97.7314 44.3193L94.3203 47.7305L90.9082 44.3193L94.3203 40.9082L97.7314 44.3193ZM59.0918 5.68262L55.6816 9.09375L52.2705 5.68262L55.6816 2.27246L59.0918 5.68262ZM97.7275 5.68164L94.3174 9.0918L90.9072 5.68164L94.3174 2.27148L97.7275 5.68164Z" fill="#29BDFC"/>
<mask id="path-9-inside-3_4953_5263" fill="white">
<path d="M138.636 35.2271C138.636 37.1099 137.11 38.6362 135.227 38.6362H114.773C112.89 38.6362 111.364 37.1099 111.364 35.2271V14.7729C111.364 12.8901 112.89 11.3638 114.773 11.3638H135.227C137.11 11.3638 138.636 12.8901 138.636 14.7729V35.2271Z"/>
</mask>
<path d="M135.227 38.6362V37.4999H114.773V38.6362V39.7726H135.227V38.6362ZM111.364 35.2271H112.5V14.7729H111.364H110.227V35.2271H111.364ZM114.773 11.3638V12.5001H135.227V11.3638V10.2274H114.773V11.3638ZM138.636 14.7729H137.5V35.2271H138.636H139.773V14.7729H138.636ZM135.227 11.3638V12.5001C136.482 12.5001 137.5 13.5177 137.5 14.7729H138.636H139.773C139.773 12.2625 137.738 10.2274 135.227 10.2274V11.3638ZM111.364 14.7729H112.5C112.5 13.5177 113.518 12.5001 114.773 12.5001V11.3638V10.2274C112.262 10.2274 110.227 12.2625 110.227 14.7729H111.364ZM114.773 38.6362V37.4999C113.518 37.4999 112.5 36.4823 112.5 35.2271H111.364H110.227C110.227 37.7375 112.262 39.7726 114.773 39.7726V38.6362ZM135.227 38.6362V39.7726C137.738 39.7726 139.773 37.7375 139.773 35.2271H138.636H137.5C137.5 36.4823 136.482 37.4999 135.227 37.4999V38.6362Z" fill="#29BDFC" mask="url(#path-9-inside-3_4953_5263)"/>
<path d="M111.522 39.5728L105.092 46.0024L104 44.9097L110.429 38.48L111.522 39.5728ZM146 44.9146L144.915 45.9995L138.482 39.5669L139.566 38.4819L146 44.9146ZM111.516 10.436L110.434 11.5181L104.003 5.08643L105.084 4.00537L111.516 10.436ZM145.914 5.00635L139.486 11.4351L138.479 10.4272L144.907 3.99951L145.914 5.00635Z" fill="#29BDFC" fill-opacity="0.5"/>
<path d="M109.095 44.3193L105.684 47.7305L102.272 44.3193L105.684 40.9082L109.095 44.3193ZM147.731 44.3193L144.32 47.7305L140.908 44.3193L144.32 40.9082L147.731 44.3193ZM109.092 5.68262L105.682 9.09375L102.271 5.68262L105.682 2.27246L109.092 5.68262ZM147.728 5.68164L144.317 9.0918L140.907 5.68164L144.317 2.27148L147.728 5.68164Z" fill="#29BDFC"/>
<mask id="path-13-inside-4_4953_5263" fill="white">
<path d="M188.636 35.2271C188.636 37.1099 187.11 38.6362 185.227 38.6362H164.773C162.89 38.6362 161.364 37.1099 161.364 35.2271V14.7729C161.364 12.8901 162.89 11.3638 164.773 11.3638H185.227C187.11 11.3638 188.636 12.8901 188.636 14.7729V35.2271Z"/>
</mask>
<path d="M185.227 38.6362V37.4999H164.773V38.6362V39.7726H185.227V38.6362ZM161.364 35.2271H162.5V14.7729H161.364H160.227V35.2271H161.364ZM164.773 11.3638V12.5001H185.227V11.3638V10.2274H164.773V11.3638ZM188.636 14.7729H187.5V35.2271H188.636H189.773V14.7729H188.636ZM185.227 11.3638V12.5001C186.482 12.5001 187.5 13.5177 187.5 14.7729H188.636H189.773C189.773 12.2625 187.738 10.2274 185.227 10.2274V11.3638ZM161.364 14.7729H162.5C162.5 13.5177 163.518 12.5001 164.773 12.5001V11.3638V10.2274C162.262 10.2274 160.227 12.2625 160.227 14.7729H161.364ZM164.773 38.6362V37.4999C163.518 37.4999 162.5 36.4823 162.5 35.2271H161.364H160.227C160.227 37.7375 162.262 39.7726 164.773 39.7726V38.6362ZM185.227 38.6362V39.7726C187.738 39.7726 189.773 37.7375 189.773 35.2271H188.636H187.5C187.5 36.4823 186.482 37.4999 185.227 37.4999V38.6362Z" fill="#29BDFC" mask="url(#path-13-inside-4_4953_5263)"/>
<path d="M161.522 39.5728L155.092 46.0024L154 44.9097L160.429 38.48L161.522 39.5728ZM196 44.9146L194.915 45.9995L188.482 39.5669L189.566 38.4819L196 44.9146ZM161.516 10.436L160.434 11.5181L154.003 5.08643L155.084 4.00537L161.516 10.436ZM195.914 5.00635L189.486 11.4351L188.479 10.4272L194.907 3.99951L195.914 5.00635Z" fill="#29BDFC" fill-opacity="0.5"/>
<path d="M159.095 44.3193L155.684 47.7305L152.272 44.3193L155.684 40.9082L159.095 44.3193ZM197.731 44.3193L194.32 47.7305L190.908 44.3193L194.32 40.9082L197.731 44.3193ZM159.092 5.68262L155.682 9.09375L152.271 5.68262L155.682 2.27246L159.092 5.68262ZM197.728 5.68164L194.317 9.0918L190.907 5.68164L194.317 2.27148L197.728 5.68164Z" fill="#29BDFC"/>
<mask id="path-17-inside-5_4953_5263" fill="white">
<path d="M38.6357 85.2271C38.6357 87.1099 37.1094 88.6362 35.2267 88.6362H14.7724C12.8896 88.6362 11.3633 87.1099 11.3633 85.2271V64.7729C11.3633 62.8901 12.8896 61.3638 14.7724 61.3638H35.2267C37.1094 61.3638 38.6357 62.8901 38.6357 64.7729V85.2271Z"/>
</mask>
<path d="M35.2267 88.6362V87.4999H14.7724V88.6362V89.7726H35.2267V88.6362ZM11.3633 85.2271H12.4996V64.7729H11.3633H10.2269V85.2271H11.3633ZM14.7724 61.3638V62.5001H35.2267V61.3638V60.2274H14.7724V61.3638ZM38.6357 64.7729H37.4994V85.2271H38.6357H39.7721V64.7729H38.6357ZM35.2267 61.3638V62.5001C36.4818 62.5001 37.4994 63.5177 37.4994 64.7729H38.6357H39.7721C39.7721 62.2625 37.737 60.2274 35.2267 60.2274V61.3638ZM11.3633 64.7729H12.4996C12.4996 63.5177 13.5172 62.5001 14.7724 62.5001V61.3638V60.2274C12.262 60.2274 10.2269 62.2625 10.2269 64.7729H11.3633ZM14.7724 88.6362V87.4999C13.5172 87.4999 12.4996 86.4823 12.4996 85.2271H11.3633H10.2269C10.2269 87.7375 12.262 89.7726 14.7724 89.7726V88.6362ZM35.2267 88.6362V89.7726C37.737 89.7726 39.7721 87.7375 39.7721 85.2271H38.6357H37.4994C37.4994 86.4823 36.4818 87.4999 35.2267 87.4999V88.6362Z" fill="#29BDFC" mask="url(#path-17-inside-5_4953_5263)"/>
<path d="M11.5215 89.5728L5.0918 96.0024L3.99902 94.9097L10.4287 88.48L11.5215 89.5728ZM45.999 94.9146L44.9141 95.9995L38.4814 89.5669L39.5654 88.4819L45.999 94.9146ZM11.5156 60.436L10.4336 61.5181L4.00195 55.0864L5.08398 54.0054L11.5156 60.436ZM45.9131 55.0063L39.4854 61.4351L38.4785 60.4272L44.9062 53.9995L45.9131 55.0063Z" fill="#29BDFC" fill-opacity="0.5"/>
<path d="M9.09473 94.3193L5.68359 97.7305L2.27246 94.3193L5.68359 90.9082L9.09473 94.3193ZM47.7314 94.3193L44.3203 97.7305L40.9082 94.3193L44.3203 90.9082L47.7314 94.3193ZM9.09277 55.6826L5.68164 59.0938L2.27051 55.6826L5.68164 52.2725L9.09277 55.6826ZM47.7275 55.6816L44.3174 59.0918L40.9072 55.6816L44.3174 52.2715L47.7275 55.6816Z" fill="#29BDFC"/>
<mask id="path-21-inside-6_4953_5263" fill="white">
<path d="M88.6362 85.2271C88.6362 87.1099 87.1099 88.6362 85.2271 88.6362H64.7729C62.8901 88.6362 61.3638 87.1099 61.3638 85.2271V64.7729C61.3638 62.8901 62.8901 61.3638 64.7729 61.3638H85.2271C87.1099 61.3638 88.6362 62.8901 88.6362 64.7729V85.2271Z"/>
</mask>
<path d="M85.2271 88.6362V87.4999H64.7729V88.6362V89.7726H85.2271V88.6362ZM61.3638 85.2271H62.5001V64.7729H61.3638H60.2274V85.2271H61.3638ZM64.7729 61.3638V62.5001H85.2271V61.3638V60.2274H64.7729V61.3638ZM88.6362 64.7729H87.4999V85.2271H88.6362H89.7726V64.7729H88.6362ZM85.2271 61.3638V62.5001C86.4823 62.5001 87.4999 63.5177 87.4999 64.7729H88.6362H89.7726C89.7726 62.2625 87.7375 60.2274 85.2271 60.2274V61.3638ZM61.3638 64.7729H62.5001C62.5001 63.5177 63.5177 62.5001 64.7729 62.5001V61.3638V60.2274C62.2625 60.2274 60.2274 62.2625 60.2274 64.7729H61.3638ZM64.7729 88.6362V87.4999C63.5177 87.4999 62.5001 86.4823 62.5001 85.2271H61.3638H60.2274C60.2274 87.7375 62.2625 89.7726 64.7729 89.7726V88.6362ZM85.2271 88.6362V89.7726C87.7375 89.7726 89.7726 87.7375 89.7726 85.2271H88.6362H87.4999C87.4999 86.4823 86.4823 87.4999 85.2271 87.4999V88.6362Z" fill="#29BDFC" mask="url(#path-21-inside-6_4953_5263)"/>
<path d="M61.522 89.5728L55.0923 96.0024L53.9995 94.9097L60.4292 88.48L61.522 89.5728ZM95.9995 94.9146L94.9146 95.9995L88.4819 89.5669L89.5659 88.4819L95.9995 94.9146ZM61.5161 60.436L60.4341 61.5181L54.0034 55.0864L55.0845 54.0054L61.5161 60.436ZM95.9136 55.0063L89.4858 61.4351L88.479 60.4272L94.9067 53.9995L95.9136 55.0063Z" fill="#29BDFC" fill-opacity="0.5"/>
<path d="M59.0947 94.3193L55.6836 97.7305L52.2725 94.3193L55.6836 90.9082L59.0947 94.3193ZM97.7314 94.3193L94.3203 97.7305L90.9082 94.3193L94.3203 90.9082L97.7314 94.3193ZM59.0918 55.6826L55.6816 59.0938L52.2705 55.6826L55.6816 52.2725L59.0918 55.6826ZM97.7275 55.6816L94.3174 59.0918L90.9072 55.6816L94.3174 52.2715L97.7275 55.6816Z" fill="#29BDFC"/>
<mask id="path-25-inside-7_4953_5263" fill="white">
<path d="M138.636 85.2271C138.636 87.1099 137.11 88.6362 135.227 88.6362H114.773C112.89 88.6362 111.364 87.1099 111.364 85.2271V64.7729C111.364 62.8901 112.89 61.3638 114.773 61.3638H135.227C137.11 61.3638 138.636 62.8901 138.636 64.7729V85.2271Z"/>
</mask>
<path d="M135.227 88.6362V87.4999H114.773V88.6362V89.7726H135.227V88.6362ZM111.364 85.2271H112.5V64.7729H111.364H110.227V85.2271H111.364ZM114.773 61.3638V62.5001H135.227V61.3638V60.2274H114.773V61.3638ZM138.636 64.7729H137.5V85.2271H138.636H139.773V64.7729H138.636ZM135.227 61.3638V62.5001C136.482 62.5001 137.5 63.5177 137.5 64.7729H138.636H139.773C139.773 62.2625 137.738 60.2274 135.227 60.2274V61.3638ZM111.364 64.7729H112.5C112.5 63.5177 113.518 62.5001 114.773 62.5001V61.3638V60.2274C112.262 60.2274 110.227 62.2625 110.227 64.7729H111.364ZM114.773 88.6362V87.4999C113.518 87.4999 112.5 86.4823 112.5 85.2271H111.364H110.227C110.227 87.7375 112.262 89.7726 114.773 89.7726V88.6362ZM135.227 88.6362V89.7726C137.738 89.7726 139.773 87.7375 139.773 85.2271H138.636H137.5C137.5 86.4823 136.482 87.4999 135.227 87.4999V88.6362Z" fill="#29BDFC" mask="url(#path-25-inside-7_4953_5263)"/>
<path d="M111.522 89.5728L105.092 96.0024L104 94.9097L110.429 88.48L111.522 89.5728ZM146 94.9146L144.915 95.9995L138.482 89.5669L139.566 88.4819L146 94.9146ZM111.516 60.436L110.434 61.5181L104.003 55.0864L105.084 54.0054L111.516 60.436ZM145.914 55.0063L139.486 61.4351L138.479 60.4272L144.907 53.9995L145.914 55.0063Z" fill="#29BDFC" fill-opacity="0.5"/>
<path d="M109.095 94.3193L105.684 97.7305L102.272 94.3193L105.684 90.9082L109.095 94.3193ZM147.731 94.3193L144.32 97.7305L140.908 94.3193L144.32 90.9082L147.731 94.3193ZM109.092 55.6826L105.682 59.0938L102.271 55.6826L105.682 52.2725L109.092 55.6826ZM147.728 55.6816L144.317 59.0918L140.907 55.6816L144.317 52.2715L147.728 55.6816Z" fill="#29BDFC"/>
<mask id="path-29-inside-8_4953_5263" fill="white">
<path d="M188.636 85.2271C188.636 87.1099 187.11 88.6362 185.227 88.6362H164.773C162.89 88.6362 161.364 87.1099 161.364 85.2271V64.7729C161.364 62.8901 162.89 61.3638 164.773 61.3638H185.227C187.11 61.3638 188.636 62.8901 188.636 64.7729V85.2271Z"/>
</mask>
<path d="M185.227 88.6362V87.4999H164.773V88.6362V89.7726H185.227V88.6362ZM161.364 85.2271H162.5V64.7729H161.364H160.227V85.2271H161.364ZM164.773 61.3638V62.5001H185.227V61.3638V60.2274H164.773V61.3638ZM188.636 64.7729H187.5V85.2271H188.636H189.773V64.7729H188.636ZM185.227 61.3638V62.5001C186.482 62.5001 187.5 63.5177 187.5 64.7729H188.636H189.773C189.773 62.2625 187.738 60.2274 185.227 60.2274V61.3638ZM161.364 64.7729H162.5C162.5 63.5177 163.518 62.5001 164.773 62.5001V61.3638V60.2274C162.262 60.2274 160.227 62.2625 160.227 64.7729H161.364ZM164.773 88.6362V87.4999C163.518 87.4999 162.5 86.4823 162.5 85.2271H161.364H160.227C160.227 87.7375 162.262 89.7726 164.773 89.7726V88.6362ZM185.227 88.6362V89.7726C187.738 89.7726 189.773 87.7375 189.773 85.2271H188.636H187.5C187.5 86.4823 186.482 87.4999 185.227 87.4999V88.6362Z" fill="#29BDFC" mask="url(#path-29-inside-8_4953_5263)"/>
<path d="M161.522 89.5728L155.092 96.0024L154 94.9097L160.429 88.48L161.522 89.5728ZM196 94.9146L194.915 95.9995L188.482 89.5669L189.566 88.4819L196 94.9146ZM161.516 60.436L160.434 61.5181L154.003 55.0864L155.084 54.0054L161.516 60.436ZM195.914 55.0063L189.486 61.4351L188.479 60.4272L194.907 53.9995L195.914 55.0063Z" fill="#29BDFC" fill-opacity="0.5"/>
<path d="M159.095 94.3193L155.684 97.7305L152.272 94.3193L155.684 90.9082L159.095 94.3193ZM197.731 94.3193L194.32 97.7305L190.908 94.3193L194.32 90.9082L197.731 94.3193ZM159.092 55.6826L155.682 59.0938L152.271 55.6826L155.682 52.2725L159.092 55.6826ZM197.728 55.6816L194.317 59.0918L190.907 55.6816L194.317 52.2715L197.728 55.6816Z" fill="#29BDFC"/>
<mask id="path-33-inside-9_4953_5263" fill="white">
<path d="M38.6357 135.227C38.6357 137.11 37.1094 138.636 35.2267 138.636H14.7724C12.8896 138.636 11.3633 137.11 11.3633 135.227V114.773C11.3633 112.89 12.8896 111.364 14.7724 111.364H35.2267C37.1094 111.364 38.6357 112.89 38.6357 114.773V135.227Z"/>
</mask>
<path d="M35.2267 138.636V137.5H14.7724V138.636V139.773H35.2267V138.636ZM11.3633 135.227H12.4996V114.773H11.3633H10.2269V135.227H11.3633ZM14.7724 111.364V112.5H35.2267V111.364V110.227H14.7724V111.364ZM38.6357 114.773H37.4994V135.227H38.6357H39.7721V114.773H38.6357ZM35.2267 111.364V112.5C36.4818 112.5 37.4994 113.518 37.4994 114.773H38.6357H39.7721C39.7721 112.262 37.737 110.227 35.2267 110.227V111.364ZM11.3633 114.773H12.4996C12.4996 113.518 13.5172 112.5 14.7724 112.5V111.364V110.227C12.262 110.227 10.2269 112.262 10.2269 114.773H11.3633ZM14.7724 138.636V137.5C13.5172 137.5 12.4996 136.482 12.4996 135.227H11.3633H10.2269C10.2269 137.738 12.262 139.773 14.7724 139.773V138.636ZM35.2267 138.636V139.773C37.737 139.773 39.7721 137.738 39.7721 135.227H38.6357H37.4994C37.4994 136.482 36.4818 137.5 35.2267 137.5V138.636Z" fill="#29BDFC" mask="url(#path-33-inside-9_4953_5263)"/>
<path d="M11.5215 139.573L5.0918 146.002L3.99902 144.91L10.4287 138.48L11.5215 139.573ZM45.999 144.915L44.9141 146L38.4814 139.567L39.5654 138.482L45.999 144.915ZM11.5156 110.436L10.4336 111.518L4.00195 105.086L5.08398 104.005L11.5156 110.436ZM45.9131 105.006L39.4854 111.435L38.4785 110.427L44.9062 104L45.9131 105.006Z" fill="#29BDFC" fill-opacity="0.5"/>
<path d="M9.09473 144.319L5.68359 147.73L2.27246 144.319L5.68359 140.908L9.09473 144.319ZM47.7314 144.319L44.3203 147.73L40.9082 144.319L44.3203 140.908L47.7314 144.319ZM9.09277 105.683L5.68164 109.094L2.27051 105.683L5.68164 102.272L9.09277 105.683ZM47.7275 105.682L44.3174 109.092L40.9072 105.682L44.3174 102.271L47.7275 105.682Z" fill="#29BDFC"/>
<mask id="path-37-inside-10_4953_5263" fill="white">
<path d="M88.6362 135.227C88.6362 137.11 87.1099 138.636 85.2271 138.636H64.7729C62.8901 138.636 61.3638 137.11 61.3638 135.227V114.773C61.3638 112.89 62.8901 111.364 64.7729 111.364H85.2271C87.1099 111.364 88.6362 112.89 88.6362 114.773V135.227Z"/>
</mask>
<path d="M85.2271 138.636V137.5H64.7729V138.636V139.773H85.2271V138.636ZM61.3638 135.227H62.5001V114.773H61.3638H60.2274V135.227H61.3638ZM64.7729 111.364V112.5H85.2271V111.364V110.227H64.7729V111.364ZM88.6362 114.773H87.4999V135.227H88.6362H89.7726V114.773H88.6362ZM85.2271 111.364V112.5C86.4823 112.5 87.4999 113.518 87.4999 114.773H88.6362H89.7726C89.7726 112.262 87.7375 110.227 85.2271 110.227V111.364ZM61.3638 114.773H62.5001C62.5001 113.518 63.5177 112.5 64.7729 112.5V111.364V110.227C62.2625 110.227 60.2274 112.262 60.2274 114.773H61.3638ZM64.7729 138.636V137.5C63.5177 137.5 62.5001 136.482 62.5001 135.227H61.3638H60.2274C60.2274 137.738 62.2625 139.773 64.7729 139.773V138.636ZM85.2271 138.636V139.773C87.7375 139.773 89.7726 137.738 89.7726 135.227H88.6362H87.4999C87.4999 136.482 86.4823 137.5 85.2271 137.5V138.636Z" fill="#29BDFC" mask="url(#path-37-inside-10_4953_5263)"/>
<path d="M61.522 139.573L55.0923 146.002L53.9995 144.91L60.4292 138.48L61.522 139.573ZM95.9995 144.915L94.9146 146L88.4819 139.567L89.5659 138.482L95.9995 144.915ZM61.5161 110.436L60.4341 111.518L54.0034 105.086L55.0845 104.005L61.5161 110.436ZM95.9136 105.006L89.4858 111.435L88.479 110.427L94.9067 104L95.9136 105.006Z" fill="#29BDFC" fill-opacity="0.5"/>
<path d="M59.0947 144.319L55.6836 147.73L52.2725 144.319L55.6836 140.908L59.0947 144.319ZM97.7314 144.319L94.3203 147.73L90.9082 144.319L94.3203 140.908L97.7314 144.319ZM59.0918 105.683L55.6816 109.094L52.2705 105.683L55.6816 102.272L59.0918 105.683ZM97.7275 105.682L94.3174 109.092L90.9072 105.682L94.3174 102.271L97.7275 105.682Z" fill="#29BDFC"/>
<mask id="path-41-inside-11_4953_5263" fill="white">
<path d="M138.636 135.227C138.636 137.11 137.11 138.636 135.227 138.636H114.773C112.89 138.636 111.364 137.11 111.364 135.227V114.773C111.364 112.89 112.89 111.364 114.773 111.364H135.227C137.11 111.364 138.636 112.89 138.636 114.773V135.227Z"/>
</mask>
<path d="M135.227 138.636V137.5H114.773V138.636V139.773H135.227V138.636ZM111.364 135.227H112.5V114.773H111.364H110.227V135.227H111.364ZM114.773 111.364V112.5H135.227V111.364V110.227H114.773V111.364ZM138.636 114.773H137.5V135.227H138.636H139.773V114.773H138.636ZM135.227 111.364V112.5C136.482 112.5 137.5 113.518 137.5 114.773H138.636H139.773C139.773 112.262 137.738 110.227 135.227 110.227V111.364ZM111.364 114.773H112.5C112.5 113.518 113.518 112.5 114.773 112.5V111.364V110.227C112.262 110.227 110.227 112.262 110.227 114.773H111.364ZM114.773 138.636V137.5C113.518 137.5 112.5 136.482 112.5 135.227H111.364H110.227C110.227 137.738 112.262 139.773 114.773 139.773V138.636ZM135.227 138.636V139.773C137.738 139.773 139.773 137.738 139.773 135.227H138.636H137.5C137.5 136.482 136.482 137.5 135.227 137.5V138.636Z" fill="#29BDFC" mask="url(#path-41-inside-11_4953_5263)"/>
<path d="M111.522 139.573L105.092 146.002L104 144.91L110.429 138.48L111.522 139.573ZM146 144.915L144.915 146L138.482 139.567L139.566 138.482L146 144.915ZM111.516 110.436L110.434 111.518L104.003 105.086L105.084 104.005L111.516 110.436ZM145.914 105.006L139.486 111.435L138.479 110.427L144.907 104L145.914 105.006Z" fill="#29BDFC" fill-opacity="0.5"/>
<path d="M109.095 144.319L105.684 147.73L102.272 144.319L105.684 140.908L109.095 144.319ZM147.731 144.319L144.32 147.73L140.908 144.319L144.32 140.908L147.731 144.319ZM109.092 105.683L105.682 109.094L102.271 105.683L105.682 102.272L109.092 105.683ZM147.728 105.682L144.317 109.092L140.907 105.682L144.317 102.271L147.728 105.682Z" fill="#29BDFC"/>
<mask id="path-45-inside-12_4953_5263" fill="white">
<path d="M188.636 135.227C188.636 137.11 187.11 138.636 185.227 138.636H164.773C162.89 138.636 161.364 137.11 161.364 135.227V114.773C161.364 112.89 162.89 111.364 164.773 111.364H185.227C187.11 111.364 188.636 112.89 188.636 114.773V135.227Z"/>
</mask>
<path d="M185.227 138.636V137.5H164.773V138.636V139.773H185.227V138.636ZM161.364 135.227H162.5V114.773H161.364H160.227V135.227H161.364ZM164.773 111.364V112.5H185.227V111.364V110.227H164.773V111.364ZM188.636 114.773H187.5V135.227H188.636H189.773V114.773H188.636ZM185.227 111.364V112.5C186.482 112.5 187.5 113.518 187.5 114.773H188.636H189.773C189.773 112.262 187.738 110.227 185.227 110.227V111.364ZM161.364 114.773H162.5C162.5 113.518 163.518 112.5 164.773 112.5V111.364V110.227C162.262 110.227 160.227 112.262 160.227 114.773H161.364ZM164.773 138.636V137.5C163.518 137.5 162.5 136.482 162.5 135.227H161.364H160.227C160.227 137.738 162.262 139.773 164.773 139.773V138.636ZM185.227 138.636V139.773C187.738 139.773 189.773 137.738 189.773 135.227H188.636H187.5C187.5 136.482 186.482 137.5 185.227 137.5V138.636Z" fill="#29BDFC" mask="url(#path-45-inside-12_4953_5263)"/>
<path d="M161.522 139.573L155.092 146.002L154 144.91L160.429 138.48L161.522 139.573ZM196 144.915L194.915 146L188.482 139.567L189.566 138.482L196 144.915ZM161.516 110.436L160.434 111.518L154.003 105.086L155.084 104.005L161.516 110.436ZM195.914 105.006L189.486 111.435L188.479 110.427L194.907 104L195.914 105.006Z" fill="#29BDFC" fill-opacity="0.5"/>
<path d="M159.095 144.319L155.684 147.73L152.272 144.319L155.684 140.908L159.095 144.319ZM197.731 144.319L194.32 147.73L190.908 144.319L194.32 140.908L197.731 144.319ZM159.092 105.683L155.682 109.094L152.271 105.683L155.682 102.272L159.092 105.683ZM197.728 105.682L194.317 109.092L190.907 105.682L194.317 102.271L197.728 105.682Z" fill="#29BDFC"/>
<mask id="path-49-inside-13_4953_5263" fill="white">
<path d="M38.6357 185.227C38.6357 187.11 37.1094 188.636 35.2267 188.636H14.7724C12.8896 188.636 11.3633 187.11 11.3633 185.227V164.773C11.3633 162.89 12.8896 161.364 14.7724 161.364H35.2267C37.1094 161.364 38.6357 162.89 38.6357 164.773V185.227Z"/>
</mask>
<path d="M35.2267 188.636V187.5H14.7724V188.636V189.773H35.2267V188.636ZM11.3633 185.227H12.4996V164.773H11.3633H10.2269V185.227H11.3633ZM14.7724 161.364V162.5H35.2267V161.364V160.227H14.7724V161.364ZM38.6357 164.773H37.4994V185.227H38.6357H39.7721V164.773H38.6357ZM35.2267 161.364V162.5C36.4818 162.5 37.4994 163.518 37.4994 164.773H38.6357H39.7721C39.7721 162.262 37.737 160.227 35.2267 160.227V161.364ZM11.3633 164.773H12.4996C12.4996 163.518 13.5172 162.5 14.7724 162.5V161.364V160.227C12.262 160.227 10.2269 162.262 10.2269 164.773H11.3633ZM14.7724 188.636V187.5C13.5172 187.5 12.4996 186.482 12.4996 185.227H11.3633H10.2269C10.2269 187.738 12.262 189.773 14.7724 189.773V188.636ZM35.2267 188.636V189.773C37.737 189.773 39.7721 187.738 39.7721 185.227H38.6357H37.4994C37.4994 186.482 36.4818 187.5 35.2267 187.5V188.636Z" fill="#29BDFC" mask="url(#path-49-inside-13_4953_5263)"/>
<path d="M11.5215 189.573L5.0918 196.002L3.99902 194.91L10.4287 188.48L11.5215 189.573ZM45.999 194.915L44.9141 196L38.4814 189.567L39.5654 188.482L45.999 194.915ZM11.5156 160.436L10.4336 161.518L4.00195 155.086L5.08398 154.005L11.5156 160.436ZM45.9131 155.006L39.4854 161.435L38.4785 160.427L44.9062 154L45.9131 155.006Z" fill="#29BDFC" fill-opacity="0.5"/>
<path d="M9.09473 194.319L5.68359 197.73L2.27246 194.319L5.68359 190.908L9.09473 194.319ZM47.7314 194.319L44.3203 197.73L40.9082 194.319L44.3203 190.908L47.7314 194.319ZM9.09277 155.683L5.68164 159.094L2.27051 155.683L5.68164 152.272L9.09277 155.683ZM47.7275 155.682L44.3174 159.092L40.9072 155.682L44.3174 152.271L47.7275 155.682Z" fill="#29BDFC"/>
<mask id="path-53-inside-14_4953_5263" fill="white">
<path d="M88.6362 185.227C88.6362 187.11 87.1099 188.636 85.2271 188.636H64.7729C62.8901 188.636 61.3638 187.11 61.3638 185.227V164.773C61.3638 162.89 62.8901 161.364 64.7729 161.364H85.2271C87.1099 161.364 88.6362 162.89 88.6362 164.773V185.227Z"/>
</mask>
<path d="M85.2271 188.636V187.5H64.7729V188.636V189.773H85.2271V188.636ZM61.3638 185.227H62.5001V164.773H61.3638H60.2274V185.227H61.3638ZM64.7729 161.364V162.5H85.2271V161.364V160.227H64.7729V161.364ZM88.6362 164.773H87.4999V185.227H88.6362H89.7726V164.773H88.6362ZM85.2271 161.364V162.5C86.4823 162.5 87.4999 163.518 87.4999 164.773H88.6362H89.7726C89.7726 162.262 87.7375 160.227 85.2271 160.227V161.364ZM61.3638 164.773H62.5001C62.5001 163.518 63.5177 162.5 64.7729 162.5V161.364V160.227C62.2625 160.227 60.2274 162.262 60.2274 164.773H61.3638ZM64.7729 188.636V187.5C63.5177 187.5 62.5001 186.482 62.5001 185.227H61.3638H60.2274C60.2274 187.738 62.2625 189.773 64.7729 189.773V188.636ZM85.2271 188.636V189.773C87.7375 189.773 89.7726 187.738 89.7726 185.227H88.6362H87.4999C87.4999 186.482 86.4823 187.5 85.2271 187.5V188.636Z" fill="#29BDFC" mask="url(#path-53-inside-14_4953_5263)"/>
<path d="M61.522 189.573L55.0923 196.002L53.9995 194.91L60.4292 188.48L61.522 189.573ZM95.9995 194.915L94.9146 196L88.4819 189.567L89.5659 188.482L95.9995 194.915ZM61.5161 160.436L60.4341 161.518L54.0034 155.086L55.0845 154.005L61.5161 160.436ZM95.9136 155.006L89.4858 161.435L88.479 160.427L94.9067 154L95.9136 155.006Z" fill="#29BDFC" fill-opacity="0.5"/>
<path d="M59.0947 194.319L55.6836 197.73L52.2725 194.319L55.6836 190.908L59.0947 194.319ZM97.7314 194.319L94.3203 197.73L90.9082 194.319L94.3203 190.908L97.7314 194.319ZM59.0918 155.683L55.6816 159.094L52.2705 155.683L55.6816 152.272L59.0918 155.683ZM97.7275 155.682L94.3174 159.092L90.9072 155.682L94.3174 152.271L97.7275 155.682Z" fill="#29BDFC"/>
<mask id="path-57-inside-15_4953_5263" fill="white">
<path d="M138.636 185.227C138.636 187.11 137.11 188.636 135.227 188.636H114.773C112.89 188.636 111.364 187.11 111.364 185.227V164.773C111.364 162.89 112.89 161.364 114.773 161.364H135.227C137.11 161.364 138.636 162.89 138.636 164.773V185.227Z"/>
</mask>
<path d="M135.227 188.636V187.5H114.773V188.636V189.773H135.227V188.636ZM111.364 185.227H112.5V164.773H111.364H110.227V185.227H111.364ZM114.773 161.364V162.5H135.227V161.364V160.227H114.773V161.364ZM138.636 164.773H137.5V185.227H138.636H139.773V164.773H138.636ZM135.227 161.364V162.5C136.482 162.5 137.5 163.518 137.5 164.773H138.636H139.773C139.773 162.262 137.738 160.227 135.227 160.227V161.364ZM111.364 164.773H112.5C112.5 163.518 113.518 162.5 114.773 162.5V161.364V160.227C112.262 160.227 110.227 162.262 110.227 164.773H111.364ZM114.773 188.636V187.5C113.518 187.5 112.5 186.482 112.5 185.227H111.364H110.227C110.227 187.738 112.262 189.773 114.773 189.773V188.636ZM135.227 188.636V189.773C137.738 189.773 139.773 187.738 139.773 185.227H138.636H137.5C137.5 186.482 136.482 187.5 135.227 187.5V188.636Z" fill="#29BDFC" mask="url(#path-57-inside-15_4953_5263)"/>
<path d="M111.522 189.573L105.092 196.002L104 194.91L110.429 188.48L111.522 189.573ZM146 194.915L144.915 196L138.482 189.567L139.566 188.482L146 194.915ZM111.516 160.436L110.434 161.518L104.003 155.086L105.084 154.005L111.516 160.436ZM145.914 155.006L139.486 161.435L138.479 160.427L144.907 154L145.914 155.006Z" fill="#29BDFC" fill-opacity="0.5"/>
<path d="M109.095 194.319L105.684 197.73L102.272 194.319L105.684 190.908L109.095 194.319ZM147.731 194.319L144.32 197.73L140.908 194.319L144.32 190.908L147.731 194.319ZM109.092 155.683L105.682 159.094L102.271 155.683L105.682 152.272L109.092 155.683ZM147.728 155.682L144.317 159.092L140.907 155.682L144.317 152.271L147.728 155.682Z" fill="#29BDFC"/>
<mask id="path-61-inside-16_4953_5263" fill="white">
<path d="M188.636 185.227C188.636 187.11 187.11 188.636 185.227 188.636H164.773C162.89 188.636 161.364 187.11 161.364 185.227V164.773C161.364 162.89 162.89 161.364 164.773 161.364H185.227C187.11 161.364 188.636 162.89 188.636 164.773V185.227Z"/>
</mask>
<path d="M185.227 188.636V187.5H164.773V188.636V189.773H185.227V188.636ZM161.364 185.227H162.5V164.773H161.364H160.227V185.227H161.364ZM164.773 161.364V162.5H185.227V161.364V160.227H164.773V161.364ZM188.636 164.773H187.5V185.227H188.636H189.773V164.773H188.636ZM185.227 161.364V162.5C186.482 162.5 187.5 163.518 187.5 164.773H188.636H189.773C189.773 162.262 187.738 160.227 185.227 160.227V161.364ZM161.364 164.773H162.5C162.5 163.518 163.518 162.5 164.773 162.5V161.364V160.227C162.262 160.227 160.227 162.262 160.227 164.773H161.364ZM164.773 188.636V187.5C163.518 187.5 162.5 186.482 162.5 185.227H161.364H160.227C160.227 187.738 162.262 189.773 164.773 189.773V188.636ZM185.227 188.636V189.773C187.738 189.773 189.773 187.738 189.773 185.227H188.636H187.5C187.5 186.482 186.482 187.5 185.227 187.5V188.636Z" fill="#29BDFC" mask="url(#path-61-inside-16_4953_5263)"/>
<path d="M161.522 189.573L155.092 196.002L154 194.91L160.429 188.48L161.522 189.573ZM196 194.915L194.915 196L188.482 189.567L189.566 188.482L196 194.915ZM161.516 160.436L160.434 161.518L154.003 155.086L155.084 154.005L161.516 160.436ZM195.914 155.006L189.486 161.435L188.479 160.427L194.907 154L195.914 155.006Z" fill="#29BDFC" fill-opacity="0.5"/>
<path d="M159.095 194.319L155.684 197.73L152.272 194.319L155.684 190.908L159.095 194.319ZM197.731 194.319L194.32 197.73L190.908 194.319L194.32 190.908L197.731 194.319ZM159.092 155.683L155.682 159.094L152.271 155.683L155.682 152.272L159.092 155.683ZM197.728 155.682L194.317 159.092L190.907 155.682L194.317 152.271L197.728 155.682Z" fill="#29BDFC"/>
</svg>
