<svg width="200" height="200" viewBox="0 0 200 200" fill="none" xmlns="http://www.w3.org/2000/svg">
<g clip-path="url(#clip0_4953_10260)">
<rect x="50" y="36.9815" width="18.4108" height="18.4108" transform="rotate(45 50 36.9815)" stroke="#29BDFC"/>
<rect x="100.025" y="87.0069" width="18.4108" height="18.4108" transform="rotate(45 100.025 87.0069)" stroke="#29BDFC"/>
<rect y="-13.0234" width="18.4108" height="18.4108" transform="rotate(45 0 -13.0234)" stroke="#29BDFC"/>
<rect x="75" width="35.3552" height="35.3552" transform="rotate(45 75 0)" stroke="#29BDFC" stroke-width="2.01263"/>
<rect x="25" width="35.3552" height="35.3552" transform="rotate(45 25 0)" stroke="#29BDFC" stroke-width="2.01263"/>
<rect x="75" y="50" width="35.3552" height="35.3552" transform="rotate(45 75 50)" stroke="#29BDFC" stroke-width="2.01263"/>
<rect x="25" y="50" width="35.3552" height="35.3552" transform="rotate(45 25 50)" stroke="#29BDFC" stroke-width="2.01263"/>
<rect x="13.0141" y="100.025" width="18.4108" height="18.4108" transform="rotate(135 13.0141 100.025)" stroke="#29BDFC"/>
<rect x="113.044" y="-5.96046e-08" width="18.4108" height="18.4108" transform="rotate(135 113.044 -5.96046e-08)" stroke="#29BDFC"/>
<rect x="-0.00439453" y="36.9815" width="18.4108" height="18.4108" transform="rotate(45 -0.00439453 36.9815)" stroke="#29BDFC"/>
<rect x="100.025" y="36.9815" width="18.4108" height="18.4108" transform="rotate(45 100.025 36.9815)" stroke="#29BDFC"/>
<rect x="50" y="-13.0234" width="18.4108" height="18.4108" transform="rotate(45 50 -13.0234)" stroke="#29BDFC"/>
<rect x="50" y="87.0069" width="18.4108" height="18.4108" transform="rotate(45 50 87.0069)" stroke="#29BDFC"/>
<rect x="75.4902" y="14.7061" width="13.8648" height="13.8648" transform="rotate(45 75.4902 14.7061)" fill="#29BDFC"/>
<rect x="24.5098" y="14.7061" width="13.8648" height="13.8648" transform="rotate(45 24.5098 14.7061)" fill="#29BDFC"/>
<rect x="75.4902" y="65.6865" width="13.8648" height="13.8648" transform="rotate(45 75.4902 65.6865)" fill="#29BDFC"/>
<rect x="24.5098" y="65.6865" width="13.8648" height="13.8648" transform="rotate(45 24.5098 65.6865)" fill="#29BDFC"/>
</g>
<g clip-path="url(#clip1_4953_10260)">
<rect x="50" y="136.982" width="18.4108" height="18.4108" transform="rotate(45 50 136.982)" stroke="#29BDFC"/>
<rect x="100.025" y="187.007" width="18.4108" height="18.4108" transform="rotate(45 100.025 187.007)" stroke="#29BDFC"/>
<rect y="86.9766" width="18.4108" height="18.4108" transform="rotate(45 0 86.9766)" stroke="#29BDFC"/>
<rect x="75" y="100" width="35.3552" height="35.3552" transform="rotate(45 75 100)" stroke="#29BDFC" stroke-width="2.01263"/>
<rect x="25" y="100" width="35.3552" height="35.3552" transform="rotate(45 25 100)" stroke="#29BDFC" stroke-width="2.01263"/>
<rect x="75" y="150" width="35.3552" height="35.3552" transform="rotate(45 75 150)" stroke="#29BDFC" stroke-width="2.01263"/>
<rect x="25" y="150" width="35.3552" height="35.3552" transform="rotate(45 25 150)" stroke="#29BDFC" stroke-width="2.01263"/>
<rect x="13.0141" y="200.025" width="18.4108" height="18.4108" transform="rotate(135 13.0141 200.025)" stroke="#29BDFC"/>
<rect x="113.044" y="100" width="18.4108" height="18.4108" transform="rotate(135 113.044 100)" stroke="#29BDFC"/>
<rect x="-0.00439453" y="136.982" width="18.4108" height="18.4108" transform="rotate(45 -0.00439453 136.982)" stroke="#29BDFC"/>
<rect x="100.025" y="136.982" width="18.4108" height="18.4108" transform="rotate(45 100.025 136.982)" stroke="#29BDFC"/>
<rect x="50" y="86.9766" width="18.4108" height="18.4108" transform="rotate(45 50 86.9766)" stroke="#29BDFC"/>
<rect x="50" y="187.007" width="18.4108" height="18.4108" transform="rotate(45 50 187.007)" stroke="#29BDFC"/>
<rect x="75.4902" y="114.706" width="13.8648" height="13.8648" transform="rotate(45 75.4902 114.706)" fill="#29BDFC"/>
<rect x="24.5098" y="114.706" width="13.8648" height="13.8648" transform="rotate(45 24.5098 114.706)" fill="#29BDFC"/>
<rect x="75.4902" y="165.687" width="13.8648" height="13.8648" transform="rotate(45 75.4902 165.687)" fill="#29BDFC"/>
<rect x="24.5098" y="165.687" width="13.8648" height="13.8648" transform="rotate(45 24.5098 165.687)" fill="#29BDFC"/>
</g>
<g clip-path="url(#clip2_4953_10260)">
<rect x="150" y="36.9815" width="18.4108" height="18.4108" transform="rotate(45 150 36.9815)" stroke="#29BDFC"/>
<rect x="200.025" y="87.0069" width="18.4108" height="18.4108" transform="rotate(45 200.025 87.0069)" stroke="#29BDFC"/>
<rect x="100" y="-13.0234" width="18.4108" height="18.4108" transform="rotate(45 100 -13.0234)" stroke="#29BDFC"/>
<rect x="175" width="35.3552" height="35.3552" transform="rotate(45 175 0)" stroke="#29BDFC" stroke-width="2.01263"/>
<rect x="125" width="35.3552" height="35.3552" transform="rotate(45 125 0)" stroke="#29BDFC" stroke-width="2.01263"/>
<rect x="175" y="50" width="35.3552" height="35.3552" transform="rotate(45 175 50)" stroke="#29BDFC" stroke-width="2.01263"/>
<rect x="125" y="50" width="35.3552" height="35.3552" transform="rotate(45 125 50)" stroke="#29BDFC" stroke-width="2.01263"/>
<rect x="113.014" y="100.025" width="18.4108" height="18.4108" transform="rotate(135 113.014 100.025)" stroke="#29BDFC"/>
<rect x="213.044" y="-5.96046e-08" width="18.4108" height="18.4108" transform="rotate(135 213.044 -5.96046e-08)" stroke="#29BDFC"/>
<rect x="99.9956" y="36.9815" width="18.4108" height="18.4108" transform="rotate(45 99.9956 36.9815)" stroke="#29BDFC"/>
<rect x="200.025" y="36.9815" width="18.4108" height="18.4108" transform="rotate(45 200.025 36.9815)" stroke="#29BDFC"/>
<rect x="150" y="-13.0234" width="18.4108" height="18.4108" transform="rotate(45 150 -13.0234)" stroke="#29BDFC"/>
<rect x="150" y="87.0069" width="18.4108" height="18.4108" transform="rotate(45 150 87.0069)" stroke="#29BDFC"/>
<rect x="175.49" y="14.7061" width="13.8648" height="13.8648" transform="rotate(45 175.49 14.7061)" fill="#29BDFC"/>
<rect x="124.51" y="14.7061" width="13.8648" height="13.8648" transform="rotate(45 124.51 14.7061)" fill="#29BDFC"/>
<rect x="175.49" y="65.6865" width="13.8648" height="13.8648" transform="rotate(45 175.49 65.6865)" fill="#29BDFC"/>
<rect x="124.51" y="65.6865" width="13.8648" height="13.8648" transform="rotate(45 124.51 65.6865)" fill="#29BDFC"/>
</g>
<g clip-path="url(#clip3_4953_10260)">
<rect x="150" y="136.982" width="18.4108" height="18.4108" transform="rotate(45 150 136.982)" stroke="#29BDFC"/>
<rect x="200.025" y="187.007" width="18.4108" height="18.4108" transform="rotate(45 200.025 187.007)" stroke="#29BDFC"/>
<rect x="100" y="86.9766" width="18.4108" height="18.4108" transform="rotate(45 100 86.9766)" stroke="#29BDFC"/>
<rect x="175" y="100" width="35.3552" height="35.3552" transform="rotate(45 175 100)" stroke="#29BDFC" stroke-width="2.01263"/>
<rect x="125" y="100" width="35.3552" height="35.3552" transform="rotate(45 125 100)" stroke="#29BDFC" stroke-width="2.01263"/>
<rect x="175" y="150" width="35.3552" height="35.3552" transform="rotate(45 175 150)" stroke="#29BDFC" stroke-width="2.01263"/>
<rect x="125" y="150" width="35.3552" height="35.3552" transform="rotate(45 125 150)" stroke="#29BDFC" stroke-width="2.01263"/>
<rect x="113.014" y="200.025" width="18.4108" height="18.4108" transform="rotate(135 113.014 200.025)" stroke="#29BDFC"/>
<rect x="213.044" y="100" width="18.4108" height="18.4108" transform="rotate(135 213.044 100)" stroke="#29BDFC"/>
<rect x="99.9956" y="136.982" width="18.4108" height="18.4108" transform="rotate(45 99.9956 136.982)" stroke="#29BDFC"/>
<rect x="200.025" y="136.982" width="18.4108" height="18.4108" transform="rotate(45 200.025 136.982)" stroke="#29BDFC"/>
<rect x="150" y="86.9766" width="18.4108" height="18.4108" transform="rotate(45 150 86.9766)" stroke="#29BDFC"/>
<rect x="150" y="187.007" width="18.4108" height="18.4108" transform="rotate(45 150 187.007)" stroke="#29BDFC"/>
<rect x="175.49" y="114.706" width="13.8648" height="13.8648" transform="rotate(45 175.49 114.706)" fill="#29BDFC"/>
<rect x="124.51" y="114.706" width="13.8648" height="13.8648" transform="rotate(45 124.51 114.706)" fill="#29BDFC"/>
<rect x="175.49" y="165.687" width="13.8648" height="13.8648" transform="rotate(45 175.49 165.687)" fill="#29BDFC"/>
<rect x="124.51" y="165.687" width="13.8648" height="13.8648" transform="rotate(45 124.51 165.687)" fill="#29BDFC"/>
</g>
<defs>
<clipPath id="clip0_4953_10260">
<rect width="100" height="100" fill="white"/>
</clipPath>
<clipPath id="clip1_4953_10260">
<rect width="100" height="100" fill="white" transform="translate(0 100)"/>
</clipPath>
<clipPath id="clip2_4953_10260">
<rect width="100" height="100" fill="white" transform="translate(100)"/>
</clipPath>
<clipPath id="clip3_4953_10260">
<rect width="100" height="100" fill="white" transform="translate(100 100)"/>
</clipPath>
</defs>
</svg>
