<svg width="200" height="200" viewBox="0 0 200 200" fill="none" xmlns="http://www.w3.org/2000/svg">
<rect y="5" width="50" height="1" fill="#29BDFC" fill-opacity="0.7"/>
<rect y="15" width="50" height="1" fill="#29BDFC" fill-opacity="0.3"/>
<rect y="25" width="50" height="1" fill="#29BDFC" fill-opacity="0.3"/>
<rect y="35" width="50" height="1" fill="#29BDFC" fill-opacity="0.3"/>
<rect y="45" width="50" height="1" fill="#29BDFC" fill-opacity="0.3"/>
<rect x="45" width="50" height="0.999998" transform="rotate(90 45 0)" fill="#29BDFC" fill-opacity="0.3"/>
<rect x="35" width="50" height="0.999998" transform="rotate(90 35 0)" fill="#29BDFC" fill-opacity="0.3"/>
<rect x="25" width="50" height="0.999998" transform="rotate(90 25 0)" fill="#29BDFC" fill-opacity="0.3"/>
<rect x="15" width="50" height="0.999998" transform="rotate(90 15 0)" fill="#29BDFC" fill-opacity="0.3"/>
<rect x="5" width="50" height="0.999998" transform="rotate(90 5 0)" fill="#29BDFC" fill-opacity="0.7"/>
<rect x="50" y="5" width="50" height="1" fill="#29BDFC" fill-opacity="0.7"/>
<rect x="50" y="15" width="50" height="1" fill="#29BDFC" fill-opacity="0.3"/>
<rect x="50" y="25" width="50" height="1" fill="#29BDFC" fill-opacity="0.3"/>
<rect x="50" y="35" width="50" height="1" fill="#29BDFC" fill-opacity="0.3"/>
<rect x="50" y="45" width="50" height="1" fill="#29BDFC" fill-opacity="0.3"/>
<rect x="95" width="50" height="0.999998" transform="rotate(90 95 0)" fill="#29BDFC" fill-opacity="0.3"/>
<rect x="85" width="50" height="0.999998" transform="rotate(90 85 0)" fill="#29BDFC" fill-opacity="0.3"/>
<rect x="75" width="50" height="0.999998" transform="rotate(90 75 0)" fill="#29BDFC" fill-opacity="0.3"/>
<rect x="65" width="50" height="0.999998" transform="rotate(90 65 0)" fill="#29BDFC" fill-opacity="0.3"/>
<rect x="55" width="50" height="0.999998" transform="rotate(90 55 0)" fill="#29BDFC" fill-opacity="0.7"/>
<rect x="100" y="5" width="50" height="1" fill="#29BDFC" fill-opacity="0.7"/>
<rect x="100" y="15" width="50" height="1" fill="#29BDFC" fill-opacity="0.3"/>
<rect x="100" y="25" width="50" height="1" fill="#29BDFC" fill-opacity="0.3"/>
<rect x="100" y="35" width="50" height="1" fill="#29BDFC" fill-opacity="0.3"/>
<rect x="100" y="45" width="50" height="1" fill="#29BDFC" fill-opacity="0.3"/>
<rect x="145" width="50" height="0.999998" transform="rotate(90 145 0)" fill="#29BDFC" fill-opacity="0.3"/>
<rect x="135" width="50" height="0.999998" transform="rotate(90 135 0)" fill="#29BDFC" fill-opacity="0.3"/>
<rect x="125" width="50" height="0.999998" transform="rotate(90 125 0)" fill="#29BDFC" fill-opacity="0.3"/>
<rect x="115" width="50" height="0.999998" transform="rotate(90 115 0)" fill="#29BDFC" fill-opacity="0.3"/>
<rect x="105" width="50" height="0.999998" transform="rotate(90 105 0)" fill="#29BDFC" fill-opacity="0.7"/>
<rect x="150" y="5" width="50" height="1" fill="#29BDFC" fill-opacity="0.7"/>
<rect x="150" y="15" width="50" height="1" fill="#29BDFC" fill-opacity="0.3"/>
<rect x="150" y="25" width="50" height="1" fill="#29BDFC" fill-opacity="0.3"/>
<rect x="150" y="35" width="50" height="1" fill="#29BDFC" fill-opacity="0.3"/>
<rect x="150" y="45" width="50" height="1" fill="#29BDFC" fill-opacity="0.3"/>
<rect x="195" width="50" height="0.999998" transform="rotate(90 195 0)" fill="#29BDFC" fill-opacity="0.3"/>
<rect x="185" width="50" height="0.999998" transform="rotate(90 185 0)" fill="#29BDFC" fill-opacity="0.3"/>
<rect x="175" width="50" height="0.999998" transform="rotate(90 175 0)" fill="#29BDFC" fill-opacity="0.3"/>
<rect x="165" width="50" height="0.999998" transform="rotate(90 165 0)" fill="#29BDFC" fill-opacity="0.3"/>
<rect x="155" width="50" height="0.999998" transform="rotate(90 155 0)" fill="#29BDFC" fill-opacity="0.7"/>
<rect y="55" width="50" height="1" fill="#29BDFC" fill-opacity="0.7"/>
<rect y="65" width="50" height="1" fill="#29BDFC" fill-opacity="0.3"/>
<rect y="75" width="50" height="1" fill="#29BDFC" fill-opacity="0.3"/>
<rect y="85" width="50" height="1" fill="#29BDFC" fill-opacity="0.3"/>
<rect y="95" width="50" height="1" fill="#29BDFC" fill-opacity="0.3"/>
<rect x="45" y="50" width="50" height="0.999998" transform="rotate(90 45 50)" fill="#29BDFC" fill-opacity="0.3"/>
<rect x="35" y="50" width="50" height="0.999998" transform="rotate(90 35 50)" fill="#29BDFC" fill-opacity="0.3"/>
<rect x="25" y="50" width="50" height="0.999998" transform="rotate(90 25 50)" fill="#29BDFC" fill-opacity="0.3"/>
<rect x="15" y="50" width="50" height="0.999998" transform="rotate(90 15 50)" fill="#29BDFC" fill-opacity="0.3"/>
<rect x="5" y="50" width="50" height="0.999998" transform="rotate(90 5 50)" fill="#29BDFC" fill-opacity="0.7"/>
<rect x="50" y="55" width="50" height="1" fill="#29BDFC" fill-opacity="0.7"/>
<rect x="50" y="65" width="50" height="1" fill="#29BDFC" fill-opacity="0.3"/>
<rect x="50" y="75" width="50" height="1" fill="#29BDFC" fill-opacity="0.3"/>
<rect x="50" y="85" width="50" height="1" fill="#29BDFC" fill-opacity="0.3"/>
<rect x="50" y="95" width="50" height="1" fill="#29BDFC" fill-opacity="0.3"/>
<rect x="95" y="50" width="50" height="0.999998" transform="rotate(90 95 50)" fill="#29BDFC" fill-opacity="0.3"/>
<rect x="85" y="50" width="50" height="0.999998" transform="rotate(90 85 50)" fill="#29BDFC" fill-opacity="0.3"/>
<rect x="75" y="50" width="50" height="0.999998" transform="rotate(90 75 50)" fill="#29BDFC" fill-opacity="0.3"/>
<rect x="65" y="50" width="50" height="0.999998" transform="rotate(90 65 50)" fill="#29BDFC" fill-opacity="0.3"/>
<rect x="55" y="50" width="50" height="0.999998" transform="rotate(90 55 50)" fill="#29BDFC" fill-opacity="0.7"/>
<rect x="100" y="55" width="50" height="1" fill="#29BDFC" fill-opacity="0.7"/>
<rect x="100" y="65" width="50" height="1" fill="#29BDFC" fill-opacity="0.3"/>
<rect x="100" y="75" width="50" height="1" fill="#29BDFC" fill-opacity="0.3"/>
<rect x="100" y="85" width="50" height="1" fill="#29BDFC" fill-opacity="0.3"/>
<rect x="100" y="95" width="50" height="1" fill="#29BDFC" fill-opacity="0.3"/>
<rect x="145" y="50" width="50" height="0.999998" transform="rotate(90 145 50)" fill="#29BDFC" fill-opacity="0.3"/>
<rect x="135" y="50" width="50" height="0.999998" transform="rotate(90 135 50)" fill="#29BDFC" fill-opacity="0.3"/>
<rect x="125" y="50" width="50" height="0.999998" transform="rotate(90 125 50)" fill="#29BDFC" fill-opacity="0.3"/>
<rect x="115" y="50" width="50" height="0.999998" transform="rotate(90 115 50)" fill="#29BDFC" fill-opacity="0.3"/>
<rect x="105" y="50" width="50" height="0.999998" transform="rotate(90 105 50)" fill="#29BDFC" fill-opacity="0.7"/>
<rect x="150" y="55" width="50" height="1" fill="#29BDFC" fill-opacity="0.7"/>
<rect x="150" y="65" width="50" height="1" fill="#29BDFC" fill-opacity="0.3"/>
<rect x="150" y="75" width="50" height="1" fill="#29BDFC" fill-opacity="0.3"/>
<rect x="150" y="85" width="50" height="1" fill="#29BDFC" fill-opacity="0.3"/>
<rect x="150" y="95" width="50" height="1" fill="#29BDFC" fill-opacity="0.3"/>
<rect x="195" y="50" width="50" height="0.999998" transform="rotate(90 195 50)" fill="#29BDFC" fill-opacity="0.3"/>
<rect x="185" y="50" width="50" height="0.999998" transform="rotate(90 185 50)" fill="#29BDFC" fill-opacity="0.3"/>
<rect x="175" y="50" width="50" height="0.999998" transform="rotate(90 175 50)" fill="#29BDFC" fill-opacity="0.3"/>
<rect x="165" y="50" width="50" height="0.999998" transform="rotate(90 165 50)" fill="#29BDFC" fill-opacity="0.3"/>
<rect x="155" y="50" width="50" height="0.999998" transform="rotate(90 155 50)" fill="#29BDFC" fill-opacity="0.7"/>
<rect y="105" width="50" height="1" fill="#29BDFC" fill-opacity="0.7"/>
<rect y="115" width="50" height="1" fill="#29BDFC" fill-opacity="0.3"/>
<rect y="125" width="50" height="1" fill="#29BDFC" fill-opacity="0.3"/>
<rect y="135" width="50" height="1" fill="#29BDFC" fill-opacity="0.3"/>
<rect y="145" width="50" height="1" fill="#29BDFC" fill-opacity="0.3"/>
<rect x="45" y="100" width="50" height="0.999998" transform="rotate(90 45 100)" fill="#29BDFC" fill-opacity="0.3"/>
<rect x="35" y="100" width="50" height="0.999998" transform="rotate(90 35 100)" fill="#29BDFC" fill-opacity="0.3"/>
<rect x="25" y="100" width="50" height="0.999998" transform="rotate(90 25 100)" fill="#29BDFC" fill-opacity="0.3"/>
<rect x="15" y="100" width="50" height="0.999998" transform="rotate(90 15 100)" fill="#29BDFC" fill-opacity="0.3"/>
<rect x="5" y="100" width="50" height="0.999998" transform="rotate(90 5 100)" fill="#29BDFC" fill-opacity="0.7"/>
<rect x="50" y="105" width="50" height="1" fill="#29BDFC" fill-opacity="0.7"/>
<rect x="50" y="115" width="50" height="1" fill="#29BDFC" fill-opacity="0.3"/>
<rect x="50" y="125" width="50" height="1" fill="#29BDFC" fill-opacity="0.3"/>
<rect x="50" y="135" width="50" height="1" fill="#29BDFC" fill-opacity="0.3"/>
<rect x="50" y="145" width="50" height="1" fill="#29BDFC" fill-opacity="0.3"/>
<rect x="95" y="100" width="50" height="0.999998" transform="rotate(90 95 100)" fill="#29BDFC" fill-opacity="0.3"/>
<rect x="85" y="100" width="50" height="0.999998" transform="rotate(90 85 100)" fill="#29BDFC" fill-opacity="0.3"/>
<rect x="75" y="100" width="50" height="0.999998" transform="rotate(90 75 100)" fill="#29BDFC" fill-opacity="0.3"/>
<rect x="65" y="100" width="50" height="0.999998" transform="rotate(90 65 100)" fill="#29BDFC" fill-opacity="0.3"/>
<rect x="55" y="100" width="50" height="0.999998" transform="rotate(90 55 100)" fill="#29BDFC" fill-opacity="0.7"/>
<rect x="100" y="105" width="50" height="1" fill="#29BDFC" fill-opacity="0.7"/>
<rect x="100" y="115" width="50" height="1" fill="#29BDFC" fill-opacity="0.3"/>
<rect x="100" y="125" width="50" height="1" fill="#29BDFC" fill-opacity="0.3"/>
<rect x="100" y="135" width="50" height="1" fill="#29BDFC" fill-opacity="0.3"/>
<rect x="100" y="145" width="50" height="1" fill="#29BDFC" fill-opacity="0.3"/>
<rect x="145" y="100" width="50" height="0.999998" transform="rotate(90 145 100)" fill="#29BDFC" fill-opacity="0.3"/>
<rect x="135" y="100" width="50" height="0.999998" transform="rotate(90 135 100)" fill="#29BDFC" fill-opacity="0.3"/>
<rect x="125" y="100" width="50" height="0.999998" transform="rotate(90 125 100)" fill="#29BDFC" fill-opacity="0.3"/>
<rect x="115" y="100" width="50" height="0.999998" transform="rotate(90 115 100)" fill="#29BDFC" fill-opacity="0.3"/>
<rect x="105" y="100" width="50" height="0.999998" transform="rotate(90 105 100)" fill="#29BDFC" fill-opacity="0.7"/>
<rect x="150" y="105" width="50" height="1" fill="#29BDFC" fill-opacity="0.7"/>
<rect x="150" y="115" width="50" height="1" fill="#29BDFC" fill-opacity="0.3"/>
<rect x="150" y="125" width="50" height="1" fill="#29BDFC" fill-opacity="0.3"/>
<rect x="150" y="135" width="50" height="1" fill="#29BDFC" fill-opacity="0.3"/>
<rect x="150" y="145" width="50" height="1" fill="#29BDFC" fill-opacity="0.3"/>
<rect x="195" y="100" width="50" height="0.999998" transform="rotate(90 195 100)" fill="#29BDFC" fill-opacity="0.3"/>
<rect x="185" y="100" width="50" height="0.999998" transform="rotate(90 185 100)" fill="#29BDFC" fill-opacity="0.3"/>
<rect x="175" y="100" width="50" height="0.999998" transform="rotate(90 175 100)" fill="#29BDFC" fill-opacity="0.3"/>
<rect x="165" y="100" width="50" height="0.999998" transform="rotate(90 165 100)" fill="#29BDFC" fill-opacity="0.3"/>
<rect x="155" y="100" width="50" height="0.999998" transform="rotate(90 155 100)" fill="#29BDFC" fill-opacity="0.7"/>
<rect y="155" width="50" height="1" fill="#29BDFC" fill-opacity="0.7"/>
<rect y="165" width="50" height="1" fill="#29BDFC" fill-opacity="0.3"/>
<rect y="175" width="50" height="1" fill="#29BDFC" fill-opacity="0.3"/>
<rect y="185" width="50" height="1" fill="#29BDFC" fill-opacity="0.3"/>
<rect y="195" width="50" height="1" fill="#29BDFC" fill-opacity="0.3"/>
<rect x="45" y="150" width="50" height="0.999998" transform="rotate(90 45 150)" fill="#29BDFC" fill-opacity="0.3"/>
<rect x="35" y="150" width="50" height="0.999998" transform="rotate(90 35 150)" fill="#29BDFC" fill-opacity="0.3"/>
<rect x="25" y="150" width="50" height="0.999998" transform="rotate(90 25 150)" fill="#29BDFC" fill-opacity="0.3"/>
<rect x="15" y="150" width="50" height="0.999998" transform="rotate(90 15 150)" fill="#29BDFC" fill-opacity="0.3"/>
<rect x="5" y="150" width="50" height="0.999998" transform="rotate(90 5 150)" fill="#29BDFC" fill-opacity="0.7"/>
<rect x="50" y="155" width="50" height="1" fill="#29BDFC" fill-opacity="0.7"/>
<rect x="50" y="165" width="50" height="1" fill="#29BDFC" fill-opacity="0.3"/>
<rect x="50" y="175" width="50" height="1" fill="#29BDFC" fill-opacity="0.3"/>
<rect x="50" y="185" width="50" height="1" fill="#29BDFC" fill-opacity="0.3"/>
<rect x="50" y="195" width="50" height="1" fill="#29BDFC" fill-opacity="0.3"/>
<rect x="95" y="150" width="50" height="0.999998" transform="rotate(90 95 150)" fill="#29BDFC" fill-opacity="0.3"/>
<rect x="85" y="150" width="50" height="0.999998" transform="rotate(90 85 150)" fill="#29BDFC" fill-opacity="0.3"/>
<rect x="75" y="150" width="50" height="0.999998" transform="rotate(90 75 150)" fill="#29BDFC" fill-opacity="0.3"/>
<rect x="65" y="150" width="50" height="0.999998" transform="rotate(90 65 150)" fill="#29BDFC" fill-opacity="0.3"/>
<rect x="55" y="150" width="50" height="0.999998" transform="rotate(90 55 150)" fill="#29BDFC" fill-opacity="0.7"/>
<rect x="100" y="155" width="50" height="1" fill="#29BDFC" fill-opacity="0.7"/>
<rect x="100" y="165" width="50" height="1" fill="#29BDFC" fill-opacity="0.3"/>
<rect x="100" y="175" width="50" height="1" fill="#29BDFC" fill-opacity="0.3"/>
<rect x="100" y="185" width="50" height="1" fill="#29BDFC" fill-opacity="0.3"/>
<rect x="100" y="195" width="50" height="1" fill="#29BDFC" fill-opacity="0.3"/>
<rect x="145" y="150" width="50" height="0.999998" transform="rotate(90 145 150)" fill="#29BDFC" fill-opacity="0.3"/>
<rect x="135" y="150" width="50" height="0.999998" transform="rotate(90 135 150)" fill="#29BDFC" fill-opacity="0.3"/>
<rect x="125" y="150" width="50" height="0.999998" transform="rotate(90 125 150)" fill="#29BDFC" fill-opacity="0.3"/>
<rect x="115" y="150" width="50" height="0.999998" transform="rotate(90 115 150)" fill="#29BDFC" fill-opacity="0.3"/>
<rect x="105" y="150" width="50" height="0.999998" transform="rotate(90 105 150)" fill="#29BDFC" fill-opacity="0.7"/>
<rect x="150" y="155" width="50" height="1" fill="#29BDFC" fill-opacity="0.7"/>
<rect x="150" y="165" width="50" height="1" fill="#29BDFC" fill-opacity="0.3"/>
<rect x="150" y="175" width="50" height="1" fill="#29BDFC" fill-opacity="0.3"/>
<rect x="150" y="185" width="50" height="1" fill="#29BDFC" fill-opacity="0.3"/>
<rect x="150" y="195" width="50" height="1" fill="#29BDFC" fill-opacity="0.3"/>
<rect x="195" y="150" width="50" height="0.999998" transform="rotate(90 195 150)" fill="#29BDFC" fill-opacity="0.3"/>
<rect x="185" y="150" width="50" height="0.999998" transform="rotate(90 185 150)" fill="#29BDFC" fill-opacity="0.3"/>
<rect x="175" y="150" width="50" height="0.999998" transform="rotate(90 175 150)" fill="#29BDFC" fill-opacity="0.3"/>
<rect x="165" y="150" width="50" height="0.999998" transform="rotate(90 165 150)" fill="#29BDFC" fill-opacity="0.3"/>
<rect x="155" y="150" width="50" height="0.999998" transform="rotate(90 155 150)" fill="#29BDFC" fill-opacity="0.7"/>
</svg>
