<svg width="200" height="200" viewBox="0 0 200 200" fill="none" xmlns="http://www.w3.org/2000/svg">
<g clip-path="url(#clip0_4952_1158)">
<rect x="2.77783" y="2.77783" width="16.6667" height="16.6667" fill="#29BDFC"/>
<rect x="25" y="2.77783" width="16.6667" height="16.6667" fill="#29BDFC" fill-opacity="0.2"/>
<rect x="47.2222" y="2.77783" width="16.6667" height="16.6667" fill="#29BDFC" fill-opacity="0.6"/>
<rect x="69.4443" y="2.77783" width="16.6667" height="16.6667" fill="#29BDFC" fill-opacity="0.2"/>
<rect x="91.6665" y="2.77783" width="16.6667" height="16.6667" fill="#29BDFC" fill-opacity="0.2"/>
<rect x="113.889" y="2.77783" width="16.6667" height="16.6667" fill="#29BDFC" fill-opacity="0.6"/>
<rect x="136.111" y="2.77783" width="16.6667" height="16.6667" fill="#29BDFC" fill-opacity="0.2"/>
<rect x="158.333" y="2.77783" width="16.6667" height="16.6667" fill="#29BDFC"/>
<rect x="180.556" y="2.77783" width="16.6667" height="16.6667" fill="#29BDFC"/>
<rect x="2.77783" y="25" width="16.6667" height="16.6667" fill="#29BDFC" fill-opacity="0.6"/>
<rect x="25" y="25" width="16.6667" height="16.6667" fill="#29BDFC" fill-opacity="0.2"/>
<rect x="47.2222" y="25" width="16.6667" height="16.6667" fill="#29BDFC" fill-opacity="0.2"/>
<rect x="69.4443" y="25" width="16.6667" height="16.6667" fill="#29BDFC" fill-opacity="0.2"/>
<rect x="91.6665" y="25" width="16.6667" height="16.6667" fill="#29BDFC" fill-opacity="0.6"/>
<rect x="113.889" y="25" width="16.6667" height="16.6667" fill="#29BDFC" fill-opacity="0.2"/>
<rect x="136.111" y="25" width="16.6667" height="16.6667" fill="#29BDFC" fill-opacity="0.2"/>
<rect x="158.333" y="25" width="16.6667" height="16.6667" fill="#29BDFC"/>
<rect x="180.556" y="25" width="16.6667" height="16.6667" fill="#29BDFC" fill-opacity="0.2"/>
<rect x="2.77783" y="47.2224" width="16.6667" height="16.6667" fill="#29BDFC" fill-opacity="0.2"/>
<rect x="25" y="47.2224" width="16.6667" height="16.6667" fill="#29BDFC"/>
<rect x="47.2222" y="47.2224" width="16.6667" height="16.6667" fill="#29BDFC"/>
<rect x="69.4443" y="47.2224" width="16.6667" height="16.6667" fill="#29BDFC" fill-opacity="0.2"/>
<rect x="91.6665" y="47.2224" width="16.6667" height="16.6667" fill="#29BDFC"/>
<rect x="113.889" y="47.2224" width="16.6667" height="16.6667" fill="#29BDFC" fill-opacity="0.2"/>
<rect x="136.111" y="47.2224" width="16.6667" height="16.6667" fill="#29BDFC" fill-opacity="0.6"/>
<rect x="158.333" y="47.2224" width="16.6667" height="16.6667" fill="#29BDFC" fill-opacity="0.2"/>
<rect x="180.556" y="47.2224" width="16.6667" height="16.6667" fill="#29BDFC" fill-opacity="0.6"/>
<rect x="2.77783" y="69.4446" width="16.6667" height="16.6667" fill="#29BDFC" fill-opacity="0.2"/>
<rect x="25" y="69.4446" width="16.6667" height="16.6667" fill="#29BDFC" fill-opacity="0.6"/>
<rect x="47.2222" y="69.4446" width="16.6667" height="16.6667" fill="#29BDFC" fill-opacity="0.2"/>
<rect x="69.4443" y="69.4446" width="16.6667" height="16.6667" fill="#29BDFC" fill-opacity="0.2"/>
<rect x="91.6665" y="69.4446" width="16.6667" height="16.6667" fill="#29BDFC" fill-opacity="0.6"/>
<rect x="113.889" y="69.4446" width="16.6667" height="16.6667" fill="#29BDFC" fill-opacity="0.2"/>
<rect x="136.111" y="69.4446" width="16.6667" height="16.6667" fill="#29BDFC" fill-opacity="0.6"/>
<rect x="158.333" y="69.4446" width="16.6667" height="16.6667" fill="#29BDFC" fill-opacity="0.2"/>
<rect x="180.556" y="69.4446" width="16.6667" height="16.6667" fill="#29BDFC"/>
<rect x="2.77783" y="91.6667" width="16.6667" height="16.6667" fill="#29BDFC" fill-opacity="0.6"/>
<rect x="25" y="91.6667" width="16.6667" height="16.6667" fill="#29BDFC"/>
<rect x="47.2222" y="91.6667" width="16.6667" height="16.6667" fill="#29BDFC" fill-opacity="0.6"/>
<rect x="69.4443" y="91.6667" width="16.6667" height="16.6667" fill="#29BDFC" fill-opacity="0.6"/>
<rect x="91.6665" y="91.6667" width="16.6667" height="16.6667" fill="#29BDFC" fill-opacity="0.2"/>
<rect x="113.889" y="91.6667" width="16.6667" height="16.6667" fill="#29BDFC" fill-opacity="0.2"/>
<rect x="136.111" y="91.6667" width="16.6667" height="16.6667" fill="#29BDFC" fill-opacity="0.6"/>
<rect x="158.333" y="91.6667" width="16.6667" height="16.6667" fill="#29BDFC" fill-opacity="0.2"/>
<rect x="180.556" y="91.6667" width="16.6667" height="16.6667" fill="#29BDFC" fill-opacity="0.2"/>
<rect x="2.77783" y="113.889" width="16.6667" height="16.6667" fill="#29BDFC"/>
<rect x="25" y="113.889" width="16.6667" height="16.6667" fill="#29BDFC" fill-opacity="0.2"/>
<rect x="47.2222" y="113.889" width="16.6667" height="16.6667" fill="#29BDFC" fill-opacity="0.6"/>
<rect x="69.4443" y="113.889" width="16.6667" height="16.6667" fill="#29BDFC" fill-opacity="0.2"/>
<rect x="91.6665" y="113.889" width="16.6667" height="16.6667" fill="#29BDFC" fill-opacity="0.2"/>
<rect x="113.889" y="113.889" width="16.6667" height="16.6667" fill="#29BDFC" fill-opacity="0.6"/>
<rect x="136.111" y="113.889" width="16.6667" height="16.6667" fill="#29BDFC" fill-opacity="0.2"/>
<rect x="158.333" y="113.889" width="16.6667" height="16.6667" fill="#29BDFC"/>
<rect x="180.556" y="113.889" width="16.6667" height="16.6667" fill="#29BDFC"/>
<rect x="2.77783" y="136.111" width="16.6667" height="16.6667" fill="#29BDFC" fill-opacity="0.6"/>
<rect x="25" y="136.111" width="16.6667" height="16.6667" fill="#29BDFC" fill-opacity="0.2"/>
<rect x="47.2222" y="136.111" width="16.6667" height="16.6667" fill="#29BDFC" fill-opacity="0.2"/>
<rect x="69.4443" y="136.111" width="16.6667" height="16.6667" fill="#29BDFC" fill-opacity="0.2"/>
<rect x="91.6665" y="136.111" width="16.6667" height="16.6667" fill="#29BDFC" fill-opacity="0.6"/>
<rect x="113.889" y="136.111" width="16.6667" height="16.6667" fill="#29BDFC" fill-opacity="0.2"/>
<rect x="136.111" y="136.111" width="16.6667" height="16.6667" fill="#29BDFC" fill-opacity="0.2"/>
<rect x="158.333" y="136.111" width="16.6667" height="16.6667" fill="#29BDFC"/>
<rect x="180.556" y="136.111" width="16.6667" height="16.6667" fill="#29BDFC" fill-opacity="0.2"/>
<rect x="2.77783" y="158.333" width="16.6667" height="16.6667" fill="#29BDFC" fill-opacity="0.2"/>
<rect x="25" y="158.333" width="16.6667" height="16.6667" fill="#29BDFC"/>
<rect x="47.2222" y="158.333" width="16.6667" height="16.6667" fill="#29BDFC"/>
<rect x="69.4443" y="158.333" width="16.6667" height="16.6667" fill="#29BDFC" fill-opacity="0.2"/>
<rect x="91.6665" y="158.333" width="16.6667" height="16.6667" fill="#29BDFC"/>
<rect x="113.889" y="158.333" width="16.6667" height="16.6667" fill="#29BDFC" fill-opacity="0.2"/>
<rect x="136.111" y="158.333" width="16.6667" height="16.6667" fill="#29BDFC" fill-opacity="0.6"/>
<rect x="158.333" y="158.333" width="16.6667" height="16.6667" fill="#29BDFC" fill-opacity="0.2"/>
<rect x="180.556" y="158.333" width="16.6667" height="16.6667" fill="#29BDFC" fill-opacity="0.6"/>
<rect x="2.77783" y="180.556" width="16.6667" height="16.6667" fill="#29BDFC" fill-opacity="0.2"/>
<rect x="25" y="180.556" width="16.6667" height="16.6667" fill="#29BDFC" fill-opacity="0.6"/>
<rect x="47.2222" y="180.556" width="16.6667" height="16.6667" fill="#29BDFC" fill-opacity="0.2"/>
<rect x="69.4443" y="180.556" width="16.6667" height="16.6667" fill="#29BDFC" fill-opacity="0.2"/>
<rect x="91.6665" y="180.556" width="16.6667" height="16.6667" fill="#29BDFC" fill-opacity="0.6"/>
<rect x="113.889" y="180.556" width="16.6667" height="16.6667" fill="#29BDFC" fill-opacity="0.2"/>
<rect x="136.111" y="180.556" width="16.6667" height="16.6667" fill="#29BDFC" fill-opacity="0.6"/>
<rect x="158.333" y="180.556" width="16.6667" height="16.6667" fill="#29BDFC" fill-opacity="0.2"/>
<rect x="180.556" y="180.556" width="16.6667" height="16.6667" fill="#29BDFC"/>
</g>
<defs>
<clipPath id="clip0_4952_1158">
<rect width="200" height="200" fill="white"/>
</clipPath>
</defs>
</svg>
