<svg width="200" height="200" viewBox="0 0 200 200" fill="none" xmlns="http://www.w3.org/2000/svg">
<g clip-path="url(#clip0_4953_8685)">
<rect x="24" y="5" width="2" height="15" fill="white" fill-opacity="0.3"/>
<rect x="24.0386" y="31.7305" width="1.92308" height="13.4615" fill="white" fill-opacity="0.3"/>
<rect x="44.231" y="25" width="1.92308" height="13.4615" transform="rotate(90 44.231 25)" fill="white" fill-opacity="0.3"/>
<rect x="19.231" y="25" width="1.92308" height="13.4615" transform="rotate(90 19.231 25)" fill="white" fill-opacity="0.3"/>
<rect x="25" y="19.9104" width="8.55752" height="8.55752" transform="rotate(45 25 19.9104)" stroke="white" stroke-width="0.961538"/>
<rect x="25" y="44.5397" width="12.0734" height="12.0734" transform="rotate(45 25 44.5397)" stroke="#509DE5" stroke-width="2.88462"/>
<rect x="-3.84619" y="17.4245" width="12.0734" height="12.0734" transform="rotate(45 -3.84619 17.4245)" stroke="#509DE5" stroke-width="2.88462"/>
<rect x="53.8462" y="17.4245" width="12.0734" height="12.0734" transform="rotate(45 53.8462 17.4245)" stroke="#509DE5" stroke-width="2.88462"/>
<rect x="25" y="-12.4603" width="12.0734" height="12.0734" transform="rotate(45 25 -12.4603)" stroke="#509DE5" stroke-width="2.88462"/>
</g>
<g clip-path="url(#clip1_4953_8685)">
<rect x="74" y="5" width="2" height="15" fill="white" fill-opacity="0.3"/>
<rect x="74.0386" y="31.7305" width="1.92308" height="13.4615" fill="white" fill-opacity="0.3"/>
<rect x="94.231" y="25" width="1.92308" height="13.4615" transform="rotate(90 94.231 25)" fill="white" fill-opacity="0.3"/>
<rect x="69.231" y="25" width="1.92308" height="13.4615" transform="rotate(90 69.231 25)" fill="white" fill-opacity="0.3"/>
<rect x="75" y="19.9104" width="8.55752" height="8.55752" transform="rotate(45 75 19.9104)" stroke="white" stroke-width="0.961538"/>
<rect x="75" y="44.5397" width="12.0734" height="12.0734" transform="rotate(45 75 44.5397)" stroke="#509DE5" stroke-width="2.88462"/>
<rect x="46.1538" y="17.4245" width="12.0734" height="12.0734" transform="rotate(45 46.1538 17.4245)" stroke="#509DE5" stroke-width="2.88462"/>
<rect x="103.846" y="17.4245" width="12.0734" height="12.0734" transform="rotate(45 103.846 17.4245)" stroke="#509DE5" stroke-width="2.88462"/>
<rect x="75" y="-12.4603" width="12.0734" height="12.0734" transform="rotate(45 75 -12.4603)" stroke="#509DE5" stroke-width="2.88462"/>
</g>
<g clip-path="url(#clip2_4953_8685)">
<rect x="124" y="5" width="2" height="15" fill="white" fill-opacity="0.3"/>
<rect x="124.039" y="31.7305" width="1.92308" height="13.4615" fill="white" fill-opacity="0.3"/>
<rect x="144.231" y="25" width="1.92308" height="13.4615" transform="rotate(90 144.231 25)" fill="white" fill-opacity="0.3"/>
<rect x="119.231" y="25" width="1.92308" height="13.4615" transform="rotate(90 119.231 25)" fill="white" fill-opacity="0.3"/>
<rect x="125" y="19.9104" width="8.55752" height="8.55752" transform="rotate(45 125 19.9104)" stroke="white" stroke-width="0.961538"/>
<rect x="125" y="44.5397" width="12.0734" height="12.0734" transform="rotate(45 125 44.5397)" stroke="#509DE5" stroke-width="2.88462"/>
<rect x="96.1538" y="17.4245" width="12.0734" height="12.0734" transform="rotate(45 96.1538 17.4245)" stroke="#509DE5" stroke-width="2.88462"/>
<rect x="153.846" y="17.4245" width="12.0734" height="12.0734" transform="rotate(45 153.846 17.4245)" stroke="#509DE5" stroke-width="2.88462"/>
<rect x="125" y="-12.4603" width="12.0734" height="12.0734" transform="rotate(45 125 -12.4603)" stroke="#509DE5" stroke-width="2.88462"/>
</g>
<g clip-path="url(#clip3_4953_8685)">
<rect x="174" y="5" width="2" height="15" fill="white" fill-opacity="0.3"/>
<rect x="174.039" y="31.7305" width="1.92308" height="13.4615" fill="white" fill-opacity="0.3"/>
<rect x="194.231" y="25" width="1.92308" height="13.4615" transform="rotate(90 194.231 25)" fill="white" fill-opacity="0.3"/>
<rect x="169.231" y="25" width="1.92308" height="13.4615" transform="rotate(90 169.231 25)" fill="white" fill-opacity="0.3"/>
<rect x="175" y="19.9104" width="8.55752" height="8.55752" transform="rotate(45 175 19.9104)" stroke="white" stroke-width="0.961538"/>
<rect x="175" y="44.5397" width="12.0734" height="12.0734" transform="rotate(45 175 44.5397)" stroke="#509DE5" stroke-width="2.88462"/>
<rect x="146.154" y="17.4245" width="12.0734" height="12.0734" transform="rotate(45 146.154 17.4245)" stroke="#509DE5" stroke-width="2.88462"/>
<rect x="203.846" y="17.4245" width="12.0734" height="12.0734" transform="rotate(45 203.846 17.4245)" stroke="#509DE5" stroke-width="2.88462"/>
<rect x="175" y="-12.4603" width="12.0734" height="12.0734" transform="rotate(45 175 -12.4603)" stroke="#509DE5" stroke-width="2.88462"/>
</g>
<g clip-path="url(#clip4_4953_8685)">
<rect x="24" y="55" width="2" height="15" fill="white" fill-opacity="0.3"/>
<rect x="24.0386" y="81.7305" width="1.92308" height="13.4615" fill="white" fill-opacity="0.3"/>
<rect x="44.231" y="75" width="1.92308" height="13.4615" transform="rotate(90 44.231 75)" fill="white" fill-opacity="0.3"/>
<rect x="19.231" y="75" width="1.92308" height="13.4615" transform="rotate(90 19.231 75)" fill="white" fill-opacity="0.3"/>
<rect x="25" y="69.9104" width="8.55752" height="8.55752" transform="rotate(45 25 69.9104)" stroke="white" stroke-width="0.961538"/>
<rect x="25" y="94.5397" width="12.0734" height="12.0734" transform="rotate(45 25 94.5397)" stroke="#509DE5" stroke-width="2.88462"/>
<rect x="-3.84619" y="67.4245" width="12.0734" height="12.0734" transform="rotate(45 -3.84619 67.4245)" stroke="#509DE5" stroke-width="2.88462"/>
<rect x="53.8462" y="67.4245" width="12.0734" height="12.0734" transform="rotate(45 53.8462 67.4245)" stroke="#509DE5" stroke-width="2.88462"/>
<rect x="25" y="37.5397" width="12.0734" height="12.0734" transform="rotate(45 25 37.5397)" stroke="#509DE5" stroke-width="2.88462"/>
</g>
<g clip-path="url(#clip5_4953_8685)">
<rect x="74" y="55" width="2" height="15" fill="white" fill-opacity="0.3"/>
<rect x="74.0386" y="81.7305" width="1.92308" height="13.4615" fill="white" fill-opacity="0.3"/>
<rect x="94.231" y="75" width="1.92308" height="13.4615" transform="rotate(90 94.231 75)" fill="white" fill-opacity="0.3"/>
<rect x="69.231" y="75" width="1.92308" height="13.4615" transform="rotate(90 69.231 75)" fill="white" fill-opacity="0.3"/>
<rect x="75" y="69.9104" width="8.55752" height="8.55752" transform="rotate(45 75 69.9104)" stroke="white" stroke-width="0.961538"/>
<rect x="75" y="94.5397" width="12.0734" height="12.0734" transform="rotate(45 75 94.5397)" stroke="#509DE5" stroke-width="2.88462"/>
<rect x="46.1538" y="67.4245" width="12.0734" height="12.0734" transform="rotate(45 46.1538 67.4245)" stroke="#509DE5" stroke-width="2.88462"/>
<rect x="103.846" y="67.4245" width="12.0734" height="12.0734" transform="rotate(45 103.846 67.4245)" stroke="#509DE5" stroke-width="2.88462"/>
<rect x="75" y="37.5397" width="12.0734" height="12.0734" transform="rotate(45 75 37.5397)" stroke="#509DE5" stroke-width="2.88462"/>
</g>
<g clip-path="url(#clip6_4953_8685)">
<rect x="124" y="55" width="2" height="15" fill="white" fill-opacity="0.3"/>
<rect x="124.039" y="81.7305" width="1.92308" height="13.4615" fill="white" fill-opacity="0.3"/>
<rect x="144.231" y="75" width="1.92308" height="13.4615" transform="rotate(90 144.231 75)" fill="white" fill-opacity="0.3"/>
<rect x="119.231" y="75" width="1.92308" height="13.4615" transform="rotate(90 119.231 75)" fill="white" fill-opacity="0.3"/>
<rect x="125" y="69.9104" width="8.55752" height="8.55752" transform="rotate(45 125 69.9104)" stroke="white" stroke-width="0.961538"/>
<rect x="125" y="94.5397" width="12.0734" height="12.0734" transform="rotate(45 125 94.5397)" stroke="#509DE5" stroke-width="2.88462"/>
<rect x="96.1538" y="67.4245" width="12.0734" height="12.0734" transform="rotate(45 96.1538 67.4245)" stroke="#509DE5" stroke-width="2.88462"/>
<rect x="153.846" y="67.4245" width="12.0734" height="12.0734" transform="rotate(45 153.846 67.4245)" stroke="#509DE5" stroke-width="2.88462"/>
<rect x="125" y="37.5397" width="12.0734" height="12.0734" transform="rotate(45 125 37.5397)" stroke="#509DE5" stroke-width="2.88462"/>
</g>
<g clip-path="url(#clip7_4953_8685)">
<rect x="174" y="55" width="2" height="15" fill="white" fill-opacity="0.3"/>
<rect x="174.039" y="81.7305" width="1.92308" height="13.4615" fill="white" fill-opacity="0.3"/>
<rect x="194.231" y="75" width="1.92308" height="13.4615" transform="rotate(90 194.231 75)" fill="white" fill-opacity="0.3"/>
<rect x="169.231" y="75" width="1.92308" height="13.4615" transform="rotate(90 169.231 75)" fill="white" fill-opacity="0.3"/>
<rect x="175" y="69.9104" width="8.55752" height="8.55752" transform="rotate(45 175 69.9104)" stroke="white" stroke-width="0.961538"/>
<rect x="175" y="94.5397" width="12.0734" height="12.0734" transform="rotate(45 175 94.5397)" stroke="#509DE5" stroke-width="2.88462"/>
<rect x="146.154" y="67.4245" width="12.0734" height="12.0734" transform="rotate(45 146.154 67.4245)" stroke="#509DE5" stroke-width="2.88462"/>
<rect x="203.846" y="67.4245" width="12.0734" height="12.0734" transform="rotate(45 203.846 67.4245)" stroke="#509DE5" stroke-width="2.88462"/>
<rect x="175" y="37.5397" width="12.0734" height="12.0734" transform="rotate(45 175 37.5397)" stroke="#509DE5" stroke-width="2.88462"/>
</g>
<g clip-path="url(#clip8_4953_8685)">
<rect x="24" y="105" width="2" height="15" fill="white" fill-opacity="0.3"/>
<rect x="24.0386" y="131.73" width="1.92308" height="13.4615" fill="white" fill-opacity="0.3"/>
<rect x="44.231" y="125" width="1.92308" height="13.4615" transform="rotate(90 44.231 125)" fill="white" fill-opacity="0.3"/>
<rect x="19.231" y="125" width="1.92308" height="13.4615" transform="rotate(90 19.231 125)" fill="white" fill-opacity="0.3"/>
<rect x="25" y="119.91" width="8.55752" height="8.55752" transform="rotate(45 25 119.91)" stroke="white" stroke-width="0.961538"/>
<rect x="25" y="144.54" width="12.0734" height="12.0734" transform="rotate(45 25 144.54)" stroke="#509DE5" stroke-width="2.88462"/>
<rect x="-3.84619" y="117.424" width="12.0734" height="12.0734" transform="rotate(45 -3.84619 117.424)" stroke="#509DE5" stroke-width="2.88462"/>
<rect x="53.8462" y="117.424" width="12.0734" height="12.0734" transform="rotate(45 53.8462 117.424)" stroke="#509DE5" stroke-width="2.88462"/>
<rect x="25" y="87.5397" width="12.0734" height="12.0734" transform="rotate(45 25 87.5397)" stroke="#509DE5" stroke-width="2.88462"/>
</g>
<g clip-path="url(#clip9_4953_8685)">
<rect x="74" y="105" width="2" height="15" fill="white" fill-opacity="0.3"/>
<rect x="74.0386" y="131.73" width="1.92308" height="13.4615" fill="white" fill-opacity="0.3"/>
<rect x="94.231" y="125" width="1.92308" height="13.4615" transform="rotate(90 94.231 125)" fill="white" fill-opacity="0.3"/>
<rect x="69.231" y="125" width="1.92308" height="13.4615" transform="rotate(90 69.231 125)" fill="white" fill-opacity="0.3"/>
<rect x="75" y="119.91" width="8.55752" height="8.55752" transform="rotate(45 75 119.91)" stroke="white" stroke-width="0.961538"/>
<rect x="75" y="144.54" width="12.0734" height="12.0734" transform="rotate(45 75 144.54)" stroke="#509DE5" stroke-width="2.88462"/>
<rect x="46.1538" y="117.424" width="12.0734" height="12.0734" transform="rotate(45 46.1538 117.424)" stroke="#509DE5" stroke-width="2.88462"/>
<rect x="103.846" y="117.424" width="12.0734" height="12.0734" transform="rotate(45 103.846 117.424)" stroke="#509DE5" stroke-width="2.88462"/>
<rect x="75" y="87.5397" width="12.0734" height="12.0734" transform="rotate(45 75 87.5397)" stroke="#509DE5" stroke-width="2.88462"/>
</g>
<g clip-path="url(#clip10_4953_8685)">
<rect x="124" y="105" width="2" height="15" fill="white" fill-opacity="0.3"/>
<rect x="124.039" y="131.73" width="1.92308" height="13.4615" fill="white" fill-opacity="0.3"/>
<rect x="144.231" y="125" width="1.92308" height="13.4615" transform="rotate(90 144.231 125)" fill="white" fill-opacity="0.3"/>
<rect x="119.231" y="125" width="1.92308" height="13.4615" transform="rotate(90 119.231 125)" fill="white" fill-opacity="0.3"/>
<rect x="125" y="119.91" width="8.55752" height="8.55752" transform="rotate(45 125 119.91)" stroke="white" stroke-width="0.961538"/>
<rect x="125" y="144.54" width="12.0734" height="12.0734" transform="rotate(45 125 144.54)" stroke="#509DE5" stroke-width="2.88462"/>
<rect x="96.1538" y="117.424" width="12.0734" height="12.0734" transform="rotate(45 96.1538 117.424)" stroke="#509DE5" stroke-width="2.88462"/>
<rect x="153.846" y="117.424" width="12.0734" height="12.0734" transform="rotate(45 153.846 117.424)" stroke="#509DE5" stroke-width="2.88462"/>
<rect x="125" y="87.5397" width="12.0734" height="12.0734" transform="rotate(45 125 87.5397)" stroke="#509DE5" stroke-width="2.88462"/>
</g>
<g clip-path="url(#clip11_4953_8685)">
<rect x="174" y="105" width="2" height="15" fill="white" fill-opacity="0.3"/>
<rect x="174.039" y="131.73" width="1.92308" height="13.4615" fill="white" fill-opacity="0.3"/>
<rect x="194.231" y="125" width="1.92308" height="13.4615" transform="rotate(90 194.231 125)" fill="white" fill-opacity="0.3"/>
<rect x="169.231" y="125" width="1.92308" height="13.4615" transform="rotate(90 169.231 125)" fill="white" fill-opacity="0.3"/>
<rect x="175" y="119.91" width="8.55752" height="8.55752" transform="rotate(45 175 119.91)" stroke="white" stroke-width="0.961538"/>
<rect x="175" y="144.54" width="12.0734" height="12.0734" transform="rotate(45 175 144.54)" stroke="#509DE5" stroke-width="2.88462"/>
<rect x="146.154" y="117.424" width="12.0734" height="12.0734" transform="rotate(45 146.154 117.424)" stroke="#509DE5" stroke-width="2.88462"/>
<rect x="203.846" y="117.424" width="12.0734" height="12.0734" transform="rotate(45 203.846 117.424)" stroke="#509DE5" stroke-width="2.88462"/>
<rect x="175" y="87.5397" width="12.0734" height="12.0734" transform="rotate(45 175 87.5397)" stroke="#509DE5" stroke-width="2.88462"/>
</g>
<g clip-path="url(#clip12_4953_8685)">
<rect x="24" y="155" width="2" height="15" fill="white" fill-opacity="0.3"/>
<rect x="24.0386" y="181.73" width="1.92308" height="13.4615" fill="white" fill-opacity="0.3"/>
<rect x="44.231" y="175" width="1.92308" height="13.4615" transform="rotate(90 44.231 175)" fill="white" fill-opacity="0.3"/>
<rect x="19.231" y="175" width="1.92308" height="13.4615" transform="rotate(90 19.231 175)" fill="white" fill-opacity="0.3"/>
<rect x="25" y="169.91" width="8.55752" height="8.55752" transform="rotate(45 25 169.91)" stroke="white" stroke-width="0.961538"/>
<rect x="25" y="194.54" width="12.0734" height="12.0734" transform="rotate(45 25 194.54)" stroke="#509DE5" stroke-width="2.88462"/>
<rect x="-3.84619" y="167.424" width="12.0734" height="12.0734" transform="rotate(45 -3.84619 167.424)" stroke="#509DE5" stroke-width="2.88462"/>
<rect x="53.8462" y="167.424" width="12.0734" height="12.0734" transform="rotate(45 53.8462 167.424)" stroke="#509DE5" stroke-width="2.88462"/>
<rect x="25" y="137.54" width="12.0734" height="12.0734" transform="rotate(45 25 137.54)" stroke="#509DE5" stroke-width="2.88462"/>
</g>
<g clip-path="url(#clip13_4953_8685)">
<rect x="74" y="155" width="2" height="15" fill="white" fill-opacity="0.3"/>
<rect x="74.0386" y="181.73" width="1.92308" height="13.4615" fill="white" fill-opacity="0.3"/>
<rect x="94.231" y="175" width="1.92308" height="13.4615" transform="rotate(90 94.231 175)" fill="white" fill-opacity="0.3"/>
<rect x="69.231" y="175" width="1.92308" height="13.4615" transform="rotate(90 69.231 175)" fill="white" fill-opacity="0.3"/>
<rect x="75" y="169.91" width="8.55752" height="8.55752" transform="rotate(45 75 169.91)" stroke="white" stroke-width="0.961538"/>
<rect x="75" y="194.54" width="12.0734" height="12.0734" transform="rotate(45 75 194.54)" stroke="#509DE5" stroke-width="2.88462"/>
<rect x="46.1538" y="167.424" width="12.0734" height="12.0734" transform="rotate(45 46.1538 167.424)" stroke="#509DE5" stroke-width="2.88462"/>
<rect x="103.846" y="167.424" width="12.0734" height="12.0734" transform="rotate(45 103.846 167.424)" stroke="#509DE5" stroke-width="2.88462"/>
<rect x="75" y="137.54" width="12.0734" height="12.0734" transform="rotate(45 75 137.54)" stroke="#509DE5" stroke-width="2.88462"/>
</g>
<g clip-path="url(#clip14_4953_8685)">
<rect x="124" y="155" width="2" height="15" fill="white" fill-opacity="0.3"/>
<rect x="124.039" y="181.73" width="1.92308" height="13.4615" fill="white" fill-opacity="0.3"/>
<rect x="144.231" y="175" width="1.92308" height="13.4615" transform="rotate(90 144.231 175)" fill="white" fill-opacity="0.3"/>
<rect x="119.231" y="175" width="1.92308" height="13.4615" transform="rotate(90 119.231 175)" fill="white" fill-opacity="0.3"/>
<rect x="125" y="169.91" width="8.55752" height="8.55752" transform="rotate(45 125 169.91)" stroke="white" stroke-width="0.961538"/>
<rect x="125" y="194.54" width="12.0734" height="12.0734" transform="rotate(45 125 194.54)" stroke="#509DE5" stroke-width="2.88462"/>
<rect x="96.1538" y="167.424" width="12.0734" height="12.0734" transform="rotate(45 96.1538 167.424)" stroke="#509DE5" stroke-width="2.88462"/>
<rect x="153.846" y="167.424" width="12.0734" height="12.0734" transform="rotate(45 153.846 167.424)" stroke="#509DE5" stroke-width="2.88462"/>
<rect x="125" y="137.54" width="12.0734" height="12.0734" transform="rotate(45 125 137.54)" stroke="#509DE5" stroke-width="2.88462"/>
</g>
<g clip-path="url(#clip15_4953_8685)">
<rect x="174" y="155" width="2" height="15" fill="white" fill-opacity="0.3"/>
<rect x="174.039" y="181.73" width="1.92308" height="13.4615" fill="white" fill-opacity="0.3"/>
<rect x="194.231" y="175" width="1.92308" height="13.4615" transform="rotate(90 194.231 175)" fill="white" fill-opacity="0.3"/>
<rect x="169.231" y="175" width="1.92308" height="13.4615" transform="rotate(90 169.231 175)" fill="white" fill-opacity="0.3"/>
<rect x="175" y="169.91" width="8.55752" height="8.55752" transform="rotate(45 175 169.91)" stroke="white" stroke-width="0.961538"/>
<rect x="175" y="194.54" width="12.0734" height="12.0734" transform="rotate(45 175 194.54)" stroke="#509DE5" stroke-width="2.88462"/>
<rect x="146.154" y="167.424" width="12.0734" height="12.0734" transform="rotate(45 146.154 167.424)" stroke="#509DE5" stroke-width="2.88462"/>
<rect x="203.846" y="167.424" width="12.0734" height="12.0734" transform="rotate(45 203.846 167.424)" stroke="#509DE5" stroke-width="2.88462"/>
<rect x="175" y="137.54" width="12.0734" height="12.0734" transform="rotate(45 175 137.54)" stroke="#509DE5" stroke-width="2.88462"/>
</g>
<defs>
<clipPath id="clip0_4953_8685">
<rect width="50" height="50" fill="white"/>
</clipPath>
<clipPath id="clip1_4953_8685">
<rect width="50" height="50" fill="white" transform="translate(50)"/>
</clipPath>
<clipPath id="clip2_4953_8685">
<rect width="50" height="50" fill="white" transform="translate(100)"/>
</clipPath>
<clipPath id="clip3_4953_8685">
<rect width="50" height="50" fill="white" transform="translate(150)"/>
</clipPath>
<clipPath id="clip4_4953_8685">
<rect width="50" height="50" fill="white" transform="translate(0 50)"/>
</clipPath>
<clipPath id="clip5_4953_8685">
<rect width="50" height="50" fill="white" transform="translate(50 50)"/>
</clipPath>
<clipPath id="clip6_4953_8685">
<rect width="50" height="50" fill="white" transform="translate(100 50)"/>
</clipPath>
<clipPath id="clip7_4953_8685">
<rect width="50" height="50" fill="white" transform="translate(150 50)"/>
</clipPath>
<clipPath id="clip8_4953_8685">
<rect width="50" height="50" fill="white" transform="translate(0 100)"/>
</clipPath>
<clipPath id="clip9_4953_8685">
<rect width="50" height="50" fill="white" transform="translate(50 100)"/>
</clipPath>
<clipPath id="clip10_4953_8685">
<rect width="50" height="50" fill="white" transform="translate(100 100)"/>
</clipPath>
<clipPath id="clip11_4953_8685">
<rect width="50" height="50" fill="white" transform="translate(150 100)"/>
</clipPath>
<clipPath id="clip12_4953_8685">
<rect width="50" height="50" fill="white" transform="translate(0 150)"/>
</clipPath>
<clipPath id="clip13_4953_8685">
<rect width="50" height="50" fill="white" transform="translate(50 150)"/>
</clipPath>
<clipPath id="clip14_4953_8685">
<rect width="50" height="50" fill="white" transform="translate(100 150)"/>
</clipPath>
<clipPath id="clip15_4953_8685">
<rect width="50" height="50" fill="white" transform="translate(150 150)"/>
</clipPath>
</defs>
</svg>
