<svg width="200" height="200" viewBox="0 0 200 200" fill="none" xmlns="http://www.w3.org/2000/svg">
<g clip-path="url(#clip0_4953_9130)">
<path d="M26 1L26 7L24 7L24 1L18 0.999999L18 -1L24 -1L24 -7L26 -7L26 -1L32 -1L32 1L26 1Z" fill="#29BDFC"/>
<path d="M26 51L26 57L24 57L24 51L18 51L18 49L24 49L24 43L26 43L26 49L32 49L32 51L26 51Z" fill="#29BDFC"/>
<path d="M1 26L0.999999 32L-1 32L-1 26L-7 26L-7 24L-1 24L-1 18L1 18L1 24L7 24L7 26L1 26Z" fill="#29BDFC"/>
<path d="M51 26L51 32L49 32L49 26L43 26L43 24L49 24L49 18L51 18L51 24L57 24L57 26L51 26Z" fill="#29BDFC"/>
</g>
<g clip-path="url(#clip1_4953_9130)">
<path d="M76 1L76 7L74 7L74 1L68 0.999999L68 -1L74 -1L74 -7L76 -7L76 -1L82 -1L82 1L76 1Z" fill="#29BDFC"/>
<path d="M76 51L76 57L74 57L74 51L68 51L68 49L74 49L74 43L76 43L76 49L82 49L82 51L76 51Z" fill="#29BDFC"/>
<path d="M51 26L51 32L49 32L49 26L43 26L43 24L49 24L49 18L51 18L51 24L57 24L57 26L51 26Z" fill="#29BDFC"/>
<path d="M101 26L101 32L99 32L99 26L93 26L93 24L99 24L99 18L101 18L101 24L107 24L107 26L101 26Z" fill="#29BDFC"/>
</g>
<g clip-path="url(#clip2_4953_9130)">
<path d="M126 1L126 7L124 7L124 1L118 0.999999L118 -1L124 -1L124 -7L126 -7L126 -1L132 -1L132 1L126 1Z" fill="#29BDFC"/>
<path d="M126 51L126 57L124 57L124 51L118 51L118 49L124 49L124 43L126 43L126 49L132 49L132 51L126 51Z" fill="#29BDFC"/>
<path d="M101 26L101 32L99 32L99 26L93 26L93 24L99 24L99 18L101 18L101 24L107 24L107 26L101 26Z" fill="#29BDFC"/>
<path d="M151 26L151 32L149 32L149 26L143 26L143 24L149 24L149 18L151 18L151 24L157 24L157 26L151 26Z" fill="#29BDFC"/>
</g>
<g clip-path="url(#clip3_4953_9130)">
<path d="M176 1L176 7L174 7L174 1L168 0.999999L168 -1L174 -1L174 -7L176 -7L176 -1L182 -1L182 1L176 1Z" fill="#29BDFC"/>
<path d="M176 51L176 57L174 57L174 51L168 51L168 49L174 49L174 43L176 43L176 49L182 49L182 51L176 51Z" fill="#29BDFC"/>
<path d="M151 26L151 32L149 32L149 26L143 26L143 24L149 24L149 18L151 18L151 24L157 24L157 26L151 26Z" fill="#29BDFC"/>
<path d="M201 26L201 32L199 32L199 26L193 26L193 24L199 24L199 18L201 18L201 24L207 24L207 26L201 26Z" fill="#29BDFC"/>
</g>
<g clip-path="url(#clip4_4953_9130)">
<path d="M26 51L26 57L24 57L24 51L18 51L18 49L24 49L24 43L26 43L26 49L32 49L32 51L26 51Z" fill="#29BDFC"/>
<path d="M26 101L26 107L24 107L24 101L18 101L18 99L24 99L24 93L26 93L26 99L32 99L32 101L26 101Z" fill="#29BDFC"/>
<path d="M1 76L0.999999 82L-1 82L-1 76L-7 76L-7 74L-1 74L-1 68L1 68L1 74L7 74L7 76L1 76Z" fill="#29BDFC"/>
<path d="M51 76L51 82L49 82L49 76L43 76L43 74L49 74L49 68L51 68L51 74L57 74L57 76L51 76Z" fill="#29BDFC"/>
</g>
<g clip-path="url(#clip5_4953_9130)">
<path d="M76 51L76 57L74 57L74 51L68 51L68 49L74 49L74 43L76 43L76 49L82 49L82 51L76 51Z" fill="#29BDFC"/>
<path d="M76 101L76 107L74 107L74 101L68 101L68 99L74 99L74 93L76 93L76 99L82 99L82 101L76 101Z" fill="#29BDFC"/>
<path d="M51 76L51 82L49 82L49 76L43 76L43 74L49 74L49 68L51 68L51 74L57 74L57 76L51 76Z" fill="#29BDFC"/>
<path d="M101 76L101 82L99 82L99 76L93 76L93 74L99 74L99 68L101 68L101 74L107 74L107 76L101 76Z" fill="#29BDFC"/>
</g>
<g clip-path="url(#clip6_4953_9130)">
<path d="M126 51L126 57L124 57L124 51L118 51L118 49L124 49L124 43L126 43L126 49L132 49L132 51L126 51Z" fill="#29BDFC"/>
<path d="M126 101L126 107L124 107L124 101L118 101L118 99L124 99L124 93L126 93L126 99L132 99L132 101L126 101Z" fill="#29BDFC"/>
<path d="M101 76L101 82L99 82L99 76L93 76L93 74L99 74L99 68L101 68L101 74L107 74L107 76L101 76Z" fill="#29BDFC"/>
<path d="M151 76L151 82L149 82L149 76L143 76L143 74L149 74L149 68L151 68L151 74L157 74L157 76L151 76Z" fill="#29BDFC"/>
</g>
<g clip-path="url(#clip7_4953_9130)">
<path d="M176 51L176 57L174 57L174 51L168 51L168 49L174 49L174 43L176 43L176 49L182 49L182 51L176 51Z" fill="#29BDFC"/>
<path d="M176 101L176 107L174 107L174 101L168 101L168 99L174 99L174 93L176 93L176 99L182 99L182 101L176 101Z" fill="#29BDFC"/>
<path d="M151 76L151 82L149 82L149 76L143 76L143 74L149 74L149 68L151 68L151 74L157 74L157 76L151 76Z" fill="#29BDFC"/>
<path d="M201 76L201 82L199 82L199 76L193 76L193 74L199 74L199 68L201 68L201 74L207 74L207 76L201 76Z" fill="#29BDFC"/>
</g>
<g clip-path="url(#clip8_4953_9130)">
<path d="M26 101L26 107L24 107L24 101L18 101L18 99L24 99L24 93L26 93L26 99L32 99L32 101L26 101Z" fill="#29BDFC"/>
<path d="M26 151L26 157L24 157L24 151L18 151L18 149L24 149L24 143L26 143L26 149L32 149L32 151L26 151Z" fill="#29BDFC"/>
<path d="M1 126L0.999999 132L-1 132L-1 126L-7 126L-7 124L-1 124L-1 118L1 118L1 124L7 124L7 126L1 126Z" fill="#29BDFC"/>
<path d="M51 126L51 132L49 132L49 126L43 126L43 124L49 124L49 118L51 118L51 124L57 124L57 126L51 126Z" fill="#29BDFC"/>
</g>
<g clip-path="url(#clip9_4953_9130)">
<path d="M76 101L76 107L74 107L74 101L68 101L68 99L74 99L74 93L76 93L76 99L82 99L82 101L76 101Z" fill="#29BDFC"/>
<path d="M76 151L76 157L74 157L74 151L68 151L68 149L74 149L74 143L76 143L76 149L82 149L82 151L76 151Z" fill="#29BDFC"/>
<path d="M51 126L51 132L49 132L49 126L43 126L43 124L49 124L49 118L51 118L51 124L57 124L57 126L51 126Z" fill="#29BDFC"/>
<path d="M101 126L101 132L99 132L99 126L93 126L93 124L99 124L99 118L101 118L101 124L107 124L107 126L101 126Z" fill="#29BDFC"/>
</g>
<g clip-path="url(#clip10_4953_9130)">
<path d="M126 101L126 107L124 107L124 101L118 101L118 99L124 99L124 93L126 93L126 99L132 99L132 101L126 101Z" fill="#29BDFC"/>
<path d="M126 151L126 157L124 157L124 151L118 151L118 149L124 149L124 143L126 143L126 149L132 149L132 151L126 151Z" fill="#29BDFC"/>
<path d="M101 126L101 132L99 132L99 126L93 126L93 124L99 124L99 118L101 118L101 124L107 124L107 126L101 126Z" fill="#29BDFC"/>
<path d="M151 126L151 132L149 132L149 126L143 126L143 124L149 124L149 118L151 118L151 124L157 124L157 126L151 126Z" fill="#29BDFC"/>
</g>
<g clip-path="url(#clip11_4953_9130)">
<path d="M176 101L176 107L174 107L174 101L168 101L168 99L174 99L174 93L176 93L176 99L182 99L182 101L176 101Z" fill="#29BDFC"/>
<path d="M176 151L176 157L174 157L174 151L168 151L168 149L174 149L174 143L176 143L176 149L182 149L182 151L176 151Z" fill="#29BDFC"/>
<path d="M151 126L151 132L149 132L149 126L143 126L143 124L149 124L149 118L151 118L151 124L157 124L157 126L151 126Z" fill="#29BDFC"/>
<path d="M201 126L201 132L199 132L199 126L193 126L193 124L199 124L199 118L201 118L201 124L207 124L207 126L201 126Z" fill="#29BDFC"/>
</g>
<g clip-path="url(#clip12_4953_9130)">
<path d="M26 151L26 157L24 157L24 151L18 151L18 149L24 149L24 143L26 143L26 149L32 149L32 151L26 151Z" fill="#29BDFC"/>
<path d="M26 201L26 207L24 207L24 201L18 201L18 199L24 199L24 193L26 193L26 199L32 199L32 201L26 201Z" fill="#29BDFC"/>
<path d="M1 176L0.999999 182L-1 182L-1 176L-7 176L-7 174L-1 174L-1 168L1 168L1 174L7 174L7 176L1 176Z" fill="#29BDFC"/>
<path d="M51 176L51 182L49 182L49 176L43 176L43 174L49 174L49 168L51 168L51 174L57 174L57 176L51 176Z" fill="#29BDFC"/>
</g>
<g clip-path="url(#clip13_4953_9130)">
<path d="M76 151L76 157L74 157L74 151L68 151L68 149L74 149L74 143L76 143L76 149L82 149L82 151L76 151Z" fill="#29BDFC"/>
<path d="M76 201L76 207L74 207L74 201L68 201L68 199L74 199L74 193L76 193L76 199L82 199L82 201L76 201Z" fill="#29BDFC"/>
<path d="M51 176L51 182L49 182L49 176L43 176L43 174L49 174L49 168L51 168L51 174L57 174L57 176L51 176Z" fill="#29BDFC"/>
<path d="M101 176L101 182L99 182L99 176L93 176L93 174L99 174L99 168L101 168L101 174L107 174L107 176L101 176Z" fill="#29BDFC"/>
</g>
<g clip-path="url(#clip14_4953_9130)">
<path d="M126 151L126 157L124 157L124 151L118 151L118 149L124 149L124 143L126 143L126 149L132 149L132 151L126 151Z" fill="#29BDFC"/>
<path d="M126 201L126 207L124 207L124 201L118 201L118 199L124 199L124 193L126 193L126 199L132 199L132 201L126 201Z" fill="#29BDFC"/>
<path d="M101 176L101 182L99 182L99 176L93 176L93 174L99 174L99 168L101 168L101 174L107 174L107 176L101 176Z" fill="#29BDFC"/>
<path d="M151 176L151 182L149 182L149 176L143 176L143 174L149 174L149 168L151 168L151 174L157 174L157 176L151 176Z" fill="#29BDFC"/>
</g>
<g clip-path="url(#clip15_4953_9130)">
<path d="M176 151L176 157L174 157L174 151L168 151L168 149L174 149L174 143L176 143L176 149L182 149L182 151L176 151Z" fill="#29BDFC"/>
<path d="M176 201L176 207L174 207L174 201L168 201L168 199L174 199L174 193L176 193L176 199L182 199L182 201L176 201Z" fill="#29BDFC"/>
<path d="M151 176L151 182L149 182L149 176L143 176L143 174L149 174L149 168L151 168L151 174L157 174L157 176L151 176Z" fill="#29BDFC"/>
<path d="M201 176L201 182L199 182L199 176L193 176L193 174L199 174L199 168L201 168L201 174L207 174L207 176L201 176Z" fill="#29BDFC"/>
</g>
<defs>
<clipPath id="clip0_4953_9130">
<rect width="50" height="50" fill="white"/>
</clipPath>
<clipPath id="clip1_4953_9130">
<rect width="50" height="50" fill="white" transform="translate(50)"/>
</clipPath>
<clipPath id="clip2_4953_9130">
<rect width="50" height="50" fill="white" transform="translate(100)"/>
</clipPath>
<clipPath id="clip3_4953_9130">
<rect width="50" height="50" fill="white" transform="translate(150)"/>
</clipPath>
<clipPath id="clip4_4953_9130">
<rect width="50" height="50" fill="white" transform="translate(0 50)"/>
</clipPath>
<clipPath id="clip5_4953_9130">
<rect width="50" height="50" fill="white" transform="translate(50 50)"/>
</clipPath>
<clipPath id="clip6_4953_9130">
<rect width="50" height="50" fill="white" transform="translate(100 50)"/>
</clipPath>
<clipPath id="clip7_4953_9130">
<rect width="50" height="50" fill="white" transform="translate(150 50)"/>
</clipPath>
<clipPath id="clip8_4953_9130">
<rect width="50" height="50" fill="white" transform="translate(0 100)"/>
</clipPath>
<clipPath id="clip9_4953_9130">
<rect width="50" height="50" fill="white" transform="translate(50 100)"/>
</clipPath>
<clipPath id="clip10_4953_9130">
<rect width="50" height="50" fill="white" transform="translate(100 100)"/>
</clipPath>
<clipPath id="clip11_4953_9130">
<rect width="50" height="50" fill="white" transform="translate(150 100)"/>
</clipPath>
<clipPath id="clip12_4953_9130">
<rect width="50" height="50" fill="white" transform="translate(0 150)"/>
</clipPath>
<clipPath id="clip13_4953_9130">
<rect width="50" height="50" fill="white" transform="translate(50 150)"/>
</clipPath>
<clipPath id="clip14_4953_9130">
<rect width="50" height="50" fill="white" transform="translate(100 150)"/>
</clipPath>
<clipPath id="clip15_4953_9130">
<rect width="50" height="50" fill="white" transform="translate(150 150)"/>
</clipPath>
</defs>
</svg>
