<svg width="200" height="200" viewBox="0 0 200 200" fill="none" xmlns="http://www.w3.org/2000/svg">
<g clip-path="url(#clip0_4953_11386)">
<path d="M-1.66175 76.6367C7.41488 81.2507 13.0795 90.2293 13.0795 100H5.62146C5.62146 92.8384 1.46864 86.2579 -5.18421 82.876L-21.8014 74.4277L-21.5201 74.2861C-19.0631 73.0371 -16.9111 71.5279 -15.0602 69.8262L-1.66175 76.6367ZM-24.9586 64.7061C-24.4825 65.0048 -23.9863 65.2889 -23.4674 65.5527L-17.8405 68.4121C-19.3348 69.6858 -21.03 70.8256 -22.9293 71.791L-24.9596 72.8223L-26.9889 71.791C-28.8884 70.8255 -30.5852 69.6869 -32.0797 68.4131L-26.4508 65.5527C-25.9316 65.2888 -25.4349 65.005 -24.9586 64.7061ZM13.0795 -0.5C13.0795 10.3289 6.80123 20.2798 -3.25843 25.3936L-23.4674 35.666C-34.5354 41.2923 -35.8579 55.2209 -27.4381 62.834C-27.5768 62.9097 -27.7174 62.9841 -27.86 63.0566L-34.2565 66.3076C-44.3386 55.2595 -41.9173 37.0163 -26.9889 29.4277L-6.78089 19.1553C0.855198 15.2736 5.62146 7.71997 5.62146 -0.5H13.0795Z" fill="#29BDFC"/>
<path d="M48.3106 76.6367C57.3872 81.2507 63.0518 90.2293 63.0518 100H55.5938C55.5938 92.8384 51.441 86.2579 44.7881 82.876L28.1709 74.4277L28.4512 74.2861C30.9085 73.037 33.0612 71.5281 34.9122 69.8262L48.3106 76.6367ZM25.0127 64.7051C25.4892 65.0041 25.9856 65.2887 26.5049 65.5527L32.1309 68.4121C30.6365 69.6858 28.9413 70.8256 27.042 71.791L25.0118 72.8223L22.9834 71.791C21.084 70.8255 19.3872 69.6869 17.8926 68.4131L23.5206 65.5527C24.0399 65.2887 24.5363 65.0041 25.0127 64.7051ZM63.0518 -0.5C63.0518 10.3289 56.7736 20.2798 46.7139 25.3936L26.5049 35.666C15.4369 41.2923 14.1144 55.2209 22.5342 62.834C22.3953 62.9099 22.2542 62.984 22.1114 63.0566L15.7159 66.3066C5.6343 55.2584 8.0553 37.0162 22.9834 29.4277L43.1915 19.1553C50.8275 15.2736 55.5938 7.71997 55.5938 -0.5H63.0518Z" fill="#29BDFC"/>
<path d="M98.2842 76.6367C107.361 81.2507 113.025 90.2293 113.025 100H105.567C105.567 92.8384 101.415 86.2579 94.7618 82.876L78.1446 74.4277L78.4249 74.2861C80.8821 73.037 83.0348 71.5281 84.8858 69.8262L98.2842 76.6367ZM74.9864 64.7051C75.4628 65.0041 75.9592 65.2887 76.4786 65.5527L82.1045 68.4121C80.6102 69.6858 78.915 70.8256 77.0157 71.791L74.9854 72.8223L72.9571 71.791C71.0576 70.8255 69.3608 69.6869 67.8663 68.4131L73.4942 65.5527C74.0135 65.2887 74.51 65.0041 74.9864 64.7051ZM113.025 -0.5C113.025 10.3289 106.747 20.2798 96.6875 25.3936L76.4786 35.666C65.4106 41.2923 64.088 55.2209 72.5079 62.834C72.3689 62.9099 72.2279 62.984 72.085 63.0566L65.6895 66.3066C55.6079 55.2584 58.0289 37.0162 72.9571 29.4277L93.1651 19.1553C100.801 15.2736 105.567 7.71997 105.567 -0.5H113.025Z" fill="#29BDFC"/>
<path d="M34.3076 34.9102C44.3911 45.9581 41.9708 64.2021 27.042 71.791L5.2373 82.876C-1.41568 86.2579 -5.56836 92.8383 -5.56836 100H-13.0273C-13.0273 90.2292 -7.3619 81.2507 1.71484 76.6367L23.5195 65.5527C34.5883 59.9262 35.9106 45.9967 27.4893 38.3838C27.6285 38.3077 27.77 38.2339 27.9131 38.1611L34.3076 34.9102ZM27.042 29.4277C28.9408 30.393 30.6367 31.5313 32.1309 32.8047L26.5039 35.666C25.9844 35.9301 25.4863 36.2125 25.0098 36.5117C24.5341 36.2132 24.038 35.9296 23.5195 35.666L17.8906 32.8047C19.3853 31.5306 21.0826 30.3925 22.9824 29.4268L25.0107 28.3945L27.042 29.4277ZM-5.56836 -0.5C-5.56836 7.71997 -0.802102 15.2736 6.83398 19.1553L21.8516 26.7891L21.5732 26.9316C19.1155 28.181 16.9606 29.6882 15.1094 31.3906L3.31152 25.3936C-6.74832 20.2798 -13.0273 10.3291 -13.0273 -0.5H-5.56836Z" fill="#29BDFC"/>
<path d="M84.2812 34.9102C94.3647 45.9581 91.9444 64.2021 77.0156 71.791L55.2109 82.876C48.558 86.2579 44.4053 92.8383 44.4053 100H36.9463C36.9463 90.2292 42.6117 81.2507 51.6885 76.6367L73.4932 65.5527C84.5619 59.9262 85.8842 45.9967 77.4629 38.3838C77.6021 38.3077 77.7436 38.2339 77.8867 38.1611L84.2812 34.9102ZM77.0156 29.4277C78.9145 30.393 80.6103 31.5313 82.1045 32.8047L76.4775 35.666C75.9583 35.93 75.4607 36.2127 74.9844 36.5117C74.5085 36.2131 74.0119 35.9297 73.4932 35.666L67.8643 32.8047C69.3589 31.5306 71.0563 30.3925 72.9561 29.4268L74.9844 28.3945L77.0156 29.4277ZM44.4053 -0.5C44.4053 7.71997 49.1715 15.2736 56.8076 19.1553L71.8252 26.7891L71.5469 26.9316C69.0892 28.181 66.9342 29.6882 65.083 31.3906L53.2852 25.3936C43.2253 20.2798 36.9463 10.3291 36.9463 -0.5H44.4053Z" fill="#29BDFC"/>
<path d="M134.255 34.9102C144.338 45.9581 141.918 64.2021 126.989 71.791L105.185 82.876C98.5316 86.2579 94.3789 92.8383 94.3789 100H86.9199C86.9199 90.2292 92.5854 81.2507 101.662 76.6367L123.467 65.5527C134.536 59.9262 135.858 45.9967 127.437 38.3838C127.576 38.3077 127.717 38.2339 127.86 38.1611L134.255 34.9102ZM126.989 29.4277C128.888 30.393 130.584 31.5313 132.078 32.8047L126.451 35.666C125.932 35.93 125.434 36.2127 124.958 36.5117C124.482 36.2131 123.985 35.9297 123.467 35.666L117.838 32.8047C119.333 31.5306 121.03 30.3925 122.93 29.4268L124.958 28.3945L126.989 29.4277ZM94.3789 -0.5C94.3789 7.71997 99.1452 15.2736 106.781 19.1553L121.799 26.7891L121.521 26.9316C119.063 28.181 116.908 29.6882 115.057 31.3906L103.259 25.3936C93.1989 20.2798 86.9199 10.3291 86.9199 -0.5H94.3789Z" fill="#29BDFC"/>
</g>
<g clip-path="url(#clip1_4953_11386)">
<path d="M98.3381 76.6367C107.415 81.2507 113.08 90.2292 113.08 100H105.621C105.621 92.8383 101.469 86.2579 94.8157 82.876L78.1985 74.4277L78.4797 74.2861C80.9369 73.0371 83.0897 71.5281 84.9407 69.8262L98.3381 76.6367ZM75.0413 64.7061C75.5175 65.0049 76.0143 65.2889 76.5334 65.5527L82.1594 68.4121C80.6651 69.6857 78.9698 70.8256 77.0705 71.791L75.0403 72.8223L73.011 71.791C71.1114 70.8254 69.4147 69.687 67.9202 68.4131L73.5491 65.5527C74.0682 65.2889 74.565 65.005 75.0413 64.7061ZM113.08 -0.5C113.08 10.329 106.801 20.2798 96.7414 25.3936L76.5334 35.666C65.4654 41.2922 64.1421 55.2208 72.5618 62.834C72.4231 62.9097 72.2824 62.9842 72.1399 63.0566L65.7434 66.3076C55.6615 55.2595 58.0827 37.0162 73.011 29.4277L93.219 19.1553C100.855 15.2736 105.621 7.71997 105.621 -0.5H113.08Z" fill="#29BDFC"/>
<path d="M148.311 76.6367C157.387 81.2507 163.053 90.2293 163.053 100H155.594C155.594 92.8384 151.441 86.2579 144.788 82.876L128.171 74.4277L128.451 74.2861C130.908 73.037 133.061 71.5281 134.912 69.8262L148.311 76.6367ZM125.014 64.7051C125.49 65.004 125.986 65.2889 126.505 65.5527L132.131 68.4121C130.637 69.6858 128.941 70.8256 127.042 71.791L125.012 72.8223L122.983 71.791C121.084 70.8254 119.387 69.687 117.893 68.4131L123.521 65.5527C124.04 65.2886 124.537 65.0043 125.014 64.7051ZM163.053 -0.5C163.053 10.329 156.774 20.2798 146.714 25.3936L126.505 35.666C115.437 41.2924 114.114 55.2209 122.534 62.834C122.395 62.9099 122.254 62.984 122.111 63.0566L115.716 66.3066C105.634 55.2584 108.055 37.0161 122.983 29.4277L143.191 19.1553C150.828 15.2736 155.594 7.71997 155.594 -0.5H163.053Z" fill="#29BDFC"/>
<path d="M198.284 76.6367C207.361 81.2507 213.026 90.2293 213.026 100H205.567C205.567 92.8384 201.415 86.2579 194.762 82.876L178.145 74.4277L178.425 74.2861C180.882 73.037 183.035 71.5281 184.886 69.8262L198.284 76.6367ZM174.987 64.7051C175.464 65.004 175.959 65.2889 176.479 65.5527L182.105 68.4121C180.61 69.6858 178.915 70.8256 177.016 71.791L174.985 72.8223L172.957 71.791C171.058 70.8254 169.361 69.687 167.866 68.4131L173.494 65.5527C174.014 65.2886 174.511 65.0043 174.987 64.7051ZM213.026 -0.5C213.026 10.329 206.747 20.2798 196.688 25.3936L176.479 35.666C165.411 41.2924 164.088 55.2209 172.508 62.834C172.369 62.9099 172.228 62.984 172.085 63.0566L165.689 66.3066C155.608 55.2584 158.029 37.0161 172.957 29.4277L193.165 19.1553C200.801 15.2736 205.567 7.71997 205.567 -0.5H213.026Z" fill="#29BDFC"/>
<path d="M134.308 34.9102C144.391 45.9581 141.971 64.2021 127.042 71.791L105.237 82.876C98.5843 86.2579 94.4316 92.8383 94.4316 100H86.9727C86.9727 90.2292 92.6381 81.2507 101.715 76.6367L123.52 65.5527C134.588 59.9262 135.911 45.9967 127.489 38.3838C127.628 38.3077 127.77 38.2339 127.913 38.1611L134.308 34.9102ZM127.042 29.4277C128.941 30.393 130.637 31.5313 132.131 32.8047L126.504 35.666C125.984 35.9301 125.486 36.2125 125.01 36.5117C124.534 36.2132 124.038 35.9296 123.52 35.666L117.891 32.8037C119.385 31.5299 121.082 30.3923 122.981 29.4268L125.011 28.3945L127.042 29.4277ZM94.4316 -0.5C94.4316 7.71997 99.1979 15.2736 106.834 19.1553L121.852 26.7891L121.573 26.9316C119.116 28.181 116.961 29.6882 115.109 31.3906L103.312 25.3936C93.2517 20.2798 86.9727 10.3291 86.9727 -0.5H94.4316Z" fill="#29BDFC"/>
<path d="M184.281 34.9102C194.365 45.9581 191.944 64.2021 177.016 71.791L155.211 82.876C148.558 86.2579 144.405 92.8383 144.405 100H136.946C136.946 90.2292 142.612 81.2507 151.688 76.6367L173.493 65.5527C184.562 59.9262 185.884 45.9967 177.463 38.3838C177.602 38.3076 177.744 38.234 177.888 38.1611L184.281 34.9102ZM177.016 29.4277C178.915 30.3931 180.611 31.5311 182.105 32.8047L176.479 35.666C175.959 35.9302 175.461 36.2134 174.984 36.5127C174.508 36.214 174.012 35.9298 173.493 35.666L167.864 32.8047C169.359 31.5306 171.056 30.3925 172.956 29.4268L174.984 28.3945L177.016 29.4277ZM144.405 -0.5C144.405 7.71997 149.172 15.2736 156.808 19.1553L171.826 26.7891L171.548 26.9316C169.09 28.1811 166.934 29.688 165.083 31.3906L153.285 25.3936C143.225 20.2798 136.946 10.3291 136.946 -0.5H144.405Z" fill="#29BDFC"/>
<path d="M234.255 34.9102C244.338 45.9581 241.918 64.2021 226.989 71.791L205.185 82.876C198.532 86.2579 194.379 92.8383 194.379 100H186.92C186.92 90.2292 192.585 81.2507 201.662 76.6367L223.467 65.5527C234.536 59.9262 235.858 45.9967 227.437 38.3838C227.576 38.3076 227.718 38.234 227.861 38.1611L234.255 34.9102ZM226.989 29.4277C228.888 30.3931 230.585 31.5311 232.079 32.8047L226.452 35.666C225.932 35.9302 225.435 36.2134 224.958 36.5127C224.482 36.214 223.986 35.9298 223.467 35.666L217.838 32.8047C219.333 31.5306 221.03 30.3925 222.93 29.4268L224.958 28.3945L226.989 29.4277ZM194.379 -0.5C194.379 7.71997 199.145 15.2736 206.781 19.1553L221.8 26.7891L221.521 26.9316C219.063 28.1811 216.908 29.688 215.057 31.3906L203.259 25.3936C193.199 20.2798 186.92 10.3291 186.92 -0.5H194.379Z" fill="#29BDFC"/>
</g>
<g clip-path="url(#clip2_4953_11386)">
<path d="M-1.66187 176.637C7.41487 181.251 13.0803 190.229 13.0803 200H5.62133C5.62133 192.838 1.46865 186.258 -5.18433 182.876L-21.8015 174.428L-21.5203 174.286C-19.0631 173.037 -16.9103 171.528 -15.0593 169.826L-1.66187 176.637ZM-24.9587 164.706C-24.4825 165.005 -23.9857 165.289 -23.4666 165.553L-17.8406 168.412C-19.3349 169.686 -21.0302 170.826 -22.9295 171.791L-24.9597 172.822L-26.989 171.791C-28.8886 170.825 -30.5853 169.687 -32.0798 168.413L-26.4509 165.553C-25.9318 165.289 -25.435 165.005 -24.9587 164.706ZM13.0803 99.5C13.0803 110.329 6.80127 120.28 -3.25855 125.394L-23.4666 135.666C-34.5346 141.292 -35.8579 155.221 -27.4382 162.834C-27.5769 162.91 -27.7176 162.984 -27.8601 163.057L-34.2566 166.308C-44.3385 155.259 -41.9173 137.016 -26.989 129.428L-6.78101 119.155C0.855072 115.274 5.62133 107.72 5.62133 99.5H13.0803Z" fill="#29BDFC"/>
<path d="M48.3106 176.637C57.3872 181.251 63.0528 190.229 63.0528 200H55.5938C55.5938 192.838 51.441 186.258 44.7881 182.876L28.1709 174.428L28.4512 174.286C30.9084 173.037 33.0611 171.528 34.9121 169.826L48.3106 176.637ZM25.0137 164.705C25.4899 165.004 25.9858 165.289 26.5049 165.553L32.1309 168.412C30.6365 169.686 28.9413 170.826 27.042 171.791L25.0118 172.822L22.9834 171.791C21.0839 170.825 19.3872 169.687 17.8926 168.413L23.5205 165.553C24.0401 165.289 24.5371 165.004 25.0137 164.705ZM63.0528 99.5C63.0528 110.329 56.7736 120.28 46.7139 125.394L26.5049 135.666C15.437 141.292 14.1144 155.221 22.5342 162.834C22.3952 162.91 22.2542 162.984 22.1114 163.057L15.7159 166.307C5.63431 155.258 8.0553 137.016 22.9834 129.428L43.1914 119.155C50.8275 115.274 55.5938 107.72 55.5938 99.5H63.0528Z" fill="#29BDFC"/>
<path d="M98.2842 176.637C107.361 181.251 113.026 190.229 113.026 200H105.567C105.567 192.838 101.415 186.258 94.7618 182.876L78.1446 174.428L78.4248 174.286C80.8821 173.037 83.0348 171.528 84.8858 169.826L98.2842 176.637ZM74.9873 164.705C75.4636 165.004 75.9595 165.289 76.4785 165.553L82.1045 168.412C80.6102 169.686 78.9149 170.826 77.0157 171.791L74.9854 172.822L72.9571 171.791C71.0576 170.825 69.3608 169.687 67.8662 168.413L73.4942 165.553C74.0138 165.289 74.5107 165.004 74.9873 164.705ZM113.026 99.5C113.026 110.329 106.747 120.28 96.6875 125.394L76.4785 135.666C65.4106 141.292 64.0881 155.221 72.5078 162.834C72.3689 162.91 72.2279 162.984 72.085 163.057L65.6895 166.307C55.6079 155.258 58.0289 137.016 72.9571 129.428L93.1651 119.155C100.801 115.274 105.567 107.72 105.567 99.5H113.026Z" fill="#29BDFC"/>
<path d="M34.3076 134.91C44.3911 145.958 41.9708 164.202 27.042 171.791L5.2373 182.876C-1.41568 186.258 -5.56836 192.838 -5.56836 200H-13.0273C-13.0273 190.229 -7.3619 181.251 1.71484 176.637L23.5195 165.553C34.5883 159.926 35.9106 145.997 27.4893 138.384C27.6285 138.308 27.77 138.234 27.9131 138.161L34.3076 134.91ZM27.042 129.428C28.9408 130.393 30.6367 131.531 32.1309 132.805L26.5039 135.666C25.9844 135.93 25.4863 136.213 25.0098 136.512C24.5341 136.213 24.038 135.93 23.5195 135.666L17.8906 132.804C19.385 131.53 21.0821 130.392 22.9814 129.427L25.0107 128.395L27.042 129.428ZM-5.56836 99.5C-5.56836 107.72 -0.802102 115.274 6.83398 119.155L21.8516 126.789L21.5732 126.932C19.1155 128.181 16.9606 129.688 15.1094 131.391L3.31152 125.394C-6.74832 120.28 -13.0273 110.329 -13.0273 99.5H-5.56836Z" fill="#29BDFC"/>
<path d="M84.2812 134.91C94.3647 145.958 91.9444 164.202 77.0156 171.791L55.2109 182.876C48.558 186.258 44.4053 192.838 44.4053 200H36.9463C36.9463 190.229 42.6117 181.251 51.6885 176.637L73.4932 165.553C84.5619 159.926 85.8842 145.997 77.4629 138.384C77.6024 138.308 77.7443 138.234 77.8877 138.161L84.2812 134.91ZM77.0156 129.428C78.9147 130.393 80.6111 131.531 82.1055 132.805L76.4785 135.666C75.9588 135.93 75.4611 136.213 74.9844 136.513C74.5084 136.214 74.012 135.93 73.4932 135.666L67.8643 132.805C69.3589 131.531 71.0563 130.393 72.9561 129.427L74.9844 128.395L77.0156 129.428ZM44.4053 99.5C44.4053 107.72 49.1715 115.274 56.8076 119.155L71.8262 126.789L71.5479 126.932C69.0899 128.181 66.9344 129.688 65.083 131.391L53.2852 125.394C43.2253 120.28 36.9463 110.329 36.9463 99.5H44.4053Z" fill="#29BDFC"/>
<path d="M134.255 134.91C144.338 145.958 141.918 164.202 126.989 171.791L105.185 182.876C98.5316 186.258 94.3789 192.838 94.3789 200H86.9199C86.9199 190.229 92.5854 181.251 101.662 176.637L123.467 165.553C134.536 159.926 135.858 145.997 127.437 138.384C127.576 138.308 127.718 138.234 127.861 138.161L134.255 134.91ZM126.989 129.428C128.888 130.393 130.585 131.531 132.079 132.805L126.452 135.666C125.932 135.93 125.435 136.213 124.958 136.513C124.482 136.214 123.986 135.93 123.467 135.666L117.838 132.805C119.333 131.531 121.03 130.393 122.93 129.427L124.958 128.395L126.989 129.428ZM94.3789 99.5C94.3789 107.72 99.1452 115.274 106.781 119.155L121.8 126.789L121.521 126.932C119.063 128.181 116.908 129.688 115.057 131.391L103.259 125.394C93.1989 120.28 86.9199 110.329 86.9199 99.5H94.3789Z" fill="#29BDFC"/>
</g>
<g clip-path="url(#clip3_4953_11386)">
<path d="M98.3381 176.637C107.415 181.251 113.08 190.229 113.08 200H105.621C105.621 192.838 101.469 186.258 94.8157 182.876L78.1985 174.428L78.4797 174.286C80.9369 173.037 83.0897 171.528 84.9407 169.826L98.3381 176.637ZM75.0413 164.706C75.5175 165.005 76.0143 165.289 76.5334 165.553L82.1594 168.412C80.6651 169.686 78.9698 170.826 77.0705 171.791L75.0403 172.822L73.011 171.791C71.1114 170.825 69.4147 169.687 67.9202 168.413L73.5491 165.553C74.0682 165.289 74.565 165.005 75.0413 164.706ZM113.08 99.5C113.08 110.329 106.801 120.28 96.7414 125.394L76.5334 135.666C65.4654 141.292 64.1421 155.221 72.5618 162.834C72.4231 162.91 72.2824 162.984 72.1399 163.057L65.7434 166.308C55.6615 155.259 58.0827 137.016 73.011 129.428L93.219 119.155C100.855 115.274 105.621 107.72 105.621 99.5H113.08Z" fill="#29BDFC"/>
<path d="M148.311 176.637C157.387 181.251 163.053 190.229 163.053 200H155.594C155.594 192.838 151.441 186.258 144.788 182.876L128.171 174.428L128.451 174.286C130.908 173.037 133.061 171.528 134.912 169.826L148.311 176.637ZM125.014 164.705C125.49 165.004 125.986 165.289 126.505 165.553L132.131 168.412C130.637 169.686 128.941 170.826 127.042 171.791L125.012 172.822L122.983 171.791C121.084 170.825 119.387 169.687 117.893 168.413L123.521 165.553C124.04 165.289 124.537 165.004 125.014 164.705ZM163.053 99.5C163.053 110.329 156.774 120.28 146.714 125.394L126.505 135.666C115.437 141.292 114.114 155.221 122.534 162.834C122.395 162.91 122.254 162.984 122.111 163.057L115.716 166.307C105.634 155.258 108.055 137.016 122.983 129.428L143.191 119.155C150.828 115.274 155.594 107.72 155.594 99.5H163.053Z" fill="#29BDFC"/>
<path d="M198.284 176.637C207.361 181.251 213.026 190.229 213.026 200H205.567C205.567 192.838 201.415 186.258 194.762 182.876L178.145 174.428L178.425 174.286C180.882 173.037 183.035 171.528 184.886 169.826L198.284 176.637ZM174.987 164.705C175.464 165.004 175.959 165.289 176.479 165.553L182.105 168.412C180.61 169.686 178.915 170.826 177.016 171.791L174.985 172.822L172.957 171.791C171.058 170.825 169.361 169.687 167.866 168.413L173.494 165.553C174.014 165.289 174.511 165.004 174.987 164.705ZM213.026 99.5C213.026 110.329 206.747 120.28 196.688 125.394L176.479 135.666C165.411 141.292 164.088 155.221 172.508 162.834C172.369 162.91 172.228 162.984 172.085 163.057L165.689 166.307C155.608 155.258 158.029 137.016 172.957 129.428L193.165 119.155C200.801 115.274 205.567 107.72 205.567 99.5H213.026Z" fill="#29BDFC"/>
<path d="M134.307 134.91C144.391 145.958 141.971 164.202 127.042 171.791L105.237 182.876C98.5843 186.258 94.4316 192.838 94.4316 200H86.9727C86.9727 190.229 92.6381 181.251 101.715 176.637L123.52 165.553C134.588 159.926 135.911 145.997 127.489 138.384C127.628 138.308 127.769 138.234 127.912 138.161L134.307 134.91ZM127.042 129.428C128.941 130.393 130.637 131.531 132.131 132.805L126.504 135.666C125.985 135.93 125.487 136.213 125.011 136.512C124.535 136.213 124.038 135.93 123.52 135.666L117.891 132.804C119.385 131.53 121.082 130.392 122.981 129.427L125.011 128.395L127.042 129.428ZM94.4316 99.5C94.4316 107.72 99.1979 115.274 106.834 119.155L121.852 126.789L121.572 126.932C119.115 128.181 116.96 129.688 115.109 131.391L103.312 125.394C93.2517 120.28 86.9727 110.329 86.9727 99.5H94.4316Z" fill="#29BDFC"/>
<path d="M184.281 134.91C194.365 145.958 191.944 164.202 177.016 171.791L155.211 182.876C148.558 186.258 144.405 192.838 144.405 200H136.946C136.946 190.229 142.612 181.251 151.688 176.637L173.493 165.553C184.562 159.926 185.884 145.997 177.463 138.384C177.602 138.308 177.744 138.234 177.887 138.161L184.281 134.91ZM177.016 129.428C178.915 130.393 180.611 131.531 182.105 132.805L176.479 135.666C175.959 135.93 175.461 136.213 174.984 136.513C174.508 136.214 174.012 135.93 173.493 135.666L167.864 132.805C169.359 131.531 171.056 130.392 172.956 129.427L174.984 128.395L177.016 129.428ZM144.405 99.5C144.405 107.72 149.172 115.274 156.808 119.155L171.825 126.789L171.547 126.932C169.089 128.181 166.934 129.688 165.083 131.391L153.285 125.394C143.225 120.28 136.946 110.329 136.946 99.5H144.405Z" fill="#29BDFC"/>
<path d="M234.255 134.91C244.338 145.958 241.918 164.202 226.989 171.791L205.185 182.876C198.532 186.258 194.379 192.838 194.379 200H186.92C186.92 190.229 192.585 181.251 201.662 176.637L223.467 165.553C234.536 159.926 235.858 145.997 227.437 138.384C227.576 138.308 227.717 138.234 227.86 138.161L234.255 134.91ZM226.989 129.428C228.888 130.393 230.585 131.531 232.079 132.805L226.452 135.666C225.932 135.93 225.435 136.213 224.958 136.513C224.482 136.214 223.986 135.93 223.467 135.666L217.838 132.805C219.333 131.531 221.03 130.392 222.93 129.427L224.958 128.395L226.989 129.428ZM194.379 99.5C194.379 107.72 199.145 115.274 206.781 119.155L221.799 126.789L221.521 126.932C219.063 128.181 216.908 129.688 215.057 131.391L203.259 125.394C193.199 120.28 186.92 110.329 186.92 99.5H194.379Z" fill="#29BDFC"/>
</g>
<defs>
<clipPath id="clip0_4953_11386">
<rect width="100" height="100" fill="white"/>
</clipPath>
<clipPath id="clip1_4953_11386">
<rect width="100" height="100" fill="white" transform="translate(100)"/>
</clipPath>
<clipPath id="clip2_4953_11386">
<rect width="100" height="100" fill="white" transform="translate(0 100)"/>
</clipPath>
<clipPath id="clip3_4953_11386">
<rect width="100" height="100" fill="white" transform="translate(100 100)"/>
</clipPath>
</defs>
</svg>
