<svg width="200" height="200" viewBox="0 0 200 200" fill="none" xmlns="http://www.w3.org/2000/svg">
<g clip-path="url(#clip0_4953_11143)">
<path d="M22.1987 0.37793C22.7163 -0.0360005 23.4256 -0.116179 24.0229 0.170898C24.6201 0.458057 24.9995 1.06195 24.9995 1.72461V31.0352C24.9995 31.5587 24.7618 32.0537 24.353 32.3809L2.80127 49.623C2.28375 50.037 1.57435 50.1172 0.977051 49.8301C0.379848 49.5429 -0.000475167 48.939 -0.000488281 48.2764V18.9658C-0.000437448 18.4422 0.238193 17.9473 0.646973 17.6201L22.1987 0.37793Z" stroke="#29BDFC" stroke-width="3.44828" stroke-linejoin="round"/>
<path d="M22.1987 99.6221C22.7163 100.036 23.4256 100.116 24.0229 99.8291C24.6201 99.5419 24.9995 98.9381 24.9995 98.2754V68.9648C24.9995 68.4413 24.7618 67.9463 24.353 67.6191L2.80127 50.377C2.28375 49.963 1.57435 49.8828 0.977051 50.1699C0.379848 50.4571 -0.000475167 51.061 -0.000488281 51.7236V81.0342C-0.000437448 81.5578 0.238193 82.0527 0.646973 82.3799L22.1987 99.6221Z" stroke="#29BDFC" stroke-width="3.44828" stroke-linejoin="round"/>
<path d="M72.1987 0.37793C72.7163 -0.0360005 73.4256 -0.116179 74.0229 0.170898C74.6201 0.458057 74.9995 1.06195 74.9995 1.72461V31.0352C74.9995 31.5587 74.7618 32.0537 74.353 32.3809L52.8013 49.623C52.2837 50.037 51.5744 50.1172 50.9771 49.8301C50.3798 49.5429 49.9995 48.939 49.9995 48.2764V18.9658C49.9996 18.4422 50.2382 17.9473 50.647 17.6201L72.1987 0.37793Z" stroke="#29BDFC" stroke-width="3.44828" stroke-linejoin="round"/>
<path d="M72.1987 99.6221C72.7163 100.036 73.4256 100.116 74.0229 99.8291C74.6201 99.5419 74.9995 98.9381 74.9995 98.2754V68.9648C74.9995 68.4413 74.7618 67.9463 74.353 67.6191L52.8013 50.377C52.2837 49.963 51.5744 49.8828 50.9771 50.1699C50.3798 50.4571 49.9995 51.061 49.9995 51.7236V81.0342C49.9996 81.5578 50.2382 82.0527 50.647 82.3799L72.1987 99.6221Z" stroke="#29BDFC" stroke-width="3.44828" stroke-linejoin="round"/>
<path d="M27.8013 0.37793C27.2837 -0.0360005 26.5744 -0.116179 25.9771 0.170898C25.3799 0.458057 25.0005 1.06195 25.0005 1.72461V31.0352C25.0005 31.5587 25.2382 32.0537 25.647 32.3809L47.1987 49.623C47.7163 50.037 48.4256 50.1172 49.0229 49.8301C49.6202 49.5429 50.0005 48.939 50.0005 48.2764V18.9658C50.0004 18.4422 49.7618 17.9473 49.353 17.6201L27.8013 0.37793Z" stroke="#29BDFC" stroke-width="3.44828" stroke-linejoin="round"/>
<path d="M27.8013 99.6221C27.2837 100.036 26.5744 100.116 25.9771 99.8291C25.3799 99.5419 25.0005 98.9381 25.0005 98.2754V68.9648C25.0005 68.4413 25.2382 67.9463 25.647 67.6191L47.1987 50.377C47.7163 49.963 48.4256 49.8828 49.0229 50.1699C49.6202 50.4571 50.0005 51.061 50.0005 51.7236V81.0342C50.0004 81.5578 49.7618 82.0527 49.353 82.3799L27.8013 99.6221Z" stroke="#29BDFC" stroke-width="3.44828" stroke-linejoin="round"/>
<path d="M77.8013 0.37793C77.2837 -0.0360005 76.5744 -0.116179 75.9771 0.170898C75.3799 0.458057 75.0005 1.06195 75.0005 1.72461V31.0352C75.0005 31.5587 75.2382 32.0537 75.647 32.3809L97.1987 49.623C97.7163 50.037 98.4256 50.1172 99.0229 49.8301C99.6202 49.5429 100 48.939 100 48.2764V18.9658C100 18.4422 99.7618 17.9473 99.353 17.6201L77.8013 0.37793Z" stroke="#29BDFC" stroke-width="3.44828" stroke-linejoin="round"/>
<path d="M77.8013 99.6221C77.2837 100.036 76.5744 100.116 75.9771 99.8291C75.3799 99.5419 75.0005 98.9381 75.0005 98.2754V68.9648C75.0005 68.4413 75.2382 67.9463 75.647 67.6191L97.1987 50.377C97.7163 49.963 98.4256 49.8828 99.0229 50.1699C99.6202 50.4571 100 51.061 100 51.7236V81.0342C100 81.5578 99.7618 82.0527 99.353 82.3799L77.8013 99.6221Z" stroke="#29BDFC" stroke-width="3.44828" stroke-linejoin="round"/>
</g>
<g clip-path="url(#clip1_4953_11143)">
<path d="M22.1987 100.378C22.7163 99.964 23.4256 99.8838 24.0229 100.171C24.6201 100.458 24.9995 101.062 24.9995 101.725V131.035C24.9995 131.559 24.7618 132.054 24.353 132.381L2.80127 149.623C2.28375 150.037 1.57435 150.117 0.977051 149.83C0.379848 149.543 -0.000475167 148.939 -0.000488281 148.276V118.966C-0.000437448 118.442 0.238193 117.947 0.646973 117.62L22.1987 100.378Z" stroke="#29BDFC" stroke-width="3.44828" stroke-linejoin="round"/>
<path d="M22.1987 199.622C22.7163 200.036 23.4256 200.116 24.0229 199.829C24.6201 199.542 24.9995 198.938 24.9995 198.275V168.965C24.9995 168.441 24.7618 167.946 24.353 167.619L2.80127 150.377C2.28375 149.963 1.57435 149.883 0.977051 150.17C0.379848 150.457 -0.000475167 151.061 -0.000488281 151.724V181.034C-0.000437448 181.558 0.238193 182.053 0.646973 182.38L22.1987 199.622Z" stroke="#29BDFC" stroke-width="3.44828" stroke-linejoin="round"/>
<path d="M72.1987 100.378C72.7163 99.964 73.4256 99.8838 74.0229 100.171C74.6201 100.458 74.9995 101.062 74.9995 101.725V131.035C74.9995 131.559 74.7618 132.054 74.353 132.381L52.8013 149.623C52.2837 150.037 51.5744 150.117 50.9771 149.83C50.3798 149.543 49.9995 148.939 49.9995 148.276V118.966C49.9996 118.442 50.2382 117.947 50.647 117.62L72.1987 100.378Z" stroke="#29BDFC" stroke-width="3.44828" stroke-linejoin="round"/>
<path d="M72.1987 199.622C72.7163 200.036 73.4256 200.116 74.0229 199.829C74.6201 199.542 74.9995 198.938 74.9995 198.275V168.965C74.9995 168.441 74.7618 167.946 74.353 167.619L52.8013 150.377C52.2837 149.963 51.5744 149.883 50.9771 150.17C50.3798 150.457 49.9995 151.061 49.9995 151.724V181.034C49.9996 181.558 50.2382 182.053 50.647 182.38L72.1987 199.622Z" stroke="#29BDFC" stroke-width="3.44828" stroke-linejoin="round"/>
<path d="M27.8013 100.378C27.2837 99.964 26.5744 99.8838 25.9771 100.171C25.3799 100.458 25.0005 101.062 25.0005 101.725V131.035C25.0005 131.559 25.2382 132.054 25.647 132.381L47.1987 149.623C47.7163 150.037 48.4256 150.117 49.0229 149.83C49.6202 149.543 50.0005 148.939 50.0005 148.276V118.966C50.0004 118.442 49.7618 117.947 49.353 117.62L27.8013 100.378Z" stroke="#29BDFC" stroke-width="3.44828" stroke-linejoin="round"/>
<path d="M27.8013 199.622C27.2837 200.036 26.5744 200.116 25.9771 199.829C25.3799 199.542 25.0005 198.938 25.0005 198.275V168.965C25.0005 168.441 25.2382 167.946 25.647 167.619L47.1987 150.377C47.7163 149.963 48.4256 149.883 49.0229 150.17C49.6202 150.457 50.0005 151.061 50.0005 151.724V181.034C50.0004 181.558 49.7618 182.053 49.353 182.38L27.8013 199.622Z" stroke="#29BDFC" stroke-width="3.44828" stroke-linejoin="round"/>
<path d="M77.8013 100.378C77.2837 99.964 76.5744 99.8838 75.9771 100.171C75.3799 100.458 75.0005 101.062 75.0005 101.725V131.035C75.0005 131.559 75.2382 132.054 75.647 132.381L97.1987 149.623C97.7163 150.037 98.4256 150.117 99.0229 149.83C99.6202 149.543 100 148.939 100 148.276V118.966C100 118.442 99.7618 117.947 99.353 117.62L77.8013 100.378Z" stroke="#29BDFC" stroke-width="3.44828" stroke-linejoin="round"/>
<path d="M77.8013 199.622C77.2837 200.036 76.5744 200.116 75.9771 199.829C75.3799 199.542 75.0005 198.938 75.0005 198.275V168.965C75.0005 168.441 75.2382 167.946 75.647 167.619L97.1987 150.377C97.7163 149.963 98.4256 149.883 99.0229 150.17C99.6202 150.457 100 151.061 100 151.724V181.034C100 181.558 99.7618 182.053 99.353 182.38L77.8013 199.622Z" stroke="#29BDFC" stroke-width="3.44828" stroke-linejoin="round"/>
</g>
<g clip-path="url(#clip2_4953_11143)">
<path d="M122.199 0.37793C122.716 -0.0360005 123.426 -0.116179 124.023 0.170898C124.62 0.458057 125 1.06195 125 1.72461V31.0352C124.999 31.5587 124.762 32.0537 124.353 32.3809L102.801 49.623C102.284 50.037 101.574 50.1172 100.977 49.8301C100.38 49.5429 99.9995 48.939 99.9995 48.2764V18.9658C99.9996 18.4422 100.238 17.9473 100.647 17.6201L122.199 0.37793Z" stroke="#29BDFC" stroke-width="3.44828" stroke-linejoin="round"/>
<path d="M122.199 99.6221C122.716 100.036 123.426 100.116 124.023 99.8291C124.62 99.5419 125 98.9381 125 98.2754V68.9648C124.999 68.4413 124.762 67.9463 124.353 67.6191L102.801 50.377C102.284 49.963 101.574 49.8828 100.977 50.1699C100.38 50.4571 99.9995 51.061 99.9995 51.7236V81.0342C99.9996 81.5578 100.238 82.0527 100.647 82.3799L122.199 99.6221Z" stroke="#29BDFC" stroke-width="3.44828" stroke-linejoin="round"/>
<path d="M172.199 0.37793C172.716 -0.0360005 173.426 -0.116179 174.023 0.170898C174.62 0.458057 175 1.06195 175 1.72461V31.0352C174.999 31.5587 174.762 32.0537 174.353 32.3809L152.801 49.623C152.284 50.037 151.574 50.1172 150.977 49.8301C150.38 49.5429 150 48.939 150 48.2764V18.9658C150 18.4422 150.238 17.9473 150.647 17.6201L172.199 0.37793Z" stroke="#29BDFC" stroke-width="3.44828" stroke-linejoin="round"/>
<path d="M172.199 99.6221C172.716 100.036 173.426 100.116 174.023 99.8291C174.62 99.5419 175 98.9381 175 98.2754V68.9648C174.999 68.4413 174.762 67.9463 174.353 67.6191L152.801 50.377C152.284 49.963 151.574 49.8828 150.977 50.1699C150.38 50.4571 150 51.061 150 51.7236V81.0342C150 81.5578 150.238 82.0527 150.647 82.3799L172.199 99.6221Z" stroke="#29BDFC" stroke-width="3.44828" stroke-linejoin="round"/>
<path d="M127.801 0.37793C127.284 -0.0360005 126.574 -0.116179 125.977 0.170898C125.38 0.458057 125 1.06195 125 1.72461V31.0352C125.001 31.5587 125.238 32.0537 125.647 32.3809L147.199 49.623C147.716 50.037 148.426 50.1172 149.023 49.8301C149.62 49.5429 150 48.939 150 48.2764V18.9658C150 18.4422 149.762 17.9473 149.353 17.6201L127.801 0.37793Z" stroke="#29BDFC" stroke-width="3.44828" stroke-linejoin="round"/>
<path d="M127.801 99.6221C127.284 100.036 126.574 100.116 125.977 99.8291C125.38 99.5419 125 98.9381 125 98.2754V68.9648C125.001 68.4413 125.238 67.9463 125.647 67.6191L147.199 50.377C147.716 49.963 148.426 49.8828 149.023 50.1699C149.62 50.4571 150 51.061 150 51.7236V81.0342C150 81.5578 149.762 82.0527 149.353 82.3799L127.801 99.6221Z" stroke="#29BDFC" stroke-width="3.44828" stroke-linejoin="round"/>
<path d="M177.801 0.37793C177.284 -0.0360005 176.574 -0.116179 175.977 0.170898C175.38 0.458057 175 1.06195 175 1.72461V31.0352C175.001 31.5587 175.238 32.0537 175.647 32.3809L197.199 49.623C197.716 50.037 198.426 50.1172 199.023 49.8301C199.62 49.5429 200 48.939 200 48.2764V18.9658C200 18.4422 199.762 17.9473 199.353 17.6201L177.801 0.37793Z" stroke="#29BDFC" stroke-width="3.44828" stroke-linejoin="round"/>
<path d="M177.801 99.6221C177.284 100.036 176.574 100.116 175.977 99.8291C175.38 99.5419 175 98.9381 175 98.2754V68.9648C175.001 68.4413 175.238 67.9463 175.647 67.6191L197.199 50.377C197.716 49.963 198.426 49.8828 199.023 50.1699C199.62 50.4571 200 51.061 200 51.7236V81.0342C200 81.5578 199.762 82.0527 199.353 82.3799L177.801 99.6221Z" stroke="#29BDFC" stroke-width="3.44828" stroke-linejoin="round"/>
</g>
<g clip-path="url(#clip3_4953_11143)">
<path d="M122.199 100.378C122.716 99.964 123.426 99.8838 124.023 100.171C124.62 100.458 125 101.062 125 101.725V131.035C124.999 131.559 124.762 132.054 124.353 132.381L102.801 149.623C102.284 150.037 101.574 150.117 100.977 149.83C100.38 149.543 99.9995 148.939 99.9995 148.276V118.966C99.9996 118.442 100.238 117.947 100.647 117.62L122.199 100.378Z" stroke="#29BDFC" stroke-width="3.44828" stroke-linejoin="round"/>
<path d="M122.199 199.622C122.716 200.036 123.426 200.116 124.023 199.829C124.62 199.542 125 198.938 125 198.275V168.965C124.999 168.441 124.762 167.946 124.353 167.619L102.801 150.377C102.284 149.963 101.574 149.883 100.977 150.17C100.38 150.457 99.9995 151.061 99.9995 151.724V181.034C99.9996 181.558 100.238 182.053 100.647 182.38L122.199 199.622Z" stroke="#29BDFC" stroke-width="3.44828" stroke-linejoin="round"/>
<path d="M172.199 100.378C172.716 99.964 173.426 99.8838 174.023 100.171C174.62 100.458 175 101.062 175 101.725V131.035C174.999 131.559 174.762 132.054 174.353 132.381L152.801 149.623C152.284 150.037 151.574 150.117 150.977 149.83C150.38 149.543 150 148.939 150 148.276V118.966C150 118.442 150.238 117.947 150.647 117.62L172.199 100.378Z" stroke="#29BDFC" stroke-width="3.44828" stroke-linejoin="round"/>
<path d="M172.199 199.622C172.716 200.036 173.426 200.116 174.023 199.829C174.62 199.542 175 198.938 175 198.275V168.965C174.999 168.441 174.762 167.946 174.353 167.619L152.801 150.377C152.284 149.963 151.574 149.883 150.977 150.17C150.38 150.457 150 151.061 150 151.724V181.034C150 181.558 150.238 182.053 150.647 182.38L172.199 199.622Z" stroke="#29BDFC" stroke-width="3.44828" stroke-linejoin="round"/>
<path d="M127.801 100.378C127.284 99.964 126.574 99.8838 125.977 100.171C125.38 100.458 125 101.062 125 101.725V131.035C125.001 131.559 125.238 132.054 125.647 132.381L147.199 149.623C147.716 150.037 148.426 150.117 149.023 149.83C149.62 149.543 150 148.939 150 148.276V118.966C150 118.442 149.762 117.947 149.353 117.62L127.801 100.378Z" stroke="#29BDFC" stroke-width="3.44828" stroke-linejoin="round"/>
<path d="M127.801 199.622C127.284 200.036 126.574 200.116 125.977 199.829C125.38 199.542 125 198.938 125 198.275V168.965C125.001 168.441 125.238 167.946 125.647 167.619L147.199 150.377C147.716 149.963 148.426 149.883 149.023 150.17C149.62 150.457 150 151.061 150 151.724V181.034C150 181.558 149.762 182.053 149.353 182.38L127.801 199.622Z" stroke="#29BDFC" stroke-width="3.44828" stroke-linejoin="round"/>
<path d="M177.801 100.378C177.284 99.964 176.574 99.8838 175.977 100.171C175.38 100.458 175 101.062 175 101.725V131.035C175.001 131.559 175.238 132.054 175.647 132.381L197.199 149.623C197.716 150.037 198.426 150.117 199.023 149.83C199.62 149.543 200 148.939 200 148.276V118.966C200 118.442 199.762 117.947 199.353 117.62L177.801 100.378Z" stroke="#29BDFC" stroke-width="3.44828" stroke-linejoin="round"/>
<path d="M177.801 199.622C177.284 200.036 176.574 200.116 175.977 199.829C175.38 199.542 175 198.938 175 198.275V168.965C175.001 168.441 175.238 167.946 175.647 167.619L197.199 150.377C197.716 149.963 198.426 149.883 199.023 150.17C199.62 150.457 200 151.061 200 151.724V181.034C200 181.558 199.762 182.053 199.353 182.38L177.801 199.622Z" stroke="#29BDFC" stroke-width="3.44828" stroke-linejoin="round"/>
</g>
<defs>
<clipPath id="clip0_4953_11143">
<rect width="100" height="100" fill="white"/>
</clipPath>
<clipPath id="clip1_4953_11143">
<rect width="100" height="100" fill="white" transform="translate(0 100)"/>
</clipPath>
<clipPath id="clip2_4953_11143">
<rect width="100" height="100" fill="white" transform="translate(100)"/>
</clipPath>
<clipPath id="clip3_4953_11143">
<rect width="100" height="100" fill="white" transform="translate(100 100)"/>
</clipPath>
</defs>
</svg>
