<svg width="200" height="200" viewBox="0 0 200 200" fill="none" xmlns="http://www.w3.org/2000/svg">
<g clip-path="url(#clip0_4953_9622)">
<rect x="-0.409668" y="13.9873" width="15.5738" height="15.5738" transform="rotate(45 -0.409668 13.9873)" fill="#18D5FF"/>
<rect x="50" y="13.9873" width="15.5738" height="15.5738" transform="rotate(45 50 13.9873)" fill="#18D5FF"/>
<rect x="-0.409668" y="10.1329" width="21.0246" height="21.0246" transform="rotate(45 -0.409668 10.1329)" stroke="#29BDFC"/>
<rect x="50" y="10.1329" width="21.0246" height="21.0246" transform="rotate(45 50 10.1329)" stroke="#29BDFC"/>
<rect x="-0.409668" y="6.03523" width="26.8206" height="26.8206" transform="rotate(45 -0.409668 6.03523)" stroke="#29BDFC" stroke-opacity="0.7"/>
<rect x="50" y="6.03523" width="26.8206" height="26.8206" transform="rotate(45 50 6.03523)" stroke="#29BDFC" stroke-opacity="0.7"/>
<rect x="-0.409668" y="1.9366" width="32.6166" height="32.6166" transform="rotate(45 -0.409668 1.9366)" stroke="#29BDFC" stroke-opacity="0.3"/>
<rect x="50" y="1.9366" width="32.6166" height="32.6166" transform="rotate(45 50 1.9366)" stroke="#29BDFC" stroke-opacity="0.3"/>
<rect x="35.8076" y="-0.205078" width="15.5738" height="15.5738" transform="rotate(135 35.8076 -0.205078)" fill="#18D5FF"/>
<rect x="35.8076" y="50.2051" width="15.5738" height="15.5738" transform="rotate(135 35.8076 50.2051)" fill="#18D5FF"/>
<rect x="39.6615" y="-0.205078" width="21.0246" height="21.0246" transform="rotate(135 39.6615 -0.205078)" stroke="#29BDFC"/>
<rect x="39.6615" y="50.2051" width="21.0246" height="21.0246" transform="rotate(135 39.6615 50.2051)" stroke="#29BDFC"/>
<rect x="43.7602" y="-0.205078" width="26.8206" height="26.8206" transform="rotate(135 43.7602 -0.205078)" stroke="#29BDFC" stroke-opacity="0.7"/>
<rect x="43.7602" y="50.2051" width="26.8206" height="26.8206" transform="rotate(135 43.7602 50.2051)" stroke="#29BDFC" stroke-opacity="0.7"/>
<rect x="47.8583" y="-0.205078" width="32.6166" height="32.6166" transform="rotate(135 47.8583 -0.205078)" stroke="#29BDFC" stroke-opacity="0.3"/>
<rect x="47.8583" y="50.2051" width="32.6166" height="32.6166" transform="rotate(135 47.8583 50.2051)" stroke="#29BDFC" stroke-opacity="0.3"/>
</g>
<g clip-path="url(#clip1_4953_9622)">
<rect x="49.5903" y="13.9873" width="15.5738" height="15.5738" transform="rotate(45 49.5903 13.9873)" fill="#18D5FF"/>
<rect x="100" y="13.9873" width="15.5738" height="15.5738" transform="rotate(45 100 13.9873)" fill="#18D5FF"/>
<rect x="49.5903" y="10.1329" width="21.0246" height="21.0246" transform="rotate(45 49.5903 10.1329)" stroke="#29BDFC"/>
<rect x="100" y="10.1329" width="21.0246" height="21.0246" transform="rotate(45 100 10.1329)" stroke="#29BDFC"/>
<rect x="49.5903" y="6.03523" width="26.8206" height="26.8206" transform="rotate(45 49.5903 6.03523)" stroke="#29BDFC" stroke-opacity="0.7"/>
<rect x="100" y="6.03523" width="26.8206" height="26.8206" transform="rotate(45 100 6.03523)" stroke="#29BDFC" stroke-opacity="0.7"/>
<rect x="49.5903" y="1.9366" width="32.6166" height="32.6166" transform="rotate(45 49.5903 1.9366)" stroke="#29BDFC" stroke-opacity="0.3"/>
<rect x="100" y="1.9366" width="32.6166" height="32.6166" transform="rotate(45 100 1.9366)" stroke="#29BDFC" stroke-opacity="0.3"/>
<rect x="85.8076" y="-0.205078" width="15.5738" height="15.5738" transform="rotate(135 85.8076 -0.205078)" fill="#18D5FF"/>
<rect x="85.8076" y="50.2051" width="15.5738" height="15.5738" transform="rotate(135 85.8076 50.2051)" fill="#18D5FF"/>
<rect x="89.6615" y="-0.205078" width="21.0246" height="21.0246" transform="rotate(135 89.6615 -0.205078)" stroke="#29BDFC"/>
<rect x="89.6615" y="50.2051" width="21.0246" height="21.0246" transform="rotate(135 89.6615 50.2051)" stroke="#29BDFC"/>
<rect x="93.7602" y="-0.205078" width="26.8206" height="26.8206" transform="rotate(135 93.7602 -0.205078)" stroke="#29BDFC" stroke-opacity="0.7"/>
<rect x="93.7602" y="50.2051" width="26.8206" height="26.8206" transform="rotate(135 93.7602 50.2051)" stroke="#29BDFC" stroke-opacity="0.7"/>
<rect x="97.8583" y="-0.205078" width="32.6166" height="32.6166" transform="rotate(135 97.8583 -0.205078)" stroke="#29BDFC" stroke-opacity="0.3"/>
<rect x="97.8583" y="50.2051" width="32.6166" height="32.6166" transform="rotate(135 97.8583 50.2051)" stroke="#29BDFC" stroke-opacity="0.3"/>
</g>
<g clip-path="url(#clip2_4953_9622)">
<rect x="99.5903" y="13.9873" width="15.5738" height="15.5738" transform="rotate(45 99.5903 13.9873)" fill="#18D5FF"/>
<rect x="150" y="13.9873" width="15.5738" height="15.5738" transform="rotate(45 150 13.9873)" fill="#18D5FF"/>
<rect x="99.5903" y="10.1329" width="21.0246" height="21.0246" transform="rotate(45 99.5903 10.1329)" stroke="#29BDFC"/>
<rect x="150" y="10.1329" width="21.0246" height="21.0246" transform="rotate(45 150 10.1329)" stroke="#29BDFC"/>
<rect x="99.5903" y="6.03523" width="26.8206" height="26.8206" transform="rotate(45 99.5903 6.03523)" stroke="#29BDFC" stroke-opacity="0.7"/>
<rect x="150" y="6.03523" width="26.8206" height="26.8206" transform="rotate(45 150 6.03523)" stroke="#29BDFC" stroke-opacity="0.7"/>
<rect x="99.5903" y="1.9366" width="32.6166" height="32.6166" transform="rotate(45 99.5903 1.9366)" stroke="#29BDFC" stroke-opacity="0.3"/>
<rect x="150" y="1.9366" width="32.6166" height="32.6166" transform="rotate(45 150 1.9366)" stroke="#29BDFC" stroke-opacity="0.3"/>
<rect x="135.808" y="-0.205078" width="15.5738" height="15.5738" transform="rotate(135 135.808 -0.205078)" fill="#18D5FF"/>
<rect x="135.808" y="50.2051" width="15.5738" height="15.5738" transform="rotate(135 135.808 50.2051)" fill="#18D5FF"/>
<rect x="139.662" y="-0.205078" width="21.0246" height="21.0246" transform="rotate(135 139.662 -0.205078)" stroke="#29BDFC"/>
<rect x="139.662" y="50.2051" width="21.0246" height="21.0246" transform="rotate(135 139.662 50.2051)" stroke="#29BDFC"/>
<rect x="143.76" y="-0.205078" width="26.8206" height="26.8206" transform="rotate(135 143.76 -0.205078)" stroke="#29BDFC" stroke-opacity="0.7"/>
<rect x="143.76" y="50.2051" width="26.8206" height="26.8206" transform="rotate(135 143.76 50.2051)" stroke="#29BDFC" stroke-opacity="0.7"/>
<rect x="147.858" y="-0.205078" width="32.6166" height="32.6166" transform="rotate(135 147.858 -0.205078)" stroke="#29BDFC" stroke-opacity="0.3"/>
<rect x="147.858" y="50.2051" width="32.6166" height="32.6166" transform="rotate(135 147.858 50.2051)" stroke="#29BDFC" stroke-opacity="0.3"/>
</g>
<g clip-path="url(#clip3_4953_9622)">
<rect x="149.59" y="13.9873" width="15.5738" height="15.5738" transform="rotate(45 149.59 13.9873)" fill="#18D5FF"/>
<rect x="200" y="13.9873" width="15.5738" height="15.5738" transform="rotate(45 200 13.9873)" fill="#18D5FF"/>
<rect x="149.59" y="10.1329" width="21.0246" height="21.0246" transform="rotate(45 149.59 10.1329)" stroke="#29BDFC"/>
<rect x="200" y="10.1329" width="21.0246" height="21.0246" transform="rotate(45 200 10.1329)" stroke="#29BDFC"/>
<rect x="149.59" y="6.03523" width="26.8206" height="26.8206" transform="rotate(45 149.59 6.03523)" stroke="#29BDFC" stroke-opacity="0.7"/>
<rect x="200" y="6.03523" width="26.8206" height="26.8206" transform="rotate(45 200 6.03523)" stroke="#29BDFC" stroke-opacity="0.7"/>
<rect x="149.59" y="1.9366" width="32.6166" height="32.6166" transform="rotate(45 149.59 1.9366)" stroke="#29BDFC" stroke-opacity="0.3"/>
<rect x="200" y="1.9366" width="32.6166" height="32.6166" transform="rotate(45 200 1.9366)" stroke="#29BDFC" stroke-opacity="0.3"/>
<rect x="185.808" y="-0.205078" width="15.5738" height="15.5738" transform="rotate(135 185.808 -0.205078)" fill="#18D5FF"/>
<rect x="185.808" y="50.2051" width="15.5738" height="15.5738" transform="rotate(135 185.808 50.2051)" fill="#18D5FF"/>
<rect x="189.662" y="-0.205078" width="21.0246" height="21.0246" transform="rotate(135 189.662 -0.205078)" stroke="#29BDFC"/>
<rect x="189.662" y="50.2051" width="21.0246" height="21.0246" transform="rotate(135 189.662 50.2051)" stroke="#29BDFC"/>
<rect x="193.76" y="-0.205078" width="26.8206" height="26.8206" transform="rotate(135 193.76 -0.205078)" stroke="#29BDFC" stroke-opacity="0.7"/>
<rect x="193.76" y="50.2051" width="26.8206" height="26.8206" transform="rotate(135 193.76 50.2051)" stroke="#29BDFC" stroke-opacity="0.7"/>
<rect x="197.858" y="-0.205078" width="32.6166" height="32.6166" transform="rotate(135 197.858 -0.205078)" stroke="#29BDFC" stroke-opacity="0.3"/>
<rect x="197.858" y="50.2051" width="32.6166" height="32.6166" transform="rotate(135 197.858 50.2051)" stroke="#29BDFC" stroke-opacity="0.3"/>
</g>
<g clip-path="url(#clip4_4953_9622)">
<rect x="-0.409668" y="63.9873" width="15.5738" height="15.5738" transform="rotate(45 -0.409668 63.9873)" fill="#18D5FF"/>
<rect x="50" y="63.9873" width="15.5738" height="15.5738" transform="rotate(45 50 63.9873)" fill="#18D5FF"/>
<rect x="-0.409668" y="60.1329" width="21.0246" height="21.0246" transform="rotate(45 -0.409668 60.1329)" stroke="#29BDFC"/>
<rect x="50" y="60.1329" width="21.0246" height="21.0246" transform="rotate(45 50 60.1329)" stroke="#29BDFC"/>
<rect x="-0.409668" y="56.0352" width="26.8206" height="26.8206" transform="rotate(45 -0.409668 56.0352)" stroke="#29BDFC" stroke-opacity="0.7"/>
<rect x="50" y="56.0352" width="26.8206" height="26.8206" transform="rotate(45 50 56.0352)" stroke="#29BDFC" stroke-opacity="0.7"/>
<rect x="-0.409668" y="51.9366" width="32.6166" height="32.6166" transform="rotate(45 -0.409668 51.9366)" stroke="#29BDFC" stroke-opacity="0.3"/>
<rect x="50" y="51.9366" width="32.6166" height="32.6166" transform="rotate(45 50 51.9366)" stroke="#29BDFC" stroke-opacity="0.3"/>
<rect x="35.8076" y="49.7949" width="15.5738" height="15.5738" transform="rotate(135 35.8076 49.7949)" fill="#18D5FF"/>
<rect x="35.8076" y="100.205" width="15.5738" height="15.5738" transform="rotate(135 35.8076 100.205)" fill="#18D5FF"/>
<rect x="39.6615" y="49.7949" width="21.0246" height="21.0246" transform="rotate(135 39.6615 49.7949)" stroke="#29BDFC"/>
<rect x="39.6615" y="100.205" width="21.0246" height="21.0246" transform="rotate(135 39.6615 100.205)" stroke="#29BDFC"/>
<rect x="43.7602" y="49.7949" width="26.8206" height="26.8206" transform="rotate(135 43.7602 49.7949)" stroke="#29BDFC" stroke-opacity="0.7"/>
<rect x="43.7602" y="100.205" width="26.8206" height="26.8206" transform="rotate(135 43.7602 100.205)" stroke="#29BDFC" stroke-opacity="0.7"/>
<rect x="47.8583" y="49.7949" width="32.6166" height="32.6166" transform="rotate(135 47.8583 49.7949)" stroke="#29BDFC" stroke-opacity="0.3"/>
<rect x="47.8583" y="100.205" width="32.6166" height="32.6166" transform="rotate(135 47.8583 100.205)" stroke="#29BDFC" stroke-opacity="0.3"/>
</g>
<g clip-path="url(#clip5_4953_9622)">
<rect x="49.5903" y="63.9873" width="15.5738" height="15.5738" transform="rotate(45 49.5903 63.9873)" fill="#18D5FF"/>
<rect x="100" y="63.9873" width="15.5738" height="15.5738" transform="rotate(45 100 63.9873)" fill="#18D5FF"/>
<rect x="49.5903" y="60.1329" width="21.0246" height="21.0246" transform="rotate(45 49.5903 60.1329)" stroke="#29BDFC"/>
<rect x="100" y="60.1329" width="21.0246" height="21.0246" transform="rotate(45 100 60.1329)" stroke="#29BDFC"/>
<rect x="49.5903" y="56.0352" width="26.8206" height="26.8206" transform="rotate(45 49.5903 56.0352)" stroke="#29BDFC" stroke-opacity="0.7"/>
<rect x="100" y="56.0352" width="26.8206" height="26.8206" transform="rotate(45 100 56.0352)" stroke="#29BDFC" stroke-opacity="0.7"/>
<rect x="49.5903" y="51.9366" width="32.6166" height="32.6166" transform="rotate(45 49.5903 51.9366)" stroke="#29BDFC" stroke-opacity="0.3"/>
<rect x="100" y="51.9366" width="32.6166" height="32.6166" transform="rotate(45 100 51.9366)" stroke="#29BDFC" stroke-opacity="0.3"/>
<rect x="85.8076" y="49.7949" width="15.5738" height="15.5738" transform="rotate(135 85.8076 49.7949)" fill="#18D5FF"/>
<rect x="85.8076" y="100.205" width="15.5738" height="15.5738" transform="rotate(135 85.8076 100.205)" fill="#18D5FF"/>
<rect x="89.6615" y="49.7949" width="21.0246" height="21.0246" transform="rotate(135 89.6615 49.7949)" stroke="#29BDFC"/>
<rect x="89.6615" y="100.205" width="21.0246" height="21.0246" transform="rotate(135 89.6615 100.205)" stroke="#29BDFC"/>
<rect x="93.7602" y="49.7949" width="26.8206" height="26.8206" transform="rotate(135 93.7602 49.7949)" stroke="#29BDFC" stroke-opacity="0.7"/>
<rect x="93.7602" y="100.205" width="26.8206" height="26.8206" transform="rotate(135 93.7602 100.205)" stroke="#29BDFC" stroke-opacity="0.7"/>
<rect x="97.8583" y="49.7949" width="32.6166" height="32.6166" transform="rotate(135 97.8583 49.7949)" stroke="#29BDFC" stroke-opacity="0.3"/>
<rect x="97.8583" y="100.205" width="32.6166" height="32.6166" transform="rotate(135 97.8583 100.205)" stroke="#29BDFC" stroke-opacity="0.3"/>
</g>
<g clip-path="url(#clip6_4953_9622)">
<rect x="99.5903" y="63.9873" width="15.5738" height="15.5738" transform="rotate(45 99.5903 63.9873)" fill="#18D5FF"/>
<rect x="150" y="63.9873" width="15.5738" height="15.5738" transform="rotate(45 150 63.9873)" fill="#18D5FF"/>
<rect x="99.5903" y="60.1329" width="21.0246" height="21.0246" transform="rotate(45 99.5903 60.1329)" stroke="#29BDFC"/>
<rect x="150" y="60.1329" width="21.0246" height="21.0246" transform="rotate(45 150 60.1329)" stroke="#29BDFC"/>
<rect x="99.5903" y="56.0352" width="26.8206" height="26.8206" transform="rotate(45 99.5903 56.0352)" stroke="#29BDFC" stroke-opacity="0.7"/>
<rect x="150" y="56.0352" width="26.8206" height="26.8206" transform="rotate(45 150 56.0352)" stroke="#29BDFC" stroke-opacity="0.7"/>
<rect x="99.5903" y="51.9366" width="32.6166" height="32.6166" transform="rotate(45 99.5903 51.9366)" stroke="#29BDFC" stroke-opacity="0.3"/>
<rect x="150" y="51.9366" width="32.6166" height="32.6166" transform="rotate(45 150 51.9366)" stroke="#29BDFC" stroke-opacity="0.3"/>
<rect x="135.808" y="49.7949" width="15.5738" height="15.5738" transform="rotate(135 135.808 49.7949)" fill="#18D5FF"/>
<rect x="135.808" y="100.205" width="15.5738" height="15.5738" transform="rotate(135 135.808 100.205)" fill="#18D5FF"/>
<rect x="139.662" y="49.7949" width="21.0246" height="21.0246" transform="rotate(135 139.662 49.7949)" stroke="#29BDFC"/>
<rect x="139.662" y="100.205" width="21.0246" height="21.0246" transform="rotate(135 139.662 100.205)" stroke="#29BDFC"/>
<rect x="143.76" y="49.7949" width="26.8206" height="26.8206" transform="rotate(135 143.76 49.7949)" stroke="#29BDFC" stroke-opacity="0.7"/>
<rect x="143.76" y="100.205" width="26.8206" height="26.8206" transform="rotate(135 143.76 100.205)" stroke="#29BDFC" stroke-opacity="0.7"/>
<rect x="147.858" y="49.7949" width="32.6166" height="32.6166" transform="rotate(135 147.858 49.7949)" stroke="#29BDFC" stroke-opacity="0.3"/>
<rect x="147.858" y="100.205" width="32.6166" height="32.6166" transform="rotate(135 147.858 100.205)" stroke="#29BDFC" stroke-opacity="0.3"/>
</g>
<g clip-path="url(#clip7_4953_9622)">
<rect x="149.59" y="63.9873" width="15.5738" height="15.5738" transform="rotate(45 149.59 63.9873)" fill="#18D5FF"/>
<rect x="200" y="63.9873" width="15.5738" height="15.5738" transform="rotate(45 200 63.9873)" fill="#18D5FF"/>
<rect x="149.59" y="60.1329" width="21.0246" height="21.0246" transform="rotate(45 149.59 60.1329)" stroke="#29BDFC"/>
<rect x="200" y="60.1329" width="21.0246" height="21.0246" transform="rotate(45 200 60.1329)" stroke="#29BDFC"/>
<rect x="149.59" y="56.0352" width="26.8206" height="26.8206" transform="rotate(45 149.59 56.0352)" stroke="#29BDFC" stroke-opacity="0.7"/>
<rect x="200" y="56.0352" width="26.8206" height="26.8206" transform="rotate(45 200 56.0352)" stroke="#29BDFC" stroke-opacity="0.7"/>
<rect x="149.59" y="51.9366" width="32.6166" height="32.6166" transform="rotate(45 149.59 51.9366)" stroke="#29BDFC" stroke-opacity="0.3"/>
<rect x="200" y="51.9366" width="32.6166" height="32.6166" transform="rotate(45 200 51.9366)" stroke="#29BDFC" stroke-opacity="0.3"/>
<rect x="185.808" y="49.7949" width="15.5738" height="15.5738" transform="rotate(135 185.808 49.7949)" fill="#18D5FF"/>
<rect x="185.808" y="100.205" width="15.5738" height="15.5738" transform="rotate(135 185.808 100.205)" fill="#18D5FF"/>
<rect x="189.662" y="49.7949" width="21.0246" height="21.0246" transform="rotate(135 189.662 49.7949)" stroke="#29BDFC"/>
<rect x="189.662" y="100.205" width="21.0246" height="21.0246" transform="rotate(135 189.662 100.205)" stroke="#29BDFC"/>
<rect x="193.76" y="49.7949" width="26.8206" height="26.8206" transform="rotate(135 193.76 49.7949)" stroke="#29BDFC" stroke-opacity="0.7"/>
<rect x="193.76" y="100.205" width="26.8206" height="26.8206" transform="rotate(135 193.76 100.205)" stroke="#29BDFC" stroke-opacity="0.7"/>
<rect x="197.858" y="49.7949" width="32.6166" height="32.6166" transform="rotate(135 197.858 49.7949)" stroke="#29BDFC" stroke-opacity="0.3"/>
<rect x="197.858" y="100.205" width="32.6166" height="32.6166" transform="rotate(135 197.858 100.205)" stroke="#29BDFC" stroke-opacity="0.3"/>
</g>
<g clip-path="url(#clip8_4953_9622)">
<rect x="-0.409668" y="113.987" width="15.5738" height="15.5738" transform="rotate(45 -0.409668 113.987)" fill="#18D5FF"/>
<rect x="50" y="113.987" width="15.5738" height="15.5738" transform="rotate(45 50 113.987)" fill="#18D5FF"/>
<rect x="-0.409668" y="110.133" width="21.0246" height="21.0246" transform="rotate(45 -0.409668 110.133)" stroke="#29BDFC"/>
<rect x="50" y="110.133" width="21.0246" height="21.0246" transform="rotate(45 50 110.133)" stroke="#29BDFC"/>
<rect x="-0.409668" y="106.035" width="26.8206" height="26.8206" transform="rotate(45 -0.409668 106.035)" stroke="#29BDFC" stroke-opacity="0.7"/>
<rect x="50" y="106.035" width="26.8206" height="26.8206" transform="rotate(45 50 106.035)" stroke="#29BDFC" stroke-opacity="0.7"/>
<rect x="-0.409668" y="101.937" width="32.6166" height="32.6166" transform="rotate(45 -0.409668 101.937)" stroke="#29BDFC" stroke-opacity="0.3"/>
<rect x="50" y="101.937" width="32.6166" height="32.6166" transform="rotate(45 50 101.937)" stroke="#29BDFC" stroke-opacity="0.3"/>
<rect x="35.8076" y="99.7949" width="15.5738" height="15.5738" transform="rotate(135 35.8076 99.7949)" fill="#18D5FF"/>
<rect x="35.8076" y="150.205" width="15.5738" height="15.5738" transform="rotate(135 35.8076 150.205)" fill="#18D5FF"/>
<rect x="39.6615" y="99.7949" width="21.0246" height="21.0246" transform="rotate(135 39.6615 99.7949)" stroke="#29BDFC"/>
<rect x="39.6615" y="150.205" width="21.0246" height="21.0246" transform="rotate(135 39.6615 150.205)" stroke="#29BDFC"/>
<rect x="43.7602" y="99.7949" width="26.8206" height="26.8206" transform="rotate(135 43.7602 99.7949)" stroke="#29BDFC" stroke-opacity="0.7"/>
<rect x="43.7602" y="150.205" width="26.8206" height="26.8206" transform="rotate(135 43.7602 150.205)" stroke="#29BDFC" stroke-opacity="0.7"/>
<rect x="47.8583" y="99.7949" width="32.6166" height="32.6166" transform="rotate(135 47.8583 99.7949)" stroke="#29BDFC" stroke-opacity="0.3"/>
<rect x="47.8583" y="150.205" width="32.6166" height="32.6166" transform="rotate(135 47.8583 150.205)" stroke="#29BDFC" stroke-opacity="0.3"/>
</g>
<g clip-path="url(#clip9_4953_9622)">
<rect x="49.5903" y="113.987" width="15.5738" height="15.5738" transform="rotate(45 49.5903 113.987)" fill="#18D5FF"/>
<rect x="100" y="113.987" width="15.5738" height="15.5738" transform="rotate(45 100 113.987)" fill="#18D5FF"/>
<rect x="49.5903" y="110.133" width="21.0246" height="21.0246" transform="rotate(45 49.5903 110.133)" stroke="#29BDFC"/>
<rect x="100" y="110.133" width="21.0246" height="21.0246" transform="rotate(45 100 110.133)" stroke="#29BDFC"/>
<rect x="49.5903" y="106.035" width="26.8206" height="26.8206" transform="rotate(45 49.5903 106.035)" stroke="#29BDFC" stroke-opacity="0.7"/>
<rect x="100" y="106.035" width="26.8206" height="26.8206" transform="rotate(45 100 106.035)" stroke="#29BDFC" stroke-opacity="0.7"/>
<rect x="49.5903" y="101.937" width="32.6166" height="32.6166" transform="rotate(45 49.5903 101.937)" stroke="#29BDFC" stroke-opacity="0.3"/>
<rect x="100" y="101.937" width="32.6166" height="32.6166" transform="rotate(45 100 101.937)" stroke="#29BDFC" stroke-opacity="0.3"/>
<rect x="85.8076" y="99.7949" width="15.5738" height="15.5738" transform="rotate(135 85.8076 99.7949)" fill="#18D5FF"/>
<rect x="85.8076" y="150.205" width="15.5738" height="15.5738" transform="rotate(135 85.8076 150.205)" fill="#18D5FF"/>
<rect x="89.6615" y="99.7949" width="21.0246" height="21.0246" transform="rotate(135 89.6615 99.7949)" stroke="#29BDFC"/>
<rect x="89.6615" y="150.205" width="21.0246" height="21.0246" transform="rotate(135 89.6615 150.205)" stroke="#29BDFC"/>
<rect x="93.7602" y="99.7949" width="26.8206" height="26.8206" transform="rotate(135 93.7602 99.7949)" stroke="#29BDFC" stroke-opacity="0.7"/>
<rect x="93.7602" y="150.205" width="26.8206" height="26.8206" transform="rotate(135 93.7602 150.205)" stroke="#29BDFC" stroke-opacity="0.7"/>
<rect x="97.8583" y="99.7949" width="32.6166" height="32.6166" transform="rotate(135 97.8583 99.7949)" stroke="#29BDFC" stroke-opacity="0.3"/>
<rect x="97.8583" y="150.205" width="32.6166" height="32.6166" transform="rotate(135 97.8583 150.205)" stroke="#29BDFC" stroke-opacity="0.3"/>
</g>
<g clip-path="url(#clip10_4953_9622)">
<rect x="99.5903" y="113.987" width="15.5738" height="15.5738" transform="rotate(45 99.5903 113.987)" fill="#18D5FF"/>
<rect x="150" y="113.987" width="15.5738" height="15.5738" transform="rotate(45 150 113.987)" fill="#18D5FF"/>
<rect x="99.5903" y="110.133" width="21.0246" height="21.0246" transform="rotate(45 99.5903 110.133)" stroke="#29BDFC"/>
<rect x="150" y="110.133" width="21.0246" height="21.0246" transform="rotate(45 150 110.133)" stroke="#29BDFC"/>
<rect x="99.5903" y="106.035" width="26.8206" height="26.8206" transform="rotate(45 99.5903 106.035)" stroke="#29BDFC" stroke-opacity="0.7"/>
<rect x="150" y="106.035" width="26.8206" height="26.8206" transform="rotate(45 150 106.035)" stroke="#29BDFC" stroke-opacity="0.7"/>
<rect x="99.5903" y="101.937" width="32.6166" height="32.6166" transform="rotate(45 99.5903 101.937)" stroke="#29BDFC" stroke-opacity="0.3"/>
<rect x="150" y="101.937" width="32.6166" height="32.6166" transform="rotate(45 150 101.937)" stroke="#29BDFC" stroke-opacity="0.3"/>
<rect x="135.808" y="99.7949" width="15.5738" height="15.5738" transform="rotate(135 135.808 99.7949)" fill="#18D5FF"/>
<rect x="135.808" y="150.205" width="15.5738" height="15.5738" transform="rotate(135 135.808 150.205)" fill="#18D5FF"/>
<rect x="139.662" y="99.7949" width="21.0246" height="21.0246" transform="rotate(135 139.662 99.7949)" stroke="#29BDFC"/>
<rect x="139.662" y="150.205" width="21.0246" height="21.0246" transform="rotate(135 139.662 150.205)" stroke="#29BDFC"/>
<rect x="143.76" y="99.7949" width="26.8206" height="26.8206" transform="rotate(135 143.76 99.7949)" stroke="#29BDFC" stroke-opacity="0.7"/>
<rect x="143.76" y="150.205" width="26.8206" height="26.8206" transform="rotate(135 143.76 150.205)" stroke="#29BDFC" stroke-opacity="0.7"/>
<rect x="147.858" y="99.7949" width="32.6166" height="32.6166" transform="rotate(135 147.858 99.7949)" stroke="#29BDFC" stroke-opacity="0.3"/>
<rect x="147.858" y="150.205" width="32.6166" height="32.6166" transform="rotate(135 147.858 150.205)" stroke="#29BDFC" stroke-opacity="0.3"/>
</g>
<g clip-path="url(#clip11_4953_9622)">
<rect x="149.59" y="113.987" width="15.5738" height="15.5738" transform="rotate(45 149.59 113.987)" fill="#18D5FF"/>
<rect x="200" y="113.987" width="15.5738" height="15.5738" transform="rotate(45 200 113.987)" fill="#18D5FF"/>
<rect x="149.59" y="110.133" width="21.0246" height="21.0246" transform="rotate(45 149.59 110.133)" stroke="#29BDFC"/>
<rect x="200" y="110.133" width="21.0246" height="21.0246" transform="rotate(45 200 110.133)" stroke="#29BDFC"/>
<rect x="149.59" y="106.035" width="26.8206" height="26.8206" transform="rotate(45 149.59 106.035)" stroke="#29BDFC" stroke-opacity="0.7"/>
<rect x="200" y="106.035" width="26.8206" height="26.8206" transform="rotate(45 200 106.035)" stroke="#29BDFC" stroke-opacity="0.7"/>
<rect x="149.59" y="101.937" width="32.6166" height="32.6166" transform="rotate(45 149.59 101.937)" stroke="#29BDFC" stroke-opacity="0.3"/>
<rect x="200" y="101.937" width="32.6166" height="32.6166" transform="rotate(45 200 101.937)" stroke="#29BDFC" stroke-opacity="0.3"/>
<rect x="185.808" y="99.7949" width="15.5738" height="15.5738" transform="rotate(135 185.808 99.7949)" fill="#18D5FF"/>
<rect x="185.808" y="150.205" width="15.5738" height="15.5738" transform="rotate(135 185.808 150.205)" fill="#18D5FF"/>
<rect x="189.662" y="99.7949" width="21.0246" height="21.0246" transform="rotate(135 189.662 99.7949)" stroke="#29BDFC"/>
<rect x="189.662" y="150.205" width="21.0246" height="21.0246" transform="rotate(135 189.662 150.205)" stroke="#29BDFC"/>
<rect x="193.76" y="99.7949" width="26.8206" height="26.8206" transform="rotate(135 193.76 99.7949)" stroke="#29BDFC" stroke-opacity="0.7"/>
<rect x="193.76" y="150.205" width="26.8206" height="26.8206" transform="rotate(135 193.76 150.205)" stroke="#29BDFC" stroke-opacity="0.7"/>
<rect x="197.858" y="99.7949" width="32.6166" height="32.6166" transform="rotate(135 197.858 99.7949)" stroke="#29BDFC" stroke-opacity="0.3"/>
<rect x="197.858" y="150.205" width="32.6166" height="32.6166" transform="rotate(135 197.858 150.205)" stroke="#29BDFC" stroke-opacity="0.3"/>
</g>
<g clip-path="url(#clip12_4953_9622)">
<rect x="-0.409668" y="163.987" width="15.5738" height="15.5738" transform="rotate(45 -0.409668 163.987)" fill="#18D5FF"/>
<rect x="50" y="163.987" width="15.5738" height="15.5738" transform="rotate(45 50 163.987)" fill="#18D5FF"/>
<rect x="-0.409668" y="160.133" width="21.0246" height="21.0246" transform="rotate(45 -0.409668 160.133)" stroke="#29BDFC"/>
<rect x="50" y="160.133" width="21.0246" height="21.0246" transform="rotate(45 50 160.133)" stroke="#29BDFC"/>
<rect x="-0.409668" y="156.035" width="26.8206" height="26.8206" transform="rotate(45 -0.409668 156.035)" stroke="#29BDFC" stroke-opacity="0.7"/>
<rect x="50" y="156.035" width="26.8206" height="26.8206" transform="rotate(45 50 156.035)" stroke="#29BDFC" stroke-opacity="0.7"/>
<rect x="-0.409668" y="151.937" width="32.6166" height="32.6166" transform="rotate(45 -0.409668 151.937)" stroke="#29BDFC" stroke-opacity="0.3"/>
<rect x="50" y="151.937" width="32.6166" height="32.6166" transform="rotate(45 50 151.937)" stroke="#29BDFC" stroke-opacity="0.3"/>
<rect x="35.8076" y="149.795" width="15.5738" height="15.5738" transform="rotate(135 35.8076 149.795)" fill="#18D5FF"/>
<rect x="35.8076" y="200.205" width="15.5738" height="15.5738" transform="rotate(135 35.8076 200.205)" fill="#18D5FF"/>
<rect x="39.6615" y="149.795" width="21.0246" height="21.0246" transform="rotate(135 39.6615 149.795)" stroke="#29BDFC"/>
<rect x="39.6615" y="200.205" width="21.0246" height="21.0246" transform="rotate(135 39.6615 200.205)" stroke="#29BDFC"/>
<rect x="43.7602" y="149.795" width="26.8206" height="26.8206" transform="rotate(135 43.7602 149.795)" stroke="#29BDFC" stroke-opacity="0.7"/>
<rect x="43.7602" y="200.205" width="26.8206" height="26.8206" transform="rotate(135 43.7602 200.205)" stroke="#29BDFC" stroke-opacity="0.7"/>
<rect x="47.8583" y="149.795" width="32.6166" height="32.6166" transform="rotate(135 47.8583 149.795)" stroke="#29BDFC" stroke-opacity="0.3"/>
<rect x="47.8583" y="200.205" width="32.6166" height="32.6166" transform="rotate(135 47.8583 200.205)" stroke="#29BDFC" stroke-opacity="0.3"/>
</g>
<g clip-path="url(#clip13_4953_9622)">
<rect x="49.5903" y="163.987" width="15.5738" height="15.5738" transform="rotate(45 49.5903 163.987)" fill="#18D5FF"/>
<rect x="100" y="163.987" width="15.5738" height="15.5738" transform="rotate(45 100 163.987)" fill="#18D5FF"/>
<rect x="49.5903" y="160.133" width="21.0246" height="21.0246" transform="rotate(45 49.5903 160.133)" stroke="#29BDFC"/>
<rect x="100" y="160.133" width="21.0246" height="21.0246" transform="rotate(45 100 160.133)" stroke="#29BDFC"/>
<rect x="49.5903" y="156.035" width="26.8206" height="26.8206" transform="rotate(45 49.5903 156.035)" stroke="#29BDFC" stroke-opacity="0.7"/>
<rect x="100" y="156.035" width="26.8206" height="26.8206" transform="rotate(45 100 156.035)" stroke="#29BDFC" stroke-opacity="0.7"/>
<rect x="49.5903" y="151.937" width="32.6166" height="32.6166" transform="rotate(45 49.5903 151.937)" stroke="#29BDFC" stroke-opacity="0.3"/>
<rect x="100" y="151.937" width="32.6166" height="32.6166" transform="rotate(45 100 151.937)" stroke="#29BDFC" stroke-opacity="0.3"/>
<rect x="85.8076" y="149.795" width="15.5738" height="15.5738" transform="rotate(135 85.8076 149.795)" fill="#18D5FF"/>
<rect x="85.8076" y="200.205" width="15.5738" height="15.5738" transform="rotate(135 85.8076 200.205)" fill="#18D5FF"/>
<rect x="89.6615" y="149.795" width="21.0246" height="21.0246" transform="rotate(135 89.6615 149.795)" stroke="#29BDFC"/>
<rect x="89.6615" y="200.205" width="21.0246" height="21.0246" transform="rotate(135 89.6615 200.205)" stroke="#29BDFC"/>
<rect x="93.7602" y="149.795" width="26.8206" height="26.8206" transform="rotate(135 93.7602 149.795)" stroke="#29BDFC" stroke-opacity="0.7"/>
<rect x="93.7602" y="200.205" width="26.8206" height="26.8206" transform="rotate(135 93.7602 200.205)" stroke="#29BDFC" stroke-opacity="0.7"/>
<rect x="97.8583" y="149.795" width="32.6166" height="32.6166" transform="rotate(135 97.8583 149.795)" stroke="#29BDFC" stroke-opacity="0.3"/>
<rect x="97.8583" y="200.205" width="32.6166" height="32.6166" transform="rotate(135 97.8583 200.205)" stroke="#29BDFC" stroke-opacity="0.3"/>
</g>
<g clip-path="url(#clip14_4953_9622)">
<rect x="99.5903" y="163.987" width="15.5738" height="15.5738" transform="rotate(45 99.5903 163.987)" fill="#18D5FF"/>
<rect x="150" y="163.987" width="15.5738" height="15.5738" transform="rotate(45 150 163.987)" fill="#18D5FF"/>
<rect x="99.5903" y="160.133" width="21.0246" height="21.0246" transform="rotate(45 99.5903 160.133)" stroke="#29BDFC"/>
<rect x="150" y="160.133" width="21.0246" height="21.0246" transform="rotate(45 150 160.133)" stroke="#29BDFC"/>
<rect x="99.5903" y="156.035" width="26.8206" height="26.8206" transform="rotate(45 99.5903 156.035)" stroke="#29BDFC" stroke-opacity="0.7"/>
<rect x="150" y="156.035" width="26.8206" height="26.8206" transform="rotate(45 150 156.035)" stroke="#29BDFC" stroke-opacity="0.7"/>
<rect x="99.5903" y="151.937" width="32.6166" height="32.6166" transform="rotate(45 99.5903 151.937)" stroke="#29BDFC" stroke-opacity="0.3"/>
<rect x="150" y="151.937" width="32.6166" height="32.6166" transform="rotate(45 150 151.937)" stroke="#29BDFC" stroke-opacity="0.3"/>
<rect x="135.808" y="149.795" width="15.5738" height="15.5738" transform="rotate(135 135.808 149.795)" fill="#18D5FF"/>
<rect x="135.808" y="200.205" width="15.5738" height="15.5738" transform="rotate(135 135.808 200.205)" fill="#18D5FF"/>
<rect x="139.662" y="149.795" width="21.0246" height="21.0246" transform="rotate(135 139.662 149.795)" stroke="#29BDFC"/>
<rect x="139.662" y="200.205" width="21.0246" height="21.0246" transform="rotate(135 139.662 200.205)" stroke="#29BDFC"/>
<rect x="143.76" y="149.795" width="26.8206" height="26.8206" transform="rotate(135 143.76 149.795)" stroke="#29BDFC" stroke-opacity="0.7"/>
<rect x="143.76" y="200.205" width="26.8206" height="26.8206" transform="rotate(135 143.76 200.205)" stroke="#29BDFC" stroke-opacity="0.7"/>
<rect x="147.858" y="149.795" width="32.6166" height="32.6166" transform="rotate(135 147.858 149.795)" stroke="#29BDFC" stroke-opacity="0.3"/>
<rect x="147.858" y="200.205" width="32.6166" height="32.6166" transform="rotate(135 147.858 200.205)" stroke="#29BDFC" stroke-opacity="0.3"/>
</g>
<g clip-path="url(#clip15_4953_9622)">
<rect x="149.59" y="163.987" width="15.5738" height="15.5738" transform="rotate(45 149.59 163.987)" fill="#18D5FF"/>
<rect x="200" y="163.987" width="15.5738" height="15.5738" transform="rotate(45 200 163.987)" fill="#18D5FF"/>
<rect x="149.59" y="160.133" width="21.0246" height="21.0246" transform="rotate(45 149.59 160.133)" stroke="#29BDFC"/>
<rect x="200" y="160.133" width="21.0246" height="21.0246" transform="rotate(45 200 160.133)" stroke="#29BDFC"/>
<rect x="149.59" y="156.035" width="26.8206" height="26.8206" transform="rotate(45 149.59 156.035)" stroke="#29BDFC" stroke-opacity="0.7"/>
<rect x="200" y="156.035" width="26.8206" height="26.8206" transform="rotate(45 200 156.035)" stroke="#29BDFC" stroke-opacity="0.7"/>
<rect x="149.59" y="151.937" width="32.6166" height="32.6166" transform="rotate(45 149.59 151.937)" stroke="#29BDFC" stroke-opacity="0.3"/>
<rect x="200" y="151.937" width="32.6166" height="32.6166" transform="rotate(45 200 151.937)" stroke="#29BDFC" stroke-opacity="0.3"/>
<rect x="185.808" y="149.795" width="15.5738" height="15.5738" transform="rotate(135 185.808 149.795)" fill="#18D5FF"/>
<rect x="185.808" y="200.205" width="15.5738" height="15.5738" transform="rotate(135 185.808 200.205)" fill="#18D5FF"/>
<rect x="189.662" y="149.795" width="21.0246" height="21.0246" transform="rotate(135 189.662 149.795)" stroke="#29BDFC"/>
<rect x="189.662" y="200.205" width="21.0246" height="21.0246" transform="rotate(135 189.662 200.205)" stroke="#29BDFC"/>
<rect x="193.76" y="149.795" width="26.8206" height="26.8206" transform="rotate(135 193.76 149.795)" stroke="#29BDFC" stroke-opacity="0.7"/>
<rect x="193.76" y="200.205" width="26.8206" height="26.8206" transform="rotate(135 193.76 200.205)" stroke="#29BDFC" stroke-opacity="0.7"/>
<rect x="197.858" y="149.795" width="32.6166" height="32.6166" transform="rotate(135 197.858 149.795)" stroke="#29BDFC" stroke-opacity="0.3"/>
<rect x="197.858" y="200.205" width="32.6166" height="32.6166" transform="rotate(135 197.858 200.205)" stroke="#29BDFC" stroke-opacity="0.3"/>
</g>
<defs>
<clipPath id="clip0_4953_9622">
<rect width="50" height="50" fill="white"/>
</clipPath>
<clipPath id="clip1_4953_9622">
<rect width="50" height="50" fill="white" transform="translate(50)"/>
</clipPath>
<clipPath id="clip2_4953_9622">
<rect width="50" height="50" fill="white" transform="translate(100)"/>
</clipPath>
<clipPath id="clip3_4953_9622">
<rect width="50" height="50" fill="white" transform="translate(150)"/>
</clipPath>
<clipPath id="clip4_4953_9622">
<rect width="50" height="50" fill="white" transform="translate(0 50)"/>
</clipPath>
<clipPath id="clip5_4953_9622">
<rect width="50" height="50" fill="white" transform="translate(50 50)"/>
</clipPath>
<clipPath id="clip6_4953_9622">
<rect width="50" height="50" fill="white" transform="translate(100 50)"/>
</clipPath>
<clipPath id="clip7_4953_9622">
<rect width="50" height="50" fill="white" transform="translate(150 50)"/>
</clipPath>
<clipPath id="clip8_4953_9622">
<rect width="50" height="50" fill="white" transform="translate(0 100)"/>
</clipPath>
<clipPath id="clip9_4953_9622">
<rect width="50" height="50" fill="white" transform="translate(50 100)"/>
</clipPath>
<clipPath id="clip10_4953_9622">
<rect width="50" height="50" fill="white" transform="translate(100 100)"/>
</clipPath>
<clipPath id="clip11_4953_9622">
<rect width="50" height="50" fill="white" transform="translate(150 100)"/>
</clipPath>
<clipPath id="clip12_4953_9622">
<rect width="50" height="50" fill="white" transform="translate(0 150)"/>
</clipPath>
<clipPath id="clip13_4953_9622">
<rect width="50" height="50" fill="white" transform="translate(50 150)"/>
</clipPath>
<clipPath id="clip14_4953_9622">
<rect width="50" height="50" fill="white" transform="translate(100 150)"/>
</clipPath>
<clipPath id="clip15_4953_9622">
<rect width="50" height="50" fill="white" transform="translate(150 150)"/>
</clipPath>
</defs>
</svg>
