<svg width="200" height="200" viewBox="0 0 200 200" fill="none" xmlns="http://www.w3.org/2000/svg">
<g clip-path="url(#clip0_4953_11627)">
<rect x="101.923" y="31.4104" width="11.5385" height="103.846" transform="rotate(90 101.923 31.4104)" fill="#29BDFC" stroke="#001431" stroke-width="3.84615"/>
<rect x="101.923" y="82.6926" width="11.5385" height="103.846" transform="rotate(90 101.923 82.6926)" fill="#29BDFC" stroke="#001431" stroke-width="3.84615"/>
<rect x="5.76927" y="-1.92263" width="11.5385" height="103.846" fill="#29BDFC" stroke="#001431" stroke-width="3.84615"/>
<rect x="57.0515" y="-1.92263" width="11.5385" height="103.846" fill="#29BDFC" stroke="#001431" stroke-width="3.84615"/>
<rect x="101.923" y="57.051" width="11.5385" height="103.846" transform="rotate(90 101.923 57.051)" fill="#29BDFC" stroke="#001431" stroke-width="3.84615"/>
<rect x="101.923" y="5.76878" width="11.5385" height="103.846" transform="rotate(90 101.923 5.76878)" fill="#29BDFC" stroke="#001431" stroke-width="3.84615"/>
<rect x="82.6921" y="-1.92263" width="11.5385" height="103.846" fill="#29BDFC" stroke="#001431" stroke-width="3.84615"/>
<rect x="31.4104" y="-1.92263" width="11.5385" height="103.846" fill="#29BDFC" stroke="#001431" stroke-width="3.84615"/>
<rect x="78.2051" y="29.4873" width="19.2308" height="3.84615" fill="#001431"/>
<rect x="78.2051" y="41.0254" width="19.2308" height="3.84615" fill="#001431"/>
<rect x="78.2051" y="33.333" width="19.2308" height="7.69231" fill="#29BDFC"/>
<rect x="78.2051" y="80.7695" width="19.2308" height="3.84615" fill="#001431"/>
<rect x="78.2051" y="92.3076" width="19.2308" height="3.84615" fill="#001431"/>
<rect x="78.2051" y="84.6152" width="19.2308" height="7.69231" fill="#29BDFC"/>
<rect x="25.6411" y="29.4873" width="19.2308" height="3.84615" fill="#001431"/>
<rect x="25.6411" y="41.0254" width="19.2308" height="3.84615" fill="#001431"/>
<rect x="25.6411" y="33.333" width="19.2308" height="7.69231" fill="#29BDFC"/>
<rect x="25.6411" y="80.7695" width="19.2308" height="3.84615" fill="#001431"/>
<rect x="25.6411" y="92.3076" width="19.2308" height="3.84615" fill="#001431"/>
<rect x="25.6411" y="84.6152" width="19.2308" height="7.69231" fill="#29BDFC"/>
</g>
<g clip-path="url(#clip1_4953_11627)">
<rect x="201.923" y="31.4104" width="11.5385" height="103.846" transform="rotate(90 201.923 31.4104)" fill="#29BDFC" stroke="#001431" stroke-width="3.84615"/>
<rect x="201.923" y="82.6926" width="11.5385" height="103.846" transform="rotate(90 201.923 82.6926)" fill="#29BDFC" stroke="#001431" stroke-width="3.84615"/>
<rect x="105.769" y="-1.92263" width="11.5385" height="103.846" fill="#29BDFC" stroke="#001431" stroke-width="3.84615"/>
<rect x="157.051" y="-1.92263" width="11.5385" height="103.846" fill="#29BDFC" stroke="#001431" stroke-width="3.84615"/>
<rect x="201.923" y="57.051" width="11.5385" height="103.846" transform="rotate(90 201.923 57.051)" fill="#29BDFC" stroke="#001431" stroke-width="3.84615"/>
<rect x="201.923" y="5.76878" width="11.5385" height="103.846" transform="rotate(90 201.923 5.76878)" fill="#29BDFC" stroke="#001431" stroke-width="3.84615"/>
<rect x="182.692" y="-1.92263" width="11.5385" height="103.846" fill="#29BDFC" stroke="#001431" stroke-width="3.84615"/>
<rect x="131.41" y="-1.92263" width="11.5385" height="103.846" fill="#29BDFC" stroke="#001431" stroke-width="3.84615"/>
<rect x="178.205" y="29.4873" width="19.2308" height="3.84615" fill="#001431"/>
<rect x="178.205" y="41.0254" width="19.2308" height="3.84615" fill="#001431"/>
<rect x="178.205" y="33.333" width="19.2308" height="7.69231" fill="#29BDFC"/>
<rect x="178.205" y="80.7695" width="19.2308" height="3.84615" fill="#001431"/>
<rect x="178.205" y="92.3076" width="19.2308" height="3.84615" fill="#001431"/>
<rect x="178.205" y="84.6152" width="19.2308" height="7.69231" fill="#29BDFC"/>
<rect x="125.641" y="29.4873" width="19.2308" height="3.84615" fill="#001431"/>
<rect x="125.641" y="41.0254" width="19.2308" height="3.84615" fill="#001431"/>
<rect x="125.641" y="33.333" width="19.2308" height="7.69231" fill="#29BDFC"/>
<rect x="125.641" y="80.7695" width="19.2308" height="3.84615" fill="#001431"/>
<rect x="125.641" y="92.3076" width="19.2308" height="3.84615" fill="#001431"/>
<rect x="125.641" y="84.6152" width="19.2308" height="7.69231" fill="#29BDFC"/>
</g>
<g clip-path="url(#clip2_4953_11627)">
<rect x="101.923" y="131.41" width="11.5385" height="103.846" transform="rotate(90 101.923 131.41)" fill="#29BDFC" stroke="#001431" stroke-width="3.84615"/>
<rect x="101.923" y="182.693" width="11.5385" height="103.846" transform="rotate(90 101.923 182.693)" fill="#29BDFC" stroke="#001431" stroke-width="3.84615"/>
<rect x="5.76927" y="98.0774" width="11.5385" height="103.846" fill="#29BDFC" stroke="#001431" stroke-width="3.84615"/>
<rect x="57.0515" y="98.0774" width="11.5385" height="103.846" fill="#29BDFC" stroke="#001431" stroke-width="3.84615"/>
<rect x="101.923" y="157.051" width="11.5385" height="103.846" transform="rotate(90 101.923 157.051)" fill="#29BDFC" stroke="#001431" stroke-width="3.84615"/>
<rect x="101.923" y="105.769" width="11.5385" height="103.846" transform="rotate(90 101.923 105.769)" fill="#29BDFC" stroke="#001431" stroke-width="3.84615"/>
<rect x="82.6921" y="98.0774" width="11.5385" height="103.846" fill="#29BDFC" stroke="#001431" stroke-width="3.84615"/>
<rect x="31.4104" y="98.0774" width="11.5385" height="103.846" fill="#29BDFC" stroke="#001431" stroke-width="3.84615"/>
<rect x="78.2051" y="129.487" width="19.2308" height="3.84615" fill="#001431"/>
<rect x="78.2051" y="141.025" width="19.2308" height="3.84615" fill="#001431"/>
<rect x="78.2051" y="133.333" width="19.2308" height="7.69231" fill="#29BDFC"/>
<rect x="78.2051" y="180.77" width="19.2308" height="3.84615" fill="#001431"/>
<rect x="78.2051" y="192.308" width="19.2308" height="3.84615" fill="#001431"/>
<rect x="78.2051" y="184.615" width="19.2308" height="7.69231" fill="#29BDFC"/>
<rect x="25.6411" y="129.487" width="19.2308" height="3.84615" fill="#001431"/>
<rect x="25.6411" y="141.025" width="19.2308" height="3.84615" fill="#001431"/>
<rect x="25.6411" y="133.333" width="19.2308" height="7.69231" fill="#29BDFC"/>
<rect x="25.6411" y="180.77" width="19.2308" height="3.84615" fill="#001431"/>
<rect x="25.6411" y="192.308" width="19.2308" height="3.84615" fill="#001431"/>
<rect x="25.6411" y="184.615" width="19.2308" height="7.69231" fill="#29BDFC"/>
</g>
<g clip-path="url(#clip3_4953_11627)">
<rect x="201.923" y="131.41" width="11.5385" height="103.846" transform="rotate(90 201.923 131.41)" fill="#29BDFC" stroke="#001431" stroke-width="3.84615"/>
<rect x="201.923" y="182.693" width="11.5385" height="103.846" transform="rotate(90 201.923 182.693)" fill="#29BDFC" stroke="#001431" stroke-width="3.84615"/>
<rect x="105.769" y="98.0774" width="11.5385" height="103.846" fill="#29BDFC" stroke="#001431" stroke-width="3.84615"/>
<rect x="157.051" y="98.0774" width="11.5385" height="103.846" fill="#29BDFC" stroke="#001431" stroke-width="3.84615"/>
<rect x="201.923" y="157.051" width="11.5385" height="103.846" transform="rotate(90 201.923 157.051)" fill="#29BDFC" stroke="#001431" stroke-width="3.84615"/>
<rect x="201.923" y="105.769" width="11.5385" height="103.846" transform="rotate(90 201.923 105.769)" fill="#29BDFC" stroke="#001431" stroke-width="3.84615"/>
<rect x="182.692" y="98.0774" width="11.5385" height="103.846" fill="#29BDFC" stroke="#001431" stroke-width="3.84615"/>
<rect x="131.41" y="98.0774" width="11.5385" height="103.846" fill="#29BDFC" stroke="#001431" stroke-width="3.84615"/>
<rect x="178.205" y="129.487" width="19.2308" height="3.84615" fill="#001431"/>
<rect x="178.205" y="141.025" width="19.2308" height="3.84615" fill="#001431"/>
<rect x="178.205" y="133.333" width="19.2308" height="7.69231" fill="#29BDFC"/>
<rect x="178.205" y="180.77" width="19.2308" height="3.84615" fill="#001431"/>
<rect x="178.205" y="192.308" width="19.2308" height="3.84615" fill="#001431"/>
<rect x="178.205" y="184.615" width="19.2308" height="7.69231" fill="#29BDFC"/>
<rect x="125.641" y="129.487" width="19.2308" height="3.84615" fill="#001431"/>
<rect x="125.641" y="141.025" width="19.2308" height="3.84615" fill="#001431"/>
<rect x="125.641" y="133.333" width="19.2308" height="7.69231" fill="#29BDFC"/>
<rect x="125.641" y="180.77" width="19.2308" height="3.84615" fill="#001431"/>
<rect x="125.641" y="192.308" width="19.2308" height="3.84615" fill="#001431"/>
<rect x="125.641" y="184.615" width="19.2308" height="7.69231" fill="#29BDFC"/>
</g>
<defs>
<clipPath id="clip0_4953_11627">
<rect width="100" height="100" fill="white"/>
</clipPath>
<clipPath id="clip1_4953_11627">
<rect width="100" height="100" fill="white" transform="translate(100)"/>
</clipPath>
<clipPath id="clip2_4953_11627">
<rect width="100" height="100" fill="white" transform="translate(0 100)"/>
</clipPath>
<clipPath id="clip3_4953_11627">
<rect width="100" height="100" fill="white" transform="translate(100 100)"/>
</clipPath>
</defs>
</svg>
