<svg width="200" height="200" viewBox="0 0 200 200" fill="none" xmlns="http://www.w3.org/2000/svg">
<rect x="23.4043" y="23.4043" width="3.19149" height="3.19149" fill="#29BDFC"/>
<rect x="20.7129" y="20.7126" width="8.57447" height="8.57447" stroke="#29BDFC"/>
<rect x="24.4678" width="1.06383" height="21.2766" fill="#29BDFC" fill-opacity="0.4"/>
<rect x="24.4678" y="28.7234" width="1.06383" height="21.2766" fill="#29BDFC" fill-opacity="0.4"/>
<rect x="50" y="24.468" width="1.06383" height="21.2766" transform="rotate(90 50 24.468)" fill="#29BDFC" fill-opacity="0.4"/>
<rect x="21.2764" y="24.468" width="1.06383" height="21.2766" transform="rotate(90 21.2764 24.468)" fill="#29BDFC" fill-opacity="0.4"/>
<rect x="23.4043" y="73.4043" width="3.19149" height="3.19149" fill="#29BDFC"/>
<rect x="20.7129" y="70.7126" width="8.57447" height="8.57447" stroke="#29BDFC"/>
<rect x="24.4678" y="50" width="1.06383" height="21.2766" fill="#29BDFC" fill-opacity="0.4"/>
<rect x="24.4678" y="78.7234" width="1.06383" height="21.2766" fill="#29BDFC" fill-opacity="0.4"/>
<rect x="50" y="74.468" width="1.06383" height="21.2766" transform="rotate(90 50 74.468)" fill="#29BDFC" fill-opacity="0.4"/>
<rect x="21.2764" y="74.468" width="1.06383" height="21.2766" transform="rotate(90 21.2764 74.468)" fill="#29BDFC" fill-opacity="0.4"/>
<rect x="23.4043" y="123.404" width="3.19149" height="3.19149" fill="#29BDFC"/>
<rect x="20.7129" y="120.713" width="8.57447" height="8.57447" stroke="#29BDFC"/>
<rect x="24.4678" y="100" width="1.06383" height="21.2766" fill="#29BDFC" fill-opacity="0.4"/>
<rect x="24.4678" y="128.723" width="1.06383" height="21.2766" fill="#29BDFC" fill-opacity="0.4"/>
<rect x="50" y="124.468" width="1.06383" height="21.2766" transform="rotate(90 50 124.468)" fill="#29BDFC" fill-opacity="0.4"/>
<rect x="21.2764" y="124.468" width="1.06383" height="21.2766" transform="rotate(90 21.2764 124.468)" fill="#29BDFC" fill-opacity="0.4"/>
<rect x="23.4043" y="173.404" width="3.19149" height="3.19149" fill="#29BDFC"/>
<rect x="20.7129" y="170.713" width="8.57447" height="8.57447" stroke="#29BDFC"/>
<rect x="24.4678" y="150" width="1.06383" height="21.2766" fill="#29BDFC" fill-opacity="0.4"/>
<rect x="24.4678" y="178.723" width="1.06383" height="21.2766" fill="#29BDFC" fill-opacity="0.4"/>
<rect x="50" y="174.468" width="1.06383" height="21.2766" transform="rotate(90 50 174.468)" fill="#29BDFC" fill-opacity="0.4"/>
<rect x="21.2764" y="174.468" width="1.06383" height="21.2766" transform="rotate(90 21.2764 174.468)" fill="#29BDFC" fill-opacity="0.4"/>
<rect x="73.4043" y="23.4043" width="3.19149" height="3.19149" fill="#29BDFC"/>
<rect x="70.7129" y="20.7126" width="8.57447" height="8.57447" stroke="#29BDFC"/>
<rect x="74.4683" width="1.06383" height="21.2766" fill="#29BDFC" fill-opacity="0.4"/>
<rect x="74.4683" y="28.7234" width="1.06383" height="21.2766" fill="#29BDFC" fill-opacity="0.4"/>
<rect x="100" y="24.468" width="1.06383" height="21.2766" transform="rotate(90 100 24.468)" fill="#29BDFC" fill-opacity="0.4"/>
<rect x="71.2764" y="24.468" width="1.06383" height="21.2766" transform="rotate(90 71.2764 24.468)" fill="#29BDFC" fill-opacity="0.4"/>
<rect x="73.4043" y="73.4043" width="3.19149" height="3.19149" fill="#29BDFC"/>
<rect x="70.7129" y="70.7126" width="8.57447" height="8.57447" stroke="#29BDFC"/>
<rect x="74.4683" y="50" width="1.06383" height="21.2766" fill="#29BDFC" fill-opacity="0.4"/>
<rect x="74.4683" y="78.7234" width="1.06383" height="21.2766" fill="#29BDFC" fill-opacity="0.4"/>
<rect x="100" y="74.468" width="1.06383" height="21.2766" transform="rotate(90 100 74.468)" fill="#29BDFC" fill-opacity="0.4"/>
<rect x="71.2764" y="74.468" width="1.06383" height="21.2766" transform="rotate(90 71.2764 74.468)" fill="#29BDFC" fill-opacity="0.4"/>
<rect x="73.4043" y="123.404" width="3.19149" height="3.19149" fill="#29BDFC"/>
<rect x="70.7129" y="120.713" width="8.57447" height="8.57447" stroke="#29BDFC"/>
<rect x="74.4683" y="100" width="1.06383" height="21.2766" fill="#29BDFC" fill-opacity="0.4"/>
<rect x="74.4683" y="128.723" width="1.06383" height="21.2766" fill="#29BDFC" fill-opacity="0.4"/>
<rect x="100" y="124.468" width="1.06383" height="21.2766" transform="rotate(90 100 124.468)" fill="#29BDFC" fill-opacity="0.4"/>
<rect x="71.2764" y="124.468" width="1.06383" height="21.2766" transform="rotate(90 71.2764 124.468)" fill="#29BDFC" fill-opacity="0.4"/>
<rect x="73.4043" y="173.404" width="3.19149" height="3.19149" fill="#29BDFC"/>
<rect x="70.7129" y="170.713" width="8.57447" height="8.57447" stroke="#29BDFC"/>
<rect x="74.4683" y="150" width="1.06383" height="21.2766" fill="#29BDFC" fill-opacity="0.4"/>
<rect x="74.4683" y="178.723" width="1.06383" height="21.2766" fill="#29BDFC" fill-opacity="0.4"/>
<rect x="100" y="174.468" width="1.06383" height="21.2766" transform="rotate(90 100 174.468)" fill="#29BDFC" fill-opacity="0.4"/>
<rect x="71.2764" y="174.468" width="1.06383" height="21.2766" transform="rotate(90 71.2764 174.468)" fill="#29BDFC" fill-opacity="0.4"/>
<rect x="123.404" y="23.4043" width="3.19149" height="3.19149" fill="#29BDFC"/>
<rect x="120.713" y="20.7126" width="8.57447" height="8.57447" stroke="#29BDFC"/>
<rect x="124.468" width="1.06383" height="21.2766" fill="#29BDFC" fill-opacity="0.4"/>
<rect x="124.468" y="28.7234" width="1.06383" height="21.2766" fill="#29BDFC" fill-opacity="0.4"/>
<rect x="150" y="24.468" width="1.06383" height="21.2766" transform="rotate(90 150 24.468)" fill="#29BDFC" fill-opacity="0.4"/>
<rect x="121.276" y="24.468" width="1.06383" height="21.2766" transform="rotate(90 121.276 24.468)" fill="#29BDFC" fill-opacity="0.4"/>
<rect x="123.404" y="73.4043" width="3.19149" height="3.19149" fill="#29BDFC"/>
<rect x="120.713" y="70.7126" width="8.57447" height="8.57447" stroke="#29BDFC"/>
<rect x="124.468" y="50" width="1.06383" height="21.2766" fill="#29BDFC" fill-opacity="0.4"/>
<rect x="124.468" y="78.7234" width="1.06383" height="21.2766" fill="#29BDFC" fill-opacity="0.4"/>
<rect x="150" y="74.468" width="1.06383" height="21.2766" transform="rotate(90 150 74.468)" fill="#29BDFC" fill-opacity="0.4"/>
<rect x="121.276" y="74.468" width="1.06383" height="21.2766" transform="rotate(90 121.276 74.468)" fill="#29BDFC" fill-opacity="0.4"/>
<rect x="123.404" y="123.404" width="3.19149" height="3.19149" fill="#29BDFC"/>
<rect x="120.713" y="120.713" width="8.57447" height="8.57447" stroke="#29BDFC"/>
<rect x="124.468" y="100" width="1.06383" height="21.2766" fill="#29BDFC" fill-opacity="0.4"/>
<rect x="124.468" y="128.723" width="1.06383" height="21.2766" fill="#29BDFC" fill-opacity="0.4"/>
<rect x="150" y="124.468" width="1.06383" height="21.2766" transform="rotate(90 150 124.468)" fill="#29BDFC" fill-opacity="0.4"/>
<rect x="121.276" y="124.468" width="1.06383" height="21.2766" transform="rotate(90 121.276 124.468)" fill="#29BDFC" fill-opacity="0.4"/>
<rect x="123.404" y="173.404" width="3.19149" height="3.19149" fill="#29BDFC"/>
<rect x="120.713" y="170.713" width="8.57447" height="8.57447" stroke="#29BDFC"/>
<rect x="124.468" y="150" width="1.06383" height="21.2766" fill="#29BDFC" fill-opacity="0.4"/>
<rect x="124.468" y="178.723" width="1.06383" height="21.2766" fill="#29BDFC" fill-opacity="0.4"/>
<rect x="150" y="174.468" width="1.06383" height="21.2766" transform="rotate(90 150 174.468)" fill="#29BDFC" fill-opacity="0.4"/>
<rect x="121.276" y="174.468" width="1.06383" height="21.2766" transform="rotate(90 121.276 174.468)" fill="#29BDFC" fill-opacity="0.4"/>
<rect x="173.404" y="23.4043" width="3.19149" height="3.19149" fill="#29BDFC"/>
<rect x="170.713" y="20.7126" width="8.57447" height="8.57447" stroke="#29BDFC"/>
<rect x="174.468" width="1.06383" height="21.2766" fill="#29BDFC" fill-opacity="0.4"/>
<rect x="174.468" y="28.7234" width="1.06383" height="21.2766" fill="#29BDFC" fill-opacity="0.4"/>
<rect x="200" y="24.468" width="1.06383" height="21.2766" transform="rotate(90 200 24.468)" fill="#29BDFC" fill-opacity="0.4"/>
<rect x="171.276" y="24.468" width="1.06383" height="21.2766" transform="rotate(90 171.276 24.468)" fill="#29BDFC" fill-opacity="0.4"/>
<rect x="173.404" y="73.4043" width="3.19149" height="3.19149" fill="#29BDFC"/>
<rect x="170.713" y="70.7126" width="8.57447" height="8.57447" stroke="#29BDFC"/>
<rect x="174.468" y="50" width="1.06383" height="21.2766" fill="#29BDFC" fill-opacity="0.4"/>
<rect x="174.468" y="78.7234" width="1.06383" height="21.2766" fill="#29BDFC" fill-opacity="0.4"/>
<rect x="200" y="74.468" width="1.06383" height="21.2766" transform="rotate(90 200 74.468)" fill="#29BDFC" fill-opacity="0.4"/>
<rect x="171.276" y="74.468" width="1.06383" height="21.2766" transform="rotate(90 171.276 74.468)" fill="#29BDFC" fill-opacity="0.4"/>
<rect x="173.404" y="123.404" width="3.19149" height="3.19149" fill="#29BDFC"/>
<rect x="170.713" y="120.713" width="8.57447" height="8.57447" stroke="#29BDFC"/>
<rect x="174.468" y="100" width="1.06383" height="21.2766" fill="#29BDFC" fill-opacity="0.4"/>
<rect x="174.468" y="128.723" width="1.06383" height="21.2766" fill="#29BDFC" fill-opacity="0.4"/>
<rect x="200" y="124.468" width="1.06383" height="21.2766" transform="rotate(90 200 124.468)" fill="#29BDFC" fill-opacity="0.4"/>
<rect x="171.276" y="124.468" width="1.06383" height="21.2766" transform="rotate(90 171.276 124.468)" fill="#29BDFC" fill-opacity="0.4"/>
<rect x="173.404" y="173.404" width="3.19149" height="3.19149" fill="#29BDFC"/>
<rect x="170.713" y="170.713" width="8.57447" height="8.57447" stroke="#29BDFC"/>
<rect x="174.468" y="150" width="1.06383" height="21.2766" fill="#29BDFC" fill-opacity="0.4"/>
<rect x="174.468" y="178.723" width="1.06383" height="21.2766" fill="#29BDFC" fill-opacity="0.4"/>
<rect x="200" y="174.468" width="1.06383" height="21.2766" transform="rotate(90 200 174.468)" fill="#29BDFC" fill-opacity="0.4"/>
<rect x="171.276" y="174.468" width="1.06383" height="21.2766" transform="rotate(90 171.276 174.468)" fill="#29BDFC" fill-opacity="0.4"/>
</svg>
