<svg width="200" height="200" viewBox="0 0 200 200" fill="none" xmlns="http://www.w3.org/2000/svg">
<g clip-path="url(#clip0_4952_498)">
<path d="M-9.66113 3.19311L9.86035 3.19311L19.6221 20.1003L9.86035 37.0066L-9.66113 37.0066L-19.4238 20.1003L-9.66113 3.19311Z" stroke="#29BDFC"/>
<path d="M-9.66113 43.1931L9.86035 43.1931L19.6221 60.1003L9.86035 77.0066L-9.66113 77.0066L-19.4238 60.1003L-9.66113 43.1931Z" stroke="#29BDFC"/>
<path d="M-9.66113 83.1931L9.86035 83.1931L19.6221 100.1L9.86035 117.007L-9.66113 117.007L-19.4238 100.1L-9.66113 83.1931Z" stroke="#29BDFC"/>
<path d="M-9.66113 123.193L9.86035 123.193L19.6221 140.1L9.86035 157.007L-9.66113 157.007L-19.4238 140.1L-9.66113 123.193Z" stroke="#29BDFC"/>
<path d="M-9.66113 163.193L9.86035 163.193L19.6221 180.1L9.86035 197.007L-9.66113 197.007L-19.4238 180.1L-9.66113 163.193Z" stroke="#29BDFC"/>
<path d="M23.8389 -16.8069L43.3603 -16.8069L53.1221 0.10034L43.3604 17.0066L23.8389 17.0066L14.0762 0.100342L23.8389 -16.8069Z" stroke="#29BDFC"/>
<path d="M23.8389 23.1931L43.3603 23.1931L53.1221 40.1003L43.3604 57.0066L23.8389 57.0066L14.0762 40.1003L23.8389 23.1931Z" stroke="#29BDFC"/>
<path d="M23.8389 63.1931L43.3603 63.1931L53.1221 80.1003L43.3604 97.0066L23.8389 97.0066L14.0762 80.1003L23.8389 63.1931Z" stroke="#29BDFC"/>
<path d="M23.8389 103.193L43.3603 103.193L53.1221 120.1L43.3604 137.007L23.8389 137.007L14.0762 120.1L23.8389 103.193Z" stroke="#29BDFC"/>
<path d="M23.8389 143.193L43.3603 143.193L53.1221 160.1L43.3604 177.007L23.8389 177.007L14.0762 160.1L23.8389 143.193Z" stroke="#29BDFC"/>
<path d="M23.8389 183.193L43.3603 183.193L53.1221 200.1L43.3604 217.007L23.8389 217.007L14.0762 200.1L23.8389 183.193Z" stroke="#29BDFC"/>
<path d="M57.3389 3.19311L76.8603 3.19311L86.6221 20.1003L76.8604 37.0066L57.3389 37.0066L47.5762 20.1003L57.3389 3.19311Z" stroke="#29BDFC"/>
<path d="M57.3389 43.1931L76.8603 43.1931L86.6221 60.1003L76.8604 77.0066L57.3389 77.0066L47.5762 60.1003L57.3389 43.1931Z" stroke="#29BDFC"/>
<path d="M57.3389 83.1931L76.8603 83.1931L86.6221 100.1L76.8604 117.007L57.3389 117.007L47.5762 100.1L57.3389 83.1931Z" stroke="#29BDFC"/>
<path d="M57.3389 123.193L76.8603 123.193L86.6221 140.1L76.8604 157.007L57.3389 157.007L47.5762 140.1L57.3389 123.193Z" stroke="#29BDFC"/>
<path d="M57.3389 163.193L76.8603 163.193L86.6221 180.1L76.8604 197.007L57.3389 197.007L47.5762 180.1L57.3389 163.193Z" stroke="#29BDFC"/>
<path d="M90.8389 -16.8069L110.36 -16.8069L120.122 0.10034L110.36 17.0066L90.8389 17.0066L81.0762 0.100342L90.8389 -16.8069Z" stroke="#29BDFC"/>
<path d="M90.8389 23.1931L110.36 23.1931L120.122 40.1003L110.36 57.0066L90.8389 57.0066L81.0762 40.1003L90.8389 23.1931Z" stroke="#29BDFC"/>
<path d="M90.8389 63.1931L110.36 63.1931L120.122 80.1003L110.36 97.0066L90.8389 97.0066L81.0762 80.1003L90.8389 63.1931Z" stroke="#29BDFC"/>
<path d="M90.8389 103.193L110.36 103.193L120.122 120.1L110.36 137.007L90.8389 137.007L81.0762 120.1L90.8389 103.193Z" stroke="#29BDFC"/>
<path d="M90.8389 143.193L110.36 143.193L120.122 160.1L110.36 177.007L90.8389 177.007L81.0762 160.1L90.8389 143.193Z" stroke="#29BDFC"/>
<path d="M90.8389 183.193L110.36 183.193L120.122 200.1L110.36 217.007L90.8389 217.007L81.0762 200.1L90.8389 183.193Z" stroke="#29BDFC"/>
<path d="M124.339 3.19311L143.86 3.19311L153.622 20.1003L143.86 37.0066L124.339 37.0066L114.576 20.1003L124.339 3.19311Z" stroke="#29BDFC"/>
<path d="M124.339 43.1931L143.86 43.1931L153.622 60.1003L143.86 77.0066L124.339 77.0066L114.576 60.1003L124.339 43.1931Z" stroke="#29BDFC"/>
<path d="M124.339 83.1931L143.86 83.1931L153.622 100.1L143.86 117.007L124.339 117.007L114.576 100.1L124.339 83.1931Z" stroke="#29BDFC"/>
<path d="M124.339 123.193L143.86 123.193L153.622 140.1L143.86 157.007L124.339 157.007L114.576 140.1L124.339 123.193Z" stroke="#29BDFC"/>
<path d="M124.339 163.193L143.86 163.193L153.622 180.1L143.86 197.007L124.339 197.007L114.576 180.1L124.339 163.193Z" stroke="#29BDFC"/>
<path d="M157.839 -16.8069L177.36 -16.8069L187.122 0.10034L177.36 17.0066L157.839 17.0066L148.076 0.100342L157.839 -16.8069Z" stroke="#29BDFC"/>
<path d="M157.839 23.1931L177.36 23.1931L187.122 40.1003L177.36 57.0066L157.839 57.0066L148.076 40.1003L157.839 23.1931Z" stroke="#29BDFC"/>
<path d="M157.839 63.1931L177.36 63.1931L187.122 80.1003L177.36 97.0066L157.839 97.0066L148.076 80.1003L157.839 63.1931Z" stroke="#29BDFC"/>
<path d="M157.839 103.193L177.36 103.193L187.122 120.1L177.36 137.007L157.839 137.007L148.076 120.1L157.839 103.193Z" stroke="#29BDFC"/>
<path d="M157.839 143.193L177.36 143.193L187.122 160.1L177.36 177.007L157.839 177.007L148.076 160.1L157.839 143.193Z" stroke="#29BDFC"/>
<path d="M157.839 183.193L177.36 183.193L187.122 200.1L177.36 217.007L157.839 217.007L148.076 200.1L157.839 183.193Z" stroke="#29BDFC"/>
<path d="M191.339 3.19311L210.86 3.19311L220.622 20.1003L210.86 37.0066L191.339 37.0066L181.576 20.1003L191.339 3.19311Z" stroke="#29BDFC"/>
<path d="M191.339 43.1931L210.86 43.1931L220.622 60.1003L210.86 77.0066L191.339 77.0066L181.576 60.1003L191.339 43.1931Z" stroke="#29BDFC"/>
<path d="M191.339 83.1931L210.86 83.1931L220.622 100.1L210.86 117.007L191.339 117.007L181.576 100.1L191.339 83.1931Z" stroke="#29BDFC"/>
<path d="M191.339 123.193L210.86 123.193L220.622 140.1L210.86 157.007L191.339 157.007L181.576 140.1L191.339 123.193Z" stroke="#29BDFC"/>
<path d="M191.339 163.193L210.86 163.193L220.622 180.1L210.86 197.007L191.339 197.007L181.576 180.1L191.339 163.193Z" stroke="#29BDFC"/>
</g>
<defs>
<clipPath id="clip0_4952_498">
<rect width="200" height="200" fill="white"/>
</clipPath>
</defs>
</svg>
