<svg width="200" height="200" viewBox="0 0 200 200" fill="none" xmlns="http://www.w3.org/2000/svg">
<rect y="5" width="50" height="1" fill="#29BDFC" fill-opacity="0.7"/>
<rect y="15" width="50" height="1" fill="#29BDFC" fill-opacity="0.3"/>
<rect y="25" width="50" height="1" fill="#29BDFC" fill-opacity="0.3"/>
<rect y="35" width="50" height="1" fill="#29BDFC" fill-opacity="0.3"/>
<rect y="45" width="50" height="1" fill="#29BDFC" fill-opacity="0.3"/>
<rect x="46" width="50" height="0.999998" transform="rotate(90 46 0)" fill="#29BDFC" fill-opacity="0.3"/>
<rect x="36" width="50" height="0.999998" transform="rotate(90 36 0)" fill="#29BDFC" fill-opacity="0.3"/>
<rect x="26" width="50" height="0.999998" transform="rotate(90 26 0)" fill="#29BDFC" fill-opacity="0.3"/>
<rect x="16" width="50" height="0.999998" transform="rotate(90 16 0)" fill="#29BDFC" fill-opacity="0.3"/>
<rect x="6" width="50" height="0.999998" transform="rotate(90 6 0)" fill="#29BDFC" fill-opacity="0.7"/>
<rect x="4" y="4" width="3" height="3" fill="#29BDFC"/>
<rect x="50" y="5" width="50" height="1" fill="#29BDFC" fill-opacity="0.7"/>
<rect x="50" y="15" width="50" height="1" fill="#29BDFC" fill-opacity="0.3"/>
<rect x="50" y="25" width="50" height="1" fill="#29BDFC" fill-opacity="0.3"/>
<rect x="50" y="35" width="50" height="1" fill="#29BDFC" fill-opacity="0.3"/>
<rect x="50" y="45" width="50" height="1" fill="#29BDFC" fill-opacity="0.3"/>
<rect x="96" width="50" height="0.999998" transform="rotate(90 96 0)" fill="#29BDFC" fill-opacity="0.3"/>
<rect x="86" width="50" height="0.999998" transform="rotate(90 86 0)" fill="#29BDFC" fill-opacity="0.3"/>
<rect x="76" width="50" height="0.999998" transform="rotate(90 76 0)" fill="#29BDFC" fill-opacity="0.3"/>
<rect x="66" width="50" height="0.999998" transform="rotate(90 66 0)" fill="#29BDFC" fill-opacity="0.3"/>
<rect x="56" width="50" height="0.999998" transform="rotate(90 56 0)" fill="#29BDFC" fill-opacity="0.7"/>
<rect x="54" y="4" width="3" height="3" fill="#29BDFC"/>
<rect x="100" y="5" width="50" height="1" fill="#29BDFC" fill-opacity="0.7"/>
<rect x="100" y="15" width="50" height="1" fill="#29BDFC" fill-opacity="0.3"/>
<rect x="100" y="25" width="50" height="1" fill="#29BDFC" fill-opacity="0.3"/>
<rect x="100" y="35" width="50" height="1" fill="#29BDFC" fill-opacity="0.3"/>
<rect x="100" y="45" width="50" height="1" fill="#29BDFC" fill-opacity="0.3"/>
<rect x="146" width="50" height="0.999998" transform="rotate(90 146 0)" fill="#29BDFC" fill-opacity="0.3"/>
<rect x="136" width="50" height="0.999998" transform="rotate(90 136 0)" fill="#29BDFC" fill-opacity="0.3"/>
<rect x="126" width="50" height="0.999998" transform="rotate(90 126 0)" fill="#29BDFC" fill-opacity="0.3"/>
<rect x="116" width="50" height="0.999998" transform="rotate(90 116 0)" fill="#29BDFC" fill-opacity="0.3"/>
<rect x="106" width="50" height="0.999998" transform="rotate(90 106 0)" fill="#29BDFC" fill-opacity="0.7"/>
<rect x="104" y="4" width="3" height="3" fill="#29BDFC"/>
<rect x="150" y="5" width="50" height="1" fill="#29BDFC" fill-opacity="0.7"/>
<rect x="150" y="15" width="50" height="1" fill="#29BDFC" fill-opacity="0.3"/>
<rect x="150" y="25" width="50" height="1" fill="#29BDFC" fill-opacity="0.3"/>
<rect x="150" y="35" width="50" height="1" fill="#29BDFC" fill-opacity="0.3"/>
<rect x="150" y="45" width="50" height="1" fill="#29BDFC" fill-opacity="0.3"/>
<rect x="196" width="50" height="0.999998" transform="rotate(90 196 0)" fill="#29BDFC" fill-opacity="0.3"/>
<rect x="186" width="50" height="0.999998" transform="rotate(90 186 0)" fill="#29BDFC" fill-opacity="0.3"/>
<rect x="176" width="50" height="0.999998" transform="rotate(90 176 0)" fill="#29BDFC" fill-opacity="0.3"/>
<rect x="166" width="50" height="0.999998" transform="rotate(90 166 0)" fill="#29BDFC" fill-opacity="0.3"/>
<rect x="156" width="50" height="0.999998" transform="rotate(90 156 0)" fill="#29BDFC" fill-opacity="0.7"/>
<rect x="154" y="4" width="3" height="3" fill="#29BDFC"/>
<rect y="55" width="50" height="1" fill="#29BDFC" fill-opacity="0.7"/>
<rect y="65" width="50" height="1" fill="#29BDFC" fill-opacity="0.3"/>
<rect y="75" width="50" height="1" fill="#29BDFC" fill-opacity="0.3"/>
<rect y="85" width="50" height="1" fill="#29BDFC" fill-opacity="0.3"/>
<rect y="95" width="50" height="1" fill="#29BDFC" fill-opacity="0.3"/>
<rect x="46" y="50" width="50" height="0.999998" transform="rotate(90 46 50)" fill="#29BDFC" fill-opacity="0.3"/>
<rect x="36" y="50" width="50" height="0.999998" transform="rotate(90 36 50)" fill="#29BDFC" fill-opacity="0.3"/>
<rect x="26" y="50" width="50" height="0.999998" transform="rotate(90 26 50)" fill="#29BDFC" fill-opacity="0.3"/>
<rect x="16" y="50" width="50" height="0.999998" transform="rotate(90 16 50)" fill="#29BDFC" fill-opacity="0.3"/>
<rect x="6" y="50" width="50" height="0.999998" transform="rotate(90 6 50)" fill="#29BDFC" fill-opacity="0.7"/>
<rect x="4" y="54" width="3" height="3" fill="#29BDFC"/>
<rect x="50" y="55" width="50" height="1" fill="#29BDFC" fill-opacity="0.7"/>
<rect x="50" y="65" width="50" height="1" fill="#29BDFC" fill-opacity="0.3"/>
<rect x="50" y="75" width="50" height="1" fill="#29BDFC" fill-opacity="0.3"/>
<rect x="50" y="85" width="50" height="1" fill="#29BDFC" fill-opacity="0.3"/>
<rect x="50" y="95" width="50" height="1" fill="#29BDFC" fill-opacity="0.3"/>
<rect x="96" y="50" width="50" height="0.999998" transform="rotate(90 96 50)" fill="#29BDFC" fill-opacity="0.3"/>
<rect x="86" y="50" width="50" height="0.999998" transform="rotate(90 86 50)" fill="#29BDFC" fill-opacity="0.3"/>
<rect x="76" y="50" width="50" height="0.999998" transform="rotate(90 76 50)" fill="#29BDFC" fill-opacity="0.3"/>
<rect x="66" y="50" width="50" height="0.999998" transform="rotate(90 66 50)" fill="#29BDFC" fill-opacity="0.3"/>
<rect x="56" y="50" width="50" height="0.999998" transform="rotate(90 56 50)" fill="#29BDFC" fill-opacity="0.7"/>
<rect x="54" y="54" width="3" height="3" fill="#29BDFC"/>
<rect x="100" y="55" width="50" height="1" fill="#29BDFC" fill-opacity="0.7"/>
<rect x="100" y="65" width="50" height="1" fill="#29BDFC" fill-opacity="0.3"/>
<rect x="100" y="75" width="50" height="1" fill="#29BDFC" fill-opacity="0.3"/>
<rect x="100" y="85" width="50" height="1" fill="#29BDFC" fill-opacity="0.3"/>
<rect x="100" y="95" width="50" height="1" fill="#29BDFC" fill-opacity="0.3"/>
<rect x="146" y="50" width="50" height="0.999998" transform="rotate(90 146 50)" fill="#29BDFC" fill-opacity="0.3"/>
<rect x="136" y="50" width="50" height="0.999998" transform="rotate(90 136 50)" fill="#29BDFC" fill-opacity="0.3"/>
<rect x="126" y="50" width="50" height="0.999998" transform="rotate(90 126 50)" fill="#29BDFC" fill-opacity="0.3"/>
<rect x="116" y="50" width="50" height="0.999998" transform="rotate(90 116 50)" fill="#29BDFC" fill-opacity="0.3"/>
<rect x="106" y="50" width="50" height="0.999998" transform="rotate(90 106 50)" fill="#29BDFC" fill-opacity="0.7"/>
<rect x="104" y="54" width="3" height="3" fill="#29BDFC"/>
<rect x="150" y="55" width="50" height="1" fill="#29BDFC" fill-opacity="0.7"/>
<rect x="150" y="65" width="50" height="1" fill="#29BDFC" fill-opacity="0.3"/>
<rect x="150" y="75" width="50" height="1" fill="#29BDFC" fill-opacity="0.3"/>
<rect x="150" y="85" width="50" height="1" fill="#29BDFC" fill-opacity="0.3"/>
<rect x="150" y="95" width="50" height="1" fill="#29BDFC" fill-opacity="0.3"/>
<rect x="196" y="50" width="50" height="0.999998" transform="rotate(90 196 50)" fill="#29BDFC" fill-opacity="0.3"/>
<rect x="186" y="50" width="50" height="0.999998" transform="rotate(90 186 50)" fill="#29BDFC" fill-opacity="0.3"/>
<rect x="176" y="50" width="50" height="0.999998" transform="rotate(90 176 50)" fill="#29BDFC" fill-opacity="0.3"/>
<rect x="166" y="50" width="50" height="0.999998" transform="rotate(90 166 50)" fill="#29BDFC" fill-opacity="0.3"/>
<rect x="156" y="50" width="50" height="0.999998" transform="rotate(90 156 50)" fill="#29BDFC" fill-opacity="0.7"/>
<rect x="154" y="54" width="3" height="3" fill="#29BDFC"/>
<rect y="105" width="50" height="1" fill="#29BDFC" fill-opacity="0.7"/>
<rect y="115" width="50" height="1" fill="#29BDFC" fill-opacity="0.3"/>
<rect y="125" width="50" height="1" fill="#29BDFC" fill-opacity="0.3"/>
<rect y="135" width="50" height="1" fill="#29BDFC" fill-opacity="0.3"/>
<rect y="145" width="50" height="1" fill="#29BDFC" fill-opacity="0.3"/>
<rect x="46" y="100" width="50" height="0.999998" transform="rotate(90 46 100)" fill="#29BDFC" fill-opacity="0.3"/>
<rect x="36" y="100" width="50" height="0.999998" transform="rotate(90 36 100)" fill="#29BDFC" fill-opacity="0.3"/>
<rect x="26" y="100" width="50" height="0.999998" transform="rotate(90 26 100)" fill="#29BDFC" fill-opacity="0.3"/>
<rect x="16" y="100" width="50" height="0.999998" transform="rotate(90 16 100)" fill="#29BDFC" fill-opacity="0.3"/>
<rect x="6" y="100" width="50" height="0.999998" transform="rotate(90 6 100)" fill="#29BDFC" fill-opacity="0.7"/>
<rect x="4" y="104" width="3" height="3" fill="#29BDFC"/>
<rect x="50" y="105" width="50" height="1" fill="#29BDFC" fill-opacity="0.7"/>
<rect x="50" y="115" width="50" height="1" fill="#29BDFC" fill-opacity="0.3"/>
<rect x="50" y="125" width="50" height="1" fill="#29BDFC" fill-opacity="0.3"/>
<rect x="50" y="135" width="50" height="1" fill="#29BDFC" fill-opacity="0.3"/>
<rect x="50" y="145" width="50" height="1" fill="#29BDFC" fill-opacity="0.3"/>
<rect x="96" y="100" width="50" height="0.999998" transform="rotate(90 96 100)" fill="#29BDFC" fill-opacity="0.3"/>
<rect x="86" y="100" width="50" height="0.999998" transform="rotate(90 86 100)" fill="#29BDFC" fill-opacity="0.3"/>
<rect x="76" y="100" width="50" height="0.999998" transform="rotate(90 76 100)" fill="#29BDFC" fill-opacity="0.3"/>
<rect x="66" y="100" width="50" height="0.999998" transform="rotate(90 66 100)" fill="#29BDFC" fill-opacity="0.3"/>
<rect x="56" y="100" width="50" height="0.999998" transform="rotate(90 56 100)" fill="#29BDFC" fill-opacity="0.7"/>
<rect x="54" y="104" width="3" height="3" fill="#29BDFC"/>
<rect x="100" y="105" width="50" height="1" fill="#29BDFC" fill-opacity="0.7"/>
<rect x="100" y="115" width="50" height="1" fill="#29BDFC" fill-opacity="0.3"/>
<rect x="100" y="125" width="50" height="1" fill="#29BDFC" fill-opacity="0.3"/>
<rect x="100" y="135" width="50" height="1" fill="#29BDFC" fill-opacity="0.3"/>
<rect x="100" y="145" width="50" height="1" fill="#29BDFC" fill-opacity="0.3"/>
<rect x="146" y="100" width="50" height="0.999998" transform="rotate(90 146 100)" fill="#29BDFC" fill-opacity="0.3"/>
<rect x="136" y="100" width="50" height="0.999998" transform="rotate(90 136 100)" fill="#29BDFC" fill-opacity="0.3"/>
<rect x="126" y="100" width="50" height="0.999998" transform="rotate(90 126 100)" fill="#29BDFC" fill-opacity="0.3"/>
<rect x="116" y="100" width="50" height="0.999998" transform="rotate(90 116 100)" fill="#29BDFC" fill-opacity="0.3"/>
<rect x="106" y="100" width="50" height="0.999998" transform="rotate(90 106 100)" fill="#29BDFC" fill-opacity="0.7"/>
<rect x="104" y="104" width="3" height="3" fill="#29BDFC"/>
<rect x="150" y="105" width="50" height="1" fill="#29BDFC" fill-opacity="0.7"/>
<rect x="150" y="115" width="50" height="1" fill="#29BDFC" fill-opacity="0.3"/>
<rect x="150" y="125" width="50" height="1" fill="#29BDFC" fill-opacity="0.3"/>
<rect x="150" y="135" width="50" height="1" fill="#29BDFC" fill-opacity="0.3"/>
<rect x="150" y="145" width="50" height="1" fill="#29BDFC" fill-opacity="0.3"/>
<rect x="196" y="100" width="50" height="0.999998" transform="rotate(90 196 100)" fill="#29BDFC" fill-opacity="0.3"/>
<rect x="186" y="100" width="50" height="0.999998" transform="rotate(90 186 100)" fill="#29BDFC" fill-opacity="0.3"/>
<rect x="176" y="100" width="50" height="0.999998" transform="rotate(90 176 100)" fill="#29BDFC" fill-opacity="0.3"/>
<rect x="166" y="100" width="50" height="0.999998" transform="rotate(90 166 100)" fill="#29BDFC" fill-opacity="0.3"/>
<rect x="156" y="100" width="50" height="0.999998" transform="rotate(90 156 100)" fill="#29BDFC" fill-opacity="0.7"/>
<rect x="154" y="104" width="3" height="3" fill="#29BDFC"/>
<rect y="155" width="50" height="1" fill="#29BDFC" fill-opacity="0.7"/>
<rect y="165" width="50" height="1" fill="#29BDFC" fill-opacity="0.3"/>
<rect y="175" width="50" height="1" fill="#29BDFC" fill-opacity="0.3"/>
<rect y="185" width="50" height="1" fill="#29BDFC" fill-opacity="0.3"/>
<rect y="195" width="50" height="1" fill="#29BDFC" fill-opacity="0.3"/>
<rect x="46" y="150" width="50" height="0.999998" transform="rotate(90 46 150)" fill="#29BDFC" fill-opacity="0.3"/>
<rect x="36" y="150" width="50" height="0.999998" transform="rotate(90 36 150)" fill="#29BDFC" fill-opacity="0.3"/>
<rect x="26" y="150" width="50" height="0.999998" transform="rotate(90 26 150)" fill="#29BDFC" fill-opacity="0.3"/>
<rect x="16" y="150" width="50" height="0.999998" transform="rotate(90 16 150)" fill="#29BDFC" fill-opacity="0.3"/>
<rect x="6" y="150" width="50" height="0.999998" transform="rotate(90 6 150)" fill="#29BDFC" fill-opacity="0.7"/>
<rect x="4" y="154" width="3" height="3" fill="#29BDFC"/>
<rect x="50" y="155" width="50" height="1" fill="#29BDFC" fill-opacity="0.7"/>
<rect x="50" y="165" width="50" height="1" fill="#29BDFC" fill-opacity="0.3"/>
<rect x="50" y="175" width="50" height="1" fill="#29BDFC" fill-opacity="0.3"/>
<rect x="50" y="185" width="50" height="1" fill="#29BDFC" fill-opacity="0.3"/>
<rect x="50" y="195" width="50" height="1" fill="#29BDFC" fill-opacity="0.3"/>
<rect x="96" y="150" width="50" height="0.999998" transform="rotate(90 96 150)" fill="#29BDFC" fill-opacity="0.3"/>
<rect x="86" y="150" width="50" height="0.999998" transform="rotate(90 86 150)" fill="#29BDFC" fill-opacity="0.3"/>
<rect x="76" y="150" width="50" height="0.999998" transform="rotate(90 76 150)" fill="#29BDFC" fill-opacity="0.3"/>
<rect x="66" y="150" width="50" height="0.999998" transform="rotate(90 66 150)" fill="#29BDFC" fill-opacity="0.3"/>
<rect x="56" y="150" width="50" height="0.999998" transform="rotate(90 56 150)" fill="#29BDFC" fill-opacity="0.7"/>
<rect x="54" y="154" width="3" height="3" fill="#29BDFC"/>
<rect x="100" y="155" width="50" height="1" fill="#29BDFC" fill-opacity="0.7"/>
<rect x="100" y="165" width="50" height="1" fill="#29BDFC" fill-opacity="0.3"/>
<rect x="100" y="175" width="50" height="1" fill="#29BDFC" fill-opacity="0.3"/>
<rect x="100" y="185" width="50" height="1" fill="#29BDFC" fill-opacity="0.3"/>
<rect x="100" y="195" width="50" height="1" fill="#29BDFC" fill-opacity="0.3"/>
<rect x="146" y="150" width="50" height="0.999998" transform="rotate(90 146 150)" fill="#29BDFC" fill-opacity="0.3"/>
<rect x="136" y="150" width="50" height="0.999998" transform="rotate(90 136 150)" fill="#29BDFC" fill-opacity="0.3"/>
<rect x="126" y="150" width="50" height="0.999998" transform="rotate(90 126 150)" fill="#29BDFC" fill-opacity="0.3"/>
<rect x="116" y="150" width="50" height="0.999998" transform="rotate(90 116 150)" fill="#29BDFC" fill-opacity="0.3"/>
<rect x="106" y="150" width="50" height="0.999998" transform="rotate(90 106 150)" fill="#29BDFC" fill-opacity="0.7"/>
<rect x="104" y="154" width="3" height="3" fill="#29BDFC"/>
<rect x="150" y="155" width="50" height="1" fill="#29BDFC" fill-opacity="0.7"/>
<rect x="150" y="165" width="50" height="1" fill="#29BDFC" fill-opacity="0.3"/>
<rect x="150" y="175" width="50" height="1" fill="#29BDFC" fill-opacity="0.3"/>
<rect x="150" y="185" width="50" height="1" fill="#29BDFC" fill-opacity="0.3"/>
<rect x="150" y="195" width="50" height="1" fill="#29BDFC" fill-opacity="0.3"/>
<rect x="196" y="150" width="50" height="0.999998" transform="rotate(90 196 150)" fill="#29BDFC" fill-opacity="0.3"/>
<rect x="186" y="150" width="50" height="0.999998" transform="rotate(90 186 150)" fill="#29BDFC" fill-opacity="0.3"/>
<rect x="176" y="150" width="50" height="0.999998" transform="rotate(90 176 150)" fill="#29BDFC" fill-opacity="0.3"/>
<rect x="166" y="150" width="50" height="0.999998" transform="rotate(90 166 150)" fill="#29BDFC" fill-opacity="0.3"/>
<rect x="156" y="150" width="50" height="0.999998" transform="rotate(90 156 150)" fill="#29BDFC" fill-opacity="0.7"/>
<rect x="154" y="154" width="3" height="3" fill="#29BDFC"/>
</svg>
