<svg width="200" height="200" viewBox="0 0 200 200" fill="none" xmlns="http://www.w3.org/2000/svg">
<g clip-path="url(#clip0_4953_5689)">
<mask id="path-1-inside-1_4953_5689" fill="white">
<path d="M41.1768 25C41.1768 33.9339 33.9344 41.1763 25.0005 41.1763C16.0666 41.1763 8.82422 33.9339 8.82422 25C8.82422 16.0661 16.0666 8.82373 25.0005 8.82373C33.9344 8.82373 41.1768 16.0661 41.1768 25Z"/>
</mask>
<path d="M25.0005 8.82373V10.2943C33.1222 10.2943 39.7062 16.8783 39.7062 25H41.1768H42.6473C42.6473 15.2539 34.7466 7.35314 25.0005 7.35314V8.82373ZM8.82422 25H10.2948C10.2948 16.8783 16.8788 10.2943 25.0005 10.2943V8.82373V7.35314C15.2544 7.35314 7.35363 15.2539 7.35363 25H8.82422ZM25.0005 41.1763V39.7057C16.8788 39.7057 10.2948 33.1217 10.2948 25H8.82422H7.35363C7.35363 34.7461 15.2544 42.6469 25.0005 42.6469V41.1763ZM25.0005 41.1763V42.6469C34.7466 42.6469 42.6473 34.7461 42.6473 25H41.1768H39.7062C39.7062 33.1217 33.1222 39.7057 25.0005 39.7057V41.1763Z" fill="#29BDFC" fill-opacity="0.5" mask="url(#path-1-inside-1_4953_5689)"/>
<path d="M29.4121 25C29.4121 27.4365 27.437 29.4116 25.0005 29.4116C22.564 29.4116 20.5889 27.4365 20.5889 25C20.5889 22.5635 22.564 20.5884 25.0005 20.5884C27.437 20.5884 29.4121 22.5635 29.4121 25Z" fill="#29BDFC"/>
<path d="M13.292 38.1245L-0.762695 52.1792L-2.17676 50.7651L11.8779 36.7104L13.292 38.1245ZM52.1758 50.772L50.7725 52.1753L36.6699 38.0728L38.0732 36.6704L52.1758 50.772ZM13.373 11.9761L11.9736 13.3755L-2.17188 -0.77002L-0.772461 -2.16943L13.373 11.9761ZM52.0654 -0.873535L38.0127 13.1792L36.709 11.8765L50.7627 -2.17725L52.0654 -0.873535Z" fill="#29BDFC" fill-opacity="0.5"/>
</g>
<g clip-path="url(#clip1_4953_5689)">
<mask id="path-5-inside-2_4953_5689" fill="white">
<path d="M91.1763 25C91.1763 33.9339 83.9339 41.1763 75 41.1763C66.0661 41.1763 58.8237 33.9339 58.8237 25C58.8237 16.0661 66.0661 8.82373 75 8.82373C83.9339 8.82373 91.1763 16.0661 91.1763 25Z"/>
</mask>
<path d="M75 8.82373V10.2943C83.1217 10.2943 89.7057 16.8783 89.7057 25H91.1763H92.6469C92.6469 15.2539 84.7461 7.35314 75 7.35314V8.82373ZM58.8237 25H60.2943C60.2943 16.8783 66.8783 10.2943 75 10.2943V8.82373V7.35314C65.2539 7.35314 57.3531 15.2539 57.3531 25H58.8237ZM75 41.1763V39.7057C66.8783 39.7057 60.2943 33.1217 60.2943 25H58.8237H57.3531C57.3531 34.7461 65.2539 42.6469 75 42.6469V41.1763ZM75 41.1763V42.6469C84.7461 42.6469 92.6469 34.7461 92.6469 25H91.1763H89.7057C89.7057 33.1217 83.1217 39.7057 75 39.7057V41.1763Z" fill="#29BDFC" fill-opacity="0.5" mask="url(#path-5-inside-2_4953_5689)"/>
<path d="M79.4116 25C79.4116 27.4365 77.4365 29.4116 75 29.4116C72.5635 29.4116 70.5884 27.4365 70.5884 25C70.5884 22.5635 72.5635 20.5884 75 20.5884C77.4365 20.5884 79.4116 22.5635 79.4116 25Z" fill="#29BDFC"/>
<path d="M63.2915 38.1245L49.2368 52.1792L47.8228 50.7651L61.8774 36.7104L63.2915 38.1245ZM102.175 50.772L100.772 52.1753L86.6694 38.0728L88.0728 36.6704L102.175 50.772ZM63.3735 11.9761L61.9731 13.3755L47.8276 -0.77002L49.2271 -2.17041L63.3735 11.9761ZM102.065 -0.873535L88.0122 13.1792L86.7085 11.8765L100.762 -2.17725L102.065 -0.873535Z" fill="#29BDFC" fill-opacity="0.5"/>
</g>
<g clip-path="url(#clip2_4953_5689)">
<mask id="path-9-inside-3_4953_5689" fill="white">
<path d="M141.176 25C141.176 33.9339 133.934 41.1763 125 41.1763C116.066 41.1763 108.824 33.9339 108.824 25C108.824 16.0661 116.066 8.82373 125 8.82373C133.934 8.82373 141.176 16.0661 141.176 25Z"/>
</mask>
<path d="M125 8.82373V10.2943C133.122 10.2943 139.706 16.8783 139.706 25H141.176H142.647C142.647 15.2539 134.746 7.35314 125 7.35314V8.82373ZM108.824 25H110.294C110.294 16.8783 116.878 10.2943 125 10.2943V8.82373V7.35314C115.254 7.35314 107.353 15.2539 107.353 25H108.824ZM125 41.1763V39.7057C116.878 39.7057 110.294 33.1217 110.294 25H108.824H107.353C107.353 34.7461 115.254 42.6469 125 42.6469V41.1763ZM125 41.1763V42.6469C134.746 42.6469 142.647 34.7461 142.647 25H141.176H139.706C139.706 33.1217 133.122 39.7057 125 39.7057V41.1763Z" fill="#29BDFC" fill-opacity="0.5" mask="url(#path-9-inside-3_4953_5689)"/>
<path d="M129.412 25C129.412 27.4365 127.436 29.4116 125 29.4116C122.564 29.4116 120.588 27.4365 120.588 25C120.588 22.5635 122.564 20.5884 125 20.5884C127.436 20.5884 129.412 22.5635 129.412 25Z" fill="#29BDFC"/>
<path d="M113.292 38.1245L99.2368 52.1792L97.8228 50.7651L111.877 36.7104L113.292 38.1245ZM152.175 50.772L150.772 52.1753L136.669 38.0728L138.073 36.6704L152.175 50.772ZM113.374 11.9761L111.973 13.3755L97.8276 -0.77002L99.2271 -2.17041L113.374 11.9761ZM152.065 -0.873535L138.012 13.1792L136.708 11.8765L150.762 -2.17725L152.065 -0.873535Z" fill="#29BDFC" fill-opacity="0.5"/>
</g>
<g clip-path="url(#clip3_4953_5689)">
<mask id="path-13-inside-4_4953_5689" fill="white">
<path d="M191.176 25C191.176 33.9339 183.934 41.1763 175 41.1763C166.066 41.1763 158.824 33.9339 158.824 25C158.824 16.0661 166.066 8.82373 175 8.82373C183.934 8.82373 191.176 16.0661 191.176 25Z"/>
</mask>
<path d="M175 8.82373V10.2943C183.122 10.2943 189.706 16.8783 189.706 25H191.176H192.647C192.647 15.2539 184.746 7.35314 175 7.35314V8.82373ZM158.824 25H160.294C160.294 16.8783 166.878 10.2943 175 10.2943V8.82373V7.35314C165.254 7.35314 157.353 15.2539 157.353 25H158.824ZM175 41.1763V39.7057C166.878 39.7057 160.294 33.1217 160.294 25H158.824H157.353C157.353 34.7461 165.254 42.6469 175 42.6469V41.1763ZM175 41.1763V42.6469C184.746 42.6469 192.647 34.7461 192.647 25H191.176H189.706C189.706 33.1217 183.122 39.7057 175 39.7057V41.1763Z" fill="#29BDFC" fill-opacity="0.5" mask="url(#path-13-inside-4_4953_5689)"/>
<path d="M179.412 25C179.412 27.4365 177.436 29.4116 175 29.4116C172.564 29.4116 170.588 27.4365 170.588 25C170.588 22.5635 172.564 20.5884 175 20.5884C177.436 20.5884 179.412 22.5635 179.412 25Z" fill="#29BDFC"/>
<path d="M163.292 38.1245L149.237 52.1792L147.823 50.7651L161.877 36.7104L163.292 38.1245ZM202.175 50.772L200.772 52.1753L186.669 38.0728L188.073 36.6704L202.175 50.772ZM163.374 11.9761L161.973 13.3755L147.828 -0.77002L149.227 -2.17041L163.374 11.9761ZM202.065 -0.873535L188.012 13.1792L186.708 11.8765L200.762 -2.17725L202.065 -0.873535Z" fill="#29BDFC" fill-opacity="0.5"/>
</g>
<g clip-path="url(#clip4_4953_5689)">
<mask id="path-17-inside-5_4953_5689" fill="white">
<path d="M41.1768 75C41.1768 83.9339 33.9344 91.1763 25.0005 91.1763C16.0666 91.1763 8.82422 83.9339 8.82422 75C8.82422 66.0661 16.0666 58.8237 25.0005 58.8237C33.9344 58.8237 41.1768 66.0661 41.1768 75Z"/>
</mask>
<path d="M25.0005 58.8237V60.2943C33.1222 60.2943 39.7062 66.8783 39.7062 75H41.1768H42.6473C42.6473 65.2539 34.7466 57.3531 25.0005 57.3531V58.8237ZM8.82422 75H10.2948C10.2948 66.8783 16.8788 60.2943 25.0005 60.2943V58.8237V57.3531C15.2544 57.3531 7.35363 65.2539 7.35363 75H8.82422ZM25.0005 91.1763V89.7057C16.8788 89.7057 10.2948 83.1217 10.2948 75H8.82422H7.35363C7.35363 84.7461 15.2544 92.6469 25.0005 92.6469V91.1763ZM25.0005 91.1763V92.6469C34.7466 92.6469 42.6473 84.7461 42.6473 75H41.1768H39.7062C39.7062 83.1217 33.1222 89.7057 25.0005 89.7057V91.1763Z" fill="#29BDFC" fill-opacity="0.5" mask="url(#path-17-inside-5_4953_5689)"/>
<path d="M29.4121 75C29.4121 77.4365 27.437 79.4116 25.0005 79.4116C22.564 79.4116 20.5889 77.4365 20.5889 75C20.5889 72.5635 22.564 70.5884 25.0005 70.5884C27.437 70.5884 29.4121 72.5635 29.4121 75Z" fill="#29BDFC"/>
<path d="M13.292 88.1245L-0.762695 102.179L-2.17676 100.765L11.8779 86.7104L13.292 88.1245ZM52.1758 100.772L50.7725 102.175L36.6699 88.0728L38.0732 86.6704L52.1758 100.772ZM13.373 61.9761L11.9736 63.3755L-2.17188 49.23L-0.772461 47.8306L13.373 61.9761ZM52.0654 49.1265L38.0127 63.1792L36.709 61.8765L50.7627 47.8228L52.0654 49.1265Z" fill="#29BDFC" fill-opacity="0.5"/>
</g>
<g clip-path="url(#clip5_4953_5689)">
<mask id="path-21-inside-6_4953_5689" fill="white">
<path d="M91.1763 75C91.1763 83.9339 83.9339 91.1763 75 91.1763C66.0661 91.1763 58.8237 83.9339 58.8237 75C58.8237 66.0661 66.0661 58.8237 75 58.8237C83.9339 58.8237 91.1763 66.0661 91.1763 75Z"/>
</mask>
<path d="M75 58.8237V60.2943C83.1217 60.2943 89.7057 66.8783 89.7057 75H91.1763H92.6469C92.6469 65.2539 84.7461 57.3531 75 57.3531V58.8237ZM58.8237 75H60.2943C60.2943 66.8783 66.8783 60.2943 75 60.2943V58.8237V57.3531C65.2539 57.3531 57.3531 65.2539 57.3531 75H58.8237ZM75 91.1763V89.7057C66.8783 89.7057 60.2943 83.1217 60.2943 75H58.8237H57.3531C57.3531 84.7461 65.2539 92.6469 75 92.6469V91.1763ZM75 91.1763V92.6469C84.7461 92.6469 92.6469 84.7461 92.6469 75H91.1763H89.7057C89.7057 83.1217 83.1217 89.7057 75 89.7057V91.1763Z" fill="#29BDFC" fill-opacity="0.5" mask="url(#path-21-inside-6_4953_5689)"/>
<path d="M79.4116 75C79.4116 77.4365 77.4365 79.4116 75 79.4116C72.5635 79.4116 70.5884 77.4365 70.5884 75C70.5884 72.5635 72.5635 70.5884 75 70.5884C77.4365 70.5884 79.4116 72.5635 79.4116 75Z" fill="#29BDFC"/>
<path d="M63.2915 88.1245L49.2368 102.179L47.8228 100.765L61.8774 86.7104L63.2915 88.1245ZM102.175 100.772L100.772 102.175L86.6694 88.0728L88.0728 86.6704L102.175 100.772ZM63.3735 61.9761L61.9731 63.3755L47.8276 49.23L49.2271 47.8296L63.3735 61.9761ZM102.065 49.1265L88.0122 63.1792L86.7085 61.8765L100.762 47.8228L102.065 49.1265Z" fill="#29BDFC" fill-opacity="0.5"/>
</g>
<g clip-path="url(#clip6_4953_5689)">
<mask id="path-25-inside-7_4953_5689" fill="white">
<path d="M141.176 75C141.176 83.9339 133.934 91.1763 125 91.1763C116.066 91.1763 108.824 83.9339 108.824 75C108.824 66.0661 116.066 58.8237 125 58.8237C133.934 58.8237 141.176 66.0661 141.176 75Z"/>
</mask>
<path d="M125 58.8237V60.2943C133.122 60.2943 139.706 66.8783 139.706 75H141.176H142.647C142.647 65.2539 134.746 57.3531 125 57.3531V58.8237ZM108.824 75H110.294C110.294 66.8783 116.878 60.2943 125 60.2943V58.8237V57.3531C115.254 57.3531 107.353 65.2539 107.353 75H108.824ZM125 91.1763V89.7057C116.878 89.7057 110.294 83.1217 110.294 75H108.824H107.353C107.353 84.7461 115.254 92.6469 125 92.6469V91.1763ZM125 91.1763V92.6469C134.746 92.6469 142.647 84.7461 142.647 75H141.176H139.706C139.706 83.1217 133.122 89.7057 125 89.7057V91.1763Z" fill="#29BDFC" fill-opacity="0.5" mask="url(#path-25-inside-7_4953_5689)"/>
<path d="M129.412 75C129.412 77.4365 127.436 79.4116 125 79.4116C122.564 79.4116 120.588 77.4365 120.588 75C120.588 72.5635 122.564 70.5884 125 70.5884C127.436 70.5884 129.412 72.5635 129.412 75Z" fill="#29BDFC"/>
<path d="M113.292 88.1245L99.2368 102.179L97.8228 100.765L111.877 86.7104L113.292 88.1245ZM152.175 100.772L150.772 102.175L136.669 88.0728L138.073 86.6704L152.175 100.772ZM113.374 61.9761L111.973 63.3755L97.8276 49.23L99.2271 47.8296L113.374 61.9761ZM152.065 49.1265L138.012 63.1792L136.708 61.8765L150.762 47.8228L152.065 49.1265Z" fill="#29BDFC" fill-opacity="0.5"/>
</g>
<g clip-path="url(#clip7_4953_5689)">
<mask id="path-29-inside-8_4953_5689" fill="white">
<path d="M191.176 75C191.176 83.9339 183.934 91.1763 175 91.1763C166.066 91.1763 158.824 83.9339 158.824 75C158.824 66.0661 166.066 58.8237 175 58.8237C183.934 58.8237 191.176 66.0661 191.176 75Z"/>
</mask>
<path d="M175 58.8237V60.2943C183.122 60.2943 189.706 66.8783 189.706 75H191.176H192.647C192.647 65.2539 184.746 57.3531 175 57.3531V58.8237ZM158.824 75H160.294C160.294 66.8783 166.878 60.2943 175 60.2943V58.8237V57.3531C165.254 57.3531 157.353 65.2539 157.353 75H158.824ZM175 91.1763V89.7057C166.878 89.7057 160.294 83.1217 160.294 75H158.824H157.353C157.353 84.7461 165.254 92.6469 175 92.6469V91.1763ZM175 91.1763V92.6469C184.746 92.6469 192.647 84.7461 192.647 75H191.176H189.706C189.706 83.1217 183.122 89.7057 175 89.7057V91.1763Z" fill="#29BDFC" fill-opacity="0.5" mask="url(#path-29-inside-8_4953_5689)"/>
<path d="M179.412 75C179.412 77.4365 177.436 79.4116 175 79.4116C172.564 79.4116 170.588 77.4365 170.588 75C170.588 72.5635 172.564 70.5884 175 70.5884C177.436 70.5884 179.412 72.5635 179.412 75Z" fill="#29BDFC"/>
<path d="M163.292 88.1245L149.237 102.179L147.823 100.765L161.877 86.7104L163.292 88.1245ZM202.175 100.772L200.772 102.175L186.669 88.0728L188.073 86.6704L202.175 100.772ZM163.374 61.9761L161.973 63.3755L147.828 49.23L149.227 47.8296L163.374 61.9761ZM202.065 49.1265L188.012 63.1792L186.708 61.8765L200.762 47.8228L202.065 49.1265Z" fill="#29BDFC" fill-opacity="0.5"/>
</g>
<g clip-path="url(#clip8_4953_5689)">
<mask id="path-33-inside-9_4953_5689" fill="white">
<path d="M41.1768 125C41.1768 133.934 33.9344 141.176 25.0005 141.176C16.0666 141.176 8.82422 133.934 8.82422 125C8.82422 116.066 16.0666 108.824 25.0005 108.824C33.9344 108.824 41.1768 116.066 41.1768 125Z"/>
</mask>
<path d="M25.0005 108.824V110.294C33.1222 110.294 39.7062 116.878 39.7062 125H41.1768H42.6473C42.6473 115.254 34.7466 107.353 25.0005 107.353V108.824ZM8.82422 125H10.2948C10.2948 116.878 16.8788 110.294 25.0005 110.294V108.824V107.353C15.2544 107.353 7.35363 115.254 7.35363 125H8.82422ZM25.0005 141.176V139.706C16.8788 139.706 10.2948 133.122 10.2948 125H8.82422H7.35363C7.35363 134.746 15.2544 142.647 25.0005 142.647V141.176ZM25.0005 141.176V142.647C34.7466 142.647 42.6473 134.746 42.6473 125H41.1768H39.7062C39.7062 133.122 33.1222 139.706 25.0005 139.706V141.176Z" fill="#29BDFC" fill-opacity="0.5" mask="url(#path-33-inside-9_4953_5689)"/>
<path d="M29.4121 125C29.4121 127.436 27.437 129.412 25.0005 129.412C22.564 129.412 20.5889 127.436 20.5889 125C20.5889 122.564 22.564 120.588 25.0005 120.588C27.437 120.588 29.4121 122.564 29.4121 125Z" fill="#29BDFC"/>
<path d="M13.292 138.125L-0.762695 152.179L-2.17676 150.765L11.8779 136.71L13.292 138.125ZM52.1758 150.772L50.7725 152.175L36.6699 138.073L38.0732 136.67L52.1758 150.772ZM13.373 111.976L11.9736 113.375L-2.17188 99.23L-0.772461 97.8306L13.373 111.976ZM52.0654 99.1265L38.0127 113.179L36.709 111.876L50.7627 97.8228L52.0654 99.1265Z" fill="#29BDFC" fill-opacity="0.5"/>
</g>
<g clip-path="url(#clip9_4953_5689)">
<mask id="path-37-inside-10_4953_5689" fill="white">
<path d="M91.1763 125C91.1763 133.934 83.9339 141.176 75 141.176C66.0661 141.176 58.8237 133.934 58.8237 125C58.8237 116.066 66.0661 108.824 75 108.824C83.9339 108.824 91.1763 116.066 91.1763 125Z"/>
</mask>
<path d="M75 108.824V110.294C83.1217 110.294 89.7057 116.878 89.7057 125H91.1763H92.6469C92.6469 115.254 84.7461 107.353 75 107.353V108.824ZM58.8237 125H60.2943C60.2943 116.878 66.8783 110.294 75 110.294V108.824V107.353C65.2539 107.353 57.3531 115.254 57.3531 125H58.8237ZM75 141.176V139.706C66.8783 139.706 60.2943 133.122 60.2943 125H58.8237H57.3531C57.3531 134.746 65.2539 142.647 75 142.647V141.176ZM75 141.176V142.647C84.7461 142.647 92.6469 134.746 92.6469 125H91.1763H89.7057C89.7057 133.122 83.1217 139.706 75 139.706V141.176Z" fill="#29BDFC" fill-opacity="0.5" mask="url(#path-37-inside-10_4953_5689)"/>
<path d="M79.4116 125C79.4116 127.436 77.4365 129.412 75 129.412C72.5635 129.412 70.5884 127.436 70.5884 125C70.5884 122.564 72.5635 120.588 75 120.588C77.4365 120.588 79.4116 122.564 79.4116 125Z" fill="#29BDFC"/>
<path d="M63.2915 138.125L49.2368 152.179L47.8228 150.765L61.8774 136.71L63.2915 138.125ZM102.175 150.772L100.772 152.175L86.6694 138.073L88.0728 136.67L102.175 150.772ZM63.3735 111.976L61.9731 113.375L47.8276 99.23L49.2271 97.8296L63.3735 111.976ZM102.065 99.1265L88.0122 113.179L86.7085 111.876L100.762 97.8228L102.065 99.1265Z" fill="#29BDFC" fill-opacity="0.5"/>
</g>
<g clip-path="url(#clip10_4953_5689)">
<mask id="path-41-inside-11_4953_5689" fill="white">
<path d="M141.176 125C141.176 133.934 133.934 141.176 125 141.176C116.066 141.176 108.824 133.934 108.824 125C108.824 116.066 116.066 108.824 125 108.824C133.934 108.824 141.176 116.066 141.176 125Z"/>
</mask>
<path d="M125 108.824V110.294C133.122 110.294 139.706 116.878 139.706 125H141.176H142.647C142.647 115.254 134.746 107.353 125 107.353V108.824ZM108.824 125H110.294C110.294 116.878 116.878 110.294 125 110.294V108.824V107.353C115.254 107.353 107.353 115.254 107.353 125H108.824ZM125 141.176V139.706C116.878 139.706 110.294 133.122 110.294 125H108.824H107.353C107.353 134.746 115.254 142.647 125 142.647V141.176ZM125 141.176V142.647C134.746 142.647 142.647 134.746 142.647 125H141.176H139.706C139.706 133.122 133.122 139.706 125 139.706V141.176Z" fill="#29BDFC" fill-opacity="0.5" mask="url(#path-41-inside-11_4953_5689)"/>
<path d="M129.412 125C129.412 127.436 127.436 129.412 125 129.412C122.564 129.412 120.588 127.436 120.588 125C120.588 122.564 122.564 120.588 125 120.588C127.436 120.588 129.412 122.564 129.412 125Z" fill="#29BDFC"/>
<path d="M113.292 138.125L99.2368 152.179L97.8228 150.765L111.877 136.71L113.292 138.125ZM152.175 150.772L150.772 152.175L136.669 138.073L138.073 136.67L152.175 150.772ZM113.374 111.976L111.973 113.375L97.8276 99.23L99.2271 97.8296L113.374 111.976ZM152.065 99.1265L138.012 113.179L136.708 111.876L150.762 97.8228L152.065 99.1265Z" fill="#29BDFC" fill-opacity="0.5"/>
</g>
<g clip-path="url(#clip11_4953_5689)">
<mask id="path-45-inside-12_4953_5689" fill="white">
<path d="M191.176 125C191.176 133.934 183.934 141.176 175 141.176C166.066 141.176 158.824 133.934 158.824 125C158.824 116.066 166.066 108.824 175 108.824C183.934 108.824 191.176 116.066 191.176 125Z"/>
</mask>
<path d="M175 108.824V110.294C183.122 110.294 189.706 116.878 189.706 125H191.176H192.647C192.647 115.254 184.746 107.353 175 107.353V108.824ZM158.824 125H160.294C160.294 116.878 166.878 110.294 175 110.294V108.824V107.353C165.254 107.353 157.353 115.254 157.353 125H158.824ZM175 141.176V139.706C166.878 139.706 160.294 133.122 160.294 125H158.824H157.353C157.353 134.746 165.254 142.647 175 142.647V141.176ZM175 141.176V142.647C184.746 142.647 192.647 134.746 192.647 125H191.176H189.706C189.706 133.122 183.122 139.706 175 139.706V141.176Z" fill="#29BDFC" fill-opacity="0.5" mask="url(#path-45-inside-12_4953_5689)"/>
<path d="M179.412 125C179.412 127.436 177.436 129.412 175 129.412C172.564 129.412 170.588 127.436 170.588 125C170.588 122.564 172.564 120.588 175 120.588C177.436 120.588 179.412 122.564 179.412 125Z" fill="#29BDFC"/>
<path d="M163.292 138.125L149.237 152.179L147.823 150.765L161.877 136.71L163.292 138.125ZM202.175 150.772L200.772 152.175L186.669 138.073L188.073 136.67L202.175 150.772ZM163.374 111.976L161.973 113.375L147.828 99.23L149.227 97.8296L163.374 111.976ZM202.065 99.1265L188.012 113.179L186.708 111.876L200.762 97.8228L202.065 99.1265Z" fill="#29BDFC" fill-opacity="0.5"/>
</g>
<g clip-path="url(#clip12_4953_5689)">
<mask id="path-49-inside-13_4953_5689" fill="white">
<path d="M41.1768 175C41.1768 183.934 33.9344 191.176 25.0005 191.176C16.0666 191.176 8.82422 183.934 8.82422 175C8.82422 166.066 16.0666 158.824 25.0005 158.824C33.9344 158.824 41.1768 166.066 41.1768 175Z"/>
</mask>
<path d="M25.0005 158.824V160.294C33.1222 160.294 39.7062 166.878 39.7062 175H41.1768H42.6473C42.6473 165.254 34.7466 157.353 25.0005 157.353V158.824ZM8.82422 175H10.2948C10.2948 166.878 16.8788 160.294 25.0005 160.294V158.824V157.353C15.2544 157.353 7.35363 165.254 7.35363 175H8.82422ZM25.0005 191.176V189.706C16.8788 189.706 10.2948 183.122 10.2948 175H8.82422H7.35363C7.35363 184.746 15.2544 192.647 25.0005 192.647V191.176ZM25.0005 191.176V192.647C34.7466 192.647 42.6473 184.746 42.6473 175H41.1768H39.7062C39.7062 183.122 33.1222 189.706 25.0005 189.706V191.176Z" fill="#29BDFC" fill-opacity="0.5" mask="url(#path-49-inside-13_4953_5689)"/>
<path d="M29.4121 175C29.4121 177.436 27.437 179.412 25.0005 179.412C22.564 179.412 20.5889 177.436 20.5889 175C20.5889 172.564 22.564 170.588 25.0005 170.588C27.437 170.588 29.4121 172.564 29.4121 175Z" fill="#29BDFC"/>
<path d="M13.292 188.125L-0.762695 202.179L-2.17676 200.765L11.8779 186.71L13.292 188.125ZM52.1758 200.772L50.7725 202.175L36.6699 188.073L38.0732 186.67L52.1758 200.772ZM13.373 161.976L11.9736 163.375L-2.17188 149.23L-0.772461 147.831L13.373 161.976ZM52.0654 149.126L38.0127 163.179L36.709 161.876L50.7627 147.823L52.0654 149.126Z" fill="#29BDFC" fill-opacity="0.5"/>
</g>
<g clip-path="url(#clip13_4953_5689)">
<mask id="path-53-inside-14_4953_5689" fill="white">
<path d="M91.1763 175C91.1763 183.934 83.9339 191.176 75 191.176C66.0661 191.176 58.8237 183.934 58.8237 175C58.8237 166.066 66.0661 158.824 75 158.824C83.9339 158.824 91.1763 166.066 91.1763 175Z"/>
</mask>
<path d="M75 158.824V160.294C83.1217 160.294 89.7057 166.878 89.7057 175H91.1763H92.6469C92.6469 165.254 84.7461 157.353 75 157.353V158.824ZM58.8237 175H60.2943C60.2943 166.878 66.8783 160.294 75 160.294V158.824V157.353C65.2539 157.353 57.3531 165.254 57.3531 175H58.8237ZM75 191.176V189.706C66.8783 189.706 60.2943 183.122 60.2943 175H58.8237H57.3531C57.3531 184.746 65.2539 192.647 75 192.647V191.176ZM75 191.176V192.647C84.7461 192.647 92.6469 184.746 92.6469 175H91.1763H89.7057C89.7057 183.122 83.1217 189.706 75 189.706V191.176Z" fill="#29BDFC" fill-opacity="0.5" mask="url(#path-53-inside-14_4953_5689)"/>
<path d="M79.4116 175C79.4116 177.436 77.4365 179.412 75 179.412C72.5635 179.412 70.5884 177.436 70.5884 175C70.5884 172.564 72.5635 170.588 75 170.588C77.4365 170.588 79.4116 172.564 79.4116 175Z" fill="#29BDFC"/>
<path d="M63.2915 188.125L49.2368 202.179L47.8228 200.765L61.8774 186.71L63.2915 188.125ZM102.175 200.772L100.772 202.175L86.6694 188.073L88.0728 186.67L102.175 200.772ZM63.3735 161.976L61.9731 163.375L47.8276 149.23L49.2271 147.83L63.3735 161.976ZM102.065 149.126L88.0122 163.179L86.7085 161.876L100.762 147.823L102.065 149.126Z" fill="#29BDFC" fill-opacity="0.5"/>
</g>
<g clip-path="url(#clip14_4953_5689)">
<mask id="path-57-inside-15_4953_5689" fill="white">
<path d="M141.176 175C141.176 183.934 133.934 191.176 125 191.176C116.066 191.176 108.824 183.934 108.824 175C108.824 166.066 116.066 158.824 125 158.824C133.934 158.824 141.176 166.066 141.176 175Z"/>
</mask>
<path d="M125 158.824V160.294C133.122 160.294 139.706 166.878 139.706 175H141.176H142.647C142.647 165.254 134.746 157.353 125 157.353V158.824ZM108.824 175H110.294C110.294 166.878 116.878 160.294 125 160.294V158.824V157.353C115.254 157.353 107.353 165.254 107.353 175H108.824ZM125 191.176V189.706C116.878 189.706 110.294 183.122 110.294 175H108.824H107.353C107.353 184.746 115.254 192.647 125 192.647V191.176ZM125 191.176V192.647C134.746 192.647 142.647 184.746 142.647 175H141.176H139.706C139.706 183.122 133.122 189.706 125 189.706V191.176Z" fill="#29BDFC" fill-opacity="0.5" mask="url(#path-57-inside-15_4953_5689)"/>
<path d="M129.412 175C129.412 177.436 127.436 179.412 125 179.412C122.564 179.412 120.588 177.436 120.588 175C120.588 172.564 122.564 170.588 125 170.588C127.436 170.588 129.412 172.564 129.412 175Z" fill="#29BDFC"/>
<path d="M113.292 188.125L99.2368 202.179L97.8228 200.765L111.877 186.71L113.292 188.125ZM152.175 200.772L150.772 202.175L136.669 188.073L138.073 186.67L152.175 200.772ZM113.374 161.976L111.973 163.375L97.8276 149.23L99.2271 147.83L113.374 161.976ZM152.065 149.126L138.012 163.179L136.708 161.876L150.762 147.823L152.065 149.126Z" fill="#29BDFC" fill-opacity="0.5"/>
</g>
<g clip-path="url(#clip15_4953_5689)">
<mask id="path-61-inside-16_4953_5689" fill="white">
<path d="M191.176 175C191.176 183.934 183.934 191.176 175 191.176C166.066 191.176 158.824 183.934 158.824 175C158.824 166.066 166.066 158.824 175 158.824C183.934 158.824 191.176 166.066 191.176 175Z"/>
</mask>
<path d="M175 158.824V160.294C183.122 160.294 189.706 166.878 189.706 175H191.176H192.647C192.647 165.254 184.746 157.353 175 157.353V158.824ZM158.824 175H160.294C160.294 166.878 166.878 160.294 175 160.294V158.824V157.353C165.254 157.353 157.353 165.254 157.353 175H158.824ZM175 191.176V189.706C166.878 189.706 160.294 183.122 160.294 175H158.824H157.353C157.353 184.746 165.254 192.647 175 192.647V191.176ZM175 191.176V192.647C184.746 192.647 192.647 184.746 192.647 175H191.176H189.706C189.706 183.122 183.122 189.706 175 189.706V191.176Z" fill="#29BDFC" fill-opacity="0.5" mask="url(#path-61-inside-16_4953_5689)"/>
<path d="M179.412 175C179.412 177.436 177.436 179.412 175 179.412C172.564 179.412 170.588 177.436 170.588 175C170.588 172.564 172.564 170.588 175 170.588C177.436 170.588 179.412 172.564 179.412 175Z" fill="#29BDFC"/>
<path d="M163.292 188.125L149.237 202.179L147.823 200.765L161.877 186.71L163.292 188.125ZM202.175 200.772L200.772 202.175L186.669 188.073L188.073 186.67L202.175 200.772ZM163.374 161.976L161.973 163.375L147.828 149.23L149.227 147.83L163.374 161.976ZM202.065 149.126L188.012 163.179L186.708 161.876L200.762 147.823L202.065 149.126Z" fill="#29BDFC" fill-opacity="0.5"/>
</g>
<defs>
<clipPath id="clip0_4953_5689">
<rect width="50" height="50" fill="white"/>
</clipPath>
<clipPath id="clip1_4953_5689">
<rect width="50" height="50" fill="white" transform="translate(50)"/>
</clipPath>
<clipPath id="clip2_4953_5689">
<rect width="50" height="50" fill="white" transform="translate(100)"/>
</clipPath>
<clipPath id="clip3_4953_5689">
<rect width="50" height="50" fill="white" transform="translate(150)"/>
</clipPath>
<clipPath id="clip4_4953_5689">
<rect width="50" height="50" fill="white" transform="translate(0 50)"/>
</clipPath>
<clipPath id="clip5_4953_5689">
<rect width="50" height="50" fill="white" transform="translate(50 50)"/>
</clipPath>
<clipPath id="clip6_4953_5689">
<rect width="50" height="50" fill="white" transform="translate(100 50)"/>
</clipPath>
<clipPath id="clip7_4953_5689">
<rect width="50" height="50" fill="white" transform="translate(150 50)"/>
</clipPath>
<clipPath id="clip8_4953_5689">
<rect width="50" height="50" fill="white" transform="translate(0 100)"/>
</clipPath>
<clipPath id="clip9_4953_5689">
<rect width="50" height="50" fill="white" transform="translate(50 100)"/>
</clipPath>
<clipPath id="clip10_4953_5689">
<rect width="50" height="50" fill="white" transform="translate(100 100)"/>
</clipPath>
<clipPath id="clip11_4953_5689">
<rect width="50" height="50" fill="white" transform="translate(150 100)"/>
</clipPath>
<clipPath id="clip12_4953_5689">
<rect width="50" height="50" fill="white" transform="translate(0 150)"/>
</clipPath>
<clipPath id="clip13_4953_5689">
<rect width="50" height="50" fill="white" transform="translate(50 150)"/>
</clipPath>
<clipPath id="clip14_4953_5689">
<rect width="50" height="50" fill="white" transform="translate(100 150)"/>
</clipPath>
<clipPath id="clip15_4953_5689">
<rect width="50" height="50" fill="white" transform="translate(150 150)"/>
</clipPath>
</defs>
</svg>
