<svg width="200" height="200" viewBox="0 0 200 200" fill="none" xmlns="http://www.w3.org/2000/svg">
<g clip-path="url(#clip0_4953_4198)">
<path d="M-7.4834 0.154296L8.91406 0.154296L17.1123 14.3545L8.91406 28.5547L-7.4834 28.5547L-15.6816 14.3545L-7.4834 0.154296Z" stroke="#29BDFC" stroke-width="0.915642"/>
<path d="M-7.4834 28.7617L8.91406 28.7617L17.1123 42.9619L8.91406 57.1621L-7.4834 57.1621L-15.6816 42.9619L-7.4834 28.7617Z" stroke="#29BDFC" stroke-width="0.915642"/>
<path d="M-7.4834 57.3687L8.91406 57.3687L17.1123 71.5688L8.91406 85.769L-7.4834 85.769L-15.6816 71.5688L-7.4834 57.3687Z" stroke="#29BDFC" stroke-width="0.915642"/>
<path d="M-7.4834 85.9756L8.91406 85.9756L17.1123 100.176L8.91406 114.376L-7.4834 114.376L-15.6816 100.176L-7.4834 85.9756Z" stroke="#29BDFC" stroke-width="0.915642"/>
<path d="M-7.4834 114.583L8.91406 114.583L17.1123 128.783L8.91406 142.983L-7.4834 142.983L-15.6816 128.783L-7.4834 114.583Z" stroke="#29BDFC" stroke-width="0.915642"/>
<path d="M-7.4834 143.19L8.91406 143.19L17.1123 157.39L8.91406 171.59L-7.4834 171.59L-15.6816 157.39L-7.4834 143.19Z" stroke="#29BDFC" stroke-width="0.915642"/>
<path d="M-7.4834 171.797L8.91406 171.797L17.1123 185.997L8.91406 200.197L-7.4834 200.197L-15.6816 185.997L-7.4834 171.797Z" stroke="#29BDFC" stroke-width="0.915642"/>
<path d="M17.6035 -14.1489L34.001 -14.1489L42.1992 0.0512681L34.001 14.2515L17.6035 14.2515L9.40527 0.0512695L17.6035 -14.1489Z" stroke="#29BDFC" stroke-width="0.915642"/>
<path d="M17.6035 14.458L34.001 14.458L42.1992 28.6582L34.001 42.8584L17.6035 42.8584L9.40527 28.6582L17.6035 14.458Z" stroke="#29BDFC" stroke-width="0.915642"/>
<path d="M17.6035 43.0649L34.001 43.0649L42.1992 57.2651L34.001 71.4653L17.6035 71.4653L9.40527 57.2651L17.6035 43.0649Z" stroke="#29BDFC" stroke-width="0.915642"/>
<path d="M17.6035 71.6719L34.001 71.6719L42.1992 85.8721L34.001 100.072L17.6035 100.072L9.40527 85.8721L17.6035 71.6719Z" stroke="#29BDFC" stroke-width="0.915642"/>
<path d="M17.6035 100.279L34.001 100.279L42.1992 114.479L34.001 128.68L17.6035 128.68L9.40527 114.479L17.6035 100.279Z" stroke="#29BDFC" stroke-width="0.915642"/>
<path d="M17.6035 128.886L34.001 128.886L42.1992 143.086L34.001 157.287L17.6035 157.287L9.40527 143.086L17.6035 128.886Z" stroke="#29BDFC" stroke-width="0.915642"/>
<path d="M17.6035 157.493L34.001 157.493L42.1992 171.693L34.001 185.894L17.6035 185.894L9.40527 171.693L17.6035 157.493Z" stroke="#29BDFC" stroke-width="0.915642"/>
<path d="M17.6035 186.1L34.001 186.1L42.1992 200.3L34.001 214.5L17.6035 214.5L9.40527 200.3L17.6035 186.1Z" stroke="#29BDFC" stroke-width="0.915642"/>
<path d="M42.6909 0.154785L59.0884 0.154784L67.2866 14.355L59.0884 28.5552L42.6909 28.5552L34.4927 14.355L42.6909 0.154785Z" stroke="#29BDFC" stroke-width="0.915642"/>
<path d="M42.6909 28.7617L59.0884 28.7617L67.2866 42.9619L59.0884 57.1621L42.6909 57.1621L34.4927 42.9619L42.6909 28.7617Z" stroke="#29BDFC" stroke-width="0.915642"/>
<path d="M42.6909 57.3687L59.0884 57.3687L67.2866 71.5688L59.0884 85.769L42.6909 85.769L34.4927 71.5688L42.6909 57.3687Z" stroke="#29BDFC" stroke-width="0.915642"/>
<path d="M42.6909 85.9756L59.0884 85.9756L67.2866 100.176L59.0884 114.376L42.6909 114.376L34.4927 100.176L42.6909 85.9756Z" stroke="#29BDFC" stroke-width="0.915642"/>
<path d="M42.6909 114.583L59.0884 114.583L67.2866 128.783L59.0884 142.983L42.6909 142.983L34.4927 128.783L42.6909 114.583Z" stroke="#29BDFC" stroke-width="0.915642"/>
<path d="M42.6909 143.19L59.0884 143.19L67.2866 157.39L59.0884 171.59L42.6909 171.59L34.4927 157.39L42.6909 143.19Z" stroke="#29BDFC" stroke-width="0.915642"/>
<path d="M42.6909 171.797L59.0884 171.797L67.2866 185.997L59.0884 200.197L42.6909 200.197L34.4927 185.997L42.6909 171.797Z" stroke="#29BDFC" stroke-width="0.915642"/>
<path d="M67.7783 -14.1494L84.1758 -14.1494L92.374 0.0507798L84.1758 14.251L67.7783 14.251L59.5801 0.0507812L67.7783 -14.1494Z" stroke="#29BDFC" stroke-width="0.915642"/>
<path d="M67.7783 14.458L84.1758 14.458L92.374 28.6582L84.1758 42.8584L67.7783 42.8584L59.5801 28.6582L67.7783 14.458Z" stroke="#29BDFC" stroke-width="0.915642"/>
<path d="M67.7783 43.0649L84.1758 43.0649L92.374 57.2651L84.1758 71.4653L67.7783 71.4653L59.5801 57.2651L67.7783 43.0649Z" stroke="#29BDFC" stroke-width="0.915642"/>
<path d="M67.7783 71.6719L84.1758 71.6719L92.374 85.8721L84.1758 100.072L67.7783 100.072L59.5801 85.8721L67.7783 71.6719Z" stroke="#29BDFC" stroke-width="0.915642"/>
<path d="M67.7783 100.279L84.1758 100.279L92.374 114.479L84.1758 128.68L67.7783 128.68L59.5801 114.479L67.7783 100.279Z" stroke="#29BDFC" stroke-width="0.915642"/>
<path d="M67.7783 128.886L84.1758 128.886L92.374 143.086L84.1758 157.287L67.7783 157.287L59.5801 143.086L67.7783 128.886Z" stroke="#29BDFC" stroke-width="0.915642"/>
<path d="M67.7783 157.493L84.1758 157.493L92.374 171.693L84.1758 185.894L67.7783 185.894L59.5801 171.693L67.7783 157.493Z" stroke="#29BDFC" stroke-width="0.915642"/>
<path d="M67.7783 186.1L84.1758 186.1L92.374 200.3L84.1758 214.5L67.7783 214.5L59.5801 200.3L67.7783 186.1Z" stroke="#29BDFC" stroke-width="0.915642"/>
<path d="M92.8652 0.154785L109.263 0.154784L117.461 14.355L109.263 28.5552L92.8652 28.5552L84.667 14.355L92.8652 0.154785Z" stroke="#29BDFC" stroke-width="0.915642"/>
<path d="M92.8652 28.7617L109.263 28.7617L117.461 42.9619L109.263 57.1621L92.8652 57.1621L84.667 42.9619L92.8652 28.7617Z" stroke="#29BDFC" stroke-width="0.915642"/>
<path d="M92.8652 57.3687L109.263 57.3687L117.461 71.5688L109.263 85.769L92.8652 85.769L84.667 71.5688L92.8652 57.3687Z" stroke="#29BDFC" stroke-width="0.915642"/>
<path d="M92.8652 85.9756L109.263 85.9756L117.461 100.176L109.263 114.376L92.8652 114.376L84.667 100.176L92.8652 85.9756Z" stroke="#29BDFC" stroke-width="0.915642"/>
<path d="M92.8652 114.583L109.263 114.583L117.461 128.783L109.263 142.983L92.8652 142.983L84.667 128.783L92.8652 114.583Z" stroke="#29BDFC" stroke-width="0.915642"/>
<path d="M92.8652 143.19L109.263 143.19L117.461 157.39L109.263 171.59L92.8652 171.59L84.667 157.39L92.8652 143.19Z" stroke="#29BDFC" stroke-width="0.915642"/>
<path d="M92.8652 171.797L109.263 171.797L117.461 185.997L109.263 200.197L92.8652 200.197L84.667 185.997L92.8652 171.797Z" stroke="#29BDFC" stroke-width="0.915642"/>
<path d="M117.953 -14.1494L134.35 -14.1494L142.548 0.0507798L134.35 14.251L117.953 14.251L109.754 0.0507812L117.953 -14.1494Z" stroke="#29BDFC" stroke-width="0.915642"/>
<path d="M117.953 14.458L134.35 14.458L142.548 28.6582L134.35 42.8584L117.953 42.8584L109.754 28.6582L117.953 14.458Z" stroke="#29BDFC" stroke-width="0.915642"/>
<path d="M117.953 43.0649L134.35 43.0649L142.548 57.2651L134.35 71.4653L117.953 71.4653L109.754 57.2651L117.953 43.0649Z" stroke="#29BDFC" stroke-width="0.915642"/>
<path d="M117.953 71.6719L134.35 71.6719L142.548 85.8721L134.35 100.072L117.953 100.072L109.754 85.8721L117.953 71.6719Z" stroke="#29BDFC" stroke-width="0.915642"/>
<path d="M117.953 100.279L134.35 100.279L142.548 114.479L134.35 128.68L117.953 128.68L109.754 114.479L117.953 100.279Z" stroke="#29BDFC" stroke-width="0.915642"/>
<path d="M117.953 128.886L134.35 128.886L142.548 143.086L134.35 157.287L117.953 157.287L109.754 143.086L117.953 128.886Z" stroke="#29BDFC" stroke-width="0.915642"/>
<path d="M117.953 157.493L134.35 157.493L142.548 171.693L134.35 185.894L117.953 185.894L109.754 171.693L117.953 157.493Z" stroke="#29BDFC" stroke-width="0.915642"/>
<path d="M117.953 186.1L134.35 186.1L142.548 200.3L134.35 214.5L117.953 214.5L109.754 200.3L117.953 186.1Z" stroke="#29BDFC" stroke-width="0.915642"/>
<path d="M143.04 0.154785L159.437 0.154784L167.636 14.355L159.437 28.5552L143.04 28.5552L134.842 14.355L143.04 0.154785Z" stroke="#29BDFC" stroke-width="0.915642"/>
<path d="M143.04 28.7617L159.437 28.7617L167.636 42.9619L159.437 57.1621L143.04 57.1621L134.842 42.9619L143.04 28.7617Z" stroke="#29BDFC" stroke-width="0.915642"/>
<path d="M143.04 57.3687L159.437 57.3687L167.636 71.5688L159.437 85.769L143.04 85.769L134.842 71.5688L143.04 57.3687Z" stroke="#29BDFC" stroke-width="0.915642"/>
<path d="M143.04 85.9756L159.437 85.9756L167.636 100.176L159.437 114.376L143.04 114.376L134.842 100.176L143.04 85.9756Z" stroke="#29BDFC" stroke-width="0.915642"/>
<path d="M143.04 114.583L159.437 114.583L167.636 128.783L159.437 142.983L143.04 142.983L134.842 128.783L143.04 114.583Z" stroke="#29BDFC" stroke-width="0.915642"/>
<path d="M143.04 143.19L159.437 143.19L167.636 157.39L159.437 171.59L143.04 171.59L134.842 157.39L143.04 143.19Z" stroke="#29BDFC" stroke-width="0.915642"/>
<path d="M143.04 171.797L159.437 171.797L167.636 185.997L159.437 200.197L143.04 200.197L134.842 185.997L143.04 171.797Z" stroke="#29BDFC" stroke-width="0.915642"/>
<path d="M168.127 -14.1494L184.524 -14.1494L192.723 0.0507798L184.524 14.251L168.127 14.251L159.929 0.0507812L168.127 -14.1494Z" stroke="#29BDFC" stroke-width="0.915642"/>
<path d="M168.127 14.458L184.524 14.458L192.723 28.6582L184.524 42.8584L168.127 42.8584L159.929 28.6582L168.127 14.458Z" stroke="#29BDFC" stroke-width="0.915642"/>
<path d="M168.127 43.0649L184.524 43.0649L192.723 57.2651L184.524 71.4653L168.127 71.4653L159.929 57.2651L168.127 43.0649Z" stroke="#29BDFC" stroke-width="0.915642"/>
<path d="M168.127 71.6719L184.524 71.6719L192.723 85.8721L184.524 100.072L168.127 100.072L159.929 85.8721L168.127 71.6719Z" stroke="#29BDFC" stroke-width="0.915642"/>
<path d="M168.127 100.279L184.524 100.279L192.723 114.479L184.524 128.68L168.127 128.68L159.929 114.479L168.127 100.279Z" stroke="#29BDFC" stroke-width="0.915642"/>
<path d="M168.127 128.886L184.524 128.886L192.723 143.086L184.524 157.287L168.127 157.287L159.929 143.086L168.127 128.886Z" stroke="#29BDFC" stroke-width="0.915642"/>
<path d="M168.127 157.493L184.524 157.493L192.723 171.693L184.524 185.894L168.127 185.894L159.929 171.693L168.127 157.493Z" stroke="#29BDFC" stroke-width="0.915642"/>
<path d="M168.127 186.1L184.524 186.1L192.723 200.3L184.524 214.5L168.127 214.5L159.929 200.3L168.127 186.1Z" stroke="#29BDFC" stroke-width="0.915642"/>
<path d="M193.214 0.154785L209.612 0.154784L217.81 14.355L209.612 28.5552L193.214 28.5552L185.016 14.355L193.214 0.154785Z" stroke="#29BDFC" stroke-width="0.915642"/>
<path d="M193.214 28.7617L209.612 28.7617L217.81 42.9619L209.612 57.1621L193.214 57.1621L185.016 42.9619L193.214 28.7617Z" stroke="#29BDFC" stroke-width="0.915642"/>
<path d="M193.214 57.3687L209.612 57.3687L217.81 71.5688L209.612 85.769L193.214 85.769L185.016 71.5688L193.214 57.3687Z" stroke="#29BDFC" stroke-width="0.915642"/>
<path d="M193.214 85.9756L209.612 85.9756L217.81 100.176L209.612 114.376L193.214 114.376L185.016 100.176L193.214 85.9756Z" stroke="#29BDFC" stroke-width="0.915642"/>
<path d="M193.214 114.583L209.612 114.583L217.81 128.783L209.612 142.983L193.214 142.983L185.016 128.783L193.214 114.583Z" stroke="#29BDFC" stroke-width="0.915642"/>
<path d="M193.214 143.19L209.612 143.19L217.81 157.39L209.612 171.59L193.214 171.59L185.016 157.39L193.214 143.19Z" stroke="#29BDFC" stroke-width="0.915642"/>
<path d="M193.214 171.797L209.612 171.797L217.81 185.997L209.612 200.197L193.214 200.197L185.016 185.997L193.214 171.797Z" stroke="#29BDFC" stroke-width="0.915642"/>
</g>
<defs>
<clipPath id="clip0_4953_4198">
<rect width="200" height="200" fill="white"/>
</clipPath>
</defs>
</svg>
