<svg width="200" height="200" viewBox="0 0 200 200" fill="none" xmlns="http://www.w3.org/2000/svg">
<rect x="23.4043" y="23.4043" width="3.19149" height="3.19149" rx="1.59574" fill="#29BDFC"/>
<rect x="20.7129" y="20.7129" width="8.57447" height="8.57447" rx="4.28723" stroke="#29BDFC"/>
<rect x="24.4683" width="1.06383" height="24.4681" fill="#29BDFC" fill-opacity="0.4"/>
<rect x="24.4683" y="25.5317" width="1.06383" height="24.4681" fill="#29BDFC" fill-opacity="0.4"/>
<rect x="50" y="24.4683" width="1.06383" height="24.4681" transform="rotate(90 50 24.4683)" fill="#29BDFC" fill-opacity="0.4"/>
<rect x="24.4683" y="24.4683" width="1.06383" height="24.4681" transform="rotate(90 24.4683 24.4683)" fill="#29BDFC" fill-opacity="0.4"/>
<rect x="23.4043" y="73.4043" width="3.19149" height="3.19149" rx="1.59574" fill="#29BDFC"/>
<rect x="20.7129" y="70.7129" width="8.57447" height="8.57447" rx="4.28723" stroke="#29BDFC"/>
<rect x="24.4683" y="50" width="1.06383" height="24.4681" fill="#29BDFC" fill-opacity="0.4"/>
<rect x="24.4683" y="75.5317" width="1.06383" height="24.4681" fill="#29BDFC" fill-opacity="0.4"/>
<rect x="50" y="74.4683" width="1.06383" height="24.4681" transform="rotate(90 50 74.4683)" fill="#29BDFC" fill-opacity="0.4"/>
<rect x="24.4683" y="74.4683" width="1.06383" height="24.4681" transform="rotate(90 24.4683 74.4683)" fill="#29BDFC" fill-opacity="0.4"/>
<rect x="23.4043" y="123.404" width="3.19149" height="3.19149" rx="1.59574" fill="#29BDFC"/>
<rect x="20.7129" y="120.713" width="8.57447" height="8.57447" rx="4.28723" stroke="#29BDFC"/>
<rect x="24.4683" y="100" width="1.06383" height="24.4681" fill="#29BDFC" fill-opacity="0.4"/>
<rect x="24.4683" y="125.532" width="1.06383" height="24.4681" fill="#29BDFC" fill-opacity="0.4"/>
<rect x="50" y="124.468" width="1.06383" height="24.4681" transform="rotate(90 50 124.468)" fill="#29BDFC" fill-opacity="0.4"/>
<rect x="24.4683" y="124.468" width="1.06383" height="24.4681" transform="rotate(90 24.4683 124.468)" fill="#29BDFC" fill-opacity="0.4"/>
<rect x="23.4043" y="173.404" width="3.19149" height="3.19149" rx="1.59574" fill="#29BDFC"/>
<rect x="20.7129" y="170.713" width="8.57447" height="8.57447" rx="4.28723" stroke="#29BDFC"/>
<rect x="24.4683" y="150" width="1.06383" height="24.4681" fill="#29BDFC" fill-opacity="0.4"/>
<rect x="24.4683" y="175.532" width="1.06383" height="24.4681" fill="#29BDFC" fill-opacity="0.4"/>
<rect x="50" y="174.468" width="1.06383" height="24.4681" transform="rotate(90 50 174.468)" fill="#29BDFC" fill-opacity="0.4"/>
<rect x="24.4683" y="174.468" width="1.06383" height="24.4681" transform="rotate(90 24.4683 174.468)" fill="#29BDFC" fill-opacity="0.4"/>
<rect x="73.4043" y="23.4043" width="3.19149" height="3.19149" rx="1.59574" fill="#29BDFC"/>
<rect x="70.7129" y="20.7129" width="8.57447" height="8.57447" rx="4.28723" stroke="#29BDFC"/>
<rect x="74.4683" width="1.06383" height="24.4681" fill="#29BDFC" fill-opacity="0.4"/>
<rect x="74.4683" y="25.5317" width="1.06383" height="24.4681" fill="#29BDFC" fill-opacity="0.4"/>
<rect x="100" y="24.4683" width="1.06383" height="24.4681" transform="rotate(90 100 24.4683)" fill="#29BDFC" fill-opacity="0.4"/>
<rect x="74.4683" y="24.4683" width="1.06383" height="24.4681" transform="rotate(90 74.4683 24.4683)" fill="#29BDFC" fill-opacity="0.4"/>
<rect x="123.404" y="23.4043" width="3.19149" height="3.19149" rx="1.59574" fill="#29BDFC"/>
<rect x="120.713" y="20.7129" width="8.57447" height="8.57447" rx="4.28723" stroke="#29BDFC"/>
<rect x="124.468" width="1.06383" height="24.4681" fill="#29BDFC" fill-opacity="0.4"/>
<rect x="124.468" y="25.5317" width="1.06383" height="24.4681" fill="#29BDFC" fill-opacity="0.4"/>
<rect x="150" y="24.4683" width="1.06383" height="24.4681" transform="rotate(90 150 24.4683)" fill="#29BDFC" fill-opacity="0.4"/>
<rect x="124.468" y="24.4683" width="1.06383" height="24.4681" transform="rotate(90 124.468 24.4683)" fill="#29BDFC" fill-opacity="0.4"/>
<rect x="173.404" y="23.4043" width="3.19149" height="3.19149" rx="1.59574" fill="#29BDFC"/>
<rect x="170.713" y="20.7129" width="8.57447" height="8.57447" rx="4.28723" stroke="#29BDFC"/>
<rect x="174.468" width="1.06383" height="24.4681" fill="#29BDFC" fill-opacity="0.4"/>
<rect x="174.468" y="25.5317" width="1.06383" height="24.4681" fill="#29BDFC" fill-opacity="0.4"/>
<rect x="200" y="24.4683" width="1.06383" height="24.4681" transform="rotate(90 200 24.4683)" fill="#29BDFC" fill-opacity="0.4"/>
<rect x="174.468" y="24.4683" width="1.06383" height="24.4681" transform="rotate(90 174.468 24.4683)" fill="#29BDFC" fill-opacity="0.4"/>
<rect x="73.4043" y="73.4043" width="3.19149" height="3.19149" rx="1.59574" fill="#29BDFC"/>
<rect x="70.7129" y="70.7129" width="8.57447" height="8.57447" rx="4.28723" stroke="#29BDFC"/>
<rect x="74.4683" y="50" width="1.06383" height="24.4681" fill="#29BDFC" fill-opacity="0.4"/>
<rect x="74.4683" y="75.5317" width="1.06383" height="24.4681" fill="#29BDFC" fill-opacity="0.4"/>
<rect x="100" y="74.4683" width="1.06383" height="24.4681" transform="rotate(90 100 74.4683)" fill="#29BDFC" fill-opacity="0.4"/>
<rect x="74.4683" y="74.4683" width="1.06383" height="24.4681" transform="rotate(90 74.4683 74.4683)" fill="#29BDFC" fill-opacity="0.4"/>
<rect x="73.4043" y="123.404" width="3.19149" height="3.19149" rx="1.59574" fill="#29BDFC"/>
<rect x="70.7129" y="120.713" width="8.57447" height="8.57447" rx="4.28723" stroke="#29BDFC"/>
<rect x="74.4683" y="100" width="1.06383" height="24.4681" fill="#29BDFC" fill-opacity="0.4"/>
<rect x="74.4683" y="125.532" width="1.06383" height="24.4681" fill="#29BDFC" fill-opacity="0.4"/>
<rect x="100" y="124.468" width="1.06383" height="24.4681" transform="rotate(90 100 124.468)" fill="#29BDFC" fill-opacity="0.4"/>
<rect x="74.4683" y="124.468" width="1.06383" height="24.4681" transform="rotate(90 74.4683 124.468)" fill="#29BDFC" fill-opacity="0.4"/>
<rect x="73.4043" y="173.404" width="3.19149" height="3.19149" rx="1.59574" fill="#29BDFC"/>
<rect x="70.7129" y="170.713" width="8.57447" height="8.57447" rx="4.28723" stroke="#29BDFC"/>
<rect x="74.4683" y="150" width="1.06383" height="24.4681" fill="#29BDFC" fill-opacity="0.4"/>
<rect x="74.4683" y="175.532" width="1.06383" height="24.4681" fill="#29BDFC" fill-opacity="0.4"/>
<rect x="100" y="174.468" width="1.06383" height="24.4681" transform="rotate(90 100 174.468)" fill="#29BDFC" fill-opacity="0.4"/>
<rect x="74.4683" y="174.468" width="1.06383" height="24.4681" transform="rotate(90 74.4683 174.468)" fill="#29BDFC" fill-opacity="0.4"/>
<rect x="123.404" y="73.4043" width="3.19149" height="3.19149" rx="1.59574" fill="#29BDFC"/>
<rect x="120.713" y="70.7129" width="8.57447" height="8.57447" rx="4.28723" stroke="#29BDFC"/>
<rect x="124.468" y="50" width="1.06383" height="24.4681" fill="#29BDFC" fill-opacity="0.4"/>
<rect x="124.468" y="75.5317" width="1.06383" height="24.4681" fill="#29BDFC" fill-opacity="0.4"/>
<rect x="150" y="74.4683" width="1.06383" height="24.4681" transform="rotate(90 150 74.4683)" fill="#29BDFC" fill-opacity="0.4"/>
<rect x="124.468" y="74.4683" width="1.06383" height="24.4681" transform="rotate(90 124.468 74.4683)" fill="#29BDFC" fill-opacity="0.4"/>
<rect x="123.404" y="123.404" width="3.19149" height="3.19149" rx="1.59574" fill="#29BDFC"/>
<rect x="120.713" y="120.713" width="8.57447" height="8.57447" rx="4.28723" stroke="#29BDFC"/>
<rect x="124.468" y="100" width="1.06383" height="24.4681" fill="#29BDFC" fill-opacity="0.4"/>
<rect x="124.468" y="125.532" width="1.06383" height="24.4681" fill="#29BDFC" fill-opacity="0.4"/>
<rect x="150" y="124.468" width="1.06383" height="24.4681" transform="rotate(90 150 124.468)" fill="#29BDFC" fill-opacity="0.4"/>
<rect x="124.468" y="124.468" width="1.06383" height="24.4681" transform="rotate(90 124.468 124.468)" fill="#29BDFC" fill-opacity="0.4"/>
<rect x="123.404" y="173.404" width="3.19149" height="3.19149" rx="1.59574" fill="#29BDFC"/>
<rect x="120.713" y="170.713" width="8.57447" height="8.57447" rx="4.28723" stroke="#29BDFC"/>
<rect x="124.468" y="150" width="1.06383" height="24.4681" fill="#29BDFC" fill-opacity="0.4"/>
<rect x="124.468" y="175.532" width="1.06383" height="24.4681" fill="#29BDFC" fill-opacity="0.4"/>
<rect x="150" y="174.468" width="1.06383" height="24.4681" transform="rotate(90 150 174.468)" fill="#29BDFC" fill-opacity="0.4"/>
<rect x="124.468" y="174.468" width="1.06383" height="24.4681" transform="rotate(90 124.468 174.468)" fill="#29BDFC" fill-opacity="0.4"/>
<rect x="173.404" y="73.4043" width="3.19149" height="3.19149" rx="1.59574" fill="#29BDFC"/>
<rect x="170.713" y="70.7129" width="8.57447" height="8.57447" rx="4.28723" stroke="#29BDFC"/>
<rect x="174.468" y="50" width="1.06383" height="24.4681" fill="#29BDFC" fill-opacity="0.4"/>
<rect x="174.468" y="75.5317" width="1.06383" height="24.4681" fill="#29BDFC" fill-opacity="0.4"/>
<rect x="200" y="74.4683" width="1.06383" height="24.4681" transform="rotate(90 200 74.4683)" fill="#29BDFC" fill-opacity="0.4"/>
<rect x="174.468" y="74.4683" width="1.06383" height="24.4681" transform="rotate(90 174.468 74.4683)" fill="#29BDFC" fill-opacity="0.4"/>
<rect x="173.404" y="123.404" width="3.19149" height="3.19149" rx="1.59574" fill="#29BDFC"/>
<rect x="170.713" y="120.713" width="8.57447" height="8.57447" rx="4.28723" stroke="#29BDFC"/>
<rect x="174.468" y="100" width="1.06383" height="24.4681" fill="#29BDFC" fill-opacity="0.4"/>
<rect x="174.468" y="125.532" width="1.06383" height="24.4681" fill="#29BDFC" fill-opacity="0.4"/>
<rect x="200" y="124.468" width="1.06383" height="24.4681" transform="rotate(90 200 124.468)" fill="#29BDFC" fill-opacity="0.4"/>
<rect x="174.468" y="124.468" width="1.06383" height="24.4681" transform="rotate(90 174.468 124.468)" fill="#29BDFC" fill-opacity="0.4"/>
<rect x="173.404" y="173.404" width="3.19149" height="3.19149" rx="1.59574" fill="#29BDFC"/>
<rect x="170.713" y="170.713" width="8.57447" height="8.57447" rx="4.28723" stroke="#29BDFC"/>
<rect x="174.468" y="150" width="1.06383" height="24.4681" fill="#29BDFC" fill-opacity="0.4"/>
<rect x="174.468" y="175.532" width="1.06383" height="24.4681" fill="#29BDFC" fill-opacity="0.4"/>
<rect x="200" y="174.468" width="1.06383" height="24.4681" transform="rotate(90 200 174.468)" fill="#29BDFC" fill-opacity="0.4"/>
<rect x="174.468" y="174.468" width="1.06383" height="24.4681" transform="rotate(90 174.468 174.468)" fill="#29BDFC" fill-opacity="0.4"/>
</svg>
