<svg width="200" height="200" viewBox="0 0 200 200" fill="none" xmlns="http://www.w3.org/2000/svg">
<mask id="path-1-inside-1_4953_4620" fill="white">
<path d="M36.8418 6.5791L43.4209 13.1582V36.8418L36.8418 43.4209H13.1582L6.5791 36.8418V13.1582L13.1582 6.5791H36.8418Z"/>
</mask>
<path d="M36.8418 6.5791L37.5489 5.87199L37.256 5.5791H36.8418V6.5791ZM43.4209 13.1582H44.4209V12.744L44.128 12.4511L43.4209 13.1582ZM43.4209 36.8418L44.128 37.5489L44.4209 37.256V36.8418H43.4209ZM36.8418 43.4209V44.4209H37.256L37.5489 44.128L36.8418 43.4209ZM13.1582 43.4209L12.4511 44.128L12.744 44.4209H13.1582V43.4209ZM6.5791 36.8418H5.5791V37.256L5.87199 37.5489L6.5791 36.8418ZM6.5791 13.1582L5.87199 12.4511L5.5791 12.744V13.1582H6.5791ZM13.1582 6.5791V5.5791H12.744L12.4511 5.87199L13.1582 6.5791ZM36.8418 6.5791L36.1347 7.28621L42.7138 13.8653L43.4209 13.1582L44.128 12.4511L37.5489 5.87199L36.8418 6.5791ZM43.4209 13.1582H42.4209V36.8418H43.4209H44.4209V13.1582H43.4209ZM43.4209 36.8418L42.7138 36.1347L36.1347 42.7138L36.8418 43.4209L37.5489 44.128L44.128 37.5489L43.4209 36.8418ZM36.8418 43.4209V42.4209H13.1582V43.4209V44.4209H36.8418V43.4209ZM13.1582 43.4209L13.8653 42.7138L7.28621 36.1347L6.5791 36.8418L5.87199 37.5489L12.4511 44.128L13.1582 43.4209ZM6.5791 36.8418H7.5791V13.1582H6.5791H5.5791V36.8418H6.5791ZM6.5791 13.1582L7.28621 13.8653L13.8653 7.28621L13.1582 6.5791L12.4511 5.87199L5.87199 12.4511L6.5791 13.1582ZM13.1582 6.5791V7.5791H36.8418V6.5791V5.5791H13.1582V6.5791Z" fill="#29BDFC" mask="url(#path-1-inside-1_4953_4620)"/>
<path d="M9.21289 43.4229L6.58008 46.0557L3.94727 43.4229L6.58008 40.7891L9.21289 43.4229ZM46.0557 43.4229L43.4219 46.0557L40.7891 43.4229L43.4219 40.7891L46.0557 43.4229ZM9.21191 6.58008L6.5791 9.21387L3.94629 6.58008L6.5791 3.94727L9.21191 6.58008ZM46.0518 6.5791L43.4199 9.21094L40.7881 6.5791L43.4199 3.94727L46.0518 6.5791Z" fill="#29BDFC"/>
<mask id="path-4-inside-2_4953_4620" fill="white">
<path d="M86.8418 6.5791L93.4209 13.1582V36.8418L86.8418 43.4209H63.1582L56.5791 36.8418V13.1582L63.1582 6.5791H86.8418Z"/>
</mask>
<path d="M86.8418 6.5791L87.5489 5.87199L87.256 5.5791H86.8418V6.5791ZM93.4209 13.1582H94.4209V12.744L94.128 12.4511L93.4209 13.1582ZM93.4209 36.8418L94.128 37.5489L94.4209 37.256V36.8418H93.4209ZM86.8418 43.4209V44.4209H87.256L87.5489 44.128L86.8418 43.4209ZM63.1582 43.4209L62.4511 44.128L62.744 44.4209H63.1582V43.4209ZM56.5791 36.8418H55.5791V37.256L55.872 37.5489L56.5791 36.8418ZM56.5791 13.1582L55.872 12.4511L55.5791 12.744V13.1582H56.5791ZM63.1582 6.5791V5.5791H62.744L62.4511 5.87199L63.1582 6.5791ZM86.8418 6.5791L86.1347 7.28621L92.7138 13.8653L93.4209 13.1582L94.128 12.4511L87.5489 5.87199L86.8418 6.5791ZM93.4209 13.1582H92.4209V36.8418H93.4209H94.4209V13.1582H93.4209ZM93.4209 36.8418L92.7138 36.1347L86.1347 42.7138L86.8418 43.4209L87.5489 44.128L94.128 37.5489L93.4209 36.8418ZM86.8418 43.4209V42.4209H63.1582V43.4209V44.4209H86.8418V43.4209ZM63.1582 43.4209L63.8653 42.7138L57.2862 36.1347L56.5791 36.8418L55.872 37.5489L62.4511 44.128L63.1582 43.4209ZM56.5791 36.8418H57.5791V13.1582H56.5791H55.5791V36.8418H56.5791ZM56.5791 13.1582L57.2862 13.8653L63.8653 7.28621L63.1582 6.5791L62.4511 5.87199L55.872 12.4511L56.5791 13.1582ZM63.1582 6.5791V7.5791H86.8418V6.5791V5.5791H63.1582V6.5791Z" fill="#29BDFC" mask="url(#path-4-inside-2_4953_4620)"/>
<path d="M59.2129 43.4229L56.5801 46.0557L53.9473 43.4229L56.5801 40.7891L59.2129 43.4229ZM96.0557 43.4229L93.4219 46.0557L90.7891 43.4229L93.4219 40.7891L96.0557 43.4229ZM59.2119 6.58008L56.5791 9.21387L53.9463 6.58008L56.5791 3.94727L59.2119 6.58008ZM96.0518 6.5791L93.4199 9.21094L90.7881 6.5791L93.4199 3.94727L96.0518 6.5791Z" fill="#29BDFC"/>
<mask id="path-7-inside-3_4953_4620" fill="white">
<path d="M136.842 6.5791L143.421 13.1582V36.8418L136.842 43.4209H113.158L106.579 36.8418V13.1582L113.158 6.5791H136.842Z"/>
</mask>
<path d="M136.842 6.5791L137.549 5.87199L137.256 5.5791H136.842V6.5791ZM143.421 13.1582H144.421V12.744L144.128 12.4511L143.421 13.1582ZM143.421 36.8418L144.128 37.5489L144.421 37.256V36.8418H143.421ZM136.842 43.4209V44.4209H137.256L137.549 44.128L136.842 43.4209ZM113.158 43.4209L112.451 44.128L112.744 44.4209H113.158V43.4209ZM106.579 36.8418H105.579V37.256L105.872 37.5489L106.579 36.8418ZM106.579 13.1582L105.872 12.4511L105.579 12.744V13.1582H106.579ZM113.158 6.5791V5.5791H112.744L112.451 5.87199L113.158 6.5791ZM136.842 6.5791L136.135 7.28621L142.714 13.8653L143.421 13.1582L144.128 12.4511L137.549 5.87199L136.842 6.5791ZM143.421 13.1582H142.421V36.8418H143.421H144.421V13.1582H143.421ZM143.421 36.8418L142.714 36.1347L136.135 42.7138L136.842 43.4209L137.549 44.128L144.128 37.5489L143.421 36.8418ZM136.842 43.4209V42.4209H113.158V43.4209V44.4209H136.842V43.4209ZM113.158 43.4209L113.865 42.7138L107.286 36.1347L106.579 36.8418L105.872 37.5489L112.451 44.128L113.158 43.4209ZM106.579 36.8418H107.579V13.1582H106.579H105.579V36.8418H106.579ZM106.579 13.1582L107.286 13.8653L113.865 7.28621L113.158 6.5791L112.451 5.87199L105.872 12.4511L106.579 13.1582ZM113.158 6.5791V7.5791H136.842V6.5791V5.5791H113.158V6.5791Z" fill="#29BDFC" mask="url(#path-7-inside-3_4953_4620)"/>
<path d="M109.213 43.4229L106.58 46.0557L103.947 43.4229L106.58 40.7891L109.213 43.4229ZM146.056 43.4229L143.422 46.0557L140.789 43.4229L143.422 40.7891L146.056 43.4229ZM109.212 6.58008L106.579 9.21387L103.946 6.58008L106.579 3.94727L109.212 6.58008ZM146.052 6.5791L143.42 9.21094L140.788 6.5791L143.42 3.94727L146.052 6.5791Z" fill="#29BDFC"/>
<mask id="path-10-inside-4_4953_4620" fill="white">
<path d="M186.842 6.5791L193.421 13.1582V36.8418L186.842 43.4209H163.158L156.579 36.8418V13.1582L163.158 6.5791H186.842Z"/>
</mask>
<path d="M186.842 6.5791L187.549 5.87199L187.256 5.5791H186.842V6.5791ZM193.421 13.1582H194.421V12.744L194.128 12.4511L193.421 13.1582ZM193.421 36.8418L194.128 37.5489L194.421 37.256V36.8418H193.421ZM186.842 43.4209V44.4209H187.256L187.549 44.128L186.842 43.4209ZM163.158 43.4209L162.451 44.128L162.744 44.4209H163.158V43.4209ZM156.579 36.8418H155.579V37.256L155.872 37.5489L156.579 36.8418ZM156.579 13.1582L155.872 12.4511L155.579 12.744V13.1582H156.579ZM163.158 6.5791V5.5791H162.744L162.451 5.87199L163.158 6.5791ZM186.842 6.5791L186.135 7.28621L192.714 13.8653L193.421 13.1582L194.128 12.4511L187.549 5.87199L186.842 6.5791ZM193.421 13.1582H192.421V36.8418H193.421H194.421V13.1582H193.421ZM193.421 36.8418L192.714 36.1347L186.135 42.7138L186.842 43.4209L187.549 44.128L194.128 37.5489L193.421 36.8418ZM186.842 43.4209V42.4209H163.158V43.4209V44.4209H186.842V43.4209ZM163.158 43.4209L163.865 42.7138L157.286 36.1347L156.579 36.8418L155.872 37.5489L162.451 44.128L163.158 43.4209ZM156.579 36.8418H157.579V13.1582H156.579H155.579V36.8418H156.579ZM156.579 13.1582L157.286 13.8653L163.865 7.28621L163.158 6.5791L162.451 5.87199L155.872 12.4511L156.579 13.1582ZM163.158 6.5791V7.5791H186.842V6.5791V5.5791H163.158V6.5791Z" fill="#29BDFC" mask="url(#path-10-inside-4_4953_4620)"/>
<path d="M159.213 43.4229L156.58 46.0557L153.947 43.4229L156.58 40.7891L159.213 43.4229ZM196.056 43.4229L193.422 46.0557L190.789 43.4229L193.422 40.7891L196.056 43.4229ZM159.212 6.58008L156.579 9.21387L153.946 6.58008L156.579 3.94727L159.212 6.58008ZM196.052 6.5791L193.42 9.21094L190.788 6.5791L193.42 3.94727L196.052 6.5791Z" fill="#29BDFC"/>
<mask id="path-13-inside-5_4953_4620" fill="white">
<path d="M36.8418 56.5791L43.4209 63.1582V86.8418L36.8418 93.4209H13.1582L6.5791 86.8418V63.1582L13.1582 56.5791H36.8418Z"/>
</mask>
<path d="M36.8418 56.5791L37.5489 55.872L37.256 55.5791H36.8418V56.5791ZM43.4209 63.1582H44.4209V62.744L44.128 62.4511L43.4209 63.1582ZM43.4209 86.8418L44.128 87.5489L44.4209 87.256V86.8418H43.4209ZM36.8418 93.4209V94.4209H37.256L37.5489 94.128L36.8418 93.4209ZM13.1582 93.4209L12.4511 94.128L12.744 94.4209H13.1582V93.4209ZM6.5791 86.8418H5.5791V87.256L5.87199 87.5489L6.5791 86.8418ZM6.5791 63.1582L5.87199 62.4511L5.5791 62.744V63.1582H6.5791ZM13.1582 56.5791V55.5791H12.744L12.4511 55.872L13.1582 56.5791ZM36.8418 56.5791L36.1347 57.2862L42.7138 63.8653L43.4209 63.1582L44.128 62.4511L37.5489 55.872L36.8418 56.5791ZM43.4209 63.1582H42.4209V86.8418H43.4209H44.4209V63.1582H43.4209ZM43.4209 86.8418L42.7138 86.1347L36.1347 92.7138L36.8418 93.4209L37.5489 94.128L44.128 87.5489L43.4209 86.8418ZM36.8418 93.4209V92.4209H13.1582V93.4209V94.4209H36.8418V93.4209ZM13.1582 93.4209L13.8653 92.7138L7.28621 86.1347L6.5791 86.8418L5.87199 87.5489L12.4511 94.128L13.1582 93.4209ZM6.5791 86.8418H7.5791V63.1582H6.5791H5.5791V86.8418H6.5791ZM6.5791 63.1582L7.28621 63.8653L13.8653 57.2862L13.1582 56.5791L12.4511 55.872L5.87199 62.4511L6.5791 63.1582ZM13.1582 56.5791V57.5791H36.8418V56.5791V55.5791H13.1582V56.5791Z" fill="#29BDFC" mask="url(#path-13-inside-5_4953_4620)"/>
<path d="M9.21289 93.4229L6.58008 96.0557L3.94727 93.4229L6.58008 90.7891L9.21289 93.4229ZM46.0557 93.4229L43.4219 96.0557L40.7891 93.4229L43.4219 90.7891L46.0557 93.4229ZM9.21191 56.5801L6.5791 59.2139L3.94629 56.5801L6.5791 53.9473L9.21191 56.5801ZM46.0518 56.5791L43.4199 59.2109L40.7881 56.5791L43.4199 53.9473L46.0518 56.5791Z" fill="#29BDFC"/>
<mask id="path-16-inside-6_4953_4620" fill="white">
<path d="M86.8418 56.5791L93.4209 63.1582V86.8418L86.8418 93.4209H63.1582L56.5791 86.8418V63.1582L63.1582 56.5791H86.8418Z"/>
</mask>
<path d="M86.8418 56.5791L87.5489 55.872L87.256 55.5791H86.8418V56.5791ZM93.4209 63.1582H94.4209V62.744L94.128 62.4511L93.4209 63.1582ZM93.4209 86.8418L94.128 87.5489L94.4209 87.256V86.8418H93.4209ZM86.8418 93.4209V94.4209H87.256L87.5489 94.128L86.8418 93.4209ZM63.1582 93.4209L62.4511 94.128L62.744 94.4209H63.1582V93.4209ZM56.5791 86.8418H55.5791V87.256L55.872 87.5489L56.5791 86.8418ZM56.5791 63.1582L55.872 62.4511L55.5791 62.744V63.1582H56.5791ZM63.1582 56.5791V55.5791H62.744L62.4511 55.872L63.1582 56.5791ZM86.8418 56.5791L86.1347 57.2862L92.7138 63.8653L93.4209 63.1582L94.128 62.4511L87.5489 55.872L86.8418 56.5791ZM93.4209 63.1582H92.4209V86.8418H93.4209H94.4209V63.1582H93.4209ZM93.4209 86.8418L92.7138 86.1347L86.1347 92.7138L86.8418 93.4209L87.5489 94.128L94.128 87.5489L93.4209 86.8418ZM86.8418 93.4209V92.4209H63.1582V93.4209V94.4209H86.8418V93.4209ZM63.1582 93.4209L63.8653 92.7138L57.2862 86.1347L56.5791 86.8418L55.872 87.5489L62.4511 94.128L63.1582 93.4209ZM56.5791 86.8418H57.5791V63.1582H56.5791H55.5791V86.8418H56.5791ZM56.5791 63.1582L57.2862 63.8653L63.8653 57.2862L63.1582 56.5791L62.4511 55.872L55.872 62.4511L56.5791 63.1582ZM63.1582 56.5791V57.5791H86.8418V56.5791V55.5791H63.1582V56.5791Z" fill="#29BDFC" mask="url(#path-16-inside-6_4953_4620)"/>
<path d="M59.2129 93.4229L56.5801 96.0557L53.9473 93.4229L56.5801 90.7891L59.2129 93.4229ZM96.0557 93.4229L93.4219 96.0557L90.7891 93.4229L93.4219 90.7891L96.0557 93.4229ZM59.2119 56.5801L56.5791 59.2139L53.9463 56.5801L56.5791 53.9473L59.2119 56.5801ZM96.0518 56.5791L93.4199 59.2109L90.7881 56.5791L93.4199 53.9473L96.0518 56.5791Z" fill="#29BDFC"/>
<mask id="path-19-inside-7_4953_4620" fill="white">
<path d="M136.842 56.5791L143.421 63.1582V86.8418L136.842 93.4209H113.158L106.579 86.8418V63.1582L113.158 56.5791H136.842Z"/>
</mask>
<path d="M136.842 56.5791L137.549 55.872L137.256 55.5791H136.842V56.5791ZM143.421 63.1582H144.421V62.744L144.128 62.4511L143.421 63.1582ZM143.421 86.8418L144.128 87.5489L144.421 87.256V86.8418H143.421ZM136.842 93.4209V94.4209H137.256L137.549 94.128L136.842 93.4209ZM113.158 93.4209L112.451 94.128L112.744 94.4209H113.158V93.4209ZM106.579 86.8418H105.579V87.256L105.872 87.5489L106.579 86.8418ZM106.579 63.1582L105.872 62.4511L105.579 62.744V63.1582H106.579ZM113.158 56.5791V55.5791H112.744L112.451 55.872L113.158 56.5791ZM136.842 56.5791L136.135 57.2862L142.714 63.8653L143.421 63.1582L144.128 62.4511L137.549 55.872L136.842 56.5791ZM143.421 63.1582H142.421V86.8418H143.421H144.421V63.1582H143.421ZM143.421 86.8418L142.714 86.1347L136.135 92.7138L136.842 93.4209L137.549 94.128L144.128 87.5489L143.421 86.8418ZM136.842 93.4209V92.4209H113.158V93.4209V94.4209H136.842V93.4209ZM113.158 93.4209L113.865 92.7138L107.286 86.1347L106.579 86.8418L105.872 87.5489L112.451 94.128L113.158 93.4209ZM106.579 86.8418H107.579V63.1582H106.579H105.579V86.8418H106.579ZM106.579 63.1582L107.286 63.8653L113.865 57.2862L113.158 56.5791L112.451 55.872L105.872 62.4511L106.579 63.1582ZM113.158 56.5791V57.5791H136.842V56.5791V55.5791H113.158V56.5791Z" fill="#29BDFC" mask="url(#path-19-inside-7_4953_4620)"/>
<path d="M109.213 93.4229L106.58 96.0557L103.947 93.4229L106.58 90.7891L109.213 93.4229ZM146.056 93.4229L143.422 96.0557L140.789 93.4229L143.422 90.7891L146.056 93.4229ZM109.212 56.5801L106.579 59.2139L103.946 56.5801L106.579 53.9473L109.212 56.5801ZM146.052 56.5791L143.42 59.2109L140.788 56.5791L143.42 53.9473L146.052 56.5791Z" fill="#29BDFC"/>
<mask id="path-22-inside-8_4953_4620" fill="white">
<path d="M186.842 56.5791L193.421 63.1582V86.8418L186.842 93.4209H163.158L156.579 86.8418V63.1582L163.158 56.5791H186.842Z"/>
</mask>
<path d="M186.842 56.5791L187.549 55.872L187.256 55.5791H186.842V56.5791ZM193.421 63.1582H194.421V62.744L194.128 62.4511L193.421 63.1582ZM193.421 86.8418L194.128 87.5489L194.421 87.256V86.8418H193.421ZM186.842 93.4209V94.4209H187.256L187.549 94.128L186.842 93.4209ZM163.158 93.4209L162.451 94.128L162.744 94.4209H163.158V93.4209ZM156.579 86.8418H155.579V87.256L155.872 87.5489L156.579 86.8418ZM156.579 63.1582L155.872 62.4511L155.579 62.744V63.1582H156.579ZM163.158 56.5791V55.5791H162.744L162.451 55.872L163.158 56.5791ZM186.842 56.5791L186.135 57.2862L192.714 63.8653L193.421 63.1582L194.128 62.4511L187.549 55.872L186.842 56.5791ZM193.421 63.1582H192.421V86.8418H193.421H194.421V63.1582H193.421ZM193.421 86.8418L192.714 86.1347L186.135 92.7138L186.842 93.4209L187.549 94.128L194.128 87.5489L193.421 86.8418ZM186.842 93.4209V92.4209H163.158V93.4209V94.4209H186.842V93.4209ZM163.158 93.4209L163.865 92.7138L157.286 86.1347L156.579 86.8418L155.872 87.5489L162.451 94.128L163.158 93.4209ZM156.579 86.8418H157.579V63.1582H156.579H155.579V86.8418H156.579ZM156.579 63.1582L157.286 63.8653L163.865 57.2862L163.158 56.5791L162.451 55.872L155.872 62.4511L156.579 63.1582ZM163.158 56.5791V57.5791H186.842V56.5791V55.5791H163.158V56.5791Z" fill="#29BDFC" mask="url(#path-22-inside-8_4953_4620)"/>
<path d="M159.213 93.4229L156.58 96.0557L153.947 93.4229L156.58 90.7891L159.213 93.4229ZM196.056 93.4229L193.422 96.0557L190.789 93.4229L193.422 90.7891L196.056 93.4229ZM159.212 56.5801L156.579 59.2139L153.946 56.5801L156.579 53.9473L159.212 56.5801ZM196.052 56.5791L193.42 59.2109L190.788 56.5791L193.42 53.9473L196.052 56.5791Z" fill="#29BDFC"/>
<mask id="path-25-inside-9_4953_4620" fill="white">
<path d="M36.8418 106.579L43.4209 113.158V136.842L36.8418 143.421H13.1582L6.5791 136.842V113.158L13.1582 106.579H36.8418Z"/>
</mask>
<path d="M36.8418 106.579L37.5489 105.872L37.256 105.579H36.8418V106.579ZM43.4209 113.158H44.4209V112.744L44.128 112.451L43.4209 113.158ZM43.4209 136.842L44.128 137.549L44.4209 137.256V136.842H43.4209ZM36.8418 143.421V144.421H37.256L37.5489 144.128L36.8418 143.421ZM13.1582 143.421L12.4511 144.128L12.744 144.421H13.1582V143.421ZM6.5791 136.842H5.5791V137.256L5.87199 137.549L6.5791 136.842ZM6.5791 113.158L5.87199 112.451L5.5791 112.744V113.158H6.5791ZM13.1582 106.579V105.579H12.744L12.4511 105.872L13.1582 106.579ZM36.8418 106.579L36.1347 107.286L42.7138 113.865L43.4209 113.158L44.128 112.451L37.5489 105.872L36.8418 106.579ZM43.4209 113.158H42.4209V136.842H43.4209H44.4209V113.158H43.4209ZM43.4209 136.842L42.7138 136.135L36.1347 142.714L36.8418 143.421L37.5489 144.128L44.128 137.549L43.4209 136.842ZM36.8418 143.421V142.421H13.1582V143.421V144.421H36.8418V143.421ZM13.1582 143.421L13.8653 142.714L7.28621 136.135L6.5791 136.842L5.87199 137.549L12.4511 144.128L13.1582 143.421ZM6.5791 136.842H7.5791V113.158H6.5791H5.5791V136.842H6.5791ZM6.5791 113.158L7.28621 113.865L13.8653 107.286L13.1582 106.579L12.4511 105.872L5.87199 112.451L6.5791 113.158ZM13.1582 106.579V107.579H36.8418V106.579V105.579H13.1582V106.579Z" fill="#29BDFC" mask="url(#path-25-inside-9_4953_4620)"/>
<path d="M9.21289 143.423L6.58008 146.056L3.94727 143.423L6.58008 140.789L9.21289 143.423ZM46.0557 143.423L43.4219 146.056L40.7891 143.423L43.4219 140.789L46.0557 143.423ZM9.21191 106.58L6.5791 109.214L3.94629 106.58L6.5791 103.947L9.21191 106.58ZM46.0518 106.579L43.4199 109.211L40.7881 106.579L43.4199 103.947L46.0518 106.579Z" fill="#29BDFC"/>
<mask id="path-28-inside-10_4953_4620" fill="white">
<path d="M86.8418 106.579L93.4209 113.158V136.842L86.8418 143.421H63.1582L56.5791 136.842V113.158L63.1582 106.579H86.8418Z"/>
</mask>
<path d="M86.8418 106.579L87.5489 105.872L87.256 105.579H86.8418V106.579ZM93.4209 113.158H94.4209V112.744L94.128 112.451L93.4209 113.158ZM93.4209 136.842L94.128 137.549L94.4209 137.256V136.842H93.4209ZM86.8418 143.421V144.421H87.256L87.5489 144.128L86.8418 143.421ZM63.1582 143.421L62.4511 144.128L62.744 144.421H63.1582V143.421ZM56.5791 136.842H55.5791V137.256L55.872 137.549L56.5791 136.842ZM56.5791 113.158L55.872 112.451L55.5791 112.744V113.158H56.5791ZM63.1582 106.579V105.579H62.744L62.4511 105.872L63.1582 106.579ZM86.8418 106.579L86.1347 107.286L92.7138 113.865L93.4209 113.158L94.128 112.451L87.5489 105.872L86.8418 106.579ZM93.4209 113.158H92.4209V136.842H93.4209H94.4209V113.158H93.4209ZM93.4209 136.842L92.7138 136.135L86.1347 142.714L86.8418 143.421L87.5489 144.128L94.128 137.549L93.4209 136.842ZM86.8418 143.421V142.421H63.1582V143.421V144.421H86.8418V143.421ZM63.1582 143.421L63.8653 142.714L57.2862 136.135L56.5791 136.842L55.872 137.549L62.4511 144.128L63.1582 143.421ZM56.5791 136.842H57.5791V113.158H56.5791H55.5791V136.842H56.5791ZM56.5791 113.158L57.2862 113.865L63.8653 107.286L63.1582 106.579L62.4511 105.872L55.872 112.451L56.5791 113.158ZM63.1582 106.579V107.579H86.8418V106.579V105.579H63.1582V106.579Z" fill="#29BDFC" mask="url(#path-28-inside-10_4953_4620)"/>
<path d="M59.2129 143.423L56.5801 146.056L53.9473 143.423L56.5801 140.789L59.2129 143.423ZM96.0557 143.423L93.4219 146.056L90.7891 143.423L93.4219 140.789L96.0557 143.423ZM59.2119 106.58L56.5791 109.214L53.9463 106.58L56.5791 103.947L59.2119 106.58ZM96.0518 106.579L93.4199 109.211L90.7881 106.579L93.4199 103.947L96.0518 106.579Z" fill="#29BDFC"/>
<mask id="path-31-inside-11_4953_4620" fill="white">
<path d="M136.842 106.579L143.421 113.158V136.842L136.842 143.421H113.158L106.579 136.842V113.158L113.158 106.579H136.842Z"/>
</mask>
<path d="M136.842 106.579L137.549 105.872L137.256 105.579H136.842V106.579ZM143.421 113.158H144.421V112.744L144.128 112.451L143.421 113.158ZM143.421 136.842L144.128 137.549L144.421 137.256V136.842H143.421ZM136.842 143.421V144.421H137.256L137.549 144.128L136.842 143.421ZM113.158 143.421L112.451 144.128L112.744 144.421H113.158V143.421ZM106.579 136.842H105.579V137.256L105.872 137.549L106.579 136.842ZM106.579 113.158L105.872 112.451L105.579 112.744V113.158H106.579ZM113.158 106.579V105.579H112.744L112.451 105.872L113.158 106.579ZM136.842 106.579L136.135 107.286L142.714 113.865L143.421 113.158L144.128 112.451L137.549 105.872L136.842 106.579ZM143.421 113.158H142.421V136.842H143.421H144.421V113.158H143.421ZM143.421 136.842L142.714 136.135L136.135 142.714L136.842 143.421L137.549 144.128L144.128 137.549L143.421 136.842ZM136.842 143.421V142.421H113.158V143.421V144.421H136.842V143.421ZM113.158 143.421L113.865 142.714L107.286 136.135L106.579 136.842L105.872 137.549L112.451 144.128L113.158 143.421ZM106.579 136.842H107.579V113.158H106.579H105.579V136.842H106.579ZM106.579 113.158L107.286 113.865L113.865 107.286L113.158 106.579L112.451 105.872L105.872 112.451L106.579 113.158ZM113.158 106.579V107.579H136.842V106.579V105.579H113.158V106.579Z" fill="#29BDFC" mask="url(#path-31-inside-11_4953_4620)"/>
<path d="M109.213 143.423L106.58 146.056L103.947 143.423L106.58 140.789L109.213 143.423ZM146.056 143.423L143.422 146.056L140.789 143.423L143.422 140.789L146.056 143.423ZM109.212 106.58L106.579 109.214L103.946 106.58L106.579 103.947L109.212 106.58ZM146.052 106.579L143.42 109.211L140.788 106.579L143.42 103.947L146.052 106.579Z" fill="#29BDFC"/>
<mask id="path-34-inside-12_4953_4620" fill="white">
<path d="M186.842 106.579L193.421 113.158V136.842L186.842 143.421H163.158L156.579 136.842V113.158L163.158 106.579H186.842Z"/>
</mask>
<path d="M186.842 106.579L187.549 105.872L187.256 105.579H186.842V106.579ZM193.421 113.158H194.421V112.744L194.128 112.451L193.421 113.158ZM193.421 136.842L194.128 137.549L194.421 137.256V136.842H193.421ZM186.842 143.421V144.421H187.256L187.549 144.128L186.842 143.421ZM163.158 143.421L162.451 144.128L162.744 144.421H163.158V143.421ZM156.579 136.842H155.579V137.256L155.872 137.549L156.579 136.842ZM156.579 113.158L155.872 112.451L155.579 112.744V113.158H156.579ZM163.158 106.579V105.579H162.744L162.451 105.872L163.158 106.579ZM186.842 106.579L186.135 107.286L192.714 113.865L193.421 113.158L194.128 112.451L187.549 105.872L186.842 106.579ZM193.421 113.158H192.421V136.842H193.421H194.421V113.158H193.421ZM193.421 136.842L192.714 136.135L186.135 142.714L186.842 143.421L187.549 144.128L194.128 137.549L193.421 136.842ZM186.842 143.421V142.421H163.158V143.421V144.421H186.842V143.421ZM163.158 143.421L163.865 142.714L157.286 136.135L156.579 136.842L155.872 137.549L162.451 144.128L163.158 143.421ZM156.579 136.842H157.579V113.158H156.579H155.579V136.842H156.579ZM156.579 113.158L157.286 113.865L163.865 107.286L163.158 106.579L162.451 105.872L155.872 112.451L156.579 113.158ZM163.158 106.579V107.579H186.842V106.579V105.579H163.158V106.579Z" fill="#29BDFC" mask="url(#path-34-inside-12_4953_4620)"/>
<path d="M159.213 143.423L156.58 146.056L153.947 143.423L156.58 140.789L159.213 143.423ZM196.056 143.423L193.422 146.056L190.789 143.423L193.422 140.789L196.056 143.423ZM159.212 106.58L156.579 109.214L153.946 106.58L156.579 103.947L159.212 106.58ZM196.052 106.579L193.42 109.211L190.788 106.579L193.42 103.947L196.052 106.579Z" fill="#29BDFC"/>
<mask id="path-37-inside-13_4953_4620" fill="white">
<path d="M36.8418 156.579L43.4209 163.158V186.842L36.8418 193.421H13.1582L6.5791 186.842V163.158L13.1582 156.579H36.8418Z"/>
</mask>
<path d="M36.8418 156.579L37.5489 155.872L37.256 155.579H36.8418V156.579ZM43.4209 163.158H44.4209V162.744L44.128 162.451L43.4209 163.158ZM43.4209 186.842L44.128 187.549L44.4209 187.256V186.842H43.4209ZM36.8418 193.421V194.421H37.256L37.5489 194.128L36.8418 193.421ZM13.1582 193.421L12.4511 194.128L12.744 194.421H13.1582V193.421ZM6.5791 186.842H5.5791V187.256L5.87199 187.549L6.5791 186.842ZM6.5791 163.158L5.87199 162.451L5.5791 162.744V163.158H6.5791ZM13.1582 156.579V155.579H12.744L12.4511 155.872L13.1582 156.579ZM36.8418 156.579L36.1347 157.286L42.7138 163.865L43.4209 163.158L44.128 162.451L37.5489 155.872L36.8418 156.579ZM43.4209 163.158H42.4209V186.842H43.4209H44.4209V163.158H43.4209ZM43.4209 186.842L42.7138 186.135L36.1347 192.714L36.8418 193.421L37.5489 194.128L44.128 187.549L43.4209 186.842ZM36.8418 193.421V192.421H13.1582V193.421V194.421H36.8418V193.421ZM13.1582 193.421L13.8653 192.714L7.28621 186.135L6.5791 186.842L5.87199 187.549L12.4511 194.128L13.1582 193.421ZM6.5791 186.842H7.5791V163.158H6.5791H5.5791V186.842H6.5791ZM6.5791 163.158L7.28621 163.865L13.8653 157.286L13.1582 156.579L12.4511 155.872L5.87199 162.451L6.5791 163.158ZM13.1582 156.579V157.579H36.8418V156.579V155.579H13.1582V156.579Z" fill="#29BDFC" mask="url(#path-37-inside-13_4953_4620)"/>
<path d="M9.21289 193.423L6.58008 196.056L3.94727 193.423L6.58008 190.789L9.21289 193.423ZM46.0557 193.423L43.4219 196.056L40.7891 193.423L43.4219 190.789L46.0557 193.423ZM9.21191 156.58L6.5791 159.214L3.94629 156.58L6.5791 153.947L9.21191 156.58ZM46.0518 156.579L43.4199 159.211L40.7881 156.579L43.4199 153.947L46.0518 156.579Z" fill="#29BDFC"/>
<mask id="path-40-inside-14_4953_4620" fill="white">
<path d="M86.8418 156.579L93.4209 163.158V186.842L86.8418 193.421H63.1582L56.5791 186.842V163.158L63.1582 156.579H86.8418Z"/>
</mask>
<path d="M86.8418 156.579L87.5489 155.872L87.256 155.579H86.8418V156.579ZM93.4209 163.158H94.4209V162.744L94.128 162.451L93.4209 163.158ZM93.4209 186.842L94.128 187.549L94.4209 187.256V186.842H93.4209ZM86.8418 193.421V194.421H87.256L87.5489 194.128L86.8418 193.421ZM63.1582 193.421L62.4511 194.128L62.744 194.421H63.1582V193.421ZM56.5791 186.842H55.5791V187.256L55.872 187.549L56.5791 186.842ZM56.5791 163.158L55.872 162.451L55.5791 162.744V163.158H56.5791ZM63.1582 156.579V155.579H62.744L62.4511 155.872L63.1582 156.579ZM86.8418 156.579L86.1347 157.286L92.7138 163.865L93.4209 163.158L94.128 162.451L87.5489 155.872L86.8418 156.579ZM93.4209 163.158H92.4209V186.842H93.4209H94.4209V163.158H93.4209ZM93.4209 186.842L92.7138 186.135L86.1347 192.714L86.8418 193.421L87.5489 194.128L94.128 187.549L93.4209 186.842ZM86.8418 193.421V192.421H63.1582V193.421V194.421H86.8418V193.421ZM63.1582 193.421L63.8653 192.714L57.2862 186.135L56.5791 186.842L55.872 187.549L62.4511 194.128L63.1582 193.421ZM56.5791 186.842H57.5791V163.158H56.5791H55.5791V186.842H56.5791ZM56.5791 163.158L57.2862 163.865L63.8653 157.286L63.1582 156.579L62.4511 155.872L55.872 162.451L56.5791 163.158ZM63.1582 156.579V157.579H86.8418V156.579V155.579H63.1582V156.579Z" fill="#29BDFC" mask="url(#path-40-inside-14_4953_4620)"/>
<path d="M59.2129 193.423L56.5801 196.056L53.9473 193.423L56.5801 190.789L59.2129 193.423ZM96.0557 193.423L93.4219 196.056L90.7891 193.423L93.4219 190.789L96.0557 193.423ZM59.2119 156.58L56.5791 159.214L53.9463 156.58L56.5791 153.947L59.2119 156.58ZM96.0518 156.579L93.4199 159.211L90.7881 156.579L93.4199 153.947L96.0518 156.579Z" fill="#29BDFC"/>
<mask id="path-43-inside-15_4953_4620" fill="white">
<path d="M136.842 156.579L143.421 163.158V186.842L136.842 193.421H113.158L106.579 186.842V163.158L113.158 156.579H136.842Z"/>
</mask>
<path d="M136.842 156.579L137.549 155.872L137.256 155.579H136.842V156.579ZM143.421 163.158H144.421V162.744L144.128 162.451L143.421 163.158ZM143.421 186.842L144.128 187.549L144.421 187.256V186.842H143.421ZM136.842 193.421V194.421H137.256L137.549 194.128L136.842 193.421ZM113.158 193.421L112.451 194.128L112.744 194.421H113.158V193.421ZM106.579 186.842H105.579V187.256L105.872 187.549L106.579 186.842ZM106.579 163.158L105.872 162.451L105.579 162.744V163.158H106.579ZM113.158 156.579V155.579H112.744L112.451 155.872L113.158 156.579ZM136.842 156.579L136.135 157.286L142.714 163.865L143.421 163.158L144.128 162.451L137.549 155.872L136.842 156.579ZM143.421 163.158H142.421V186.842H143.421H144.421V163.158H143.421ZM143.421 186.842L142.714 186.135L136.135 192.714L136.842 193.421L137.549 194.128L144.128 187.549L143.421 186.842ZM136.842 193.421V192.421H113.158V193.421V194.421H136.842V193.421ZM113.158 193.421L113.865 192.714L107.286 186.135L106.579 186.842L105.872 187.549L112.451 194.128L113.158 193.421ZM106.579 186.842H107.579V163.158H106.579H105.579V186.842H106.579ZM106.579 163.158L107.286 163.865L113.865 157.286L113.158 156.579L112.451 155.872L105.872 162.451L106.579 163.158ZM113.158 156.579V157.579H136.842V156.579V155.579H113.158V156.579Z" fill="#29BDFC" mask="url(#path-43-inside-15_4953_4620)"/>
<path d="M109.213 193.423L106.58 196.056L103.947 193.423L106.58 190.789L109.213 193.423ZM146.056 193.423L143.422 196.056L140.789 193.423L143.422 190.789L146.056 193.423ZM109.212 156.58L106.579 159.214L103.946 156.58L106.579 153.947L109.212 156.58ZM146.052 156.579L143.42 159.211L140.788 156.579L143.42 153.947L146.052 156.579Z" fill="#29BDFC"/>
<mask id="path-46-inside-16_4953_4620" fill="white">
<path d="M186.842 156.579L193.421 163.158V186.842L186.842 193.421H163.158L156.579 186.842V163.158L163.158 156.579H186.842Z"/>
</mask>
<path d="M186.842 156.579L187.549 155.872L187.256 155.579H186.842V156.579ZM193.421 163.158H194.421V162.744L194.128 162.451L193.421 163.158ZM193.421 186.842L194.128 187.549L194.421 187.256V186.842H193.421ZM186.842 193.421V194.421H187.256L187.549 194.128L186.842 193.421ZM163.158 193.421L162.451 194.128L162.744 194.421H163.158V193.421ZM156.579 186.842H155.579V187.256L155.872 187.549L156.579 186.842ZM156.579 163.158L155.872 162.451L155.579 162.744V163.158H156.579ZM163.158 156.579V155.579H162.744L162.451 155.872L163.158 156.579ZM186.842 156.579L186.135 157.286L192.714 163.865L193.421 163.158L194.128 162.451L187.549 155.872L186.842 156.579ZM193.421 163.158H192.421V186.842H193.421H194.421V163.158H193.421ZM193.421 186.842L192.714 186.135L186.135 192.714L186.842 193.421L187.549 194.128L194.128 187.549L193.421 186.842ZM186.842 193.421V192.421H163.158V193.421V194.421H186.842V193.421ZM163.158 193.421L163.865 192.714L157.286 186.135L156.579 186.842L155.872 187.549L162.451 194.128L163.158 193.421ZM156.579 186.842H157.579V163.158H156.579H155.579V186.842H156.579ZM156.579 163.158L157.286 163.865L163.865 157.286L163.158 156.579L162.451 155.872L155.872 162.451L156.579 163.158ZM163.158 156.579V157.579H186.842V156.579V155.579H163.158V156.579Z" fill="#29BDFC" mask="url(#path-46-inside-16_4953_4620)"/>
<path d="M159.213 193.423L156.58 196.056L153.947 193.423L156.58 190.789L159.213 193.423ZM196.056 193.423L193.422 196.056L190.789 193.423L193.422 190.789L196.056 193.423ZM159.212 156.58L156.579 159.214L153.946 156.58L156.579 153.947L159.212 156.58ZM196.052 156.579L193.42 159.211L190.788 156.579L193.42 153.947L196.052 156.579Z" fill="#29BDFC"/>
</svg>
