<svg width="200" height="200" viewBox="0 0 200 200" fill="none" xmlns="http://www.w3.org/2000/svg">
<g clip-path="url(#clip0_4953_6195)">
<mask id="path-1-inside-1_4953_6195" fill="white">
<path d="M41.1758 24.9995C41.1758 33.9334 33.9334 41.1758 24.9995 41.1758C16.0656 41.1758 8.82324 33.9334 8.82324 24.9995C8.82324 16.0656 16.0656 8.82324 24.9995 8.82324C33.9334 8.82324 41.1758 16.0656 41.1758 24.9995Z"/>
</mask>
<path d="M24.9995 8.82324V10.2938C33.1212 10.2938 39.7052 16.8778 39.7052 24.9995H41.1758H42.6464C42.6464 15.2534 34.7456 7.35265 24.9995 7.35265V8.82324ZM8.82324 24.9995H10.2938C10.2938 16.8778 16.8778 10.2938 24.9995 10.2938V8.82324V7.35265C15.2534 7.35265 7.35265 15.2534 7.35265 24.9995H8.82324ZM24.9995 41.1758V39.7052C16.8778 39.7052 10.2938 33.1212 10.2938 24.9995H8.82324H7.35265C7.35265 34.7456 15.2534 42.6464 24.9995 42.6464V41.1758ZM24.9995 41.1758V42.6464C34.7456 42.6464 42.6464 34.7456 42.6464 24.9995H41.1758H39.7052C39.7052 33.1212 33.1212 39.7052 24.9995 39.7052V41.1758Z" fill="#29BDFC" fill-opacity="0.2" mask="url(#path-1-inside-1_4953_6195)"/>
<path d="M29.4111 25C29.4111 27.4365 27.436 29.4116 24.9995 29.4116C22.563 29.4116 20.5879 27.4365 20.5879 25C20.5879 22.5635 22.563 20.5884 24.9995 20.5884C27.436 20.5884 29.4111 22.5635 29.4111 25Z" fill="#29BDFC"/>
<path d="M6.89355 44.522L-0.764648 52.1802L-2.17871 50.7661L5.47949 43.1079L6.89355 44.522ZM52.1738 50.772L50.7705 52.1753L43.0254 44.4302L44.4287 43.0269L52.1738 50.772ZM6.87109 5.47412L5.4707 6.87451L-2.17285 -0.77002L-0.773438 -2.17041L6.87109 5.47412ZM52.0645 -0.873535L44.3916 6.79834L43.0889 5.49561L50.7607 -2.17725L52.0645 -0.873535Z" fill="#29BDFC" fill-opacity="0.5"/>
<path d="M43.3271 41.9238L41.9238 43.3271L39.1982 40.6025L40.6016 39.1992L43.3271 41.9238ZM11.0596 40.3555L8.18945 43.2256L6.77539 41.8115L9.64551 38.9414L11.0596 40.3555ZM43.3408 7.84961L40.7305 10.46L39.4277 9.15625L42.0371 6.54688L43.3408 7.84961ZM10.4131 9.01562L9.01367 10.415L6.45312 7.85449L7.85254 6.45508L10.4131 9.01562Z" fill="#29BDFC"/>
</g>
<g clip-path="url(#clip1_4953_6195)">
<mask id="path-6-inside-2_4953_6195" fill="white">
<path d="M91.1763 24.9995C91.1763 33.9334 83.9334 41.1758 74.9995 41.1758C66.0656 41.1758 58.8228 33.9334 58.8228 24.9995C58.8228 16.0656 66.0656 8.82324 74.9995 8.82324C83.9334 8.82324 91.1763 16.0656 91.1763 24.9995Z"/>
</mask>
<path d="M74.9995 8.82324V10.2938C83.1213 10.2938 89.7057 16.8778 89.7057 24.9995H91.1763H92.6469C92.6469 15.2534 84.7455 7.35265 74.9995 7.35265V8.82324ZM58.8228 24.9995H60.2933C60.2933 16.8778 66.8777 10.2938 74.9995 10.2938V8.82324V7.35265C65.2535 7.35265 57.3522 15.2534 57.3522 24.9995H58.8228ZM74.9995 41.1758V39.7052C66.8777 39.7052 60.2933 33.1212 60.2933 24.9995H58.8228H57.3522C57.3522 34.7457 65.2535 42.6464 74.9995 42.6464V41.1758ZM74.9995 41.1758V42.6464C84.7455 42.6464 92.6469 34.7457 92.6469 24.9995H91.1763H89.7057C89.7057 33.1212 83.1213 39.7052 74.9995 39.7052V41.1758Z" fill="#29BDFC" fill-opacity="0.2" mask="url(#path-6-inside-2_4953_6195)"/>
<path d="M79.4121 25C79.4121 27.4365 77.4365 29.4116 75 29.4116C72.5635 29.4116 70.5879 27.4365 70.5879 25C70.5879 22.5635 72.5635 20.5884 75 20.5884C77.4365 20.5884 79.4121 22.5635 79.4121 25Z" fill="#29BDFC"/>
<path d="M56.8936 44.522L49.2354 52.1802L47.8213 50.7661L55.4795 43.1079L56.8936 44.522ZM102.174 50.772L100.771 52.1753L93.0254 44.4302L94.4287 43.0269L102.174 50.772ZM56.8711 5.47412L55.4707 6.87451L47.8271 -0.77002L49.2266 -2.17041L56.8711 5.47412ZM102.064 -0.873535L94.3916 6.79834L93.0889 5.49561L100.761 -2.17725L102.064 -0.873535Z" fill="#29BDFC" fill-opacity="0.5"/>
<path d="M93.3271 41.9238L91.9238 43.3271L89.1982 40.6025L90.6016 39.1992L93.3271 41.9238ZM61.0596 40.3555L58.1895 43.2256L56.7754 41.8115L59.6455 38.9414L61.0596 40.3555ZM93.3408 7.84961L90.7305 10.46L89.4277 9.15625L92.0371 6.54688L93.3408 7.84961ZM60.4131 9.01562L59.0137 10.415L56.4531 7.85449L57.8525 6.45508L60.4131 9.01562Z" fill="#29BDFC"/>
</g>
<g clip-path="url(#clip2_4953_6195)">
<mask id="path-11-inside-3_4953_6195" fill="white">
<path d="M141.176 24.9995C141.176 33.9334 133.933 41.1758 125 41.1758C116.066 41.1758 108.823 33.9334 108.823 24.9995C108.823 16.0656 116.066 8.82324 125 8.82324C133.933 8.82324 141.176 16.0656 141.176 24.9995Z"/>
</mask>
<path d="M125 8.82324V10.2938C133.121 10.2938 139.706 16.8778 139.706 24.9995H141.176H142.647C142.647 15.2534 134.746 7.35265 125 7.35265V8.82324ZM108.823 24.9995H110.293C110.293 16.8778 116.878 10.2938 125 10.2938V8.82324V7.35265C115.253 7.35265 107.352 15.2534 107.352 24.9995H108.823ZM125 41.1758V39.7052C116.878 39.7052 110.293 33.1212 110.293 24.9995H108.823H107.352C107.352 34.7457 115.253 42.6464 125 42.6464V41.1758ZM125 41.1758V42.6464C134.746 42.6464 142.647 34.7457 142.647 24.9995H141.176H139.706C139.706 33.1212 133.121 39.7052 125 39.7052V41.1758Z" fill="#29BDFC" fill-opacity="0.2" mask="url(#path-11-inside-3_4953_6195)"/>
<path d="M129.412 25C129.412 27.4365 127.436 29.4116 125 29.4116C122.564 29.4116 120.588 27.4365 120.588 25C120.588 22.5635 122.564 20.5884 125 20.5884C127.436 20.5884 129.412 22.5635 129.412 25Z" fill="#29BDFC"/>
<path d="M106.894 44.522L99.2354 52.1802L97.8213 50.7661L105.479 43.1079L106.894 44.522ZM152.174 50.772L150.771 52.1753L143.025 44.4302L144.429 43.0269L152.174 50.772ZM106.871 5.47412L105.471 6.87451L97.8271 -0.77002L99.2266 -2.17041L106.871 5.47412ZM152.064 -0.873535L144.392 6.79834L143.089 5.49561L150.761 -2.17725L152.064 -0.873535Z" fill="#29BDFC" fill-opacity="0.5"/>
<path d="M143.327 41.9238L141.924 43.3271L139.198 40.6025L140.602 39.1992L143.327 41.9238ZM111.06 40.3555L108.189 43.2256L106.775 41.8115L109.646 38.9414L111.06 40.3555ZM143.341 7.84961L140.73 10.46L139.428 9.15625L142.037 6.54688L143.341 7.84961ZM110.413 9.01562L109.014 10.415L106.453 7.85449L107.853 6.45508L110.413 9.01562Z" fill="#29BDFC"/>
</g>
<g clip-path="url(#clip3_4953_6195)">
<mask id="path-16-inside-4_4953_6195" fill="white">
<path d="M191.176 24.9995C191.176 33.9334 183.933 41.1758 175 41.1758C166.066 41.1758 158.823 33.9334 158.823 24.9995C158.823 16.0656 166.066 8.82324 175 8.82324C183.933 8.82324 191.176 16.0656 191.176 24.9995Z"/>
</mask>
<path d="M175 8.82324V10.2938C183.121 10.2938 189.706 16.8778 189.706 24.9995H191.176H192.647C192.647 15.2534 184.746 7.35265 175 7.35265V8.82324ZM158.823 24.9995H160.293C160.293 16.8778 166.878 10.2938 175 10.2938V8.82324V7.35265C165.253 7.35265 157.352 15.2534 157.352 24.9995H158.823ZM175 41.1758V39.7052C166.878 39.7052 160.293 33.1212 160.293 24.9995H158.823H157.352C157.352 34.7457 165.253 42.6464 175 42.6464V41.1758ZM175 41.1758V42.6464C184.746 42.6464 192.647 34.7457 192.647 24.9995H191.176H189.706C189.706 33.1212 183.121 39.7052 175 39.7052V41.1758Z" fill="#29BDFC" fill-opacity="0.2" mask="url(#path-16-inside-4_4953_6195)"/>
<path d="M179.412 25C179.412 27.4365 177.436 29.4116 175 29.4116C172.564 29.4116 170.588 27.4365 170.588 25C170.588 22.5635 172.564 20.5884 175 20.5884C177.436 20.5884 179.412 22.5635 179.412 25Z" fill="#29BDFC"/>
<path d="M156.894 44.522L149.235 52.1802L147.821 50.7661L155.479 43.1079L156.894 44.522ZM202.174 50.772L200.771 52.1753L193.025 44.4302L194.429 43.0269L202.174 50.772ZM156.871 5.47412L155.471 6.87451L147.827 -0.77002L149.227 -2.17041L156.871 5.47412ZM202.064 -0.873535L194.392 6.79834L193.089 5.49561L200.761 -2.17725L202.064 -0.873535Z" fill="#29BDFC" fill-opacity="0.5"/>
<path d="M193.327 41.9238L191.924 43.3271L189.198 40.6025L190.602 39.1992L193.327 41.9238ZM161.06 40.3555L158.189 43.2256L156.775 41.8115L159.646 38.9414L161.06 40.3555ZM193.341 7.84961L190.73 10.46L189.428 9.15625L192.037 6.54688L193.341 7.84961ZM160.413 9.01562L159.014 10.415L156.453 7.85449L157.853 6.45508L160.413 9.01562Z" fill="#29BDFC"/>
</g>
<g clip-path="url(#clip4_4953_6195)">
<mask id="path-21-inside-5_4953_6195" fill="white">
<path d="M41.1758 74.9995C41.1758 83.9334 33.9334 91.1758 24.9995 91.1758C16.0656 91.1758 8.82324 83.9334 8.82324 74.9995C8.82324 66.0656 16.0656 58.8232 24.9995 58.8232C33.9334 58.8232 41.1758 66.0656 41.1758 74.9995Z"/>
</mask>
<path d="M24.9995 58.8232V60.2938C33.1212 60.2938 39.7052 66.8778 39.7052 74.9995H41.1758H42.6464C42.6464 65.2534 34.7456 57.3527 24.9995 57.3527V58.8232ZM8.82324 74.9995H10.2938C10.2938 66.8778 16.8778 60.2938 24.9995 60.2938V58.8232V57.3527C15.2534 57.3527 7.35265 65.2534 7.35265 74.9995H8.82324ZM24.9995 91.1758V89.7052C16.8778 89.7052 10.2938 83.1212 10.2938 74.9995H8.82324H7.35265C7.35265 84.7456 15.2534 92.6464 24.9995 92.6464V91.1758ZM24.9995 91.1758V92.6464C34.7456 92.6464 42.6464 84.7456 42.6464 74.9995H41.1758H39.7052C39.7052 83.1212 33.1212 89.7052 24.9995 89.7052V91.1758Z" fill="#29BDFC" fill-opacity="0.2" mask="url(#path-21-inside-5_4953_6195)"/>
<path d="M29.4111 75C29.4111 77.4365 27.436 79.4116 24.9995 79.4116C22.563 79.4116 20.5879 77.4365 20.5879 75C20.5879 72.5635 22.563 70.5884 24.9995 70.5884C27.436 70.5884 29.4111 72.5635 29.4111 75Z" fill="#29BDFC"/>
<path d="M6.89355 94.522L-0.764648 102.18L-2.17871 100.766L5.47949 93.1079L6.89355 94.522ZM52.1738 100.772L50.7705 102.175L43.0254 94.4302L44.4287 93.0269L52.1738 100.772ZM6.87109 55.4741L5.4707 56.8745L-2.17285 49.23L-0.773438 47.8296L6.87109 55.4741ZM52.0645 49.1265L44.3916 56.7983L43.0889 55.4956L50.7607 47.8228L52.0645 49.1265Z" fill="#29BDFC" fill-opacity="0.5"/>
<path d="M43.3271 91.9238L41.9238 93.3271L39.1982 90.6025L40.6016 89.1992L43.3271 91.9238ZM11.0596 90.3555L8.18945 93.2256L6.77539 91.8115L9.64551 88.9414L11.0596 90.3555ZM43.3408 57.8496L40.7305 60.46L39.4277 59.1562L42.0371 56.5469L43.3408 57.8496ZM10.4131 59.0156L9.01367 60.415L6.45312 57.8545L7.85254 56.4551L10.4131 59.0156Z" fill="#29BDFC"/>
</g>
<g clip-path="url(#clip5_4953_6195)">
<mask id="path-26-inside-6_4953_6195" fill="white">
<path d="M91.1763 74.9995C91.1763 83.9334 83.9334 91.1758 74.9995 91.1758C66.0656 91.1758 58.8228 83.9334 58.8228 74.9995C58.8228 66.0656 66.0656 58.8232 74.9995 58.8232C83.9334 58.8232 91.1763 66.0656 91.1763 74.9995Z"/>
</mask>
<path d="M74.9995 58.8232V60.2938C83.1213 60.2938 89.7057 66.8778 89.7057 74.9995H91.1763H92.6469C92.6469 65.2534 84.7455 57.3527 74.9995 57.3527V58.8232ZM58.8228 74.9995H60.2933C60.2933 66.8778 66.8777 60.2938 74.9995 60.2938V58.8232V57.3527C65.2535 57.3527 57.3522 65.2534 57.3522 74.9995H58.8228ZM74.9995 91.1758V89.7052C66.8777 89.7052 60.2933 83.1212 60.2933 74.9995H58.8228H57.3522C57.3522 84.7457 65.2535 92.6464 74.9995 92.6464V91.1758ZM74.9995 91.1758V92.6464C84.7455 92.6464 92.6469 84.7457 92.6469 74.9995H91.1763H89.7057C89.7057 83.1212 83.1213 89.7052 74.9995 89.7052V91.1758Z" fill="#29BDFC" fill-opacity="0.2" mask="url(#path-26-inside-6_4953_6195)"/>
<path d="M79.4121 75C79.4121 77.4365 77.4365 79.4116 75 79.4116C72.5635 79.4116 70.5879 77.4365 70.5879 75C70.5879 72.5635 72.5635 70.5884 75 70.5884C77.4365 70.5884 79.4121 72.5635 79.4121 75Z" fill="#29BDFC"/>
<path d="M56.8936 94.522L49.2354 102.18L47.8213 100.766L55.4795 93.1079L56.8936 94.522ZM102.174 100.772L100.771 102.175L93.0254 94.4302L94.4287 93.0269L102.174 100.772ZM56.8711 55.4741L55.4707 56.8745L47.8271 49.23L49.2266 47.8296L56.8711 55.4741ZM102.064 49.1265L94.3916 56.7983L93.0889 55.4956L100.761 47.8228L102.064 49.1265Z" fill="#29BDFC" fill-opacity="0.5"/>
<path d="M93.3271 91.9238L91.9238 93.3271L89.1982 90.6025L90.6016 89.1992L93.3271 91.9238ZM61.0596 90.3555L58.1895 93.2256L56.7754 91.8115L59.6455 88.9414L61.0596 90.3555ZM93.3408 57.8496L90.7305 60.46L89.4277 59.1562L92.0371 56.5469L93.3408 57.8496ZM60.4131 59.0156L59.0137 60.415L56.4531 57.8545L57.8525 56.4551L60.4131 59.0156Z" fill="#29BDFC"/>
</g>
<g clip-path="url(#clip6_4953_6195)">
<mask id="path-31-inside-7_4953_6195" fill="white">
<path d="M141.176 74.9995C141.176 83.9334 133.933 91.1758 125 91.1758C116.066 91.1758 108.823 83.9334 108.823 74.9995C108.823 66.0656 116.066 58.8232 125 58.8232C133.933 58.8232 141.176 66.0656 141.176 74.9995Z"/>
</mask>
<path d="M125 58.8232V60.2938C133.121 60.2938 139.706 66.8778 139.706 74.9995H141.176H142.647C142.647 65.2534 134.746 57.3527 125 57.3527V58.8232ZM108.823 74.9995H110.293C110.293 66.8778 116.878 60.2938 125 60.2938V58.8232V57.3527C115.253 57.3527 107.352 65.2534 107.352 74.9995H108.823ZM125 91.1758V89.7052C116.878 89.7052 110.293 83.1212 110.293 74.9995H108.823H107.352C107.352 84.7457 115.253 92.6464 125 92.6464V91.1758ZM125 91.1758V92.6464C134.746 92.6464 142.647 84.7457 142.647 74.9995H141.176H139.706C139.706 83.1212 133.121 89.7052 125 89.7052V91.1758Z" fill="#29BDFC" fill-opacity="0.2" mask="url(#path-31-inside-7_4953_6195)"/>
<path d="M129.412 75C129.412 77.4365 127.436 79.4116 125 79.4116C122.564 79.4116 120.588 77.4365 120.588 75C120.588 72.5635 122.564 70.5884 125 70.5884C127.436 70.5884 129.412 72.5635 129.412 75Z" fill="#29BDFC"/>
<path d="M106.894 94.522L99.2354 102.18L97.8213 100.766L105.479 93.1079L106.894 94.522ZM152.174 100.772L150.771 102.175L143.025 94.4302L144.429 93.0269L152.174 100.772ZM106.871 55.4741L105.471 56.8745L97.8271 49.23L99.2266 47.8296L106.871 55.4741ZM152.064 49.1265L144.392 56.7983L143.089 55.4956L150.761 47.8228L152.064 49.1265Z" fill="#29BDFC" fill-opacity="0.5"/>
<path d="M143.327 91.9238L141.924 93.3271L139.198 90.6025L140.602 89.1992L143.327 91.9238ZM111.06 90.3555L108.189 93.2256L106.775 91.8115L109.646 88.9414L111.06 90.3555ZM143.341 57.8496L140.73 60.46L139.428 59.1562L142.037 56.5469L143.341 57.8496ZM110.413 59.0156L109.014 60.415L106.453 57.8545L107.853 56.4551L110.413 59.0156Z" fill="#29BDFC"/>
</g>
<g clip-path="url(#clip7_4953_6195)">
<mask id="path-36-inside-8_4953_6195" fill="white">
<path d="M191.176 74.9995C191.176 83.9334 183.933 91.1758 175 91.1758C166.066 91.1758 158.823 83.9334 158.823 74.9995C158.823 66.0656 166.066 58.8232 175 58.8232C183.933 58.8232 191.176 66.0656 191.176 74.9995Z"/>
</mask>
<path d="M175 58.8232V60.2938C183.121 60.2938 189.706 66.8778 189.706 74.9995H191.176H192.647C192.647 65.2534 184.746 57.3527 175 57.3527V58.8232ZM158.823 74.9995H160.293C160.293 66.8778 166.878 60.2938 175 60.2938V58.8232V57.3527C165.253 57.3527 157.352 65.2534 157.352 74.9995H158.823ZM175 91.1758V89.7052C166.878 89.7052 160.293 83.1212 160.293 74.9995H158.823H157.352C157.352 84.7457 165.253 92.6464 175 92.6464V91.1758ZM175 91.1758V92.6464C184.746 92.6464 192.647 84.7457 192.647 74.9995H191.176H189.706C189.706 83.1212 183.121 89.7052 175 89.7052V91.1758Z" fill="#29BDFC" fill-opacity="0.2" mask="url(#path-36-inside-8_4953_6195)"/>
<path d="M179.412 75C179.412 77.4365 177.436 79.4116 175 79.4116C172.564 79.4116 170.588 77.4365 170.588 75C170.588 72.5635 172.564 70.5884 175 70.5884C177.436 70.5884 179.412 72.5635 179.412 75Z" fill="#29BDFC"/>
<path d="M156.894 94.522L149.235 102.18L147.821 100.766L155.479 93.1079L156.894 94.522ZM202.174 100.772L200.771 102.175L193.025 94.4302L194.429 93.0269L202.174 100.772ZM156.871 55.4741L155.471 56.8745L147.827 49.23L149.227 47.8296L156.871 55.4741ZM202.064 49.1265L194.392 56.7983L193.089 55.4956L200.761 47.8228L202.064 49.1265Z" fill="#29BDFC" fill-opacity="0.5"/>
<path d="M193.327 91.9238L191.924 93.3271L189.198 90.6025L190.602 89.1992L193.327 91.9238ZM161.06 90.3555L158.189 93.2256L156.775 91.8115L159.646 88.9414L161.06 90.3555ZM193.341 57.8496L190.73 60.46L189.428 59.1562L192.037 56.5469L193.341 57.8496ZM160.413 59.0156L159.014 60.415L156.453 57.8545L157.853 56.4551L160.413 59.0156Z" fill="#29BDFC"/>
</g>
<g clip-path="url(#clip8_4953_6195)">
<mask id="path-41-inside-9_4953_6195" fill="white">
<path d="M41.1758 125C41.1758 133.933 33.9334 141.176 24.9995 141.176C16.0656 141.176 8.82324 133.933 8.82324 125C8.82324 116.066 16.0656 108.823 24.9995 108.823C33.9334 108.823 41.1758 116.066 41.1758 125Z"/>
</mask>
<path d="M24.9995 108.823V110.294C33.1212 110.294 39.7052 116.878 39.7052 125H41.1758H42.6464C42.6464 115.253 34.7456 107.353 24.9995 107.353V108.823ZM8.82324 125H10.2938C10.2938 116.878 16.8778 110.294 24.9995 110.294V108.823V107.353C15.2534 107.353 7.35265 115.253 7.35265 125H8.82324ZM24.9995 141.176V139.705C16.8778 139.705 10.2938 133.121 10.2938 125H8.82324H7.35265C7.35265 134.746 15.2534 142.646 24.9995 142.646V141.176ZM24.9995 141.176V142.646C34.7456 142.646 42.6464 134.746 42.6464 125H41.1758H39.7052C39.7052 133.121 33.1212 139.705 24.9995 139.705V141.176Z" fill="#29BDFC" fill-opacity="0.2" mask="url(#path-41-inside-9_4953_6195)"/>
<path d="M29.4111 125C29.4111 127.436 27.436 129.412 24.9995 129.412C22.563 129.412 20.5879 127.436 20.5879 125C20.5879 122.564 22.563 120.588 24.9995 120.588C27.436 120.588 29.4111 122.564 29.4111 125Z" fill="#29BDFC"/>
<path d="M6.89355 144.522L-0.764648 152.18L-2.17871 150.766L5.47949 143.108L6.89355 144.522ZM52.1738 150.772L50.7705 152.175L43.0254 144.43L44.4287 143.027L52.1738 150.772ZM6.87109 105.474L5.4707 106.875L-2.17285 99.23L-0.773438 97.8296L6.87109 105.474ZM52.0645 99.1265L44.3916 106.798L43.0889 105.496L50.7607 97.8228L52.0645 99.1265Z" fill="#29BDFC" fill-opacity="0.5"/>
<path d="M43.3271 141.924L41.9238 143.327L39.1982 140.603L40.6016 139.199L43.3271 141.924ZM11.0596 140.355L8.18945 143.226L6.77539 141.812L9.64551 138.941L11.0596 140.355ZM43.3408 107.85L40.7305 110.46L39.4277 109.156L42.0371 106.547L43.3408 107.85ZM10.4131 109.016L9.01367 110.415L6.45312 107.854L7.85254 106.455L10.4131 109.016Z" fill="#29BDFC"/>
</g>
<g clip-path="url(#clip9_4953_6195)">
<mask id="path-46-inside-10_4953_6195" fill="white">
<path d="M91.1763 125C91.1763 133.933 83.9334 141.176 74.9995 141.176C66.0656 141.176 58.8228 133.933 58.8228 125C58.8228 116.066 66.0656 108.823 74.9995 108.823C83.9334 108.823 91.1763 116.066 91.1763 125Z"/>
</mask>
<path d="M74.9995 108.823V110.294C83.1213 110.294 89.7057 116.878 89.7057 125H91.1763H92.6469C92.6469 115.253 84.7455 107.353 74.9995 107.353V108.823ZM58.8228 125H60.2933C60.2933 116.878 66.8777 110.294 74.9995 110.294V108.823V107.353C65.2535 107.353 57.3522 115.253 57.3522 125H58.8228ZM74.9995 141.176V139.705C66.8777 139.705 60.2933 133.121 60.2933 125H58.8228H57.3522C57.3522 134.746 65.2535 142.646 74.9995 142.646V141.176ZM74.9995 141.176V142.646C84.7455 142.646 92.6469 134.746 92.6469 125H91.1763H89.7057C89.7057 133.121 83.1213 139.705 74.9995 139.705V141.176Z" fill="#29BDFC" fill-opacity="0.2" mask="url(#path-46-inside-10_4953_6195)"/>
<path d="M79.4121 125C79.4121 127.436 77.4365 129.412 75 129.412C72.5635 129.412 70.5879 127.436 70.5879 125C70.5879 122.564 72.5635 120.588 75 120.588C77.4365 120.588 79.4121 122.564 79.4121 125Z" fill="#29BDFC"/>
<path d="M56.8936 144.522L49.2354 152.18L47.8213 150.766L55.4795 143.108L56.8936 144.522ZM102.174 150.772L100.771 152.175L93.0254 144.43L94.4287 143.027L102.174 150.772ZM56.8711 105.474L55.4707 106.875L47.8271 99.23L49.2266 97.8296L56.8711 105.474ZM102.064 99.1265L94.3916 106.798L93.0889 105.496L100.761 97.8228L102.064 99.1265Z" fill="#29BDFC" fill-opacity="0.5"/>
<path d="M93.3271 141.924L91.9238 143.327L89.1982 140.603L90.6016 139.199L93.3271 141.924ZM61.0596 140.355L58.1895 143.226L56.7754 141.812L59.6455 138.941L61.0596 140.355ZM93.3408 107.85L90.7305 110.46L89.4277 109.156L92.0371 106.547L93.3408 107.85ZM60.4131 109.016L59.0137 110.415L56.4531 107.854L57.8525 106.455L60.4131 109.016Z" fill="#29BDFC"/>
</g>
<g clip-path="url(#clip10_4953_6195)">
<mask id="path-51-inside-11_4953_6195" fill="white">
<path d="M141.176 125C141.176 133.933 133.933 141.176 125 141.176C116.066 141.176 108.823 133.933 108.823 125C108.823 116.066 116.066 108.823 125 108.823C133.933 108.823 141.176 116.066 141.176 125Z"/>
</mask>
<path d="M125 108.823V110.294C133.121 110.294 139.706 116.878 139.706 125H141.176H142.647C142.647 115.253 134.746 107.353 125 107.353V108.823ZM108.823 125H110.293C110.293 116.878 116.878 110.294 125 110.294V108.823V107.353C115.253 107.353 107.352 115.253 107.352 125H108.823ZM125 141.176V139.705C116.878 139.705 110.293 133.121 110.293 125H108.823H107.352C107.352 134.746 115.253 142.646 125 142.646V141.176ZM125 141.176V142.646C134.746 142.646 142.647 134.746 142.647 125H141.176H139.706C139.706 133.121 133.121 139.705 125 139.705V141.176Z" fill="#29BDFC" fill-opacity="0.2" mask="url(#path-51-inside-11_4953_6195)"/>
<path d="M129.412 125C129.412 127.436 127.436 129.412 125 129.412C122.564 129.412 120.588 127.436 120.588 125C120.588 122.564 122.564 120.588 125 120.588C127.436 120.588 129.412 122.564 129.412 125Z" fill="#29BDFC"/>
<path d="M106.894 144.522L99.2354 152.18L97.8213 150.766L105.479 143.108L106.894 144.522ZM152.174 150.772L150.771 152.175L143.025 144.43L144.429 143.027L152.174 150.772ZM106.871 105.474L105.471 106.875L97.8271 99.23L99.2266 97.8296L106.871 105.474ZM152.064 99.1265L144.392 106.798L143.089 105.496L150.761 97.8228L152.064 99.1265Z" fill="#29BDFC" fill-opacity="0.5"/>
<path d="M143.327 141.924L141.924 143.327L139.198 140.603L140.602 139.199L143.327 141.924ZM111.06 140.355L108.189 143.226L106.775 141.812L109.646 138.941L111.06 140.355ZM143.341 107.85L140.73 110.46L139.428 109.156L142.037 106.547L143.341 107.85ZM110.413 109.016L109.014 110.415L106.453 107.854L107.853 106.455L110.413 109.016Z" fill="#29BDFC"/>
</g>
<g clip-path="url(#clip11_4953_6195)">
<mask id="path-56-inside-12_4953_6195" fill="white">
<path d="M191.176 125C191.176 133.933 183.933 141.176 175 141.176C166.066 141.176 158.823 133.933 158.823 125C158.823 116.066 166.066 108.823 175 108.823C183.933 108.823 191.176 116.066 191.176 125Z"/>
</mask>
<path d="M175 108.823V110.294C183.121 110.294 189.706 116.878 189.706 125H191.176H192.647C192.647 115.253 184.746 107.353 175 107.353V108.823ZM158.823 125H160.293C160.293 116.878 166.878 110.294 175 110.294V108.823V107.353C165.253 107.353 157.352 115.253 157.352 125H158.823ZM175 141.176V139.705C166.878 139.705 160.293 133.121 160.293 125H158.823H157.352C157.352 134.746 165.253 142.646 175 142.646V141.176ZM175 141.176V142.646C184.746 142.646 192.647 134.746 192.647 125H191.176H189.706C189.706 133.121 183.121 139.705 175 139.705V141.176Z" fill="#29BDFC" fill-opacity="0.2" mask="url(#path-56-inside-12_4953_6195)"/>
<path d="M179.412 125C179.412 127.436 177.436 129.412 175 129.412C172.564 129.412 170.588 127.436 170.588 125C170.588 122.564 172.564 120.588 175 120.588C177.436 120.588 179.412 122.564 179.412 125Z" fill="#29BDFC"/>
<path d="M156.894 144.522L149.235 152.18L147.821 150.766L155.479 143.108L156.894 144.522ZM202.174 150.772L200.771 152.175L193.025 144.43L194.429 143.027L202.174 150.772ZM156.871 105.474L155.471 106.875L147.827 99.23L149.227 97.8296L156.871 105.474ZM202.064 99.1265L194.392 106.798L193.089 105.496L200.761 97.8228L202.064 99.1265Z" fill="#29BDFC" fill-opacity="0.5"/>
<path d="M193.327 141.924L191.924 143.327L189.198 140.603L190.602 139.199L193.327 141.924ZM161.06 140.355L158.189 143.226L156.775 141.812L159.646 138.941L161.06 140.355ZM193.341 107.85L190.73 110.46L189.428 109.156L192.037 106.547L193.341 107.85ZM160.413 109.016L159.014 110.415L156.453 107.854L157.853 106.455L160.413 109.016Z" fill="#29BDFC"/>
</g>
<g clip-path="url(#clip12_4953_6195)">
<mask id="path-61-inside-13_4953_6195" fill="white">
<path d="M41.1758 175C41.1758 183.933 33.9334 191.176 24.9995 191.176C16.0656 191.176 8.82324 183.933 8.82324 175C8.82324 166.066 16.0656 158.823 24.9995 158.823C33.9334 158.823 41.1758 166.066 41.1758 175Z"/>
</mask>
<path d="M24.9995 158.823V160.294C33.1212 160.294 39.7052 166.878 39.7052 175H41.1758H42.6464C42.6464 165.253 34.7456 157.353 24.9995 157.353V158.823ZM8.82324 175H10.2938C10.2938 166.878 16.8778 160.294 24.9995 160.294V158.823V157.353C15.2534 157.353 7.35265 165.253 7.35265 175H8.82324ZM24.9995 191.176V189.705C16.8778 189.705 10.2938 183.121 10.2938 175H8.82324H7.35265C7.35265 184.746 15.2534 192.646 24.9995 192.646V191.176ZM24.9995 191.176V192.646C34.7456 192.646 42.6464 184.746 42.6464 175H41.1758H39.7052C39.7052 183.121 33.1212 189.705 24.9995 189.705V191.176Z" fill="#29BDFC" fill-opacity="0.2" mask="url(#path-61-inside-13_4953_6195)"/>
<path d="M29.4111 175C29.4111 177.436 27.436 179.412 24.9995 179.412C22.563 179.412 20.5879 177.436 20.5879 175C20.5879 172.564 22.563 170.588 24.9995 170.588C27.436 170.588 29.4111 172.564 29.4111 175Z" fill="#29BDFC"/>
<path d="M6.89355 194.522L-0.764648 202.18L-2.17871 200.766L5.47949 193.108L6.89355 194.522ZM52.1738 200.772L50.7705 202.175L43.0254 194.43L44.4287 193.027L52.1738 200.772ZM6.87109 155.474L5.4707 156.875L-2.17285 149.23L-0.773438 147.83L6.87109 155.474ZM52.0645 149.126L44.3916 156.798L43.0889 155.496L50.7607 147.823L52.0645 149.126Z" fill="#29BDFC" fill-opacity="0.5"/>
<path d="M43.3271 191.924L41.9238 193.327L39.1982 190.603L40.6016 189.199L43.3271 191.924ZM11.0596 190.355L8.18945 193.226L6.77539 191.812L9.64551 188.941L11.0596 190.355ZM43.3408 157.85L40.7305 160.46L39.4277 159.156L42.0371 156.547L43.3408 157.85ZM10.4131 159.016L9.01367 160.415L6.45312 157.854L7.85254 156.455L10.4131 159.016Z" fill="#29BDFC"/>
</g>
<g clip-path="url(#clip13_4953_6195)">
<mask id="path-66-inside-14_4953_6195" fill="white">
<path d="M91.1763 175C91.1763 183.933 83.9334 191.176 74.9995 191.176C66.0656 191.176 58.8228 183.933 58.8228 175C58.8228 166.066 66.0656 158.823 74.9995 158.823C83.9334 158.823 91.1763 166.066 91.1763 175Z"/>
</mask>
<path d="M74.9995 158.823V160.294C83.1213 160.294 89.7057 166.878 89.7057 175H91.1763H92.6469C92.6469 165.253 84.7455 157.353 74.9995 157.353V158.823ZM58.8228 175H60.2933C60.2933 166.878 66.8777 160.294 74.9995 160.294V158.823V157.353C65.2535 157.353 57.3522 165.253 57.3522 175H58.8228ZM74.9995 191.176V189.705C66.8777 189.705 60.2933 183.121 60.2933 175H58.8228H57.3522C57.3522 184.746 65.2535 192.646 74.9995 192.646V191.176ZM74.9995 191.176V192.646C84.7455 192.646 92.6469 184.746 92.6469 175H91.1763H89.7057C89.7057 183.121 83.1213 189.705 74.9995 189.705V191.176Z" fill="#29BDFC" fill-opacity="0.2" mask="url(#path-66-inside-14_4953_6195)"/>
<path d="M79.4121 175C79.4121 177.436 77.4365 179.412 75 179.412C72.5635 179.412 70.5879 177.436 70.5879 175C70.5879 172.564 72.5635 170.588 75 170.588C77.4365 170.588 79.4121 172.564 79.4121 175Z" fill="#29BDFC"/>
<path d="M56.8936 194.522L49.2354 202.18L47.8213 200.766L55.4795 193.108L56.8936 194.522ZM102.174 200.772L100.771 202.175L93.0254 194.43L94.4287 193.027L102.174 200.772ZM56.8711 155.474L55.4707 156.875L47.8271 149.23L49.2266 147.83L56.8711 155.474ZM102.064 149.126L94.3916 156.798L93.0889 155.496L100.761 147.823L102.064 149.126Z" fill="#29BDFC" fill-opacity="0.5"/>
<path d="M93.3271 191.924L91.9238 193.327L89.1982 190.603L90.6016 189.199L93.3271 191.924ZM61.0596 190.355L58.1895 193.226L56.7754 191.812L59.6455 188.941L61.0596 190.355ZM93.3408 157.85L90.7305 160.46L89.4277 159.156L92.0371 156.547L93.3408 157.85ZM60.4131 159.016L59.0137 160.415L56.4531 157.854L57.8525 156.455L60.4131 159.016Z" fill="#29BDFC"/>
</g>
<g clip-path="url(#clip14_4953_6195)">
<mask id="path-71-inside-15_4953_6195" fill="white">
<path d="M141.176 175C141.176 183.933 133.933 191.176 125 191.176C116.066 191.176 108.823 183.933 108.823 175C108.823 166.066 116.066 158.823 125 158.823C133.933 158.823 141.176 166.066 141.176 175Z"/>
</mask>
<path d="M125 158.823V160.294C133.121 160.294 139.706 166.878 139.706 175H141.176H142.647C142.647 165.253 134.746 157.353 125 157.353V158.823ZM108.823 175H110.293C110.293 166.878 116.878 160.294 125 160.294V158.823V157.353C115.253 157.353 107.352 165.253 107.352 175H108.823ZM125 191.176V189.705C116.878 189.705 110.293 183.121 110.293 175H108.823H107.352C107.352 184.746 115.253 192.646 125 192.646V191.176ZM125 191.176V192.646C134.746 192.646 142.647 184.746 142.647 175H141.176H139.706C139.706 183.121 133.121 189.705 125 189.705V191.176Z" fill="#29BDFC" fill-opacity="0.2" mask="url(#path-71-inside-15_4953_6195)"/>
<path d="M129.412 175C129.412 177.436 127.436 179.412 125 179.412C122.564 179.412 120.588 177.436 120.588 175C120.588 172.564 122.564 170.588 125 170.588C127.436 170.588 129.412 172.564 129.412 175Z" fill="#29BDFC"/>
<path d="M106.894 194.522L99.2354 202.18L97.8213 200.766L105.479 193.108L106.894 194.522ZM152.174 200.772L150.771 202.175L143.025 194.43L144.429 193.027L152.174 200.772ZM106.871 155.474L105.471 156.875L97.8271 149.23L99.2266 147.83L106.871 155.474ZM152.064 149.126L144.392 156.798L143.089 155.496L150.761 147.823L152.064 149.126Z" fill="#29BDFC" fill-opacity="0.5"/>
<path d="M143.327 191.924L141.924 193.327L139.198 190.603L140.602 189.199L143.327 191.924ZM111.06 190.355L108.189 193.226L106.775 191.812L109.646 188.941L111.06 190.355ZM143.341 157.85L140.73 160.46L139.428 159.156L142.037 156.547L143.341 157.85ZM110.413 159.016L109.014 160.415L106.453 157.854L107.853 156.455L110.413 159.016Z" fill="#29BDFC"/>
</g>
<g clip-path="url(#clip15_4953_6195)">
<mask id="path-76-inside-16_4953_6195" fill="white">
<path d="M191.176 175C191.176 183.933 183.933 191.176 175 191.176C166.066 191.176 158.823 183.933 158.823 175C158.823 166.066 166.066 158.823 175 158.823C183.933 158.823 191.176 166.066 191.176 175Z"/>
</mask>
<path d="M175 158.823V160.294C183.121 160.294 189.706 166.878 189.706 175H191.176H192.647C192.647 165.253 184.746 157.353 175 157.353V158.823ZM158.823 175H160.293C160.293 166.878 166.878 160.294 175 160.294V158.823V157.353C165.253 157.353 157.352 165.253 157.352 175H158.823ZM175 191.176V189.705C166.878 189.705 160.293 183.121 160.293 175H158.823H157.352C157.352 184.746 165.253 192.646 175 192.646V191.176ZM175 191.176V192.646C184.746 192.646 192.647 184.746 192.647 175H191.176H189.706C189.706 183.121 183.121 189.705 175 189.705V191.176Z" fill="#29BDFC" fill-opacity="0.2" mask="url(#path-76-inside-16_4953_6195)"/>
<path d="M179.412 175C179.412 177.436 177.436 179.412 175 179.412C172.564 179.412 170.588 177.436 170.588 175C170.588 172.564 172.564 170.588 175 170.588C177.436 170.588 179.412 172.564 179.412 175Z" fill="#29BDFC"/>
<path d="M156.894 194.522L149.235 202.18L147.821 200.766L155.479 193.108L156.894 194.522ZM202.174 200.772L200.771 202.175L193.025 194.43L194.429 193.027L202.174 200.772ZM156.871 155.474L155.471 156.875L147.827 149.23L149.227 147.83L156.871 155.474ZM202.064 149.126L194.392 156.798L193.089 155.496L200.761 147.823L202.064 149.126Z" fill="#29BDFC" fill-opacity="0.5"/>
<path d="M193.327 191.924L191.924 193.327L189.198 190.603L190.602 189.199L193.327 191.924ZM161.06 190.355L158.189 193.226L156.775 191.812L159.646 188.941L161.06 190.355ZM193.341 157.85L190.73 160.46L189.428 159.156L192.037 156.547L193.341 157.85ZM160.413 159.016L159.014 160.415L156.453 157.854L157.853 156.455L160.413 159.016Z" fill="#29BDFC"/>
</g>
<defs>
<clipPath id="clip0_4953_6195">
<rect width="50" height="50" fill="white"/>
</clipPath>
<clipPath id="clip1_4953_6195">
<rect width="50" height="50" fill="white" transform="translate(50)"/>
</clipPath>
<clipPath id="clip2_4953_6195">
<rect width="50" height="50" fill="white" transform="translate(100)"/>
</clipPath>
<clipPath id="clip3_4953_6195">
<rect width="50" height="50" fill="white" transform="translate(150)"/>
</clipPath>
<clipPath id="clip4_4953_6195">
<rect width="50" height="50" fill="white" transform="translate(0 50)"/>
</clipPath>
<clipPath id="clip5_4953_6195">
<rect width="50" height="50" fill="white" transform="translate(50 50)"/>
</clipPath>
<clipPath id="clip6_4953_6195">
<rect width="50" height="50" fill="white" transform="translate(100 50)"/>
</clipPath>
<clipPath id="clip7_4953_6195">
<rect width="50" height="50" fill="white" transform="translate(150 50)"/>
</clipPath>
<clipPath id="clip8_4953_6195">
<rect width="50" height="50" fill="white" transform="translate(0 100)"/>
</clipPath>
<clipPath id="clip9_4953_6195">
<rect width="50" height="50" fill="white" transform="translate(50 100)"/>
</clipPath>
<clipPath id="clip10_4953_6195">
<rect width="50" height="50" fill="white" transform="translate(100 100)"/>
</clipPath>
<clipPath id="clip11_4953_6195">
<rect width="50" height="50" fill="white" transform="translate(150 100)"/>
</clipPath>
<clipPath id="clip12_4953_6195">
<rect width="50" height="50" fill="white" transform="translate(0 150)"/>
</clipPath>
<clipPath id="clip13_4953_6195">
<rect width="50" height="50" fill="white" transform="translate(50 150)"/>
</clipPath>
<clipPath id="clip14_4953_6195">
<rect width="50" height="50" fill="white" transform="translate(100 150)"/>
</clipPath>
<clipPath id="clip15_4953_6195">
<rect width="50" height="50" fill="white" transform="translate(150 150)"/>
</clipPath>
</defs>
</svg>
