<svg width="200" height="200" viewBox="0 0 200 200" fill="none" xmlns="http://www.w3.org/2000/svg">
<rect x="4.16653" y="4.16653" width="90.4762" height="90.4762" stroke="#29BDFC" stroke-width="1.19048" stroke-dasharray="23.81 119.05"/>
<path d="M7.14258 17.8569H4.76172V80.9526H7.14258V82.1431H3.57129V16.6665H7.14258V17.8569ZM95.2383 82.1431H91.666V80.9526H94.0479V17.8569H91.666V16.6665H95.2383V82.1431Z" fill="#29BDFC" fill-opacity="0.4"/>
<path d="M80.9526 7.14258L80.9526 4.76172L17.8569 4.76172L17.8569 7.14258L16.6665 7.14258L16.6665 3.57129L82.1431 3.57129L82.1431 7.14258L80.9526 7.14258ZM16.6665 95.2383L16.6665 91.667L17.8569 91.667L17.8569 94.0478L80.9526 94.0479L80.9526 91.667L82.1431 91.667L82.1431 95.2383L16.6665 95.2383Z" fill="#29BDFC" fill-opacity="0.4"/>
<rect x="96.4287" y="16.6665" width="2.38095" height="1.19048" fill="#29BDFC"/>
<rect x="96.4287" y="80.9521" width="2.38095" height="1.19048" fill="#29BDFC"/>
<rect y="16.6665" width="2.38095" height="1.19048" fill="#29BDFC"/>
<rect y="80.9521" width="2.38095" height="1.19048" fill="#29BDFC"/>
<rect x="82.1431" y="96.4287" width="2.38095" height="1.19048" transform="rotate(90 82.1431 96.4287)" fill="#29BDFC"/>
<rect x="17.8569" y="96.4287" width="2.38095" height="1.19048" transform="rotate(90 17.8569 96.4287)" fill="#29BDFC"/>
<rect x="82.1431" width="2.38095" height="1.19048" transform="rotate(90 82.1431 0)" fill="#29BDFC"/>
<rect x="17.8569" width="2.38095" height="1.19048" transform="rotate(90 17.8569 0)" fill="#29BDFC"/>
<rect x="4.16653" y="104.167" width="90.4762" height="90.4762" stroke="#29BDFC" stroke-width="1.19048" stroke-dasharray="23.81 119.05"/>
<path d="M7.14258 117.857H4.76172V180.953H7.14258V182.143H3.57129V116.667H7.14258V117.857ZM95.2383 182.143H91.666V180.953H94.0479V117.857H91.666V116.667H95.2383V182.143Z" fill="#29BDFC" fill-opacity="0.4"/>
<path d="M80.9526 107.143L80.9526 104.762L17.8569 104.762L17.8569 107.143L16.6665 107.143L16.6665 103.571L82.1431 103.571L82.1431 107.143L80.9526 107.143ZM16.6665 195.238L16.6665 191.667L17.8569 191.667L17.8569 194.048L80.9526 194.048L80.9526 191.667L82.1431 191.667L82.1431 195.238L16.6665 195.238Z" fill="#29BDFC" fill-opacity="0.4"/>
<rect x="96.4287" y="116.667" width="2.38095" height="1.19048" fill="#29BDFC"/>
<rect x="96.4287" y="180.952" width="2.38095" height="1.19048" fill="#29BDFC"/>
<rect y="116.667" width="2.38095" height="1.19048" fill="#29BDFC"/>
<rect y="180.952" width="2.38095" height="1.19048" fill="#29BDFC"/>
<rect x="82.1431" y="196.429" width="2.38095" height="1.19048" transform="rotate(90 82.1431 196.429)" fill="#29BDFC"/>
<rect x="17.8569" y="196.429" width="2.38095" height="1.19048" transform="rotate(90 17.8569 196.429)" fill="#29BDFC"/>
<rect x="82.1431" y="100" width="2.38095" height="1.19048" transform="rotate(90 82.1431 100)" fill="#29BDFC"/>
<rect x="17.8569" y="100" width="2.38095" height="1.19048" transform="rotate(90 17.8569 100)" fill="#29BDFC"/>
<rect x="104.167" y="4.16653" width="90.4762" height="90.4762" stroke="#29BDFC" stroke-width="1.19048" stroke-dasharray="23.81 119.05"/>
<path d="M107.143 17.8569H104.762V80.9526H107.143V82.1431H103.571V16.6665H107.143V17.8569ZM195.238 82.1431H191.667V80.9526H194.048V17.8569H191.667V16.6665H195.238V82.1431Z" fill="#29BDFC" fill-opacity="0.4"/>
<path d="M180.953 7.14258L180.953 4.76172L117.857 4.76172L117.857 7.14258L116.667 7.14258L116.667 3.57129L182.143 3.57129L182.143 7.14258L180.953 7.14258ZM116.666 95.2383L116.667 91.667L117.857 91.667L117.857 94.0478L180.953 94.0479L180.953 91.667L182.143 91.667L182.143 95.2383L116.666 95.2383Z" fill="#29BDFC" fill-opacity="0.4"/>
<rect x="196.429" y="16.6665" width="2.38095" height="1.19048" fill="#29BDFC"/>
<rect x="196.429" y="80.9521" width="2.38095" height="1.19048" fill="#29BDFC"/>
<rect x="100" y="16.6665" width="2.38095" height="1.19048" fill="#29BDFC"/>
<rect x="100" y="80.9521" width="2.38095" height="1.19048" fill="#29BDFC"/>
<rect x="182.143" y="96.4287" width="2.38095" height="1.19048" transform="rotate(90 182.143 96.4287)" fill="#29BDFC"/>
<rect x="117.857" y="96.4287" width="2.38095" height="1.19048" transform="rotate(90 117.857 96.4287)" fill="#29BDFC"/>
<rect x="182.143" width="2.38095" height="1.19048" transform="rotate(90 182.143 0)" fill="#29BDFC"/>
<rect x="117.857" width="2.38095" height="1.19048" transform="rotate(90 117.857 0)" fill="#29BDFC"/>
<rect x="104.167" y="104.167" width="90.4762" height="90.4762" stroke="#29BDFC" stroke-width="1.19048" stroke-dasharray="23.81 119.05"/>
<path d="M107.143 117.857H104.762V180.953H107.143V182.143H103.571V116.667H107.143V117.857ZM195.238 182.143H191.667V180.953H194.048V117.857H191.667V116.667H195.238V182.143Z" fill="#29BDFC" fill-opacity="0.4"/>
<path d="M180.953 107.143L180.953 104.762L117.857 104.762L117.857 107.143L116.667 107.143L116.667 103.571L182.143 103.571L182.143 107.143L180.953 107.143ZM116.666 195.238L116.667 191.667L117.857 191.667L117.857 194.048L180.953 194.048L180.953 191.667L182.143 191.667L182.143 195.238L116.666 195.238Z" fill="#29BDFC" fill-opacity="0.4"/>
<rect x="196.429" y="116.667" width="2.38095" height="1.19048" fill="#29BDFC"/>
<rect x="196.429" y="180.952" width="2.38095" height="1.19048" fill="#29BDFC"/>
<rect x="100" y="116.667" width="2.38095" height="1.19048" fill="#29BDFC"/>
<rect x="100" y="180.952" width="2.38095" height="1.19048" fill="#29BDFC"/>
<rect x="182.143" y="196.429" width="2.38095" height="1.19048" transform="rotate(90 182.143 196.429)" fill="#29BDFC"/>
<rect x="117.857" y="196.429" width="2.38095" height="1.19048" transform="rotate(90 117.857 196.429)" fill="#29BDFC"/>
<rect x="182.143" y="100" width="2.38095" height="1.19048" transform="rotate(90 182.143 100)" fill="#29BDFC"/>
<rect x="117.857" y="100" width="2.38095" height="1.19048" transform="rotate(90 117.857 100)" fill="#29BDFC"/>
</svg>
